<?xml version="1.0" encoding="UTF-8"?>
<svg id="Layer_2" data-name="Layer 2" xmlns="http://www.w3.org/2000/svg" viewBox="0 0 656.32 372.8">
  <defs>
    <style>
      .cls-1 {
        fill: #2c88c9;
      }

      .cls-2 {
        fill: #77cddd;
      }

      .cls-3 {
        fill: #ef6da5;
      }

      .cls-4 {
        fill: #0e9acc;
      }

      .cls-5 {
        fill: #562512;
        fill-rule: evenodd;
        opacity: .26;
      }

      .cls-6 {
        fill: #dcdcd8;
      }

      .cls-7 {
        fill: #f1ecd8;
      }

      .cls-8 {
        fill: #716eb2;
      }

      .cls-9 {
        fill: #2db575;
      }

      .cls-10 {
        fill: #ef5023;
      }

      .cls-11 {
        fill: #ffcc18;
      }
    </style>
  </defs>
  <g id="Layer_1-2" data-name="Layer 1">
    <g>
      <rect class="cls-7" width="656.32" height="372.8"/>
      <polygon class="cls-5" points="9.76 7.45 318.51 7.45 183.95 203.11 187.03 315.94 75.69 367.45 9.24 305.93 9.76 7.45"/>
      <g>
        <g>
          <path class="cls-6" d="M434.82,126.94c-4.45,0-8.84-.22-13.21-.66-23.63-2.39-44.59-10.87-66.77-19.84-41.65-16.85-78.5-2.57-108.11,8.91-3.2,1.24-6.22,2.41-9.22,3.53-.59.22-1.24-.08-1.46-.66-.22-.58.08-1.24.66-1.46,2.99-1.12,6-2.29,9.19-3.53,29.98-11.62,67.29-26.09,109.77-8.9,44.75,18.11,80.1,32.41,147.25,5.09,19.58-8.35,37.45-12.06,56.2-11.67,22.05.45,45.56,6.68,71.89,19.04.57.27.81.94.54,1.5-.27.57-.94.81-1.5.54-60.16-28.24-97.59-19.55-126.26-7.33-25.61,10.42-47.88,15.43-68.99,15.43Z"/>
          <path class="cls-6" d="M434.82,139.38c-4.45,0-8.84-.22-13.21-.66-23.63-2.39-44.59-10.87-66.77-19.84-41.65-16.85-78.5-2.57-108.11,8.91-3.2,1.24-6.22,2.41-9.22,3.53-.59.22-1.24-.08-1.46-.66-.22-.58.08-1.24.66-1.46,2.99-1.12,6-2.29,9.19-3.53,29.98-11.62,67.29-26.09,109.77-8.9,44.75,18.11,80.1,32.41,147.25,5.09,19.58-8.35,37.45-12.06,56.2-11.67,22.05.45,45.56,6.68,71.89,19.04.57.27.81.94.54,1.5-.27.57-.94.81-1.5.54-60.16-28.24-97.59-19.55-126.26-7.33-25.61,10.42-47.88,15.43-68.99,15.43Z"/>
          <path class="cls-6" d="M434.82,151.82c-4.45,0-8.84-.22-13.21-.66-23.63-2.39-44.59-10.87-66.77-19.84-41.65-16.85-78.5-2.57-108.11,8.91-3.2,1.24-6.22,2.41-9.22,3.53-.59.22-1.24-.08-1.46-.66-.22-.58.08-1.24.66-1.46,2.99-1.12,6-2.29,9.19-3.53,29.98-11.62,67.29-26.09,109.77-8.9,44.75,18.11,80.1,32.41,147.25,5.09,19.58-8.35,37.45-12.06,56.2-11.67,22.05.45,45.56,6.68,71.89,19.04.57.27.81.94.54,1.5-.27.57-.94.81-1.5.54-60.16-28.24-97.59-19.55-126.26-7.33-25.61,10.42-47.88,15.43-68.99,15.43Z"/>
          <path class="cls-6" d="M434.82,164.25c-4.45,0-8.84-.22-13.21-.66-23.63-2.39-44.59-10.87-66.77-19.84-41.65-16.85-78.5-2.57-108.11,8.91-3.2,1.24-6.22,2.41-9.22,3.53-.59.22-1.24-.08-1.46-.66-.22-.58.08-1.24.66-1.46,2.99-1.12,6-2.29,9.19-3.53,29.98-11.62,67.29-26.09,109.77-8.9,44.75,18.11,80.1,32.41,147.25,5.09,19.58-8.35,37.45-12.06,56.2-11.67,22.05.45,45.56,6.68,71.89,19.04.57.27.81.94.54,1.5-.27.57-.94.81-1.5.54-60.16-28.24-97.59-19.55-126.26-7.33-25.61,10.42-47.88,15.43-68.99,15.43Z"/>
        </g>
        <g>
          <path class="cls-3" d="M416.37,125.35l-2.46,15.48c-.88-1.32-2.7-2.39-4.91-2.73-3.36-.52-6.36.84-6.69,3.03-.34,2.19,2.11,4.39,5.47,4.9,3.36.51,6.35-.84,6.69-3.03.03-.23.03-.46,0-.68l2.27-10.06,6.28,3.77,1.95-5.12s-6.45-3.16-8.62-5.56Z"/>
          <path class="cls-9" d="M349.68,103.77l4.78,14.93c-1.38-.78-3.48-.92-5.62-.23-3.24,1.05-5.3,3.61-4.61,5.72.68,2.11,3.86,2.97,7.09,1.92,3.23-1.05,5.29-3.61,4.61-5.72-.08-.22-.18-.42-.3-.61l-2.5-10.01,7.31.53-.56-5.45s-7.18.09-10.2-1.08Z"/>
          <path class="cls-1" d="M605.57,122.32l11.75,10.38c-1.59.04-3.46,1-4.94,2.68-2.24,2.56-2.7,5.82-1.03,7.27,1.67,1.46,4.83.57,7.07-1.99,2.23-2.56,2.7-5.81,1.03-7.27-.18-.15-.37-.27-.57-.37l-7.28-7.32,6.55-3.28-3.27-4.39s-6.13,3.75-9.31,4.29Z"/>
          <path class="cls-2" d="M564.84,101.96l4.78,14.93c-1.38-.78-3.48-.92-5.62-.23-3.24,1.05-5.3,3.61-4.61,5.72.68,2.11,3.86,2.97,7.09,1.92,3.23-1.05,5.29-3.61,4.61-5.72-.08-.22-.18-.42-.3-.61l-2.5-10.01,7.31.53-.56-5.45s-7.18.09-10.2-1.08Z"/>
          <path class="cls-11" d="M478.69,107.42c-1.31.16-11.55,1.37-14.08.33l4.12,13.59c-1.25-.72-3.14-.88-5.08-.28-2.94.91-4.85,3.2-4.26,5.11.59,1.92,3.46,2.74,6.4,1.83,2.94-.91,4.84-3.19,4.25-5.11-.06-.2-.15-.39-.26-.56l-2.12-9.09,10.53-.81,2.36,7.81c-1.24-.72-3.14-.88-5.08-.28-2.94.91-4.84,3.19-4.25,5.11.59,1.92,3.46,2.74,6.39,1.83,2.94-.91,4.85-3.2,4.26-5.12-.06-.2-.15-.38-.26-.55l-2.91-13.8Z"/>
          <path class="cls-10" d="M322.59,133.69c-1.24-.43-10.99-3.79-12.82-5.83l-2.21,14.02c-.81-1.2-2.45-2.16-4.45-2.47-3.04-.46-5.76.77-6.06,2.75-.3,1.98,1.92,3.97,4.97,4.43,3.04.46,5.75-.77,6.05-2.75.03-.2.03-.41.01-.62l2.05-9.11,9.83,3.86-1.27,8.05c-.8-1.19-2.44-2.16-4.45-2.47-3.04-.46-5.75.77-6.06,2.75-.3,1.98,1.92,3.97,4.96,4.43,3.05.46,5.76-.77,6.06-2.76.03-.2.03-.41,0-.61l3.39-13.69Z"/>
          <path class="cls-8" d="M519.58,128.97c-1.24.45-10.94,3.94-13.64,3.5l7.08,12.31c-1.38-.42-3.26-.15-5.02.87-2.66,1.55-4,4.21-3,5.94,1.01,1.73,3.99,1.88,6.65.34,2.66-1.54,3.99-4.2,2.99-5.94-.1-.18-.24-.34-.38-.49l-4.12-8.38,10.08-3.16,4.06,7.07c-1.37-.42-3.25-.15-5.01.87-2.66,1.54-4,4.21-2.99,5.94,1.01,1.73,3.98,1.89,6.64.34,2.66-1.55,4-4.21,2.99-5.95-.11-.18-.24-.34-.38-.48l-5.95-12.79Z"/>
          <path class="cls-4" d="M256.86,128.08c-2.23-2.94-2.77-10.06,2.85-10.9,5.61-.84,9.89,9.69,3.24,14.71-6.65,5.02-14.86,1-15.67-5.2-.68-5.16,4.68-11.7,6.42-15.64,1.75-3.94,2.38-8.23.39-9.26-1.5-.79-5.31,1.34.55,12.72,5.86,11.39,12.96,20.84,10.38,25.4-2.38,4.2-7.83,4.21-10.16.95-2.33-3.27,1.82-6.58,3.94-5.26,2.11,1.32.67,4.38-.34,4.72,2.29.79,5.52-1.37,5.11-3.97-.68-4.29-10.58-20.83-13.11-25.91-3.14-6.32-1.21-10.81,2.29-12.08,3.49-1.27,7.58,5.2,3.96,12.84-3.61,7.65-7.04,8.39-6.37,14.47.53,4.9,6.25,6.61,9.27,5.57,3.02-1.04,5.47-4.44,3.84-7.76-2.09-4.27-7.54-2.46-6.59,4.6Z"/>
        </g>
      </g>
    </g>
  </g>
</svg>