<?xml version="1.0" encoding="UTF-8"?>
<svg id="Layer_2" data-name="Layer 2" xmlns="http://www.w3.org/2000/svg" viewBox="0 0 183.31 279.66">
  <defs>
    <style>
      .cls-1 {
        fill: #eaad85;
      }

      .cls-2 {
        fill: #005d81;
      }

      .cls-3 {
        fill: #f8dab0;
      }

      .cls-4 {
        fill: #fbd3c4;
      }

      .cls-5 {
        fill: #f6f8f8;
      }

      .cls-6 {
        fill: #d7d8da;
      }

      .cls-7 {
        fill: #e2a268;
      }

      .cls-8 {
        fill: #00709a;
      }

      .cls-9 {
        fill: #fff;
      }

      .cls-10 {
        fill: #824025;
      }

      .cls-11 {
        fill: #197d5b;
      }

      .cls-12 {
        fill: #f48f87;
      }

      .cls-13 {
        fill: #434445;
      }

      .cls-14 {
        fill: #4d1f1c;
      }

      .cls-15 {
        fill: #2a6fb2;
      }

      .cls-16 {
        fill: #1885b5;
      }

      .cls-17 {
        fill: #72312d;
      }

      .cls-18 {
        fill: #434345;
      }

      .cls-19 {
        fill: #562512;
      }

      .cls-20 {
        fill: #6b4432;
      }

      .cls-21 {
        fill: #ce7754;
      }

      .cls-22 {
        fill: #712914;
      }

      .cls-23 {
        fill: #d5956a;
      }

      .cls-24 {
        fill: #fbc6a4;
      }

      .cls-25 {
        fill: #ec756c;
      }

      .cls-26 {
        fill: #f8af9a;
      }

      .cls-27 {
        fill: #393a3a;
      }

      .cls-28 {
        fill: #f7b0ad;
      }

      .cls-29 {
        fill: #321514;
      }

      .cls-30 {
        fill: #3b9bc6;
      }

      .cls-31 {
        fill: #2b2c2c;
      }

      .cls-32 {
        fill: #80403c;
      }

      .cls-33 {
        fill: #fcd8c1;
      }
    </style>
  </defs>
  <g id="Layer_1-2" data-name="Layer 1">
    <g>
      <path class="cls-1" d="M86.97,153.45c-1.09,2.39-7.03,11.19-28.15-4.89-.86,1.39-2.74,3.79-2.74,3.79,0,0,23.69,21.94,35.59,3.88-1.29-1.92-4.71-2.78-4.71-2.78Z"/>
      <g>
        <path class="cls-1" d="M55.6,153.15s-4.71-1.1-3.7-3.4c1.02-2.31,3.99,1.25,3.99,1.25l-.29,2.15Z"/>
        <g>
          <path class="cls-24" d="M54.7,151.39c-.45-2.17,1.2-4.89,2.98-4.71.85.09,1.48,1.02,1.18,2.02,2.09-2.28,4.03-.3,3.6,1.39,1.43-1.2,2.89.58,2.65,1.68-.34,1.52-1.18,2.93-3.09,3.42-2.06.54-6.64-.52-7.32-3.8Z"/>
          <path class="cls-21" d="M57.14,152.67c.05-.03.09-.07.12-.14,0,0,.26-.82,1.8-3.73.06-.1.02-.24-.09-.3-.11-.05-.24-.01-.3.09-1.58,2.97-1.83,3.78-1.84,3.81-.03.11.03.24.15.28.05.02.11,0,.16-.01Z"/>
          <path class="cls-21" d="M60,154.4s.05-.03.07-.05c.07-.08,1.81-2.09,2.6-4.18.05-.11-.01-.24-.12-.29-.12-.04-.25.02-.29.13-.76,2.02-2.5,4.03-2.52,4.05-.08.09-.07.23.02.31.07.06.17.07.24.03Z"/>
        </g>
      </g>
      <g>
        <path class="cls-2" d="M101.82,158.97c1.34-7.04,2.6-14.81-2.26-14.96-3.3-.1-9.61,3.77-12.24,10.28,4.97,5.17,14.5,4.68,14.5,4.68Z"/>
        <g>
          <path class="cls-24" d="M93.53,215.66c-12.81,6.65-13.47,39.73-5.2,50.55-.98,1.68-3.49,3.32-4.5,2.43-5.23-6.1-13.93-40.8,4.42-56.68,2.21-.68,5.28,3.69,5.28,3.69Z"/>
          <path class="cls-1" d="M80.06,225.19s.65-1.89,1.4-3.54c2.05.64,5.15,1.76,5.15,1.76,0,0-.99,1.65-1.83,3.98-.65-3.35-1.5-4.72-4.72-2.21Z"/>
        </g>
        <g>
          <path class="cls-24" d="M85.03,212.33c-14.41.68-28.83,30.47-25.84,43.75-1.6,1.11-4.56,1.55-5.1.34-2.21-7.73,4.38-42.89,27.68-49.65,2.3.31,3.26,5.56,3.26,5.56Z"/>
          <path class="cls-1" d="M69.28,214.91s1.33-1.51,2.65-2.72c1.64,1.36,4.09,3.6,4.09,3.6,0,0-1.54,1.14-3.21,2.98.68-3.35.42-4.93-3.52-3.86Z"/>
        </g>
        <g>
          <g>
            <path class="cls-27" d="M114.36,214.85c-6.13,4.42-48.52-6.86-52.54,32.96-3.37,1.88-8.71.81-11.54-2.34-.13-36.56,33.41-53.1,45.29-52.93,26.55-3.22,29.29,14.73,18.79,22.31Z"/>
            <path class="cls-31" d="M87.37,217.57s-8.48,2.75-12.51,4.5c3.1-7.35,7.99-8.17,4.64-12.12-1.94-2.29-6.45-.65-11.28-4,5.23-2.83,16.1-9.51,16.1-9.51l16.45,5.67-10.89,16.45-2.51-.98Z"/>
            <path class="cls-13" d="M129.18,212.52c-4.92,5.74-48.78,4.72-43.33,44.38-2.83,2.62-8.28,2.83-11.76.44-8.71-35.51,20-59.46,31.59-62.09,14.75-5.52,23.2-4.23,25.94,1.64,1.91,4.1,1.04,11.59-2.43,15.64Z"/>
            <path class="cls-18" d="M130.41,194.94c.66,2.73,3.27,16.18-7.16,18.45,4.17-3.41,1.39-7.47-5.7-7.69-7.08-.22-18.63-1.2-22.33-4.03,2.72-3.05,5.01-3.49,5.01-3.49l30.17-3.25Z"/>
          </g>
          <path class="cls-15" d="M89.48,223.94c-.06-.07-.12-.14-.17-.22.04.08.11.15.17.22Z"/>
        </g>
        <path class="cls-24" d="M103.22,136.77l.11,5.51s-.41,0-3.11.72c-2.7.71-1.95,12.8,5.72,12.17,7.67-.62,7.57-11.27,7.57-11.27l-4.97-1.49-.8-6.13-4.51.49Z"/>
        <path class="cls-1" d="M103.32,142.28l-.11-5.51,4.51-.49.8,6.13.09.03c-.95.71-2.13,1.2-3.6,1.31-1.55.13-1.69-1.47-1.69-1.47Z"/>
        <g>
          <path class="cls-16" d="M101.2,142.76c-.38,5.28,8.04,9.64,11.68.6,3.58,1.1,5.27,2.69,7.83,7.58,1.1,2.1,6.53,29.41,11.64,44.24-9.43,9.54-33.19,8.49-50.22.23,2.51-16.02,3.46-25.87,8.06-40.61,1.02-4.36,5.8-11.52,11.01-12.04Z"/>
          <path class="cls-8" d="M82.33,194.1c.28-1.82.55-3.59.8-5.27,22.83-7.11,24.94-20.86,28.79-29.2,0,0,4.53-.47,6.09,1.8-8.87,26.17-19.7,30.23-35.68,32.68Z"/>
          <path class="cls-8" d="M120.18,158.54s3.29,18.84,9.76,35.26c-13.5,7.82-35.3,6.24-44.89.15,17.29,1.05,34.41-.24,35.57-8.26,1.15-8.03-.43-27.15-.43-27.15Z"/>
          <path class="cls-2" d="M101.87,142.52s-.98,4.18,3.46,4.52c4.44.34,7-3.98,7-3.98l1.88.77s-2.94,5.59-9.37,4.96c-6.43-.62-4.86-5.88-4.86-5.88l1.9-.38Z"/>
          <path class="cls-11" d="M82.3,194.79s10.67,6.13,21.1,6.64c14.29.69,23.51-2.72,28.9-6.57.55,1.23.75,2.08.75,2.08,0,0-13.86,8.98-30.56,6.57-14.83-2.14-20.93-6.99-20.93-6.99l.75-1.74Z"/>
        </g>
        <g>
          <path class="cls-6" d="M88.04,265.99c.54.24,1.26,1.99,1.09,2.72-.84,2.94-3.62,7.7-8.35,9.77-3.46,1.53-7.49,1.54-8.82.17-.39-.41-1.19-1.57-.69-2.81,4.09-4.44,16.77-9.86,16.77-9.86Z"/>
          <path class="cls-16" d="M85.96,261.84s-.87,3.46-2.17,3.35c.39-1.33-.66-3.56-2.47-3.18-1.8.37-.81,2.99-.81,2.99,0,0-2.84-.8-6.7,1.84-3.87,2.64-3.51,7.96-2.53,9,1.3.86,5.59.97,10.02-1.36,4.42-2.33,6.19-6.79,6.6-7.47.42-.67.43-2.03-.36-2.78-.8-.74-.46-2.81-1.57-2.39Z"/>
          <path class="cls-30" d="M74.95,267.23c-1.8.16-4.58,4.71-2.15,5.81,2.43,1.1,7.49-1.91,7.49-1.91,0,0-4.7,1.4-4.96-.9-.1-.87,1.16-3.13-.38-3Z"/>
          <path class="cls-5" d="M79.56,266.93c-.11.04-.23.03-.34-.04-2.1-1.33-3.2.23-3.25.31-.12.17-.35.21-.52.09-.17-.12-.21-.34-.09-.52.01-.01,1.55-2.23,4.26-.51.18.1.22.34.12.51-.05.08-.11.13-.18.16Z"/>
          <path class="cls-5" d="M76.43,268.86c-.11.03-.23.03-.33-.03-2.1-1.35-3.2.23-3.25.3-.12.17-.35.22-.52.1-.17-.12-.21-.35-.1-.52.02-.02,1.56-2.23,4.27-.52.16.11.22.34.11.52-.05.07-.11.11-.19.15Z"/>
        </g>
        <g>
          <path class="cls-6" d="M59.34,256.76c.39.44.32,2.33-.14,2.93-1.99,2.31-6.5,5.48-11.67,5.39-3.79-.06-7.45-1.73-8.09-3.54-.19-.53-.42-1.92.56-2.83,5.57-2.33,19.35-1.96,19.35-1.96Z"/>
          <path class="cls-16" d="M59.18,252.12s-2.23,2.78-3.38,2.13c.92-1.05.88-3.51-.91-3.92-1.79-.41-1.99,2.38-1.99,2.38,0,0-2.24-1.91-6.86-1.13-4.61.78-6.51,5.76-6.05,7.13.82,1.32,4.67,3.22,9.67,2.95,4.99-.27,8.46-3.6,9.12-4.03.67-.45,1.24-1.66.83-2.68-.42-1.01.76-2.75-.42-2.83Z"/>
          <path class="cls-30" d="M46.93,252.42c-1.7-.61-6.12,2.36-4.38,4.38,1.74,2.02,7.61,1.39,7.61,1.39,0,0-4.86-.7-4.14-2.9.27-.82,2.37-2.35.91-2.87Z"/>
          <path class="cls-5" d="M51.24,254.07c-.11,0-.22-.06-.28-.17-1.36-2.09-3.01-1.12-3.09-1.08-.18.11-.4.05-.51-.13-.1-.18-.05-.41.13-.52.02-.01,2.35-1.38,4.1,1.31.12.17.07.41-.11.51-.07.04-.15.07-.23.06Z"/>
          <path class="cls-5" d="M47.6,254.52c-.12,0-.22-.07-.29-.17-1.35-2.09-3.01-1.12-3.07-1.08-.18.1-.41.05-.51-.13-.11-.17-.05-.41.12-.51.03-.01,2.35-1.38,4.1,1.32.11.17.07.4-.11.51-.07.05-.15.07-.23.06Z"/>
        </g>
        <g>
          <g>
            <g>
              <path class="cls-24" d="M50.35,72.71c-2.83,16.62,3.36,64.44,49.09,68.72,45.5,4.25,64.82-29.76,66.78-61.22,2.36-37.96-29.98-56.4-56.29-56.06-41.07.54-55.79,26.3-59.58,48.57Z"/>
              <path class="cls-26" d="M79.08,102.88c.5,3.98-4.85,7.84-11.04,7.23-6.2-.63-10.06-4.97-10.36-9.76-.28-4.36,4.66-8.63,11.18-5.11,6.1,3.31,9.71,3.51,10.22,7.63Z"/>
              <path class="cls-4" d="M62.48,98.73c.04.52-.47.99-1.15,1.06-.68.06-1.27-.31-1.31-.84-.04-.51.46-.99,1.14-1.06.67-.06,1.26.32,1.31.84Z"/>
              <path class="cls-33" d="M98.16,94.46c.05.52-.57,1.01-1.37,1.07-.79.08-1.48-.28-1.52-.81-.05-.51.56-1,1.36-1.08.8-.07,1.49.3,1.54.81Z"/>
              <path class="cls-26" d="M144.04,97.07c.29,5.47-4.54,9.78-11.6,10.84-6.82,1.02-14.28-3.43-13.55-8.62.67-4.94,4.58-3.63,12.22-7.31,7.37-3.57,12.63-.37,12.93,5.09Z"/>
              <path class="cls-4" d="M138.92,94.74c.03.51-.48.94-1.11.97-.65.03-1.2-.34-1.22-.84-.02-.49.47-.93,1.12-.97.66-.03,1.2.35,1.22.83Z"/>
              <path class="cls-22" d="M69.51,67.59c5.75-3.27,8.72,3.22,4.62,4.24-4.4,1.1-7.7,3.6-8.34,3.31-1.45-.63.48-5.71,3.72-7.55Z"/>
              <path class="cls-22" d="M128.81,62.75c-6.13-2.51-8.24,4.31-4.04,4.79,4.5.53,8.08,2.59,8.7,2.21,1.35-.81-1.22-5.59-4.66-7Z"/>
            </g>
            <g>
              <path class="cls-14" d="M85.1,108.21s2,23.77,18.9,22.84c16.9-.93,10.41-23.59,10.41-23.59,0,0-11.48,5.3-29.31.76Z"/>
              <path class="cls-29" d="M101.37,109.99c1.52,5.69,4.89,13.5,12.14,15.88,4.19-6.96.91-18.42.91-18.42,0,0-4.82,2.21-13.04,2.54Z"/>
              <path class="cls-25" d="M93.3,127.33c2.65,2.4,6.12,3.96,10.7,3.72,8.35-.46,10.99-6.24,11.52-11.96-.83-.93-3.68-1.55-6.02.23-3.72-3.88-13.25,1.66-16.2,8.01Z"/>
              <path class="cls-12" d="M112.6,119.18c-1.35-.25-2.84.41-3.44.97-.73-.83-1.85-1.69-4.3-1.23-6.1,1.08-12.14,9.03-3.74,10.32,8.5,1.3,16.49-9.15,11.48-10.06Z"/>
              <path class="cls-28" d="M100.21,122.4c.99-1.58,4-3.11,5.07-2.48,1.29.74-1.13,2.95-2.89,3.6-1.79.66-2.83-.11-2.19-1.11Z"/>
              <path class="cls-9" d="M90.37,109.29c-.13,2.56.67,4.34,4.17,4.94,3.26.57,7.86.5,10.93-.15,3.67-.77,5.15-2.75,4.44-5.22-6.27,1.24-11.42,1.63-19.53.42Z"/>
            </g>
            <path class="cls-21" d="M97.78,100.96c-.07.04-.14.06-.23.03-2.31-.54-3.76-2.14-3.89-4.28-.11-1.98.98-3.88,2.56-4.47.97-.35,2.94-.49,5.19,2.57.1.14.07.33-.06.43-.15.12-.33.08-.43-.06-1.5-2.03-3.09-2.87-4.49-2.36-1.34.47-2.24,2.13-2.14,3.84.04.89.49,3.03,3.4,3.72.16.04.27.2.23.37-.02.08-.07.15-.14.2Z"/>
            <path class="cls-20" d="M127.58,85.21c.25-.14.38-.43.32-.72-1.47-6.51-7.19-9.87-11.61-8.93-2.91.62-5.62,3.28-4.49,8.88.07.36.42.6.78.52.35-.07.59-.42.51-.78-.79-3.95.5-6.69,3.47-7.32,3.81-.81,8.75,2.18,10.05,7.92.09.36.44.58.79.51.06-.02.13-.05.18-.08Z"/>
            <path class="cls-20" d="M82.45,86.97c.24-.14.38-.43.31-.72-1.4-6.2-6.85-9.4-11.06-8.51-2.78.6-5.36,3.14-4.29,8.48.07.36.42.59.78.52.36-.08.59-.42.52-.77-.74-3.73.47-6.33,3.27-6.92,3.59-.77,8.27,2.06,9.5,7.5.08.36.43.58.78.5.07-.02.13-.04.19-.07Z"/>
          </g>
          <g>
            <path class="cls-24" d="M157.75,89.27s2.76-7.22,10.75-6.42c8.43.85,8.88,12.98,2.66,19.38-6.23,6.39-15.65,5.5-17.01-1.01l3.6-11.95Z"/>
            <path class="cls-23" d="M169.29,86.49c-5.05-2.31-11.97,7.63-6.13,14.95-1.19-8.41,2.23-10.42,5.16-5.86.55-2.53-.38-4.42-3.66-4.87,1.05-3.28,4.62-4.21,4.62-4.21Z"/>
          </g>
          <path class="cls-17" d="M169.54,83.78c-.95,1.49-3.3,11.09-2.53,12.44-4.02-4.32-3.25-10.27-3.25-10.27,0,0-6.56,8.11-20.22,8.46,9.09-4.96,17.49-16.15,12.57-32.13.66,18.61-9.21,21.74-9.21,21.74,0,0,10.77-23.19-9.55-33.04,13.57,11.84,7.5,26.25,7.5,26.25,0,0-8.89-31.36-65.46-30.48,3.38,6.81,29.68,7.52,29.68,7.52,0,0-18.13,10.52-42.84-3.13-1.59,5.51-4.57,20.56-13.61,24.14,3.44-6.98,8.44-24.17,8.44-24.17,0,0-13.45,18.39-14.05,35.08-2.74-19.22,3.53-37.21,3.53-37.21,0,0-7.12,4.39-11.79,2.55,14.56-9.78,9.21-27.75,25.5-33.23-1.53-2.08-10.95-1.37-10.95-1.37,0,0,7.47-8.15,16.66-2.6,1.02-9.01,7.99-13.36,7.99-13.36,0,0-2.97,5.46.59,9,22.42-13.46,49.54-15.18,65.17,6.81,18.23-2.9,36.89,13.35,33.41,32.71-3.3,18.38-1.71,32.95,6.19,37.97-7.2-1.1-13.77-3.68-13.77-3.68Z"/>
          <path class="cls-32" d="M142.66,20.69C128.88-.19,104.02,4.37,86.57,13.64c28.6-5.65,44.7,2.61,52.28,8.63-22.53-5.92-43.31,7.84-43.31,7.84,0,0,28.1-10.7,45.33-2,5.83,2.94,15.17,6.85,22.12,27.43,2.51-25.81-18.56-30.93-18.56-30.93,0,0,15.01.37,23.51,12.1-8.25-18.68-25.28-16.01-25.28-16.01Z"/>
        </g>
      </g>
      <g>
        <path class="cls-7" d="M21.44,193.12l-.74.22c-.06.02-.12.02-.18.02l.83-.31.1.07Z"/>
        <path class="cls-7" d="M22.5,192.62l.43-.16c-.04.13-.13.22-.26.28l-.17-.12Z"/>
        <path class="cls-7" d="M32.69,198.75c.16.11.24.29.21.49-.03.19-.16.33-.33.39l-1.36-.94.92-.32.56.39Z"/>
        <path class="cls-7" d="M31.79,198.12l-.92.32-.92-.64.69-.23c.05-.02.11-.03.16-.03.1,0,.2.03.28.09l.71.49Z"/>
        <path class="cls-7" d="M29.67,198.85l-.88.3-.12-.08c-.16-.11-.23-.29-.21-.48.02-.17.13-.31.29-.38l.92.64Z"/>
        <path class="cls-19" d="M164.54,185.06c.1.52-.08.82-.24.98-.38.38-1.02.34-1.67.22-2.47,1.11-4.03,2.44-4.31,3.66-.22.97-.26,1.87-.31,2.67-.07,1.52-.14,2.83-1.47,3.41-1.63.71-105.82,33.11-110.25,34.49-.04.01-.09.02-.14.02,0,0-.01,0-.01,0-.03,0-.06,0-.1,0-.02,0-.03-.01-.05-.02,0,0-.01,0-.02,0-.05-.02-.09-.04-.13-.07L.22,197.78c-.16-.11-.24-.3-.21-.49.01-.06.98-6,7.3-6.96l36.21-13.48c.11-.04.22-.07.34-.09.44-1.3,2.15-5.86,5.31-8.14.32-.23,1.03-.43,3.87-.34l1.17-5.68c-.96-.8-1.4-2.07-1.15-3.31.38-1.85,2.2-3.05,4.05-2.67.9.18,1.67.71,2.17,1.47.5.76.68,1.68.5,2.58-.26,1.24-1.16,2.23-2.36,2.59l-1.07,5.19c2.14.15,4.55.37,7.53.68l1.06-5.15c-.95-.81-1.4-2.07-1.14-3.31.18-.9.71-1.67,1.47-2.17.76-.5,1.68-.68,2.58-.49.9.18,1.67.71,2.17,1.47.5.76.68,1.68.49,2.58-.25,1.24-1.16,2.23-2.36,2.59l-.99,4.84c2.41.26,4.75.53,7.49.86l1.03-4.98c-.95-.8-1.4-2.07-1.14-3.31.38-1.85,2.2-3.05,4.05-2.67.9.18,1.67.71,2.17,1.47.5.77.68,1.68.49,2.58-.25,1.24-1.16,2.22-2.36,2.59l-.97,4.72c2.63.33,4.84.6,7.48.94l1.02-4.94c-.95-.8-1.4-2.07-1.14-3.31.38-1.85,2.2-3.05,4.05-2.67,1.85.38,3.05,2.2,2.67,4.05-.25,1.24-1.16,2.23-2.36,2.59l-.96,4.69c1.42.19,3.09.41,4.72.64.96.13,1.89.26,2.75.37l1.03-4.98c-.96-.8-1.4-2.07-1.15-3.31.38-1.85,2.2-3.05,4.05-2.67,1.85.38,3.05,2.2,2.67,4.05-.26,1.24-1.16,2.23-2.36,2.59l-1,4.87c.1-.06.21-.09.34-.07,2.38.32,4.76.65,7.15.98l1.04-5.06c-.95-.8-1.4-2.07-1.14-3.31.38-1.85,2.2-3.05,4.05-2.67,1.85.38,3.05,2.2,2.67,4.05-.25,1.24-1.16,2.23-2.36,2.59l-1,4.85c2.56.36,4.95.69,7.46,1.05l1.07-5.18c-.95-.81-1.4-2.07-1.14-3.31.18-.9.71-1.67,1.47-2.17.76-.51,1.68-.68,2.58-.5,1.85.38,3.05,2.2,2.67,4.05-.25,1.24-1.16,2.23-2.36,2.59l-1.03,4.98c2.62.38,5,.72,7.5,1.08l1.1-5.34c-.95-.8-1.4-2.07-1.14-3.31.38-1.85,2.2-3.05,4.05-2.67,1.85.38,3.05,2.2,2.67,4.05-.25,1.24-1.16,2.22-2.36,2.59l-1.06,5.15c2.75.4,5.05.73,7.53,1.1l1.14-5.53c-.95-.8-1.4-2.07-1.14-3.31.18-.9.71-1.67,1.47-2.17.76-.5,1.68-.68,2.58-.49,1.85.38,3.05,2.2,2.67,4.05-.25,1.24-1.16,2.23-2.36,2.59l-1.1,5.35c2.83.42,5.25.78,7.53,1.12l1.18-5.75c-.95-.8-1.4-2.07-1.14-3.31.18-.9.71-1.67,1.47-2.17.76-.5,1.68-.68,2.58-.5.9.19,1.67.71,2.17,1.47.5.76.68,1.68.49,2.58-.25,1.24-1.16,2.23-2.36,2.59l-1.14,5.53c4.7.71,7.31,1.15,7.33,1.15.12.01,3.67.41,4.09,2.67h0ZM162.51,185.2c.34-.15.65-.27.88-.36-.56-.96-2.35-1.37-3.08-1.45-.05,0-2.68-.45-7.4-1.16l-.38,1.87c-.05.24-.26.41-.5.41-.03,0-.07,0-.1-.01l-2.22-.45c-.13-.03-.25-.11-.32-.22-.07-.12-.1-.25-.07-.38l.34-1.65c-2.27-.34-4.7-.7-7.53-1.12l-.42,2.05c-.03.13-.11.25-.22.32-.08.05-.18.08-.28.08-.03,0-.07,0-.1-.01l-2.09-.43c-.26-.05-.44-.31-.4-.57l.27-1.92c-2.48-.36-4.77-.7-7.53-1.1l-.46,2.24c-.05.24-.26.41-.5.41-.03,0-.07,0-.1-.01l-1.97-.41c-.25-.05-.42-.28-.4-.53l.11-1.74s0-.05.01-.07l.07-.36c-2.5-.36-4.88-.7-7.5-1.08l-.5,2.41c-.03.13-.11.25-.22.32-.08.06-.18.08-.28.08-.03,0-.07,0-.11-.01l-1.85-.38c-.23-.05-.4-.24-.41-.48l-.06-1.52s0-.08.01-.13l.16-.76c-2.51-.36-4.9-.69-7.46-1.05l-.52,2.55c-.03.13-.11.25-.22.32-.08.05-.18.08-.28.08-.03,0-.07,0-.1-.01l-1.73-.36c-.2-.04-.36-.2-.4-.41l-.23-1.31c-.01-.06-.01-.13,0-.19l.23-1.12c-2.36-.33-4.73-.65-7.08-.97-.15-.02-.27-.1-.35-.21l-.58,2.8c-.05.24-.26.41-.5.41-.03,0-.07,0-.1-.01l-1.61-.33c-.17-.03-.31-.16-.38-.32l-.41-1.09c-.03-.09-.04-.19-.02-.28l.3-1.45c-.84-.11-1.75-.24-2.68-.36-1.65-.23-3.35-.46-4.78-.65l-.56,2.71c-.05.24-.26.41-.5.41-.03,0-.07,0-.11-.01l-1.48-.31c-.13-.03-.25-.11-.32-.22l-.58-.88c-.07-.11-.1-.25-.07-.38l.35-1.72c-2.63-.34-4.83-.62-7.48-.94l-.55,2.68c-.03.13-.11.25-.22.32-.08.05-.18.08-.28.08-.03,0-.07,0-.11-.01l-1.36-.28c-.09-.02-.17-.06-.23-.12l-.75-.66c-.14-.12-.2-.31-.16-.49l.4-1.93c-2.74-.33-5.07-.6-7.49-.86l-.53,2.55c-.05.24-.26.41-.5.41-.03,0-.07,0-.1-.01l-1.24-.25s-.08-.02-.12-.04l-.92-.44c-.21-.1-.33-.33-.28-.56l.41-2c-2.98-.31-5.4-.52-7.53-.67l-.45,2.19c-.05.24-.26.41-.5.41-.04,0-.07,0-.11-.01l-2.21-.45c-.13-.03-.25-.11-.32-.22-.07-.11-.1-.25-.07-.38l.35-1.71c-2.53-.07-3,.12-3.07.16-2.68,1.93-4.3,5.85-4.83,7.35l102.88,8.64c.81.07,1.42.63,1.56,1.42,1.64-.39,6.25-1.52,8-2.2,1.17-.45,2.8-.05,4.23.31.33.08.64.16.93.22ZM157.33,189.7c.36-1.61,2.03-2.89,3.73-3.8-1.17-.29-2.53-.59-3.34-.28-1.99.77-7.34,2.06-8.51,2.34-.2.41-.57.74-1.06.89l-81.43,25.13s-.02,0-.03.01l-20.37,6.28c.21.91,1.02,4.83.44,9,37.69-11.72,107.98-33.62,109.37-34.21.72-.32.78-1.04.86-2.53.04-.84.09-1.78.33-2.84ZM155.62,172.91c.13-.63,0-1.28-.35-1.81s-.9-.91-1.53-1.04c-.63-.13-1.27,0-1.81.35-.54.35-.91.9-1.04,1.52-.2.95.19,1.93,1,2.48.17.12.25.32.21.52l-1.34,6.53-.35,1.68,1.22.25.36-1.76s0-.03,0-.05c0-.04.02-.08.03-.12l1.29-6.28c.04-.2.2-.36.4-.4.95-.19,1.7-.93,1.9-1.88ZM147.86,187.87c.42-.13.54-.48.51-.77s-.22-.6-.66-.64l-.81-.07-81.75,25.46,1.52,1.07,81.19-25.06ZM64.8,211.61l81.2-25.28-4.95-.42-78.03,24.45,1.78,1.26ZM144.8,171.53c.26-1.3-.57-2.58-1.88-2.85-.63-.13-1.27,0-1.81.35-.54.35-.91.9-1.04,1.53-.2.95.2,1.92,1,2.48.17.12.25.32.21.52l-1.39,6.76-.21,1.47,1.12.23,1.69-8.21c.04-.2.2-.36.4-.4.96-.19,1.7-.92,1.9-1.88ZM109.83,195.34l30.33-9.5-4.96-.42-22.63,7.14c-.59,1.13-1.63,1.99-2.88,2.35-.42.12-.86.18-1.31.18-.78,0-1.52-.19-2.17-.53l-18.49,5.83c-1.08.98-2.5,1.58-4.07,1.58-.26,0-.52-.02-.77-.05l-21.98,6.93,1.78,1.26,47.15-14.77ZM112.77,192.14l21.54-6.79-4.96-.42-16.24,5.16c0,.09.01.18.01.26,0,.63-.13,1.24-.35,1.79ZM133.98,170.15c.27-1.3-.57-2.58-1.88-2.85-1.3-.27-2.58.57-2.85,1.87-.2.95.2,1.93,1,2.48.17.12.25.32.21.52l-1.44,6.98-.08,1.27,1.04.21,1.69-8.21c.04-.2.2-.36.4-.39.96-.19,1.7-.93,1.9-1.88ZM113.08,189.73l15.39-4.89-4.96-.41-11.03,3.53c.31.53.52,1.13.6,1.77ZM123.19,168.77c.27-1.3-.57-2.58-1.87-2.85-.63-.13-1.27,0-1.81.35-.54.35-.91.9-1.04,1.53-.2.95.19,1.93,1,2.48.17.12.25.32.21.52l-1.48,7.19.05,1.07.96.2,1.69-8.21c.04-.2.2-.36.4-.4.95-.19,1.7-.93,1.89-1.88ZM112.29,187.66l10.33-3.3-4.97-.42-6.98,2.25c.65.36,1.2.86,1.62,1.47ZM110.23,185.98l6.54-2.11-4.97-.42-24.19,7.87c.51.44.94.96,1.28,1.54l15.45-4.98c.84-1.36,2.33-2.27,4.04-2.27.66,0,1.28.14,1.85.38ZM112.45,167.38c.26-1.3-.57-2.58-1.88-2.85-1.3-.27-2.58.57-2.85,1.87-.2.95.2,1.93,1,2.48.17.12.25.32.21.52l-1.52,7.41.16.87.89.18,1.69-8.21c.04-.2.2-.36.4-.4.96-.19,1.7-.93,1.9-1.88ZM112.1,190.4l-6.73,2.14c.45.62,1.1,1.1,1.84,1.34l4.14-1.3c.46-.61.74-1.36.75-2.18ZM105.18,192.24l6.91-2.19c-.05-.65-.27-1.26-.61-1.77l-6.81,2.18c.02.65.2,1.26.52,1.78ZM104.66,190.1l6.6-2.11c-.53-.66-1.29-1.12-2.15-1.3l-3.45,1.11c-.57.61-.94,1.41-.99,2.29ZM87.29,191.07l23.64-7.69-4.98-.42-21.24,6.98c.96.17,1.84.57,2.58,1.13ZM110.9,193.08l-3.03.95c.16.02.33.04.5.04.97,0,1.86-.38,2.52-.99ZM106.34,187.23l1.87-.6c-.69.03-1.33.24-1.87.6ZM88.22,199.87l17.59-5.54c-.58-.38-1.08-.88-1.45-1.47l-14.89,4.73c-.25.86-.68,1.63-1.25,2.29ZM83.88,189.85l21.2-6.96-4.98-.42-52.08,17.28,1.81,1.28,30.02-9.86c1.04-.83,2.35-1.33,3.78-1.33.08,0,.16.01.23.01ZM89.57,197.2l14.62-4.64c-.29-.54-.47-1.14-.53-1.78l-13.98,4.47c.02.21.04.43.04.65,0,.44-.05.88-.15,1.3ZM104.1,188.31l-15.05,4.85c.28.54.47,1.13.57,1.75l14.01-4.48s0-.05,0-.08c0-.73.17-1.42.47-2.03ZM101.72,166c.27-1.3-.57-2.58-1.87-2.85-1.3-.27-2.58.57-2.85,1.87-.2.95.2,1.93,1,2.48.17.12.25.32.21.52l-1.56,7.6.25.69.84.17,1.69-8.21c.04-.2.2-.36.4-.4.95-.19,1.7-.93,1.89-1.88ZM47.68,199.5l51.56-17.11-4.99-.42-48.39,16.24,1.82,1.29ZM59.66,193.23l33.74-11.32-4.99-.42-25.79,8.76c-.75,1.11-1.86,1.96-3.16,2.38-.59.19-1.22.3-1.87.3s-1.31-.12-1.92-.32l-11.98,4.07,1.83,1.29,14.14-4.74ZM90.98,164.62c.27-1.3-.57-2.58-1.87-2.85s-2.58.57-2.85,1.87c-.19.95.2,1.93,1,2.48.17.12.25.32.21.53l-1.6,7.78.35.52.78.16,1.69-8.21c.04-.2.2-.36.4-.4.95-.19,1.7-.92,1.89-1.88ZM88.69,195.9c0-.11-.01-.22-.02-.33l-9.32,2.98c.35.57.82,1.06,1.36,1.45l7.69-2.44c.18-.52.29-1.08.29-1.67ZM79.18,198.25l9.46-3.03c-.08-.62-.28-1.22-.57-1.75l-9.43,3.04c.07.62.26,1.2.54,1.73ZM88.24,197.98l-7.15,2.27c.75.44,1.62.7,2.56.7,2.04,0,3.8-1.23,4.6-2.97ZM78.61,196.18l9.28-2.99c-.38-.59-.87-1.09-1.45-1.48l-7.52,2.44c-.2.55-.32,1.14-.32,1.76,0,.09.01.18.01.27ZM62.89,189.8l24.67-8.38-5-.42-18.95,6.53c-.09.82-.34,1.59-.72,2.27ZM79.1,193.73l6.96-2.26c-.72-.39-1.53-.61-2.41-.61-2.01,0-3.73,1.18-4.55,2.88ZM60.55,208.6l21.62-6.82c-.86-.21-1.64-.61-2.31-1.14l-21.1,6.7,1.79,1.26ZM63.64,187.15l18.09-6.23-5.01-.42-13.31,4.65c.16.54.25,1.11.25,1.7,0,.1-.01.2-.01.3ZM80.25,163.24c.13-.63,0-1.27-.35-1.81-.35-.54-.9-.9-1.53-1.03-1.3-.27-2.58.57-2.85,1.87-.2.95.19,1.93,1,2.48.17.12.25.32.21.52l-1.63,7.93.42.37.73.15,1.69-8.21c.04-.2.2-.36.4-.39.95-.19,1.7-.93,1.89-1.88ZM58.41,207.09l21.15-6.72c-.48-.43-.88-.94-1.2-1.5l-21.74,6.96,1.79,1.26ZM79.26,191.72l-29.07,9.55,1.81,1.28,25.85-8.41c.28-.91.77-1.74,1.42-2.41ZM56.28,205.58l21.93-7.01c-.26-.54-.45-1.12-.54-1.73l-23.18,7.47,1.79,1.27ZM77.74,194.53l-25.4,8.26,1.8,1.27,23.47-7.57c-.02-.2-.03-.39-.03-.59,0-.47.06-.93.16-1.38ZM63.29,184.84l12.59-4.4-5.02-.42-8.57,3.05c.43.53.76,1.13.99,1.78ZM62.06,182.78l7.99-2.84-5.02-.42-4.98,1.81c.77.34,1.45.85,2.01,1.46ZM69.51,161.86c.13-.63,0-1.27-.35-1.81-.35-.54-.9-.91-1.53-1.04-.63-.13-1.27,0-1.81.35-.54.35-.91.9-1.04,1.53-.2.95.2,1.93,1,2.48.17.12.25.32.21.52l-1.66,8.08.51.24.68.14,1.69-8.21c.04-.2.2-.36.4-.4.96-.19,1.7-.93,1.9-1.88ZM56.3,216.13l9.14-2.82-1.51-1.07-6.05,1.88-3.05.98,1.47,1.02ZM59.57,181.13l4.64-1.68-5.03-.42-26.55,9.84,1.9,1.34,17.85-6.47c1.06-1.76,2.99-2.94,5.19-2.94.7,0,1.36.12,1.99.34ZM61.12,212.75l2.45-.76-1.78-1.26-2.13.67,1.24.89c.15.11.23.29.21.47ZM62.58,187.51c.03-.21.05-.43.05-.66,0-.47-.07-.93-.19-1.36l-9.51,3.33c.26.62.65,1.17,1.12,1.63l8.54-2.94ZM62.52,187.89l-8.19,2.82c.7.59,1.57.99,2.52,1.13l4.36-1.48c.65-.67,1.12-1.52,1.32-2.47ZM52.82,188.5l9.52-3.33c-.23-.66-.6-1.25-1.06-1.75l-8.72,3.1c0,.11-.02.22-.02.33,0,.58.1,1.13.28,1.64ZM59.32,211.16l2.13-.67-1.78-1.26-2.12.67,1.77,1.26ZM52.59,186.15l8.41-2.99c-.69-.64-1.57-1.09-2.53-1.26l-4.75,1.72c-.59.71-.99,1.58-1.13,2.53ZM60.52,190.96l-2.76.94c1.03-.04,1.98-.38,2.76-.94ZM53.77,214.37l5.72-1.84-1.05-.74-5.79,1.81,1.11.77ZM57.21,209.65l2.12-.67-1.78-1.26-2.1.67,1.77,1.26ZM58.78,160.48c.13-.63,0-1.27-.35-1.81-.36-.54-.9-.91-1.53-1.04-.63-.13-1.27,0-1.81.35-.54.36-.91.9-1.04,1.53-.2.95.2,1.93,1,2.48.17.12.25.32.21.52l-1.32,6.43s0,0,0,0l-.37,1.78,1.22.25,1.69-8.21c.04-.2.2-.36.4-.4.95-.19,1.7-.93,1.89-1.88ZM32.3,188.63l26.09-9.67-5.04-.42-22.97,8.73,1.93,1.36ZM52.57,213.27l5.53-1.73-1.77-1.26-4.07,1.28.04.02c.37.26.56.7.49,1.15-.03.2-.11.38-.23.53ZM54.28,183.06l3.42-1.24s-.07,0-.11,0c-1.26,0-2.42.47-3.31,1.24ZM55.09,208.15l2.1-.67-1.79-1.26-2.16.69c.08.01.16.04.23.09l1.62,1.15ZM51.92,211.32l4.07-1.29-1.77-1.26-5.83,1.85.12.08,1.14-.38c.35-.12.74-.06,1.04.15l1.23.85ZM43.35,196.44l11.82-4.02c-.73-.32-1.38-.77-1.92-1.33l-11.74,4.04,1.84,1.3ZM45.9,208.9l9.16-2.93-1.79-1.27-2.1.68.06.05c.16.11.23.3.21.49-.03.19-.16.35-.34.41l-5.95,2.05.75.52ZM46,219.31l9.06-2.79-1.45-1.02-6.68,2.16c-.05.02-.11.02-.16.02-.06,0-.13-.02-.18-.04l-2.39.74,1.18.83c.18.13.41.16.62.1ZM48.04,210.38l5.84-1.85-.78-.55-5.71,1.96.65.45ZM41.16,194.89l11.83-4.07c-.42-.49-.77-1.05-1.03-1.66l-12.66,4.43,1.85,1.31ZM50.82,205.14l2.1-.68-1.8-1.27-2.09.68,1.78,1.27ZM30.04,187.03l22.52-8.55-5.05-.42-19.43,7.59,1.96,1.39ZM46.85,216.61l5.71-1.84-1.12-.78-5.79,1.81,1.21.81ZM52.14,184.19l-17.26,6.26,1.88,1.33,14.77-5.25c.04-.84.26-1.63.61-2.34ZM52.13,212.64c.03-.19-.05-.38-.21-.49l-.47-.33-.92.29,1.29.9c.17-.06.28-.2.31-.38ZM38.97,193.34l12.89-4.51c-.21-.61-.33-1.26-.34-1.95l-14.41,5.13,1.86,1.32ZM50.17,211.87l.92-.29-.79-.54c-.08-.06-.18-.09-.28-.09-.05,0-.11,0-.16.02l-.67.22.97.68ZM48.69,203.62l2.09-.68-1.8-1.27-2.07.68,1.79,1.27ZM46.35,209.21l4.35-1.49-4.44,1.42.1.06ZM49.87,213.6l.71-.21-1.28-.89-.92.29,1.07.74c.13.09.28.11.42.07ZM43.76,207.41l5.85-1.88-1.78-1.27-4.75,1.54c0,.06,0,.12-.01.18-.04.27-.18.51-.37.68l1.07.74ZM45.28,215.56l4.14-1.3c-.13-.04-.25-.09-.36-.17l-1.5-1.04-4.1,1.29,1.82,1.22ZM48.02,212.55l.92-.29-.94-.66c-.17.06-.28.21-.31.39-.03.19.05.37.21.48l.12.08ZM46.56,202.1l2.07-.68-1.81-1.28-2.06.68,1.79,1.28ZM43.03,205.47l4.46-1.45-1.78-1.27-4.18,1.37,1.05.72c.23.16.38.38.46.63ZM47.41,211.19l-.24-.17-5.89,1.87,1.82,1.21,4.17-1.31c-.19-.25-.29-.57-.24-.89.04-.28.18-.53.38-.71ZM40.92,212.65l5.9-1.87-.62-.43-5.77,1.98.49.33ZM27.74,185.4l18.99-7.42-2.55-.21c-.11-.01-.21,0-.32.04l-17.6,6.55,1.47,1.04ZM44.43,200.58l2.05-.68-1.82-1.28-7.67,2.57-1.4.54,1.2.84,6.52-2.5c.16-.06.34-.04.48.06l.63.45ZM43.85,218.14l2.35-.73-1.81-1.21-2.29.72,1.75,1.23ZM45.77,229.11c.6-4.45-.46-8.73-.47-8.77,0-.02,0-.03,0-.05-.02,0-.04-.01-.05-.02-.06-.02-.12-.04-.17-.07-.02-.01-.04-.02-.06-.03-.07-.03-.14-.07-.21-.12l-37.93-26.63c-.4-.28-.66-.7-.72-1.17-.02-.16-.02-.32,0-.48,0-.04.01-.08.02-.13-3.79,1.17-4.85,4.49-5.09,5.51l44.69,31.96ZM41.17,203.88l4.19-1.38-1.79-1.28-3.09,1.03-2.67,1.02.98.68,1.12-.38c.35-.12.74-.06,1.04.15l.22.15ZM39.12,211.69l6.04-2.07-.12-.08-9.23,2.95,1.75,1.23,2.12-.67-.67-.45c-.16-.11-.25-.3-.22-.49.03-.19.16-.35.34-.41ZM35.46,212.24l9.23-2.95-.72-.5-6.39,2.21c-.05.02-.11.03-.17.03-.1,0-.2-.03-.28-.08l-1.04-.7-2.38.77,1.75,1.23ZM44.12,207.66l.24-.08-.25.08h0ZM41.64,199.28l2.69-.9-1.82-1.29-2.12.72,1.12.8c.15.11.23.29.21.48-.01.07-.04.14-.07.2ZM41.75,216.66l2.27-.71-1.81-1.21-2.21.7,1.75,1.23ZM37.48,209.95l5.45-1.88-.03-.02-5.58,1.8.16.11ZM36.96,209.61l5.59-1.8-.97-.68-1.25.37c-.11.03-.23.05-.34.05-.23,0-.47-.07-.67-.21l-.31-.21-3.88,1.26,1.82,1.22ZM41.62,205.92l.76-.25c-.03-.11-.1-.21-.19-.28l-1.47-1.02-.89.29,1.79,1.25ZM42.33,206.05l-.36.12.13.09c.1-.04.18-.12.23-.21ZM40.04,197.56l2.12-.72-1.84-1.3-2.1.72,1.82,1.29ZM39.65,215.19l2.2-.69-1.81-1.21-2.13.68,1.75,1.23ZM40.13,206.85l.73-.22-.1-.07-.9.29c.09.02.18.02.27,0ZM39.47,206.62l.94-.31-1.79-1.25-.66.22c-.01.17.06.33.21.43l1.3.91ZM34.59,201.03l5.55-2.15-.95-.68-5.82,1.98,1.22.85ZM37.88,196.03l2.1-.72-1.85-1.31-2.08.73,1.83,1.3ZM33.38,199.82l5.47-1.86-1.81-1.29-4.1,1.41.15.1c.38.26.56.7.49,1.15-.03.18-.1.34-.19.48ZM34.77,208.15l3.89-1.27-.88-.61c-.26-.18-.43-.46-.49-.77l-4.35,1.43,1.82,1.22ZM35.71,194.48l2.08-.73-1.86-1.31-2.18.77c.11,0,.22.03.31.09l1.65,1.17ZM37.68,204.42l-1.02-.71-5.42,2.07,1.35.91,4.7-1.54h0c.04-.29.18-.54.39-.73ZM32.58,197.85l4.12-1.42-1.82-1.3-5.83,2.04.21.15,1.16-.39c.35-.12.74-.06,1.04.15l1.12.77ZM33.36,210.77l2.36-.76-1.82-1.22-2.3.75,1.75,1.23ZM29.96,205.19l5.7-2.18-1.2-.84-6.06,2.35c-.06.02-.12.03-.18.03-.1,0-.2-.03-.28-.08l-.24-.16-2.38.8,1.76,1.23,2.6-.87c.05-.13.15-.24.29-.29ZM26.53,195.42l9.06-3.22-1.88-1.33-2.06.75.17.12c.15.11.23.29.21.48-.02.19-.15.34-.32.41l-5.9,2.29.73.51ZM28.7,196.93l5.83-2.04-.84-.6-5.67,2.17.68.47ZM31.26,209.3l2.28-.74-1.82-1.22-2.21.73,1.75,1.23ZM28.27,203.48l5.17-2-1.27-.89-5.46,1.85,1.55,1.04ZM31.32,191.38l2.06-.75-1.9-1.34-2.04.75,1.87,1.33ZM32.9,199.23c.03-.19-.05-.38-.21-.49l-.56-.39-.92.32,1.36.94c.18-.06.3-.2.33-.39ZM27.01,195.76l5.5-2.11-5.64,2.01.14.1ZM30.87,198.44l.92-.32-.71-.49c-.08-.06-.18-.09-.28-.09-.05,0-.11,0-.16.03l-.69.23.92.64ZM29.16,207.82l2.2-.72-1.51-1.01c-.09-.06-.16-.15-.19-.25l-2.26.75,1.75,1.23ZM30.63,200.2l.69-.2-1.3-.91-.88.3,1.07.74c.13.09.28.11.42.07ZM29.11,189.81l2.03-.75-1.92-1.36-2.01.76,1.9,1.35ZM26.36,202.21l3.91-1.33c-.16-.03-.31-.09-.45-.19l-1.47-1.03-3.82,1.32,1.83,1.22ZM24.35,193.91l5.8-2.11-1.86-1.33-4.65,1.72c0,.09,0,.18-.01.28-.04.27-.17.5-.36.68l1.08.75ZM28.8,199.15l.88-.3-.92-.64c-.16.07-.26.2-.29.38-.03.19.05.37.21.48l.12.08ZM24.79,194.21l4.3-1.66-4.4,1.6.1.07ZM26.88,188.22l2.01-.76-1.95-1.38-1.98.77,1.92,1.37ZM28.16,197.8l-.3-.21-5.52,1.93,1.84,1.23,3.88-1.33c-.21-.25-.31-.58-.26-.92.04-.28.17-.52.36-.7ZM23.57,191.86l4.39-1.63-1.88-1.34-4.16,1.58,1.23.85c.2.14.34.33.43.54ZM21.99,199.28l5.53-1.93-.64-.44-5.37,2.05.48.32ZM24.96,204.87l2.37-.79-1.83-1.22-2.3.78,1.76,1.23ZM24.63,186.62l1.98-.77-1.49-1.06-9.03,3.36,1.13.79,6.69-2.56c.16-.06.34-.04.48.06l.25.18ZM20.22,198.36l5.64-2.16-.17-.12-8.8,3.13,1.76,1.24,2.12-.74-.66-.44c-.16-.11-.24-.29-.22-.48.02-.19.15-.35.33-.42ZM21.56,190.24l4.17-1.59-1.72-1.23-5.79,2.21,1.14.79,1.11-.37c.35-.12.74-.06,1.04.15l.04.03ZM16.56,198.97l8.79-3.13-.7-.48-5.95,2.3c-.06.02-.12.03-.18.03-.1,0-.2-.03-.29-.08l-1.09-.73-2.35.86,1.76,1.24ZM22.86,203.4l2.29-.78-1.83-1.22-2.22.77,1.76,1.23ZM18.59,196.62l5.06-1.96-.13-.09-5.18,1.88.25.17ZM17.98,196.22l5.19-1.88-1.03-.72-1.26.38c-.11.03-.22.05-.34.05-.23,0-.47-.07-.67-.21l-.22-.16-3.52,1.31,1.85,1.24ZM20.76,201.92l2.21-.76-1.83-1.22-2.14.75,1.76,1.24ZM22.93,192.46l-.43.16.17.12c.13-.06.21-.16.26-.28ZM22.16,192.38l.76-.28c-.03-.08-.1-.16-.17-.21l-1.62-1.11s0,0,0,0l-.83.32,1.86,1.3ZM20.69,193.34l.74-.22-.1-.07-.83.31c.06,0,.12,0,.18-.02ZM20.09,193.15l.91-.34-1.85-1.29-.62.24c-.01.18.06.34.21.44l1.36.94ZM15.79,194.75l3.53-1.31-.97-.68c-.26-.18-.43-.45-.48-.75l-3.94,1.49,1.86,1.24ZM18.26,190.91l-1.18-.82-5.25,2.01,1.76,1.17,4.27-1.62v-.02c.04-.29.19-.55.4-.73ZM14.46,197.5l2.34-.85-1.84-1.23-2.26.84,1.77,1.24ZM10.54,191.5l5.53-2.12-1.1-.77s-.03-.02-.04-.03l-7.31,2.72c-.19.07-.34.21-.41.39-.02.06-.04.13-.05.19-.02.17.02.33.1.47.02.03.03.06.05.08,0,0,.01.01.02.02.04.04.08.08.13.12l.69.49,2.14-.84c-.05-.09-.08-.2-.07-.31.02-.19.15-.35.32-.42ZM12.35,196.02l2.25-.84-1.85-1.23-2.18.83,1.77,1.24ZM10.25,194.54l2.17-.83-1.85-1.24-2.08.81,1.77,1.25Z"/>
        <path class="cls-3" d="M163.39,184.84c-.23.09-.53.21-.88.36-.29-.06-.6-.14-.93-.22-1.43-.36-3.06-.76-4.23-.31-1.75.68-6.36,1.81-8,2.2-.14-.79-.75-1.35-1.56-1.42l-102.88-8.64c.54-1.5,2.15-5.42,4.83-7.35.07-.04.54-.23,3.07-.16l-.35,1.71c-.03.13,0,.27.07.38.07.12.19.19.32.22l2.21.45s.07.01.11.01c.23,0,.45-.17.5-.41l.45-2.19c2.13.15,4.55.36,7.53.67l-.41,2c-.05.23.07.46.28.56l.92.44s.08.03.12.04l1.24.25s.07.01.1.01c.24,0,.45-.17.5-.41l.53-2.55c2.42.26,4.76.53,7.49.86l-.4,1.93c-.04.18.03.36.16.49l.75.66c.07.06.15.1.23.12l1.36.28s.07.01.11.01c.1,0,.2-.03.28-.08.11-.07.19-.19.22-.32l.55-2.68c2.64.33,4.85.6,7.48.94l-.35,1.72c-.03.13,0,.27.07.38l.58.88c.07.11.19.19.32.22l1.48.31s.07.01.11.01c.23,0,.45-.17.5-.41l.56-2.71c1.43.19,3.13.42,4.78.65.93.13,1.84.25,2.68.36l-.3,1.45c-.02.1-.01.19.02.28l.41,1.09c.06.17.2.29.38.32l1.61.33s.07.01.1.01c.24,0,.45-.17.5-.41l.58-2.8c.08.12.2.2.35.21,2.36.32,4.72.65,7.08.97l-.23,1.12c-.01.06-.01.13,0,.19l.23,1.31c.04.2.2.37.4.41l1.73.36s.07.01.1.01c.1,0,.2-.03.28-.08.12-.07.19-.19.22-.32l.52-2.55c2.56.36,4.95.7,7.46,1.05l-.16.76s-.01.08-.01.13l.06,1.52c.01.23.18.43.41.48l1.85.38s.07.01.11.01c.1,0,.19-.03.28-.08.11-.07.19-.19.22-.32l.5-2.41c2.62.37,5,.72,7.5,1.08l-.07.36s-.01.05-.01.07l-.11,1.74c-.02.25.16.48.4.53l1.97.41s.07.01.1.01c.24,0,.45-.17.5-.41l.46-2.24c2.76.4,5.06.74,7.53,1.1l-.27,1.92c-.04.26.14.52.4.57l2.09.43s.07.01.1.01c.1,0,.2-.03.28-.08.12-.07.19-.19.22-.32l.42-2.05c2.83.42,5.25.78,7.53,1.12l-.34,1.65c-.03.13,0,.27.07.38.07.11.19.19.32.22l2.22.45s.07.01.1.01c.24,0,.45-.17.5-.41l.38-1.87c4.73.71,7.35,1.15,7.4,1.16.73.08,2.52.49,3.08,1.45Z"/>
        <path class="cls-10" d="M161.06,185.9c-1.7.91-3.37,2.19-3.73,3.8-.24,1.06-.29,2-.33,2.84-.07,1.49-.14,2.21-.86,2.53-1.39.58-71.68,22.49-109.37,34.21.58-4.17-.23-8.09-.44-9l20.37-6.28s.02,0,.03-.01l81.43-25.13c.49-.15.85-.48,1.06-.89,1.16-.28,6.51-1.56,8.51-2.34.81-.31,2.17-.01,3.34.28Z"/>
        <path class="cls-7" d="M155.27,171.1c.35.54.48,1.18.35,1.81-.2.95-.94,1.69-1.9,1.88-.2.04-.36.2-.4.4l-1.29,6.28s-.02.07-.03.12c0,.02,0,.03,0,.05l-.36,1.76-1.22-.25.35-1.68,1.34-6.53c.04-.2-.04-.4-.21-.52-.8-.55-1.2-1.52-1-2.48.13-.63.5-1.17,1.04-1.52.54-.36,1.18-.48,1.81-.35.63.13,1.17.5,1.53,1.04Z"/>
        <path class="cls-7" d="M148.37,187.11c.03.29-.08.64-.51.77l-81.19,25.06-1.52-1.07,81.75-25.46.81.07c.43.03.62.35.66.64Z"/>
        <polygon class="cls-7" points="146 186.33 64.8 211.61 63.03 210.35 141.05 185.91 146 186.33"/>
        <path class="cls-7" d="M142.92,168.68c1.3.27,2.14,1.55,1.88,2.85-.2.95-.94,1.69-1.9,1.88-.2.04-.36.2-.4.4l-1.69,8.21-1.12-.23.21-1.47,1.39-6.76c.04-.2-.04-.41-.21-.52-.8-.55-1.2-1.52-1-2.48.13-.63.5-1.17,1.04-1.53.54-.35,1.18-.48,1.81-.35Z"/>
        <path class="cls-7" d="M140.16,185.83l-30.33,9.5-.14-.43c1.25-.36,2.29-1.22,2.88-2.35l22.63-7.14,4.96.42Z"/>
        <path class="cls-7" d="M134.31,185.34l-21.54,6.79c.23-.55.35-1.16.35-1.79,0-.09,0-.18-.01-.26l16.24-5.16,4.96.42Z"/>
        <path class="cls-7" d="M132.1,167.3c1.3.26,2.15,1.54,1.88,2.85-.2.95-.94,1.69-1.9,1.88-.2.04-.36.19-.4.39l-1.69,8.21-1.04-.21.08-1.27,1.44-6.98c.04-.2-.04-.41-.21-.52-.8-.55-1.2-1.52-1-2.48.27-1.3,1.54-2.14,2.85-1.87Z"/>
        <path class="cls-7" d="M128.46,184.85l-15.39,4.89c-.08-.64-.29-1.24-.6-1.77l11.03-3.53,4.96.41Z"/>
        <path class="cls-7" d="M121.31,165.92c1.3.27,2.14,1.54,1.87,2.85-.2.95-.94,1.69-1.89,1.88-.2.04-.36.2-.4.4l-1.69,8.21-.96-.2-.05-1.07,1.48-7.19c.04-.2-.04-.41-.21-.52-.8-.55-1.2-1.52-1-2.48.13-.63.5-1.17,1.04-1.53.54-.35,1.18-.48,1.81-.35Z"/>
        <path class="cls-7" d="M122.62,184.36l-10.33,3.3c-.42-.61-.97-1.11-1.62-1.47l6.98-2.25,4.97.42Z"/>
        <path class="cls-7" d="M116.77,183.87l-6.54,2.11c-.57-.24-1.2-.38-1.85-.38-1.71,0-3.21.91-4.04,2.27l-15.45,4.98c-.34-.58-.77-1.1-1.28-1.54l24.19-7.87,4.97.42Z"/>
        <path class="cls-7" d="M110.58,164.54c1.3.27,2.14,1.54,1.88,2.85-.2.95-.94,1.69-1.9,1.88-.2.04-.36.2-.4.4l-1.69,8.21-.89-.18-.16-.87,1.52-7.41c.04-.2-.04-.41-.21-.52-.8-.55-1.2-1.52-1-2.48.27-1.3,1.54-2.14,2.85-1.87Z"/>
        <path class="cls-10" d="M105.37,192.54l6.73-2.14c-.01.81-.29,1.57-.75,2.18l-4.14,1.3c-.75-.24-1.39-.72-1.84-1.34Z"/>
        <path class="cls-10" d="M112.09,190.05l-6.91,2.19c-.31-.53-.5-1.13-.52-1.78l6.81-2.18c.35.51.56,1.12.61,1.77Z"/>
        <path class="cls-10" d="M111.26,187.99l-6.6,2.11c.06-.88.42-1.68.99-2.29l3.45-1.11c.86.17,1.62.64,2.15,1.3Z"/>
        <path class="cls-7" d="M110.93,183.38l-23.64,7.69c-.75-.56-1.63-.96-2.58-1.13l21.24-6.98,4.98.42Z"/>
        <path class="cls-10" d="M107.87,194.03l3.03-.95c-.67.61-1.55.99-2.52.99-.17,0-.34-.01-.5-.04Z"/>
        <path class="cls-7" d="M109.69,194.91l.14.43-47.15,14.77-1.78-1.26,21.98-6.93c.25.03.51.05.77.05,1.57,0,2.99-.6,4.07-1.58l18.49-5.83c.65.34,1.39.53,2.17.53.45,0,.9-.06,1.31-.18Z"/>
        <path class="cls-10" d="M108.21,186.63l-1.87.6c.54-.36,1.18-.57,1.87-.6Z"/>
        <path class="cls-7" d="M105.81,194.33l-17.59,5.54c.57-.66,1-1.43,1.25-2.29l14.89-4.73c.37.59.86,1.09,1.45,1.47Z"/>
        <path class="cls-7" d="M105.08,182.89l-21.2,6.96c-.08,0-.16-.01-.23-.01-1.43,0-2.74.5-3.78,1.33l-30.02,9.86-1.81-1.28,52.08-17.28,4.98.42Z"/>
        <path class="cls-7" d="M104.18,192.56l-14.62,4.64c.09-.42.15-.85.15-1.3,0-.22-.01-.44-.04-.65l13.98-4.47c.06.64.24,1.24.53,1.78Z"/>
        <path class="cls-7" d="M89.05,193.16l15.05-4.85c-.3.62-.47,1.31-.47,2.03,0,.03,0,.06,0,.08l-14.01,4.48c-.11-.62-.3-1.21-.57-1.75Z"/>
        <path class="cls-7" d="M99.84,163.16c1.3.27,2.14,1.54,1.87,2.85-.2.95-.94,1.69-1.89,1.88-.2.04-.36.2-.4.4l-1.69,8.21-.84-.17-.25-.69,1.56-7.6c.04-.2-.04-.41-.21-.52-.8-.55-1.2-1.52-1-2.48.27-1.3,1.54-2.14,2.85-1.87Z"/>
        <polygon class="cls-7" points="99.24 182.39 47.68 199.5 45.86 198.22 94.26 181.98 99.24 182.39"/>
        <path class="cls-7" d="M93.4,181.9l-33.74,11.32-.2-.6c1.3-.42,2.41-1.27,3.16-2.38l25.79-8.76,4.99.42Z"/>
        <path class="cls-7" d="M89.11,161.77c1.3.27,2.14,1.54,1.87,2.85-.2.95-.94,1.69-1.89,1.88-.2.04-.36.2-.4.4l-1.69,8.21-.78-.16-.35-.52,1.6-7.78c.04-.2-.04-.41-.21-.53-.8-.55-1.2-1.52-1-2.48.27-1.3,1.55-2.14,2.85-1.87Z"/>
        <path class="cls-10" d="M88.68,195.57c0,.11.02.22.02.33,0,.58-.11,1.14-.29,1.67l-7.69,2.44c-.54-.39-1.01-.88-1.36-1.45l9.32-2.98Z"/>
        <path class="cls-10" d="M88.64,195.23l-9.46,3.03c-.28-.53-.47-1.11-.54-1.73l9.43-3.04c.29.53.49,1.12.57,1.75Z"/>
        <path class="cls-10" d="M81.09,200.25l7.15-2.27c-.79,1.75-2.55,2.97-4.6,2.97-.93,0-1.81-.26-2.56-.7Z"/>
        <path class="cls-10" d="M87.89,193.18l-9.28,2.99c0-.09-.01-.18-.01-.27,0-.62.12-1.21.32-1.76l7.52-2.44c.58.39,1.08.89,1.45,1.48Z"/>
        <path class="cls-7" d="M87.56,181.41l-24.67,8.38c.38-.69.63-1.46.72-2.27l18.95-6.53,5,.42Z"/>
        <path class="cls-10" d="M86.05,191.47l-6.96,2.26c.81-1.7,2.54-2.88,4.55-2.88.87,0,1.69.22,2.41.61Z"/>
        <path class="cls-7" d="M82.17,201.78l-21.62,6.82-1.79-1.26,21.1-6.7c.67.54,1.45.93,2.31,1.14Z"/>
        <path class="cls-7" d="M81.72,180.92l-18.09,6.23c0-.1.01-.19.01-.3,0-.59-.09-1.16-.25-1.7l13.31-4.65,5.01.42Z"/>
        <path class="cls-7" d="M79.9,161.43c.35.54.48,1.18.35,1.81-.19.95-.94,1.69-1.89,1.88-.2.04-.36.19-.4.39l-1.69,8.21-.73-.15-.42-.37,1.63-7.93c.04-.2-.04-.41-.21-.52-.8-.55-1.2-1.52-1-2.48.27-1.3,1.54-2.14,2.85-1.87.63.13,1.17.5,1.53,1.03Z"/>
        <path class="cls-7" d="M79.56,200.38l-21.15,6.72-1.79-1.26,21.74-6.96c.32.57.72,1.07,1.2,1.5Z"/>
        <path class="cls-7" d="M50.18,201.27l29.07-9.55c-.65.68-1.14,1.5-1.42,2.41l-25.85,8.41-1.81-1.28Z"/>
        <path class="cls-7" d="M78.2,198.57l-21.93,7.01-1.79-1.27,23.18-7.47c.1.61.28,1.19.54,1.73Z"/>
        <path class="cls-7" d="M52.34,202.79l25.4-8.26c-.1.44-.16.9-.16,1.38,0,.2.01.4.03.59l-23.47,7.57-1.8-1.27Z"/>
        <path class="cls-7" d="M75.89,180.43l-12.59,4.4c-.23-.65-.56-1.25-.99-1.78l8.57-3.05,5.02.42Z"/>
        <path class="cls-7" d="M70.05,179.94l-7.99,2.84c-.56-.61-1.24-1.12-2.01-1.46l4.98-1.81,5.02.42Z"/>
        <path class="cls-7" d="M69.16,160.05c.36.54.48,1.18.35,1.81-.2.95-.94,1.69-1.9,1.88-.2.04-.36.19-.4.4l-1.69,8.21-.68-.14-.51-.24,1.66-8.08c.04-.2-.04-.41-.21-.52-.8-.55-1.2-1.52-1-2.48.13-.63.5-1.17,1.04-1.53.54-.35,1.18-.48,1.81-.35.63.13,1.17.5,1.53,1.04Z"/>
        <polygon class="cls-7" points="65.44 213.31 56.3 216.13 54.83 215.11 57.88 214.12 63.93 212.24 65.44 213.31"/>
        <path class="cls-7" d="M64.22,179.45l-4.64,1.68c-.62-.22-1.29-.34-1.99-.34-2.2,0-4.13,1.18-5.19,2.94l-17.85,6.47-1.9-1.34,26.55-9.84,5.03.42Z"/>
        <path class="cls-7" d="M63.58,211.99l-2.45.76c.02-.18-.06-.36-.21-.47l-1.24-.89,2.13-.67,1.78,1.26Z"/>
        <path class="cls-10" d="M62.63,186.86c0,.22-.02.44-.05.66l-8.54,2.94c-.47-.46-.86-1.02-1.12-1.63l9.51-3.33c.12.43.19.89.19,1.36Z"/>
        <path class="cls-10" d="M54.33,190.72l8.19-2.82c-.2.95-.67,1.8-1.32,2.47l-4.36,1.48c-.95-.14-1.82-.54-2.52-1.13Z"/>
        <path class="cls-10" d="M62.33,185.17l-9.52,3.33c-.18-.52-.28-1.07-.28-1.64,0-.11.01-.22.02-.33l8.72-3.1c.47.5.83,1.09,1.06,1.75Z"/>
        <polygon class="cls-7" points="61.45 210.49 59.32 211.16 57.56 209.9 59.67 209.23 61.45 210.49"/>
        <path class="cls-10" d="M61.01,183.16l-8.41,2.99c.14-.95.53-1.83,1.13-2.53l4.75-1.72c.97.17,1.84.62,2.53,1.26Z"/>
        <path class="cls-10" d="M57.75,191.9l2.76-.94c-.78.56-1.74.9-2.76.94Z"/>
        <path class="cls-7" d="M59.46,192.63l.2.6-14.14,4.74-1.83-1.29,11.98-4.07c.6.2,1.25.32,1.92.32s1.28-.1,1.87-.3Z"/>
        <polygon class="cls-10" points="59.5 212.53 53.77 214.37 52.66 213.6 58.45 211.79 59.5 212.53"/>
        <polygon class="cls-7" points="59.32 208.99 57.21 209.65 55.44 208.39 57.54 207.73 59.32 208.99"/>
        <path class="cls-7" d="M58.43,158.67c.35.54.48,1.18.35,1.81-.2.95-.94,1.69-1.89,1.88-.2.04-.36.2-.4.4l-1.69,8.21-1.22-.25.37-1.78s0,0,0,0l1.32-6.43c.04-.2-.04-.41-.21-.52-.8-.55-1.2-1.52-1-2.48.13-.63.5-1.17,1.04-1.53.54-.35,1.18-.48,1.81-.35.63.13,1.17.5,1.53,1.04Z"/>
        <polygon class="cls-7" points="58.39 178.96 32.3 188.63 30.37 187.26 53.35 178.54 58.39 178.96"/>
        <path class="cls-10" d="M58.11,211.54l-5.53,1.73c.12-.15.2-.33.23-.53.07-.45-.12-.89-.49-1.15l-.04-.02,4.07-1.28,1.77,1.26Z"/>
        <path class="cls-10" d="M57.69,181.82l-3.42,1.24c.89-.77,2.04-1.24,3.31-1.24.04,0,.07,0,.11,0Z"/>
        <path class="cls-7" d="M57.2,207.48l-2.1.67-1.62-1.15c-.07-.05-.15-.08-.23-.09l2.16-.69,1.79,1.26Z"/>
        <path class="cls-10" d="M55.99,210.04l-4.07,1.29-1.23-.85c-.31-.21-.69-.26-1.04-.15l-1.14.38-.12-.08,5.83-1.85,1.77,1.26Z"/>
        <path class="cls-7" d="M55.17,192.42l-11.82,4.02-1.84-1.3,11.74-4.04c.55.56,1.2,1.01,1.92,1.33Z"/>
        <path class="cls-7" d="M55.06,205.97l-9.16,2.93-.75-.52,5.95-2.05c.18-.06.31-.22.34-.41.03-.19-.05-.38-.21-.49l-.06-.05,2.1-.68,1.79,1.27Z"/>
        <path class="cls-7" d="M55.06,216.51l-9.06,2.79c-.21.06-.44.03-.62-.1l-1.18-.83,2.39-.74c.06.02.12.04.18.04.05,0,.11,0,.16-.02l6.68-2.16,1.45,1.02Z"/>
        <polygon class="cls-10" points="53.88 208.53 48.04 210.38 47.39 209.93 53.1 207.98 53.88 208.53"/>
        <path class="cls-7" d="M53,190.82l-11.83,4.07-1.85-1.31,12.66-4.43c.25.61.6,1.17,1.03,1.66Z"/>
        <polygon class="cls-7" points="52.92 204.46 50.82 205.14 49.04 203.87 51.13 203.19 52.92 204.46"/>
        <polygon class="cls-7" points="52.56 178.47 30.04 187.03 28.08 185.64 47.51 178.05 52.56 178.47"/>
        <polygon class="cls-10" points="52.55 214.77 46.85 216.61 45.64 215.8 51.43 213.99 52.55 214.77"/>
        <path class="cls-7" d="M34.88,190.45l17.26-6.26c-.35.71-.56,1.5-.61,2.34l-14.77,5.25-1.88-1.33Z"/>
        <path class="cls-7" d="M51.92,212.15c.16.11.24.29.21.49-.03.18-.15.32-.31.38l-1.29-.9.92-.29.47.33Z"/>
        <path class="cls-7" d="M51.86,188.84l-12.89,4.51-1.86-1.32,14.41-5.13c0,.68.13,1.33.34,1.95Z"/>
        <path class="cls-7" d="M51.1,211.58l-.92.29-.97-.68.67-.22c.05-.02.1-.02.16-.02.1,0,.2.03.28.09l.79.54Z"/>
        <polygon class="cls-7" points="50.78 202.94 48.69 203.62 46.91 202.35 48.98 201.67 50.78 202.94"/>
        <polygon class="cls-7" points="50.7 207.72 46.35 209.21 46.25 209.15 50.7 207.72"/>
        <path class="cls-7" d="M50.58,213.39l-.71.21c-.15.04-.3.02-.42-.07l-1.07-.74.92-.29,1.28.89Z"/>
        <path class="cls-10" d="M49.61,205.53l-5.85,1.88-1.07-.74c.19-.17.33-.41.37-.68,0-.06.01-.12.01-.18l4.75-1.54,1.78,1.27Z"/>
        <path class="cls-10" d="M49.42,214.26l-4.14,1.3-1.82-1.22,4.1-1.29,1.5,1.04c.11.08.23.13.36.17Z"/>
        <path class="cls-7" d="M48.95,212.26l-.92.29-.12-.08c-.16-.11-.23-.29-.21-.48.02-.18.14-.32.31-.39l.94.66Z"/>
        <polygon class="cls-7" points="48.63 201.42 46.56 202.1 44.77 200.83 46.83 200.14 48.63 201.42"/>
        <path class="cls-10" d="M47.49,204.02l-4.46,1.45c-.07-.25-.23-.47-.46-.63l-1.05-.72,4.18-1.37,1.78,1.27Z"/>
        <path class="cls-10" d="M47.17,211.02l.24.17c-.2.18-.34.43-.38.71-.05.33.04.65.24.89l-4.17,1.31-1.82-1.21,5.89-1.87Z"/>
        <polygon class="cls-10" points="46.82 210.78 40.92 212.65 40.42 212.32 46.19 210.34 46.82 210.78"/>
        <path class="cls-7" d="M46.74,177.98l-18.99,7.42-1.47-1.04,17.6-6.55c.1-.04.21-.05.32-.04l2.55.21Z"/>
        <path class="cls-7" d="M46.48,199.9l-2.05.68-.63-.45c-.14-.1-.32-.12-.48-.06l-6.52,2.5-1.2-.84,1.4-.54,7.67-2.57,1.82,1.28Z"/>
        <polygon class="cls-7" points="46.2 217.4 43.85 218.14 42.1 216.91 44.39 216.19 46.2 217.4"/>
        <path class="cls-10" d="M45.3,220.33s1.08,4.32.47,8.77L1.07,197.14c.24-1.03,1.3-4.34,5.09-5.51-.01.04-.02.09-.02.13-.02.16-.02.32,0,.48.07.47.33.89.72,1.17l37.93,26.63c.06.05.14.09.21.12.02.01.04.02.06.03.06.03.11.05.17.07.02,0,.03.01.05.02,0,.02,0,.03,0,.05Z"/>
        <path class="cls-10" d="M45.36,202.5l-4.19,1.38-.22-.15c-.3-.21-.69-.26-1.04-.15l-1.12.38-.98-.68,2.67-1.02,3.09-1.03,1.79,1.28Z"/>
        <path class="cls-7" d="M45.16,209.62l-6.04,2.07c-.18.06-.31.22-.34.41-.02.19.06.38.22.49l.67.45-2.12.67-1.75-1.23,9.23-2.95.12.08Z"/>
        <path class="cls-7" d="M44.68,209.29l-9.23,2.95-1.75-1.23,2.38-.77,1.04.7c.08.06.18.08.28.08.05,0,.11,0,.17-.03l6.39-2.21.72.5Z"/>
        <path class="cls-7" d="M44.32,198.38l-2.69.9c.04-.06.06-.13.07-.2.02-.19-.06-.37-.21-.48l-1.12-.8,2.12-.72,1.82,1.29Z"/>
        <polygon class="cls-7" points="44.03 215.95 41.75 216.66 40 215.43 42.21 214.74 44.03 215.95"/>
        <polygon class="cls-10" points="42.93 208.07 37.48 209.95 37.32 209.85 42.89 208.05 42.93 208.07"/>
        <path class="cls-10" d="M42.55,207.8l-5.59,1.8-1.82-1.22,3.88-1.26.31.21c.2.14.43.21.67.21.11,0,.23-.02.34-.05l1.25-.37.97.68Z"/>
        <path class="cls-7" d="M42.38,205.68l-.76.25-1.79-1.25.89-.29,1.47,1.02c.1.07.16.17.19.28Z"/>
        <path class="cls-7" d="M41.97,206.16l.36-.12c-.05.09-.13.16-.23.21l-.13-.09Z"/>
        <polygon class="cls-7" points="42.15 196.84 40.04 197.56 38.22 196.27 40.32 195.54 42.15 196.84"/>
        <polygon class="cls-7" points="41.85 214.5 39.65 215.19 37.9 213.96 40.04 213.28 41.85 214.5"/>
        <path class="cls-7" d="M40.86,206.63l-.73.22c-.09.03-.18.03-.27,0l.9-.29.1.07Z"/>
        <path class="cls-7" d="M40.41,206.32l-.94.31-1.3-.91c-.14-.1-.22-.26-.21-.43l.66-.22,1.79,1.25Z"/>
        <polygon class="cls-10" points="40.14 198.88 34.59 201.03 33.37 200.18 39.19 198.21 40.14 198.88"/>
        <polygon class="cls-7" points="39.98 195.3 37.88 196.03 36.05 194.72 38.13 194 39.98 195.3"/>
        <path class="cls-10" d="M38.85,197.96l-5.47,1.86c.1-.14.16-.31.19-.48.07-.45-.12-.89-.49-1.15l-.15-.1,4.1-1.41,1.81,1.29Z"/>
        <path class="cls-10" d="M38.66,206.88l-3.89,1.27-1.82-1.22,4.35-1.43c.05.31.22.58.49.77l.88.61Z"/>
        <path class="cls-7" d="M37.79,193.75l-2.08.73-1.65-1.17c-.09-.06-.2-.1-.31-.09l2.18-.77,1.86,1.31Z"/>
        <path class="cls-10" d="M36.66,203.71l1.02.71c-.21.18-.35.43-.39.72h0s-4.7,1.55-4.7,1.55l-1.35-.91,5.42-2.07Z"/>
        <path class="cls-10" d="M36.7,196.43l-4.12,1.42-1.12-.77c-.3-.21-.69-.26-1.04-.15l-1.16.39-.21-.15,5.83-2.04,1.82,1.3Z"/>
        <polygon class="cls-7" points="35.72 210.01 33.36 210.77 31.61 209.54 33.9 208.79 35.72 210.01"/>
        <path class="cls-7" d="M35.65,203.01l-5.7,2.18c-.14.05-.24.16-.29.29l-2.6.87-1.76-1.23,2.38-.8.24.16c.08.05.18.08.28.08.06,0,.13-.01.18-.03l6.06-2.35,1.2.84Z"/>
        <path class="cls-7" d="M35.59,192.2l-9.06,3.22-.73-.51,5.9-2.29c.17-.07.3-.22.32-.41.02-.19-.06-.37-.21-.48l-.17-.12,2.06-.75,1.88,1.33Z"/>
        <polygon class="cls-10" points="34.54 194.9 28.7 196.93 28.03 196.46 33.69 194.29 34.54 194.9"/>
        <polygon class="cls-7" points="33.54 208.55 31.26 209.3 29.51 208.06 31.72 207.34 33.54 208.55"/>
        <polygon class="cls-10" points="33.45 201.48 28.27 203.48 26.72 202.44 32.18 200.59 33.45 201.48"/>
        <polygon class="cls-7" points="33.38 190.63 31.32 191.38 29.44 190.05 31.48 189.29 33.38 190.63"/>
        <polygon class="cls-7" points="32.51 193.66 27.01 195.76 26.87 195.66 32.51 193.66"/>
        <path class="cls-7" d="M31.36,207.1l-2.2.72-1.75-1.23,2.26-.75c.03.1.1.19.19.25l1.51,1.01Z"/>
        <path class="cls-7" d="M31.32,200l-.69.2c-.15.04-.3.02-.42-.07l-1.07-.74.88-.3,1.3.91Z"/>
        <polygon class="cls-7" points="31.14 189.06 29.11 189.81 27.21 188.46 29.23 187.7 31.14 189.06"/>
        <path class="cls-10" d="M30.27,200.88l-3.91,1.33-1.83-1.22,3.82-1.32,1.47,1.03c.14.1.29.16.45.19Z"/>
        <path class="cls-10" d="M30.15,191.8l-5.8,2.11-1.08-.75c.19-.17.32-.41.36-.68.02-.1.02-.19.01-.28l4.65-1.72,1.86,1.33Z"/>
        <polygon class="cls-10" points="29.09 192.55 24.79 194.21 24.69 194.15 29.09 192.55"/>
        <polygon class="cls-7" points="28.89 187.46 26.88 188.22 24.96 186.86 26.94 186.08 28.89 187.46"/>
        <path class="cls-10" d="M27.86,197.59l.3.21c-.19.18-.33.42-.36.7-.05.34.05.67.26.92l-3.88,1.33-1.84-1.23,5.52-1.93Z"/>
        <path class="cls-10" d="M27.95,190.24l-4.39,1.63c-.08-.21-.23-.4-.43-.54l-1.23-.85,4.16-1.58,1.88,1.34Z"/>
        <polygon class="cls-10" points="27.51 197.35 21.99 199.28 21.5 198.96 26.88 196.91 27.51 197.35"/>
        <polygon class="cls-7" points="27.33 204.08 24.96 204.87 23.21 203.64 25.5 202.86 27.33 204.08"/>
        <path class="cls-7" d="M26.61,185.85l-1.98.77-.25-.18c-.14-.1-.32-.12-.48-.06l-6.69,2.56-1.13-.79,9.03-3.36,1.49,1.06Z"/>
        <path class="cls-7" d="M25.86,196.2l-5.64,2.16c-.18.07-.3.23-.33.42-.02.19.06.38.22.48l.66.44-2.12.74-1.76-1.24,8.8-3.13.17.12Z"/>
        <path class="cls-10" d="M25.73,188.66l-4.17,1.59-.04-.03c-.3-.21-.69-.26-1.04-.15l-1.11.37-1.14-.79,5.79-2.21,1.72,1.23Z"/>
        <path class="cls-7" d="M25.35,195.84l-8.79,3.13-1.76-1.24,2.35-.86,1.09.73c.08.06.18.08.29.08.06,0,.12-.01.18-.03l5.95-2.3.7.48Z"/>
        <polygon class="cls-7" points="25.15 202.62 22.86 203.4 21.1 202.16 23.32 201.4 25.15 202.62"/>
        <polygon class="cls-10" points="23.65 194.66 18.59 196.62 18.34 196.45 23.52 194.57 23.65 194.66"/>
        <path class="cls-10" d="M23.18,194.33l-5.19,1.88-1.85-1.24,3.52-1.31.22.16c.2.14.43.21.67.21.11,0,.23-.02.34-.05l1.26-.38,1.03.72Z"/>
        <polygon class="cls-7" points="22.97 201.16 20.76 201.92 19 200.69 21.14 199.94 22.97 201.16"/>
        <path class="cls-7" d="M22.93,192.1l-.76.28-1.86-1.3.83-.32s0,0,0,0l1.62,1.11c.08.05.14.13.17.21Z"/>
        <path class="cls-7" d="M21,192.81l-.91.34-1.36-.94c-.15-.1-.22-.27-.21-.44l.62-.24,1.85,1.29Z"/>
        <path class="cls-10" d="M19.31,193.44l-3.53,1.31-1.86-1.24,3.94-1.49c.05.3.22.57.48.75l.97.68Z"/>
        <path class="cls-10" d="M17.08,190.09l1.18.82c-.21.18-.36.44-.4.73v.02l-4.27,1.62-1.76-1.17,5.25-2.01Z"/>
        <polygon class="cls-7" points="16.8 196.65 14.46 197.5 12.69 196.26 14.95 195.41 16.8 196.65"/>
        <path class="cls-7" d="M16.07,189.38l-5.53,2.12c-.18.07-.3.23-.32.42-.01.11.01.21.07.31l-2.14.84-.69-.49s-.09-.07-.13-.12c0,0-.01-.01-.02-.02-.02-.02-.03-.05-.05-.08-.08-.14-.12-.3-.1-.47,0-.07.03-.13.05-.19.07-.18.22-.32.41-.39l7.31-2.72s.02.02.04.03l1.1.77Z"/>
        <polygon class="cls-7" points="14.61 195.18 12.35 196.02 10.58 194.78 12.76 193.95 14.61 195.18"/>
        <polygon class="cls-7" points="12.41 193.72 10.25 194.54 8.48 193.3 10.56 192.48 12.41 193.72"/>
      </g>
      <path class="cls-24" d="M122.41,181.16c1.1-6.22-1.55-17.89-1.55-17.89l-5.71,1.06s2.22,8.67.87,12.67c-7.75-.1-15.27,2.81-20.64.8-.89-1.35-1.8-2.77-2.5-3.57-.7-.8-2.44-1.91-3.63-1.18-1.57-1.27-3.41-1.88-5.58-1.23-1.47.43-1.81,2.3.03,1.92,1.5-.07,3.06.34,3.43,1.29-1.89-.24-4.74-.21-6.07.91-1.24,1.04-.88,2.8.96,1.93,1.55-.74,3.4-.32,4,.61-2.32.05-3.75.85-4.26,2.26-.41,1.17.89,2.33,1.44,1.34.75-1.32,2.88-2.09,3.71-1.03.83,1.06,3.09,2.25,6.17,1.43,10.74,1.15,15.98,1.65,25.18.74,3.38-.34,3.68-1.16,4.16-2.03Z"/>
      <path class="cls-2" d="M124.34,163.45c-.34-7.16-4.93-15.36-9.71-14.38-3.23.67-4.01,5.73-3.44,14.19,6.05,3.87,13.14.19,13.14.19Z"/>
    </g>
  </g>
</svg>