<?xml version="1.0" encoding="UTF-8"?>
<svg id="Layer_2" data-name="Layer 2" xmlns="http://www.w3.org/2000/svg" viewBox="0 0 233.06 300.28">
  <defs>
    <style>
      .cls-1 {
        fill: #eaad85;
      }

      .cls-2 {
        fill: #aa85b6;
      }

      .cls-3 {
        fill: #f1bd36;
      }

      .cls-4 {
        fill: #231f20;
      }

      .cls-5 {
        fill: #f8dab0;
      }

      .cls-6 {
        fill: #fbd3c4;
      }

      .cls-7 {
        fill: #9a2518;
      }

      .cls-8 {
        fill: #dfe0e1;
      }

      .cls-9 {
        fill: #7ca9c0;
      }

      .cls-10 {
        fill: #de9173;
      }

      .cls-11 {
        fill: #f4c1a8;
      }

      .cls-12 {
        fill: #eda020;
      }

      .cls-13 {
        fill: #e2a268;
      }

      .cls-14 {
        fill: #fff;
      }

      .cls-15 {
        fill: #824025;
      }

      .cls-16 {
        fill: #f48f87;
      }

      .cls-17 {
        fill: #d9dbdc;
      }

      .cls-18 {
        fill: #4d1f1c;
      }

      .cls-19 {
        fill: #58150e;
      }

      .cls-20 {
        fill: #de856c;
      }

      .cls-21 {
        fill: #562512;
      }

      .cls-22 {
        fill: #ce7754;
      }

      .cls-23 {
        fill: #d5956a;
      }

      .cls-24 {
        fill: #fbc6a4;
      }

      .cls-25 {
        fill: #ec756c;
      }

      .cls-26 {
        fill: #f8af9a;
      }

      .cls-27 {
        fill: #cb781d;
      }

      .cls-28 {
        fill: #f7b0ad;
      }

      .cls-29 {
        fill: #321514;
      }

      .cls-30 {
        fill: #ee4634;
      }

      .cls-31 {
        fill: #fcd8c1;
      }

      .cls-32 {
        fill: #cb3527;
      }
    </style>
  </defs>
  <g id="Layer_1-2" data-name="Layer 1">
    <g>
      <path class="cls-24" d="M124.4,239.42c-.34,18.33,2.57,46.63,1.41,53.69,3.39.81,15.85,6.06,17.08,1.37,1.02-3.89-11.42-4.82-11.53-8.35-.32-9.76-.92-28.76-.47-46.84-2.58-.41-6.49.13-6.49.13Z"/>
      <g>
        <path class="cls-8" d="M126.1,291.76c-.5.49-.77,2-.28,2.75.85.84,5.28,3.4,10.98,5.29,2.57.85,5.92.78,8.36-1.61.48-.47.95-1.96-.13-3.12-1.7,1.7-5.46,1.66-9.71,1.17-5.66-.66-9.23-4.47-9.23-4.47Z"/>
        <path class="cls-30" d="M126.1,287.83s2.33,3.28,9.17,5.5c.2-1.07,1.6-2.69,3.07-2.84,3.08.25,7.63,3.54,6.97,5.1-1.07,1.49-4.15,3.85-9.76,1.96-6.48-2.18-8.91-4.4-9.66-4.97-.74-.58-1.21-4.76.2-4.76Z"/>
      </g>
      <path class="cls-24" d="M121.05,239.42c.34,18.33-2.57,46.63-1.41,53.69-3.39.81-15.85,6.06-17.08,1.37-1.02-3.89,11.42-4.82,11.53-8.35.32-9.76.92-28.76.47-46.84,2.58-.41,6.49.13,6.49.13Z"/>
      <g>
        <path class="cls-8" d="M119.35,291.76c.5.49.77,2,.28,2.75-.85.84-5.28,3.4-10.98,5.29-2.57.85-5.92.78-8.36-1.61-.48-.47-.95-1.96.13-3.12,1.7,1.7,5.46,1.66,9.71,1.17,5.66-.66,9.23-4.47,9.23-4.47Z"/>
        <path class="cls-30" d="M119.35,287.83s-2.33,3.28-9.17,5.5c-.2-1.07-1.6-2.69-3.07-2.84-3.08.25-7.63,3.54-6.97,5.1,1.07,1.49,4.15,3.85,9.76,1.96,6.48-2.18,8.91-4.4,9.66-4.97.74-.58,1.2-4.76-.2-4.76Z"/>
      </g>
      <g>
        <path class="cls-32" d="M139.77,200.23c15.81,4.09,23.16,37.79,25.49,44.81,0,0,.2,2.14-7.03,1.3.2,2.14-.89,4.46-4.98,3.96-1.64-.2-6.21-1.92-9.57-1.58.68,3.75-7.05,4.12-10.51,3.66-4.64-.62-7.33-3.26-9.53-3.26-5.15-.01-7.49,3-12.86,3.17-5.75.18-7.53-.84-8.42-2.98-4.02-.81-15.35.65-16.54-1.86,1.78-2.88-4.76-2.14-5.15-4,0,0,9.44-36.83,21.78-43.23,0,0,37.3-.79,37.33,0Z"/>
        <path class="cls-30" d="M139.67,201.45c12.4,1.04,22.77,37.22,25.1,44.24,0,0-.59,1.02-3.27.74-.54-.05-12.19-29.84-19.22-36.53,7.63,11.34,16.26,38.48,15.45,38.39-.4,1.77-1.48,1.95-4.48,2.01-.82-.1-2.37-.58-4.14-.99-.88-.21-9.7-26.49-14.06-35.69,4.36,11.99,8.17,37.38,7.33,37.46-1.48,1.39-5.74,1.77-9.21,1.3-3.23-.43-5.52-1.84-7.35-2.66-.28-.12-2.69-36.1-2.95-36.19-.48-.17-.27,35.33-.69,35.42-4.95,1.02-6.04,2.91-11.39,3.35-3.47.28-5.75-.1-7.33-1.58.4-2.79,2.77-24.54,5.35-34.39-3.77,9.58-10.79,32.72-11.49,32.71-4.8,0-9.41.1-10.5-.92.67-1.09,4.16-20.92,12.78-34.58-11.39,11.16-15.63,31.52-16.23,31.36-1.27-.32-2.52-.65-2.69-1.43,0,0,13.12-40.39,21.93-41.93,0,0,21.81,5.94,37.08-.08Z"/>
        <path class="cls-7" d="M158.12,246.37l.22-.05c-.06-.2-5.87-20.29-16.16-36.75l-.19.11c10.27,16.43,16.08,36.49,16.13,36.69Z"/>
        <path class="cls-7" d="M85.92,247.49c.06-.22,6.13-22.43,13.76-33.9l-.19-.11c-7.65,11.5-13.72,33.73-13.78,33.96l.21.05Z"/>
        <path class="cls-7" d="M102.47,249.33c.03-.22,3.21-22.15,6.44-32.99l-.21-.05c-3.23,10.85-6.41,32.79-6.44,33.01l.22.03Z"/>
        <path class="cls-7" d="M143.57,248.74l.22-.03c-.03-.2-3.15-20.32-8.64-35.12l-.21.07c5.48,14.78,8.6,34.88,8.63,35.08Z"/>
        <path class="cls-7" d="M124.24,249.22h.22c0-.19-.31-19.1-1.28-30.59l-.22.02c.98,11.48,1.28,30.38,1.29,30.57Z"/>
      </g>
      <g>
        <path class="cls-24" d="M124.84,150.53s.59,5.65,1.09,6.34c2.68.6,5.94,1.39,8.62.99,2.38-.5,1.39,13.18-2.18,17.14-3.57,3.96-21.4,10.6-28.04,0-4.36-9.91,3.37-25.56,3.37-25.56,0,0,12.88,2.28,17.14,1.09Z"/>
        <path class="cls-1" d="M113.07,157.87c-2.75-.84-5.26-1.86-7.57-3.01,1.12-3.24,2.2-5.42,2.2-5.42,0,0,12.88,2.28,17.14,1.09,0,0,.59,5.65,1.09,6.34,2.68.6,5.94,1.39,8.62.99.67-.14,1.07.84,1.23,2.41-6.78.82-14.33.17-22.7-2.41Z"/>
      </g>
      <path class="cls-4" d="M111.06,153.12c1.79,0,3.87-.59,6.21-1.77l-.13-.26c-3.77,1.9-6.83,2.24-9.09,1.01-3.17-1.72-3.67-6.01-3.67-6.05l-.29.03s.51,4.48,3.82,6.28c.93.51,1.99.76,3.17.76Z"/>
      <path class="cls-2" d="M105.38,157.97s-.69,20.72,16.04,19.9c7.66-.38,13.26-7.1,12.53-20.2,0,0,3.2-2.39,6.13-.54,0,0,2.31,35.63-.31,43.11-8.25,3.16-29.77,3.55-37.33,0-2.24-2.95-2.69-39.8-3.08-40.1-.4-.3,6.02-2.16,6.02-2.16Z"/>
      <path class="cls-30" d="M105.38,157.97s-.38,18.4,16.35,17.58c7.66-.37,12.96-4.78,12.22-17.89,0,0,3.2-2.39,6.13-.54,0,0,2.31,35.63-.31,43.11-8.25,3.16-29.77,3.55-37.33,0-2.24-2.95-2.69-39.8-3.08-40.1-.4-.3,6.02-2.16,6.02-2.16Z"/>
      <path class="cls-32" d="M139.46,183.27s0,9.25-.77,15.73c-6.17,3.09-29.92,3.09-35.63.16-.77-10.8-1.39-20.52-1.39-20.52,0,0,2.32,19.13,19.28,20.05,16.96.93,18.51-15.42,18.51-15.42Z"/>
      <polygon class="cls-19" points="101.51 176.6 101.8 176.57 100.94 169.5 100.64 169.54 101.51 176.6"/>
      <g>
        <path class="cls-24" d="M71.33,182.43c-.42-.13-2.44-1.02-3.83-2.01-1.19-.69-5.49-1.06-11.42-2.84-.79-1.48-3.63-5.35-5.08-5.41-1.12-.05-1.46,2.31-1.12,3.3-1.46-2.05-3.11-5.78-4.96-5.72-1.85.07-.6,3.96-.37,4.89-1.81-2.08-4.03-4.92-5.61-4.33-1.58.59.56,4.62,1.55,5.95-1.39-1.45-3.24-2.91-4.56-2.45-1.32.46.19,4.03,3.17,5.81,1.06,1.65,9.48,4.1,14.1,3.06,3.44,1.72,21.03,6.85,28.69,4.74,3.34-.92,13.04-1.86,15.82-13.29-1.05-.79-6.6-2.41-7.56-1.25-.26,2.51.66,7.2.66,7.2,0,0-10.17,5.22-19.49,2.34Z"/>
        <g>
          <path class="cls-11" d="M40.45,176.21c.4.69.78,1.29,1.04,1.63-1.38-1.45-3.24-2.91-4.56-2.44-.62.22-.61,1.13-.11,2.21-1.34-1.67-1.79-3.47-.88-3.8,1.31-.46,3.13.96,4.51,2.4Z"/>
          <path class="cls-11" d="M44.44,174.2c.46,1.17.94,2.23,1.03,2.58-3.76-1.59-4.61-6.38-6.2-5.78-1.15.43.02,3.16,1.13,5.12-1.02-1.43-2.99-5.24-1.46-5.81,1.58-.6,3.8,2.25,5.61,4.33-.02-.11-.07-.26-.11-.44Z"/>
          <path class="cls-11" d="M49.73,176.79c-2.38-1.69-3.7-6.7-5.55-6.64,0,0,0,0,0,0,.16-.24.4-.39.74-.4,1.74-.06,3.31,3.24,4.69,5.34-.06.65-.01,1.31.12,1.7Z"/>
        </g>
      </g>
      <path class="cls-10" d="M94.05,179.75s.07-.01.09-.04c1.34-1.34,3.08-1.46,3.1-1.47.07,0,.13-.06.12-.14,0-.07-.06-.14-.14-.12-.08,0-1.86.13-3.26,1.54-.05.05-.05.13,0,.18.02.03.06.04.09.04Z"/>
      <path class="cls-10" d="M93.12,183.1s.08-.02.11-.05c1.32-1.92,3.36-1.42,3.44-1.4.07.02.14-.02.16-.09.02-.07-.02-.14-.09-.16-.02,0-2.3-.58-3.72,1.5-.04.06-.03.14.03.18.02.02.05.02.07.02Z"/>
      <g>
        <path class="cls-13" d="M21.73,177.94l1.42-.2-.02-.66c-.41.08-.88.17-1.4.28,0,.2,0,.4,0,.57Z"/>
        <path class="cls-13" d="M21.73,176.68c0,.07,0,.14,0,.21.58-.13,1.06-.22,1.39-.28l-.02-.6c-.31.05-.79.13-1.38.25,0,.15,0,.3,0,.43Z"/>
        <path class="cls-13" d="M21.74,175.33c0,.15,0,.3,0,.45.59-.11,1.07-.19,1.37-.24v-.46s-1.36.26-1.36.26Z"/>
        <path class="cls-13" d="M21.76,174.85l1.31-.25c0-.35.16-.68.42-.91-.36-.17-.85-.31-1.31-.16-.13.04-.22.21-.29.45,0,.02,0,.04-.01.05-.06.23-.1.51-.12.82Z"/>
        <path class="cls-13" d="M21.07,173.34c.08.04.16.07.25.1.14-.27.34-.47.61-.57.56-.18,1.11-.1,1.56.06.12-.12.22-.26.31-.41.51-.92.11-2.05-.89-2.52s-2.22-.1-2.73.83-.11,2.05.89,2.52Z"/>
        <path class="cls-13" d="M14.53,175.76s.1.04.15.06c.74-.41,1.61-.77,2.47-1.07.27-.79-.12-1.67-.93-2.05-.92-.43-2.04-.09-2.5.75s-.1,1.88.82,2.31Z"/>
        <path class="cls-13" d="M11.34,180.45c.03.21.05.42.04.64.57-.43.81-.74,1.12-1.12s.7-.86,1.54-1.62c1.94-1.73,5.8-2.98,6.95-3.33.01-.22.03-.43.06-.63-1.49.33-5.59,1.33-7.13,2.85-1.22,1.2-1.68,1.91-2.01,2.44-.18.28-.34.53-.56.77Z"/>
        <path class="cls-13" d="M20.97,175.52c-.66.21-1.93.63-3.25,1.21,1.15-.34,2.29-.61,3.25-.81,0-.14,0-.27,0-.4Z"/>
        <path class="cls-13" d="M11.34,181.71c-.04.27-.1.55-.19.83.4-.15,1.21-.62,2.73-2.1.74-1.62,4.49-2.77,7.1-3.39,0-.12,0-.24,0-.37v-.28c-1.84.39-4.31,1.02-6.11,1.9-.17.12-.33.25-.48.38-.81.72-1.17,1.17-1.48,1.56-.38.47-.68.85-1.57,1.47Z"/>
        <path class="cls-13" d="M20.99,177.54c-1.71.41-3.67,1-5.04,1.72,1.85-.71,4.16-1.1,5.02-1.22.01-.15.02-.32.02-.5Z"/>
        <path class="cls-13" d="M12.1,182.58l.5.4c.37-.4.89-.83,1.69-1.29,1.72-.99,3.41-1.27,4.76-1.5,1.04-.18,1.9-.33,2.5-.72-.3-.27-.53-.58-.58-.94-1.29.2-5.33.91-6.69,2.22-.86.83-1.59,1.45-2.18,1.84Z"/>
        <path class="cls-13" d="M10.8,189.77c-.44.8-.09,1.77.77,2.17s1.92.09,2.35-.71.09-1.77-.77-2.17-1.91-.08-2.35.71Z"/>
        <path class="cls-5" d="M11.47,185.91l-.17,2.5c.62-.26,1.34-.3,2.01-.04v-1.88s0-3.2,0-3.2c-.45.45-.66.86-.87,1.27-.23.44-.46.9-.97,1.36Z"/>
        <path class="cls-13" d="M14.07,182.66v3.29c.85-.35,2.14-.92,2.63-1.14l.18-3.46c-.71.21-1.44.49-2.19.92-.23.13-.43.26-.61.38Z"/>
        <path class="cls-13" d="M17.06,186.77c-.56,1.01-.12,2.26.98,2.77s2.44.11,3-.91.12-2.26-.98-2.77c-.1-.05-.21-.09-.32-.12h0c-1.03-.31-2.18.11-2.68,1.02Z"/>
        <path class="cls-5" d="M17.44,185.04l-.02.35c.59-.36,1.31-.51,2.01-.42l-.4-4.08c-.45.08-.92.16-1.4.27l-.2,3.88Z"/>
        <path class="cls-13" d="M1.55,184.29c1.75,1.58,5.47,3.19,8.27,1.83,1.32-.64,1.61-1.21,1.95-1.88.2-.39.41-.82.83-1.27l-.5-.4c-.46.3-.84.47-1.14.49-.02.03-.03.07-.04.1-.46.98-1.15,1.65-2.05,1.96-.95.33-2.08.25-3.19-.23-.78-.34-1.29-1.26-1.16-2.08.13-.83.83-1.39,1.92-1.55.92-.13,1.62,0,2.09.39.59.49.55,1.21.54,1.24-.01.19-.19.34-.4.33-.21-.01-.37-.17-.36-.37,0,0,.02-.42-.3-.69-.29-.24-.79-.31-1.46-.21-.76.11-1.21.44-1.29.96-.08.52.25,1.14.73,1.35.53.23,1.57.57,2.6.21.7-.25,1.25-.78,1.63-1.59.95-2.06.11-4.03-1.15-5.07-1.23-1.02-5.09-.92-6.66.5-.98.89-1.66,2.48-1.65,3.89,0,.62.14,1.49.79,2.07Z"/>
        <path class="cls-13" d="M19.79,180.76l.3,3.1c1.75-.22,3.09-.77,3.71-1.53.26-.32.37-.66.32-.97-.06-.35-.72-.72-1.3-1.06-.22-.13-.45-.26-.66-.39-.62.48-1.44.68-2.36.85Z"/>
        <path class="cls-13" d="M23.22,179.71c.62.35,1.2.69,1.48,1.13.16-.41.28-.94.24-1.57l-.23.03c-.38.05-.77-.06-1.07-.29-.26-.21-.43-.5-.47-.81l-1.46.2c.08.48.8.9,1.5,1.3Z"/>
        <path class="cls-15" d="M24.13,178.48c.13.1.3.15.47.13l51.67-6.69c.31-.04.53-.29.52-.57l-.03-.6-52.84,7.36c.01.15.08.28.21.38Z"/>
        <polygon class="cls-15" points="23.91 177.64 76.74 170.27 76.68 168.82 23.89 176.95 23.91 177.64"/>
        <polygon class="cls-15" points="23.88 176.48 76.66 168.35 76.59 166.86 23.86 175.88 23.88 176.48"/>
        <polygon class="cls-15" points="23.85 175.41 76.56 166.39 76.5 164.93 23.84 174.93 23.85 175.41"/>
        <path class="cls-15" d="M23.85,174.45l52.61-9.99c-.03-.13-.1-.24-.22-.32-.14-.1-.32-.14-.49-.1l-51.45,10.01c-.23.04-.4.21-.46.41Z"/>
        <path class="cls-15" d="M58.28,183.6c2.49,3.27,6.7,7.16,12.23,6.15,2.55-.46,4.42-.85,5.92-1.15,3.28-.67,4.46-.91,5.66-.47-.9-1.97-3.01-4.37-3.34-4.74-.3-.15-1.94-.95-3.01-.55l-.19.07c-6.91,2.61-12.32,3.19-15.64,1.67-.59-.27-1.14-.6-1.63-.97Z"/>
        <path class="cls-13" d="M76.38,172.61c.45-.06.83-.32,1.02-.67.1-.19.15-.4.15-.62l-.03-.68,13.06-1.82c.13,1.07.29,1.87.39,2.3.04.2.16.36.35.46.18.1.4.14.6.09l1.09-.25c.2-.05.37-.16.48-.33.01-.01.02-.03.03-.04.09-.16.11-.33.06-.51-.16-.57-.29-1.29-.41-2.08l11.42-1.59c.03.38.06.73.11,1.02.1.6.6,1.06,1.26,1.16.65.09,1.62.16,2.57-.03.06-.01.12-.04.18-.06v.38c0,.29.18.55.47.66s.61.06.84-.14c1.34-1.17,4.58-3.95,5.77-4.64,1.17-.67,7.57-1.16,10.39-1.32.11,3.97-.55,8.13-2.09,11.92-1.33,3.28-3.89,5.63-7.6,7-5.79,2.13-12.64,1.15-14.26.42-2.36-1.07-4.74-.65-6.14.42,0-1.56-.34-4.45-2.97-5.25-3.41-1.04-7.85-.87-9.62-.36-.05.02-5.29,1.55-5.06,3.49.05.42.08.73.11.97-.76-.31-2.07-.72-3.11-.33l-.19.07c-6.61,2.5-11.94,3.1-15.02,1.69-4.22-1.94-5.77-7.07-6.11-8.46l22.25-2.88ZM91.13,175.02c2.58-.2,5.78-.45,6.99.01.58.22.91.5.99.81,0,.05.02.1.02.14-.18-.22-.44-.41-.83-.51-.72-.19-1.56.24-1.89.95-.25.57-.17,1.35.83,1.87.92.47,2.04.43,2.93-.11.42-.25.74-.59.96-.99.25-.45.35-.98.3-1.52-.14-1.29-1.17-3.43-6.56-3.21-3.75.16-8.03.52-8.12.53-.48.04-.7-.13-.77-.2-.05-.05-.08-.1-.08-.13.07-.02.24-.03.36-.04.5-.05,1.34-.13,1.49-.97.11-.57-.41-1.19-1.2-1.43-.8-.25-1.9-.1-2.56,1.07-.45.78-.51,1.5-.21,2.13.36.76,1.26,1.36,2.55,1.69.81.21,2.66.06,4.8-.1Z"/>
        <path class="cls-15" d="M82.73,187.76c.44-1.03,1.35-2.58,3.01-3.27,2.14-.88,7.42-2.09,9.6-.68.03-1.35-.21-4.06-2.44-4.74-3.26-.99-7.48-.84-9.16-.35-2.27.66-4.64,1.92-4.54,2.75.1.88.14,1.31.16,1.5.43.48,2.42,2.78,3.37,4.78Z"/>
        <path class="cls-13" d="M55.24,167.31l20.36-3.96c.39-.08.8,0,1.11.23.26.19.43.45.49.74l6.51-1.24c-.14-.38-.16-.75-.07-1.12.2-.78.95-1.49,2.11-2,.73-.32,2.5-.47,4.55-.65,2.46-.21,5.53-.47,6.59-1.09.5-.3.76-.6.78-.91,0-.03,0-.06,0-.09-.13.22-.35.42-.68.57-.65.29-1.54.02-1.97-.61-.35-.5-.41-1.26.45-1.91.78-.59,1.86-.72,2.8-.35.95.37,1.56,1.19,1.65,2.19.04.44-.01,1.01-.32,1.57-.37.67-1.11,1.35-2.5,1.86l7.5-1.42.13-.02c0-.1.01-.2.02-.29.04-.62.57-1.12,1.24-1.16.9-.06,1.6,0,2.09.16v-.06c-.03-.28.12-.55.39-.69s.59-.13.84.04c1.37.9,4.77,3,6.79,3.07,2.33.08,8.11-.49,9.64-.65-.9-4.92-3.09-9.13-6.34-11.33-6.44-4.37-19.41,1.61-20.92,2.58-1.21.77-3.16.36-4.22.05.21.9.27,2.54-1.14,4.35-2.15,2.74-9.27,3.8-11.73,3.13-1.88-.51-2.79-2.37-3.16-3.39-1.19,1.2-2.59,1.25-5.09,1.33-1.66.05-3.94.12-7.1.55-7.04.95-10.08,8.42-10.81,10.52Z"/>
        <path class="cls-15" d="M98.99,187.22l6.43-.99c.72-.11,1.4.3,1.58.95l.27.97c.07.26.05.53-.05.78,6.24.77,14.28.6,18.46-4.15,3.76-4.29,5.75-11.81,5.21-18.81l-3.95-1.85c.09,3.99-.58,8.16-2.13,11.96-.19.47-.41.93-.65,1.36-1.52,2.77-4,4.79-7.38,6.04-6.09,2.24-13.11,1.19-14.87.4-1.96-.88-3.95-.6-5.16.22,1.53,1.18,2.07,2.55,2.23,3.13Z"/>
        <path class="cls-13" d="M103.49,188.81c.08.29.37.47.69.44l1.82-.19c.19-.02.34-.11.45-.25s.14-.31.09-.48l-.27-.97c-.08-.3-.39-.49-.72-.43l-3.41.52.06.31c.35-.06.98,0,1.29,1.06Z"/>
        <path class="cls-15" d="M84.48,173.15c.26.56,1,1.02,2.06,1.3.68.17,2.55.03,4.53-.12,2.93-.23,5.96-.46,7.35.06.82.32,1.31.76,1.44,1.32.2.85-.54,1.6-.57,1.63-.12.12-.31.14-.46.07s-.23-.23-.19-.39.12-.68-.54-.86c-.35-.09-.81.17-.98.55-.17.38,0,.73.5.99.67.34,1.49.31,2.15-.08.66-.4,1-1.08.91-1.86-.26-2.44-3.72-2.66-5.77-2.57-3.75.16-8.04.53-8.08.53,0,0,0,0,0,0-.91.07-1.43-.34-1.61-.72-.1-.22-.1-.45,0-.63.04-.07.1-.14.17-.2.2-.16.49-.19.79-.22.57-.06.77-.12.82-.39.04-.2-.24-.51-.69-.66-.32-.1-1.11-.22-1.64.73l-.02.03c-.31.57-.37,1.07-.17,1.5Z"/>
        <path class="cls-13" d="M77.5,170.17l13.01-1.81h.02c-.06-.51-.1-1.06-.13-1.65l-12.97,2,.07,1.47Z"/>
        <path class="cls-13" d="M77.41,168.23l12.91-1.99h.06c-.02-.56-.03-1.14-.01-1.74l-12.96,2.22h-.07s.07,1.51.07,1.51Z"/>
        <g>
          <path class="cls-21" d="M126.26,185.22c.83-.95,1.58-2.04,2.24-3.23,2.48-4.51,3.64-10.52,3.14-16.27,0,0,0,0,0,0-.13-1.47-.36-2.93-.71-4.34-1.15-4.58-4-10.68-11.12-13.76-6.9-4.63-20.13,1.54-21.76,2.58-1.11.71-3.42.05-4.22-.27-.15-.05-.31-.02-.42.08-.11.1-.14.26-.07.39.04.08.98,2.04-.83,4.36-1.87,2.39-8.66,3.48-10.9,2.87-2.14-.58-2.83-3.52-2.84-3.55-.03-.14-.15-.24-.3-.27-.15-.03-.3.03-.39.15-1.08,1.46-2.14,1.5-4.96,1.58-1.68.05-3.98.12-7.18.56-7.97,1.08-11.07,9.89-11.54,11.38l-30.07,5.85s-.08-.05-.13-.08c.11-.13.2-.27.29-.42.7-1.27.15-2.82-1.22-3.46s-3.05-.13-3.75,1.13c-.65,1.18-.22,2.6.94,3.31-.64.15-1.52.37-2.47.67.1-.97-.44-1.94-1.42-2.4-1.29-.6-2.87-.13-3.52,1.06-.61,1.12-.19,2.47.93,3.13-.22.16-.43.32-.6.5-1.28,1.25-1.76,2.01-2.11,2.56-.05.07-.09.14-.13.21-.32-.9-.88-1.68-1.55-2.23-1.64-1.35-5.95-1.05-7.69.53C.77,178.84,0,180.64,0,182.22c0,1.09.36,1.98,1.02,2.58,2.24,2.01,6.2,3.38,9.15,1.95.19-.09.35-.18.51-.27l-.17,2.47c-.15.15-.28.32-.38.51-.63,1.14-.13,2.53,1.1,3.11s2.74.12,3.37-1.02c.52-.94.27-2.05-.53-2.74v-2.09c.7-.28,1.89-.8,2.6-1.11l-.03.48c-.09.12-.17.24-.24.37-.75,1.36-.16,3.02,1.31,3.71s3.27.14,4.02-1.21.16-3.02-1.31-3.71c-.06-.03-.13-.05-.19-.08l-.06-.61c1.98-.24,3.49-.88,4.24-1.81.1-.12.18-.24.25-.36.03-.05.04-.09.06-.14.08-.08.27-.31.46-.66.29-.53.58-1.35.51-2.41l27.69-3.59c.17.72.66,2.5,1.73,4.35.31.63,1.67,3.29,4,5.82,3.5,3.8,7.49,5.42,11.55,4.68,2.55-.47,4.43-.85,5.94-1.16,3.99-.82,4.6-.94,5.96-.15h0s.05.03.08.03c0,0,.01,0,.01,0,.02,0,.05.01.07.01,0,0,.02,0,.03,0,.02,0,.04,0,.06,0,.01,0,.02,0,.03,0,0,0,.01,0,.02,0,.01,0,.02,0,.03-.01,0,0,.01,0,.02,0,0,0,0,0,.01,0,.02,0,.04-.02.05-.03,0,0,.02,0,.02-.02.02-.01.03-.03.05-.04,0,0,0,0,.01-.01.02-.02.03-.04.05-.06h0s.03-.05.03-.08c0-.03.73-2.88,2.93-3.79,2.59-1.06,8.22-2.02,9.29-.32t0,0s0,0,0,0c.02.03,26.4,5.52,30.9.39ZM82.73,187.76c-.95-2.01-2.94-4.3-3.37-4.78-.01-.19-.05-.63-.16-1.5-.1-.83,2.27-2.09,4.54-2.75,1.67-.48,5.9-.64,9.16.35,2.23.68,2.47,3.39,2.44,4.74-2.18-1.42-7.46-.2-9.6.68-1.66.68-2.57,2.23-3.01,3.27ZM58.28,183.6c.49.37,1.04.7,1.63.97,3.32,1.52,8.73.95,15.64-1.67l.19-.07c1.08-.4,2.71.39,3.01.55.32.37,2.43,2.77,3.34,4.74-1.19-.44-2.37-.2-5.66.47-1.5.31-3.38.69-5.92,1.15-5.53,1.01-9.74-2.88-12.23-6.15ZM54.13,175.49l22.25-2.88c.45-.06.83-.32,1.02-.67.1-.19.15-.4.15-.62l-.03-.68,13.06-1.82c.13,1.07.29,1.87.39,2.3.04.2.16.36.35.46.18.1.4.14.6.09l1.09-.25c.2-.05.37-.16.48-.33.01-.01.02-.03.03-.04.09-.16.11-.33.06-.51-.16-.57-.29-1.29-.41-2.08l11.42-1.59c.03.38.06.73.11,1.02.1.6.6,1.06,1.26,1.16.65.09,1.62.16,2.57-.03.06-.01.12-.04.18-.06v.38c0,.29.18.55.47.66.29.12.61.06.84-.14,1.34-1.17,4.58-3.95,5.77-4.64,1.17-.67,7.57-1.16,10.39-1.32.11,3.97-.55,8.13-2.09,11.92-1.33,3.28-3.89,5.63-7.6,7-5.79,2.13-12.64,1.15-14.26.42-2.36-1.07-4.74-.65-6.14.42,0-1.56-.34-4.45-2.97-5.25-3.41-1.04-7.85-.87-9.62-.36-.05.02-5.29,1.55-5.06,3.49.05.42.08.73.11.97-.76-.31-2.07-.72-3.11-.33l-.19.07c-6.61,2.5-11.94,3.1-15.02,1.69-4.22-1.94-5.77-7.07-6.11-8.46ZM108.21,158.91c.06.37.13,1.09.19,2.03l-3.05.52c.03-.76.07-1.46.1-2.03l2.75-.52ZM105.49,158.95s0-.07,0-.1c0-.08.03-.15.06-.21.09-.16.27-.28.47-.29.92-.06,1.53.02,1.85.15l-2.4.45ZM97.12,155.88c-.13.1-.18.27-.11.42.06.14.23.61-.35.87-.31.14-.78-.03-1-.36-.15-.21-.16-.42-.04-.64.07-.12.18-.24.33-.36.56-.42,1.34-.52,2.03-.25.69.27,1.13.86,1.19,1.6.2,2.33-3.03,3.07-4.97,3.31-3.57.43-7.68.75-7.72.75t0,0c-.88.07-1.3.55-1.4.94-.06.24,0,.47.14.64l-.76.14c-.12-.28-.15-.56-.08-.82.15-.57.75-1.11,1.7-1.53.61-.27,2.4-.42,4.29-.58,2.81-.24,5.72-.49,6.93-1.2.73-.43,1.11-.92,1.13-1.48.04-.84-.81-1.44-.85-1.46-.14-.1-.33-.09-.46,0ZM91.91,162c.02.46.04,1.06.08,1.75l-.84.14c.03-.58.08-1.17.15-1.78l.61-.12ZM90.58,161.78l-3.41.65c-.35-.15-.76-.12-1.03-.1-.1,0-.25.02-.33.01,0-.03.02-.07.06-.12.06-.08.23-.26.67-.29.06,0,1.84-.14,4.07-.36,0,.07-.02.14-.03.22ZM92.01,164.22c.03.55.07,1.14.12,1.74l-1.01.15c-.02-.56-.02-1.14,0-1.74l.89-.15ZM92.76,164.09l11.81-2.02c-.02.65-.04,1.32-.05,1.98h-.08s-11.56,1.79-11.56,1.79c-.05-.61-.09-1.2-.12-1.75ZM104.52,164.52c0,.66.01,1.3.04,1.87h-.05s-11.41,1.59-11.41,1.59c-.07-.54-.13-1.11-.18-1.68l11.6-1.79ZM92.35,168.1l-1.08.15c-.05-.51-.1-1.07-.13-1.66l1.03-.16c.05.56.11,1.13.18,1.67ZM92.42,168.56c.12.81.25,1.56.42,2.15l-.02.02-1.09.25-.4.06.37-.07c-.09-.41-.25-1.21-.38-2.26l1.09-.15ZM90.51,168.36l-13.01,1.81-.07-1.47,12.97-2c.03.59.08,1.14.13,1.65h-.02ZM76.74,170.27l-52.83,7.36-.02-.68,52.78-8.14.07,1.45ZM23.16,177.74l-1.42.2c0-.18.01-.37,0-.57.51-.11.99-.21,1.4-.28l.02.66ZM20.97,178.04c-.85.13-3.16.51-5.02,1.22,1.37-.72,3.33-1.31,5.04-1.72,0,.18,0,.35-.02.5ZM13.89,180.44c-1.52,1.48-2.34,1.95-2.73,2.1.09-.28.15-.56.19-.83.88-.62,1.19-1,1.57-1.47.31-.39.67-.83,1.48-1.56.15-.13.31-.26.48-.38,1.8-.88,4.27-1.51,6.11-1.9,0,.09,0,.19,0,.28,0,.13,0,.25,0,.37-2.61.61-6.35,1.76-7.1,3.39ZM17.72,176.73c1.32-.58,2.6-1,3.25-1.21,0,.13,0,.27,0,.4-.96.2-2.11.47-3.25.81ZM23.11,176.01l.02.6c-.33.06-.81.15-1.39.28,0-.07,0-.14,0-.21,0-.13,0-.27,0-.43.59-.11,1.07-.19,1.38-.25ZM21.73,175.77c0-.15,0-.3,0-.45l1.35-.26v.46c-.29.05-.76.13-1.36.24ZM76.59,166.86l.07,1.49-52.77,8.13-.02-.6,52.72-9.02ZM23.85,175.41v-.48s52.64-10,52.64-10l.07,1.46-52.71,9.02ZM77.25,164.79h.06s6.61-1.27,6.61-1.27c.09.15.19.29.31.44.49.59,1.07.83,1.6.85l-8.51,1.46-.07-1.47ZM90.36,164.5c-.02.6,0,1.18.01,1.73h-.06s-12.91,2-12.91,2l-.07-1.5h.07s12.96-2.23,12.96-2.23ZM86.67,164.66c.06-.02.13-.05.19-.08.7-.36,1.08-1.03.87-1.56-.03-.08-.07-.14-.1-.21l2.88-.55c-.07.6-.11,1.19-.13,1.76l-3.71.63ZM84.83,163.53c-.04-.05-.09-.11-.12-.16l1.89-.36c.25.01.36.07.43.24.07.18-.13.51-.53.71-.27.14-.99.37-1.66-.44ZM91.38,161.49c.17-.02.34-.03.51-.05,0,.03,0,.06,0,.09l-.53.1s.02-.1.02-.14ZM92.64,161.36c.13-.01.27-.03.4-.04l-.4.07s0-.02,0-.03ZM104.69,159.58c-.04.58-.07,1.27-.1,2.02l-.11.02-11.75,2.01c-.04-.7-.06-1.31-.08-1.76l12.03-2.29ZM108.43,161.41c.04.61.07,1.3.11,2.03l-3.26.5c0-.67.03-1.35.05-1.99l3.09-.53ZM108.56,163.9c.03.62.05,1.27.08,1.92l-3.33.46c-.03-.58-.04-1.22-.03-1.88l3.28-.5ZM108.66,166.3c.02.54.04,1.08.06,1.61h0c0,.08-.02.14-.05.2-.06.1-.16.18-.29.21-.84.17-1.71.11-2.29.02-.33-.05-.58-.28-.63-.57-.05-.29-.08-.64-.11-1.02l3.32-.46ZM24.13,178.48c-.12-.1-.2-.23-.21-.38l52.84-7.36.03.6c.01.29-.21.53-.52.57l-51.67,6.69c-.17.02-.34-.02-.47-.13ZM24.7,180.84c-.29-.44-.87-.78-1.48-1.13-.7-.4-1.42-.81-1.5-1.3l1.46-.2c.04.31.21.6.47.81.3.23.68.34,1.07.29l.23-.03c.04.63-.08,1.16-.24,1.57ZM20.09,183.86l-.3-3.1c.93-.17,1.74-.37,2.36-.85.22.14.44.27.66.39.58.33,1.24.71,1.3,1.06.05.31-.06.64-.32.97-.62.76-1.97,1.31-3.71,1.53ZM19.44,184.97c-.71-.08-1.42.07-2.01.42l.02-.35.2-3.88c.48-.11.95-.19,1.4-.27l.4,4.08ZM19.75,185.75h0c.11.03.21.07.32.12,1.1.51,1.54,1.76.98,2.77s-1.9,1.42-3,.91-1.54-1.76-.98-2.77c.5-.92,1.65-1.34,2.68-1.03ZM14.07,185.96v-3.29c.18-.12.39-.25.62-.38.75-.43,1.48-.71,2.19-.92l-.18,3.46c-.49.22-1.78.79-2.63,1.14ZM13.15,189.06c.86.4,1.21,1.38.77,2.17s-1.49,1.11-2.35.71-1.2-1.38-.77-2.17,1.49-1.11,2.35-.71ZM11.47,185.91c.52-.46.75-.92.97-1.36.2-.41.42-.82.87-1.27v3.2s0,1.88,0,1.88c-.66-.25-1.39-.22-2.01.04l.17-2.5ZM10.22,182.9c-.37.8-.92,1.34-1.63,1.59-1.03.36-2.06.02-2.6-.21-.48-.21-.81-.83-.73-1.35.08-.52.53-.85,1.29-.96.67-.1,1.18-.02,1.46.21.32.27.31.68.3.69,0,.19.15.36.36.37.21.01.38-.13.4-.33,0-.03.04-.74-.54-1.24-.47-.39-1.17-.53-2.09-.39-1.09.16-1.8.72-1.92,1.55-.13.83.38,1.74,1.16,2.08,1.1.48,2.23.57,3.19.23.91-.32,1.6-.98,2.05-1.96.02-.04.03-.07.04-.1.29-.03.68-.19,1.14-.49.59-.39,1.32-1,2.18-1.84,1.36-1.32,5.4-2.02,6.69-2.22.06.37.28.67.58.94-.6.39-1.46.54-2.5.72-1.35.23-3.04.51-4.76,1.5-.81.46-1.33.89-1.69,1.29-.42.46-.63.88-.83,1.27-.33.67-.63,1.24-1.95,1.88-2.79,1.35-6.51-.26-8.27-1.83-.65-.58-.79-1.45-.79-2.07,0-1.4.68-3,1.65-3.89,1.57-1.42,5.42-1.52,6.66-.5,1.26,1.04,2.11,3.01,1.15,5.07ZM17.15,174.75c-.86.3-1.73.66-2.47,1.07-.05-.02-.1-.03-.15-.06-.92-.43-1.28-1.47-.82-2.31s1.59-1.18,2.5-.75c.81.38,1.2,1.26.93,2.05ZM21.05,174.39c-.03.2-.05.41-.06.63-1.15.35-5.01,1.6-6.95,3.33-.84.75-1.23,1.23-1.54,1.62-.31.38-.55.69-1.12,1.12,0-.22-.01-.43-.04-.64.22-.24.39-.49.56-.77.33-.53.79-1.24,2.01-2.44,1.54-1.51,5.64-2.52,7.13-2.85ZM22.18,173.52c.46-.15.95,0,1.31.16-.26.23-.42.56-.42.91l-1.31.25c.02-.31.06-.59.12-.82,0-.02.01-.03.01-.05.07-.24.16-.41.29-.45ZM21.93,172.87c-.27.09-.47.29-.61.57-.09-.03-.17-.06-.25-.1-1-.47-1.4-1.6-.89-2.52s1.73-1.29,2.73-.83,1.4,1.6.89,2.52c-.08.15-.19.29-.31.41-.45-.15-1.01-.24-1.56-.06ZM75.76,164.03c.17-.03.35,0,.49.1.11.08.19.2.22.32l-52.61,9.99c.06-.2.23-.36.46-.41l51.45-10.01ZM130.2,161.6l-3.71-1.99c-.7-3.97-2.21-7.51-4.42-9.99,4.97,3.18,7.16,8.09,8.11,11.91,0,.02.01.05.02.07ZM125.73,159.53c-1.53.16-7.31.73-9.64.65-2.02-.07-5.42-2.17-6.79-3.07-.25-.17-.57-.18-.84-.04-.27.14-.42.4-.39.69v.06c-.49-.16-1.19-.22-2.09-.16-.67.04-1.2.54-1.24,1.16,0,.09-.01.19-.02.29l-.13.02-7.5,1.42c1.39-.5,2.13-1.18,2.5-1.86.31-.57.36-1.13.32-1.57-.08-1-.7-1.81-1.65-2.19-.95-.37-2.02-.24-2.8.35-.86.65-.8,1.41-.45,1.91.44.63,1.32.91,1.97.61.33-.15.55-.35.68-.57,0,.03,0,.06,0,.09-.02.31-.28.61-.78.91-1.06.62-4.13.89-6.59,1.09-2.05.17-3.82.32-4.55.65-1.16.51-1.91,1.22-2.11,2-.09.37-.07.74.07,1.12l-6.51,1.24c-.06-.29-.24-.55-.49-.74-.31-.23-.72-.31-1.11-.23l-20.36,3.96c.72-2.1,3.76-9.57,10.81-10.52,3.16-.43,5.44-.5,7.1-.55,2.5-.08,3.9-.12,5.09-1.33.37,1.02,1.28,2.88,3.16,3.39,2.45.66,9.58-.39,11.73-3.13,1.42-1.81,1.35-3.45,1.14-4.35,1.06.31,3.01.72,4.22-.05,1.52-.96,14.48-6.94,20.92-2.58,3.25,2.2,5.44,6.41,6.34,11.33ZM126.91,163.32c-.05-.96-.14-1.9-.27-2.82l3.77,2.02c.18.86.31,1.74.41,2.63l-3.91-1.83ZM126.16,163.21c-1.91.11-9.28.57-10.76,1.42-1.2.69-4.21,3.25-5.89,4.72-.04,0-.04,0-.04-.01v-1.43s0,0,0,0c0,0,0,0,0,0-.08-2.5-.3-8.37-.57-9.34l-.08-.86s0-.01.01-.02c1.79,1.16,5.08,3.13,7.23,3.2,2.43.08,8.29-.5,9.79-.66.15.98.26,1.98.31,2.99ZM107.22,188.93c.1-.25.13-.52.05-.78l-.27-.97c-.18-.65-.86-1.06-1.58-.95l-6.43.99c-.17-.58-.7-1.95-2.23-3.13,1.21-.82,3.2-1.11,5.16-.22,1.76.8,8.78,1.84,14.87-.4,3.39-1.25,5.86-3.27,7.38-6.04.24-.44.46-.89.65-1.36,1.54-3.8,2.22-7.97,2.13-11.96l3.95,1.85c.53,7.01-1.45,14.52-5.21,18.81-4.18,4.76-12.22,4.92-18.46,4.15Z"/>
          <path class="cls-21" d="M83.79,173.43c.36.76,1.26,1.36,2.55,1.69.81.21,2.66.06,4.8-.1,2.58-.2,5.78-.45,6.99.01.58.22.91.5.99.81,0,.05.02.1.02.14-.18-.22-.44-.41-.83-.51-.72-.19-1.56.24-1.89.95-.25.57-.17,1.35.83,1.87.92.47,2.04.43,2.93-.11.42-.25.74-.59.96-.99.25-.45.35-.98.3-1.52-.14-1.29-1.17-3.43-6.56-3.21-3.75.16-8.03.52-8.12.53-.48.04-.7-.13-.77-.2-.05-.05-.08-.1-.08-.13.07-.02.24-.03.36-.04.5-.05,1.34-.13,1.49-.97.11-.57-.41-1.19-1.2-1.43-.8-.25-1.9-.1-2.56,1.07-.45.78-.51,1.5-.21,2.13ZM84.48,173.15c-.2-.43-.14-.93.17-1.5l.02-.03c.54-.95,1.33-.83,1.64-.73.45.14.73.46.69.66-.05.28-.25.34-.82.39-.3.03-.59.05-.79.22-.07.06-.13.12-.17.2-.1.18-.11.42,0,.63.17.38.7.79,1.61.72,0,0,0,0,0,0,.04,0,4.33-.37,8.08-.53,2.04-.08,5.51.14,5.77,2.57.08.78-.25,1.46-.91,1.86-.66.4-1.48.43-2.15.08-.5-.26-.67-.61-.5-.99.17-.38.63-.64.98-.55.66.18.59.7.54.86-.04.16.04.31.19.39.15.08.34.05.46-.07.03-.03.78-.78.57-1.63-.13-.56-.62-1-1.44-1.32-1.38-.53-4.41-.29-7.35-.06-1.98.15-3.85.3-4.53.12-1.06-.27-1.79-.73-2.06-1.3Z"/>
        </g>
        <path class="cls-13" d="M77.32,166.26l8.51-1.46c-.53-.02-1.11-.25-1.6-.85-.12-.15-.22-.29-.31-.44l-6.61,1.26h-.06s.07,1.48.07,1.48Z"/>
        <path class="cls-15" d="M91.34,171.04l.4-.06,1.09-.25.02-.02c-.17-.6-.31-1.34-.42-2.15l-1.09.15c.13,1.05.29,1.85.38,2.26l-.37.07Z"/>
        <path class="cls-15" d="M91.28,168.25l1.08-.15c-.07-.54-.13-1.11-.18-1.67l-1.03.16c.03.59.08,1.15.13,1.66Z"/>
        <path class="cls-13" d="M93.11,167.99l11.41-1.59h.05c-.03-.58-.04-1.22-.04-1.88l-11.6,1.79c.05.57.11,1.14.18,1.68Z"/>
        <path class="cls-13" d="M86.67,164.66l3.71-.63c.02-.57.07-1.16.13-1.76l-2.88.55c.04.06.08.13.1.21.21.53-.17,1.2-.87,1.56-.06.03-.13.06-.19.08Z"/>
        <path class="cls-15" d="M84.83,163.53c.67.81,1.39.58,1.66.44.4-.2.6-.53.53-.71-.07-.17-.18-.23-.43-.24l-1.89.36c.04.05.08.11.12.16Z"/>
        <path class="cls-15" d="M91.13,166.12l1.01-.15c-.05-.6-.09-1.19-.12-1.74l-.89.15c-.02.61-.01,1.19,0,1.74Z"/>
        <path class="cls-15" d="M84.46,162.94l.76-.14c-.15-.17-.2-.4-.14-.64.09-.39.52-.87,1.4-.94t0,0s4.15-.32,7.72-.75c1.94-.24,5.17-.98,4.97-3.31-.06-.74-.5-1.32-1.19-1.6-.69-.27-1.46-.17-2.03.25-.15.11-.26.23-.33.36-.12.21-.11.43.04.64.23.33.7.5,1,.36.58-.26.42-.74.35-.87-.07-.14-.03-.32.11-.42.14-.1.33-.1.46,0,.04.03.88.62.85,1.46-.02.55-.4,1.05-1.13,1.48-1.21.71-4.12.96-6.93,1.2-1.89.16-3.68.31-4.29.58-.95.42-1.55.96-1.7,1.53-.07.26-.04.53.08.82Z"/>
        <path class="cls-13" d="M92.88,165.85l11.56-1.78h.08c0-.68.02-1.35.05-2l-11.81,2.02c.03.55.07,1.15.12,1.75Z"/>
        <path class="cls-13" d="M85.86,162.21c-.04.05-.05.1-.06.12.08,0,.22,0,.33-.01.27-.02.68-.04,1.03.1l3.41-.65c0-.07.02-.14.03-.22-2.23.22-4.01.35-4.07.36-.44.04-.62.22-.67.29Z"/>
        <path class="cls-15" d="M91.14,163.9l.84-.14c-.04-.68-.06-1.28-.08-1.75l-.61.12c-.07.6-.12,1.2-.15,1.78Z"/>
        <path class="cls-13" d="M92.74,163.62l11.75-2.01.11-.02c.03-.74.07-1.44.1-2.02l-12.03,2.29c.02.45.04,1.06.08,1.76Z"/>
        <path class="cls-15" d="M91.36,161.63l.53-.1s0-.06,0-.09c-.17.02-.34.03-.51.05,0,.05-.02.09-.02.14Z"/>
        <path class="cls-15" d="M105.45,167.78c.05.3.3.53.63.57.58.08,1.45.15,2.29-.02.13-.03.24-.11.29-.21.03-.06.05-.13.05-.2h0c-.02-.54-.04-1.08-.06-1.62l-3.32.46c.03.38.06.73.11,1.02Z"/>
        <path class="cls-5" d="M109.47,169.34s0,.01.04.01c1.68-1.46,4.69-4.03,5.89-4.72,1.48-.85,8.86-1.32,10.76-1.42-.05-1.02-.16-2.02-.31-2.99-1.5.16-7.36.74-9.79.66-2.15-.07-5.44-2.04-7.23-3.2-.01,0-.01.01-.01.02l.08.86c.27.98.49,6.84.57,9.34,0,0,0,0,0,0h0s0,1.43,0,1.43Z"/>
        <path class="cls-15" d="M92.65,161.39l.4-.07c-.13.01-.27.03-.4.04,0,.01,0,.02,0,.03Z"/>
        <path class="cls-15" d="M105.31,166.29l3.33-.46c-.03-.65-.05-1.3-.08-1.92l-3.28.5c0,.66,0,1.3.03,1.88Z"/>
        <path class="cls-15" d="M105.28,163.94l3.26-.5c-.03-.73-.07-1.41-.11-2.03l-3.09.53c-.03.65-.04,1.33-.05,1.99Z"/>
        <path class="cls-15" d="M105.35,161.46l3.05-.52c-.06-.94-.13-1.67-.19-2.03l-2.75.52c-.03.57-.07,1.27-.1,2.03Z"/>
        <path class="cls-15" d="M105.49,158.95l2.4-.45c-.33-.13-.93-.2-1.85-.15-.21.01-.38.13-.47.29-.04.06-.06.14-.06.21,0,.03,0,.07,0,.1Z"/>
        <path class="cls-5" d="M126.91,163.32l3.91,1.83c-.09-.89-.23-1.77-.41-2.63l-3.77-2.02c.13.92.22,1.87.27,2.82Z"/>
        <path class="cls-15" d="M126.49,159.61l3.71,1.99s-.01-.05-.02-.07c-.95-3.82-3.14-8.74-8.11-11.91,2.2,2.49,3.71,6.03,4.42,9.99Z"/>
      </g>
      <path class="cls-10" d="M94.97,186.92s0,0,0,0c.07,0,.13-.06.12-.14-.11-1.65,1.61-1.88,1.68-1.89.07,0,.12-.07.11-.14,0-.07-.07-.12-.15-.12-.02,0-2.03.27-1.9,2.16,0,.07.06.12.13.12Z"/>
      <g>
        <path class="cls-4" d="M46.65,122.85l-.06-.06,1.2-3.53,50.47,61.14.11.13-2.76,1.74-48.96-59.42ZM47.9,119.85l-.97,2.87,48.75,59.15,2.25-1.42-50.03-60.6Z"/>
        <path class="cls-13" d="M46.61,114.94l53.62,65.67s-2.01.6-2.34,1.19l-52.97-63.15,1.7-3.72Z"/>
      </g>
      <path class="cls-24" d="M140.54,167.07c-.34-2.08-.46-9.37-.46-9.37,0,0,6.13,2.89,6.59,11.22.52,9.39-9.37,19.2-43.14,18.34-.69.46-3.12,1.04-4.97-.24-1.5-.11-.35,1.28-.93,1.74-.23,1.39-2.83-.64-2.66-1.97-1.62,1.04-2.78-2.08-1.85-3.82-.46-1.04-.23-2.08.92-3.35-.81-1.04-.58-2.08,2.66-3.13,3.24-1.04,5.79,2.2,6.94,4.51,5.55,1.96,37.12.06,36.89-13.94Z"/>
      <path class="cls-12" d="M112.62,35.52c-6.6,4.16-20.27,12.52-29.84,3.37-6.16,2.5-20.81-7.06-9.23-15.88-10.77-15.28,7.55-26.61,13.94-15.78,3.56-11.22,22.58-10.01,16.56,8.05,9.84-14.66,22.51,1.58,14.25,11.78-7.72,9.53-5.68,8.45-5.68,8.45Z"/>
      <path class="cls-30" d="M120.77,18.36c-9.27-1.72-27.98-3.9-30.68,6.96-2.7,10.86-7.3,13.57-7.3,13.57l4.25,4.92s7.94-7.86,19.07-10.97c11.13-3.11,17.22-4.89,17.22-4.89,0,0,1.49-5.29-2.56-9.58Z"/>
      <path class="cls-12" d="M184.87,65.73c3.26,7.63,10.17,23.23,24.09,21.01,3.88,5.92,19.88,4.87,15.08-9.85,12.28-.64,11.8-19.85-.04-20.72,3.67-11.98-13.72-22.43-19.38-2.97.26-18.8-20.67-12.24-19.61,1.7.99,13.02-.14,10.84-.14,10.84Z"/>
      <path class="cls-30" d="M190.62,44.19c9.33.43,28.33,16.12,24.12,27.26-4.21,11.15-1.97,17.46-1.97,17.46l-6.55.58s-2.2-11.69-10.06-21.15c-7.86-9.47-12.12-14.71-12.12-14.71,0,0,.43-8.13,6.57-9.44Z"/>
      <g>
        <g>
          <path class="cls-24" d="M73.25,73.62c-7.28,15.18-14.44,62.78,28.3,79.42,42.49,16.53,70.36-10.8,80.86-40.47,12.67-35.8-13.32-62.36-38.68-69.23-39.56-10.72-60.74,9.95-70.48,30.28Z"/>
          <path class="cls-26" d="M95.71,112.67c-.62,3.96-6.8,6.2-12.59,3.91-5.77-2.29-8.29-7.53-7.26-12.2.94-4.26,6.84-7.01,12.13-1.84,4.96,4.84,8.37,6.04,7.72,10.13Z"/>
          <path class="cls-6" d="M80.91,104.14c-.1.53-.71.83-1.38.71-.67-.13-1.13-.65-1.03-1.16.09-.51.71-.83,1.38-.69.67.11,1.13.64,1.03,1.14Z"/>
          <path class="cls-31" d="M115.8,100.46c-.1.52-.81.8-1.6.66-.79-.15-1.34-.68-1.24-1.2.1-.51.81-.81,1.6-.66.79.15,1.34.69,1.24,1.2Z"/>
          <path class="cls-26" d="M156.02,127.49c-1.21,5.33-7.02,8.14-14.09,7.23-6.83-.89-12.77-7.21-10.65-11.99,2.01-4.56,5.4-2.21,13.74-3.66,8.05-1.4,12.23,3.09,11.01,8.42Z"/>
          <path class="cls-6" d="M151.76,123.85c-.12.49-.72.76-1.35.62-.63-.14-1.05-.65-.94-1.14.11-.48.71-.76,1.34-.62.63.14,1.04.66.95,1.14Z"/>
          <g>
            <path class="cls-20" d="M135.98,124.5c-.13.54-.78.83-1.47.68-.68-.16-1.14-.71-1.02-1.24.12-.52.77-.83,1.46-.67.69.16,1.14.72,1.03,1.24Z"/>
            <path class="cls-20" d="M142.01,125.73c-.13.54-.78.83-1.47.68-.68-.16-1.14-.71-1.02-1.24.13-.52.77-.83,1.46-.67.69.16,1.14.72,1.03,1.24Z"/>
            <path class="cls-20" d="M138.46,128.48c-.13.53-.78.83-1.47.68-.68-.16-1.14-.71-1.02-1.24.12-.52.77-.83,1.46-.67.69.16,1.14.72,1.03,1.24Z"/>
          </g>
          <g>
            <path class="cls-20" d="M87.98,109.59c-.11.47-.68.72-1.28.59-.6-.14-1-.62-.89-1.08.11-.45.67-.72,1.27-.59.6.14.99.63.9,1.08Z"/>
            <path class="cls-20" d="M92.15,110.42c-.11.47-.68.72-1.28.59-.59-.14-.99-.62-.89-1.09.11-.45.67-.72,1.27-.59.6.14.99.63.9,1.08Z"/>
            <path class="cls-20" d="M88.98,113.77c-.13.53-.78.83-1.47.68-.68-.16-1.14-.71-1.02-1.24.12-.52.77-.83,1.46-.67.69.16,1.14.72,1.03,1.24Z"/>
          </g>
          <path class="cls-27" d="M95.08,66.81c6.42-1.56,7.49,5.48,3.27,5.33-4.52-.16-8.36,1.35-8.92.89-1.2-1,2.04-5.35,5.65-6.22Z"/>
          <path class="cls-27" d="M150.65,84.9c-5.19-4.08-9.08,1.89-5.19,3.5,4.18,1.72,7.06,4.69,7.74,4.5,1.52-.41.37-5.71-2.55-8.01Z"/>
          <path class="cls-22" d="M113.66,106.59c-.06.02-.15.01-.22-.02-2.07-1.17-3.02-3.1-2.56-5.18.43-1.93,2.01-3.47,3.68-3.58,1.02-.08,2.96.34,4.28,3.89.06.16-.02.33-.18.4-.17.07-.34-.02-.4-.18-.89-2.36-2.18-3.59-3.67-3.49-1.42.09-2.74,1.43-3.12,3.1-.2.87-.36,3.04,2.26,4.5.14.09.2.27.11.43-.03.07-.11.12-.19.14Z"/>
          <g>
            <path class="cls-18" d="M97.24,113.27s-5.91,23.6,10.72,28.27c16.63,4.67,17.82-19.36,17.82-19.36,0,0-12.83,1.34-28.54-8.92Z"/>
            <path class="cls-29" d="M112.35,120.34c-.4,5.98.27,14.65,6.48,19.33,6.34-5.34,6.95-17.49,6.95-17.49,0,0-5.38.54-13.42-1.84Z"/>
            <path class="cls-25" d="M98.86,134.42c1.76,3.2,4.59,5.85,9.1,7.12,8.22,2.31,12.67-2.42,15.07-7.76-.49-1.16-3.04-2.7-5.89-1.75-2.31-4.98-13.34-2.76-18.28,2.4Z"/>
            <path class="cls-16" d="M120.17,132.92c-1.23-.68-2.88-.55-3.65-.2-.43-1.03-1.22-2.24-3.75-2.61-6.25-.96-14.68,4.72-7,8.73,7.77,4.05,18.93-3.4,14.4-5.92Z"/>
            <path class="cls-28" d="M107.14,131.94c1.49-1.2,4.89-1.69,5.72-.72,1,1.14-2.07,2.47-3.98,2.52-1.94.05-2.69-1.03-1.74-1.79Z"/>
            <path class="cls-14" d="M101.96,116.05c-.97,2.41-.79,4.4,2.39,6.14,2.97,1.61,7.43,3.07,10.6,3.46,3.81.47,5.88-.95,6-3.58-6.45-.87-11.56-2.19-19-6.02Z"/>
          </g>
          <g>
            <path class="cls-1" d="M134.77,96.02c-4.96,3.43-6.36,10-3.12,14.69,3.24,4.68,9.88,5.7,14.85,2.28,4.96-3.43,6.36-10.01,3.12-14.7-3.24-4.68-9.88-5.7-14.85-2.27Z"/>
            <path class="cls-1" d="M144.39,111.86c3.14,1.37,3.41,3.08.62,3.83-2.8.74-7.62.24-10.76-1.13-3.14-1.38-3.41-3.09-.62-3.84,2.8-.75,7.61-.23,10.76,1.14Z"/>
            <path class="cls-14" d="M134.54,95.6c-4.83,3.34-6.2,9.75-3.04,14.32,3.15,4.57,9.63,5.55,14.47,2.21,4.83-3.34,6.19-9.75,3.04-14.31-3.15-4.56-9.64-5.55-14.47-2.21Z"/>
            <path class="cls-17" d="M149.22,102.78c-.19,2.76-1.63,5.46-4.17,7.22-4.29,2.96-10.03,2.08-12.82-1.96-.78-1.14-1.24-2.4-1.41-3.7-.13,1.9.33,3.81,1.47,5.47,2.79,4.04,8.53,4.92,12.81,1.96,3.08-2.13,4.56-5.67,4.12-8.99Z"/>
            <path class="cls-9" d="M136.25,102.02c-1.05,3.01.38,6.25,3.22,7.24,2.84,1,5.99-.63,7.04-3.63,1.06-3.01-.38-6.25-3.22-7.25-2.84-.99-5.99.63-7.05,3.63Z"/>
            <path class="cls-4" d="M138.21,102.63c-.65,1.86.24,3.87,2,4.49,1.76.62,3.71-.4,4.37-2.25.65-1.86-.24-3.87-2-4.49-1.75-.62-3.7.39-4.36,2.25Z"/>
            <path class="cls-14" d="M138.74,100.64c-.26.77.1,1.59.82,1.84.72.25,1.52-.16,1.79-.92.27-.76-.09-1.58-.82-1.84-.72-.26-1.52.16-1.8.93Z"/>
            <path class="cls-14" d="M141.62,106.65c-.16.46.05.96.49,1.11.44.16.92-.1,1.08-.56.17-.46-.06-.96-.49-1.11-.43-.16-.92.09-1.08.55Z"/>
          </g>
          <g>
            <path class="cls-1" d="M104.16,87.49c.26,5.71-3.9,10.54-9.29,10.79-5.38.25-9.97-4.19-10.22-9.89-.27-5.72,3.9-10.54,9.29-10.79,5.39-.24,9.97,4.19,10.23,9.9Z"/>
            <path class="cls-1" d="M98.12,95.98c2.96,1.29,3.21,2.91.58,3.61-2.64.7-7.18.22-10.13-1.07-2.96-1.3-3.22-2.91-.58-3.62,2.64-.7,7.17-.22,10.13,1.07Z"/>
            <path class="cls-14" d="M103.1,87.38c.26,5.64-3.85,10.42-9.18,10.66-5.33.24-9.86-4.13-10.11-9.78-.26-5.65,3.85-10.42,9.18-10.67,5.33-.24,9.85,4.14,10.11,9.78Z"/>
            <path class="cls-17" d="M101.78,88.02c-.05-1.12-.31-2.17-.72-3.14.13.57.22,1.16.25,1.76.22,4.96-3.39,9.16-8.08,9.38-2.78.12-5.3-1.21-6.95-3.33,1.5,2.8,4.36,4.66,7.6,4.51,4.59-.21,8.12-4.32,7.9-9.17Z"/>
            <path class="cls-9" d="M100.37,89.26c-1.01,2.88-4.05,4.44-6.77,3.49-2.73-.97-4.11-4.08-3.1-6.96,1.02-2.9,4.05-4.45,6.78-3.5,2.72.96,4.11,4.08,3.1,6.97Z"/>
            <path class="cls-4" d="M98.23,88.52c-.61,1.72-2.42,2.66-4.06,2.09-1.63-.58-2.46-2.44-1.85-4.17.61-1.73,2.43-2.66,4.06-2.09,1.63.57,2.46,2.43,1.85,4.17Z"/>
            <path class="cls-14" d="M95.52,85.5c-.26.74-1.02,1.13-1.72.89-.68-.24-1.04-1.03-.78-1.76.26-.73,1.02-1.13,1.71-.89.69.24,1.04,1.04.78,1.76Z"/>
            <path class="cls-14" d="M97.51,90.48c-.15.45-.61.68-1.03.53-.42-.14-.63-.62-.48-1.07.15-.44.62-.68,1.04-.53.42.14.64.62.47,1.07Z"/>
          </g>
        </g>
        <g>
          <path class="cls-12" d="M129.98,18.02c40.78-.1,55.36,23.39,55.36,23.39,0,0,16.71,7.18,23,30.05,7.29,26.55-12.16,42.95-25.27,58.02-30.8-14.92-21.36-61.89-21.36-61.89-13.81,23.11-50.87,4.12-57.92-3.91-13.99-15.95-30.75,5.36-33.71,19.98-4.92-22.52,17.24-65.54,59.9-65.64Z"/>
          <path class="cls-3" d="M183.8,49.42c3.81-3.01,25.06,15.07,21.28,34.57-4.76-14.3-11.28-18.92-11.28-18.92,0,0,8.59,9.49,7.27,31.34-9.54-23.36-20.39-29.45-20.39-29.45,0,0,8.29,16.81,14.26,25.62-17.34-12.68-24.16-33.15-20.73-38.11,3.55-4.03,16.94,13.85,16.94,13.85,0,0-10.65-16.3-7.36-18.9Z"/>
          <path class="cls-3" d="M173.14,41.61c-9.54-12.69-27.67-27.14-64.79-16.29,19.02-2.38,31.67,3.49,31.67,3.49,0,0-42.32-1.41-58.26,20.41,14.11-12.3,44.42-19.04,69.58-9.06-15.9,4.01-38.76,4.33-38.76,4.33,0,0,34.46,9.74,48.43.48-10.77,11.17-25.34,13.32-25.34,13.32,0,0,26.21-.26,35.41-14.05-6.96-6.1-15.99-10.78-31.4-12.02,13.62-5.84,33.46,9.39,33.46,9.39Z"/>
          <path class="cls-27" d="M166.48,60.02c0,1.21-11.37,43.04,21.05,63.87,8.62-9.6,4.14-15.87-3.29-19.89-22.03-11.97-17.76-43.97-17.76-43.97Z"/>
          <path class="cls-27" d="M163.87,58.25c-11.42,12.23-31.73,13.12-47.08.09-15.37-13.05-24.02-9.05-28.2-4.07,6.95-3.57,12.56-4.47,21.74,3.58,20.72,18.2,45.62,20.51,53.54.4Z"/>
        </g>
        <g>
          <path class="cls-24" d="M172.55,119.67s4.61-6.17,12.07-3.23c7.87,3.13,4.97,14.89-2.76,19.34-7.73,4.43-16.53.99-16.06-5.64l6.74-10.48Z"/>
          <path class="cls-23" d="M184.38,120.16c-4.22-3.6-13.58,4.04-9.97,12.67,1.17-8.4,4.99-9.39,6.56-4.22,1.23-2.27.85-4.34-2.16-5.67,1.9-2.85,5.58-2.77,5.58-2.77Z"/>
        </g>
      </g>
    </g>
  </g>
</svg>