<?xml version="1.0" encoding="UTF-8"?>
<svg id="Layer_2" data-name="Layer 2" xmlns="http://www.w3.org/2000/svg" viewBox="0 0 155.83 268.62">
  <defs>
    <style>
      .cls-1 {
        fill: #eaad85;
      }

      .cls-2 {
        fill: #007456;
      }

      .cls-3 {
        fill: #72b183;
      }

      .cls-4 {
        fill: #009677;
      }

      .cls-5 {
        fill: #231f20;
      }

      .cls-6 {
        fill: #dc571f;
      }

      .cls-7 {
        fill: #00a37b;
      }

      .cls-8 {
        fill: #f27221;
      }

      .cls-9 {
        fill: #e37b5d;
      }

      .cls-10 {
        fill: #f8dab0;
      }

      .cls-11 {
        fill: #00588f;
      }

      .cls-12 {
        fill: #1070a8;
      }

      .cls-13 {
        fill: #e2a268;
      }

      .cls-14 {
        fill: #fff;
      }

      .cls-15 {
        fill: #824025;
      }

      .cls-16 {
        fill: #86b4e0;
      }

      .cls-17 {
        fill: #f48f87;
      }

      .cls-18 {
        fill: #d9dbdc;
      }

      .cls-19 {
        fill: #4d1f1c;
      }

      .cls-20 {
        fill: #008766;
      }

      .cls-21 {
        fill: #c33427;
      }

      .cls-22 {
        fill: #49bc9d;
      }

      .cls-23 {
        fill: #562512;
      }

      .cls-24 {
        fill: #ee4626;
      }

      .cls-25 {
        fill: #ce7754;
      }

      .cls-26 {
        fill: #fbc6a4;
      }

      .cls-27 {
        fill: #ec756c;
      }

      .cls-28 {
        fill: #f8af9a;
      }

      .cls-29 {
        fill: #f7b0ad;
      }

      .cls-30 {
        fill: #321514;
      }

      .cls-31 {
        fill: #fcd8c1;
      }

      .cls-32 {
        fill: #d8d9da;
      }

      .cls-33 {
        fill: #418e6e;
      }
    </style>
  </defs>
  <g id="Layer_1-2" data-name="Layer 1">
    <g>
      <g>
        <g>
          <g>
            <path class="cls-32" d="M81.89,258.06c.43.48.49,2.66.07,3.37-1.85,2.82-6.17,6.84-11.43,7.17-3.83.24-7.67-1.37-8.45-3.38-.23-.59-.57-2.17.35-3.29,5.47-3.13,19.46-3.86,19.46-3.86Z"/>
            <path class="cls-26" d="M82.98,210.32s-1.36,43.35-1.54,48.89c-2.3,3.31-5.51-.67-5.51-.67,0,0,.79-44.26,1.24-48.22,2.61-.35,5.8,0,5.8,0Z"/>
            <path class="cls-1" d="M76.58,247.84l-.18,2.84s.64-1.76,2.55-1.7c1.91.06,2.59,1.83,2.59,1.83l.08-3.13-5.05.15Z"/>
            <path class="cls-4" d="M81.39,252.75s-2.06,3.38-3.26,2.73c.85-1.28.64-4.1-1.21-4.43-1.85-.32-1.85,2.9-1.85,2.9,0,0-2.42-2-7.03-.72-4.61,1.28-6.17,7.16-5.61,8.68.93,1.44,4.98,3.29,10.02,2.57,5.03-.72,8.3-4.83,8.94-5.4.63-.56,1.14-2,.63-3.13-.49-1.12.57-3.22-.63-3.22Z"/>
            <path class="cls-3" d="M69,254.12c-1.77-.57-6.03,3.22-4.12,5.39,1.91,2.17,7.81.95,7.81.95,0,0-4.97-.39-4.4-2.96.21-.97,2.22-2.91.71-3.39Z"/>
            <path class="cls-14" d="M74.67,255.65c-.11,0-.23-.06-.3-.17-1.52-2.29-3.13-1.03-3.2-.97-.17.13-.41.1-.52-.1-.13-.2-.09-.48.08-.61.02-.01,2.28-1.78,4.24,1.17.13.19.09.46-.07.6-.07.06-.15.08-.23.08Z"/>
            <path class="cls-14" d="M71.03,256.46c-.12,0-.23-.06-.31-.17-1.53-2.29-3.13-1.03-3.2-.97-.17.13-.41.08-.53-.11-.12-.19-.08-.45.08-.6.02-.01,2.29-1.78,4.24,1.17.14.19.1.46-.07.6-.07.06-.15.09-.23.09Z"/>
          </g>
          <g>
            <path class="cls-32" d="M96.98,258.06c-.43.48-.49,2.66-.07,3.37,1.85,2.82,6.18,6.84,11.43,7.17,3.83.24,7.67-1.37,8.45-3.38.23-.59.57-2.17-.35-3.29-5.47-3.13-19.46-3.86-19.46-3.86Z"/>
            <path class="cls-26" d="M95.89,210.32s1.39,43.35,1.58,48.89c2.35,3.31,5.63-.67,5.63-.67,0,0-.8-44.26-1.27-48.22-2.67-.35-5.93,0-5.93,0Z"/>
            <path class="cls-1" d="M102.48,248.02l.19,2.84s-.65-1.76-2.61-1.7c-1.95.06-2.65,1.83-2.65,1.83l-.08-3.13,5.15.15Z"/>
            <path class="cls-4" d="M97.48,252.75s2.06,3.38,3.26,2.73c-.85-1.28-.64-4.1,1.21-4.43,1.85-.32,1.85,2.9,1.85,2.9,0,0,2.42-2,7.03-.72,4.61,1.28,6.18,7.16,5.61,8.68-.93,1.44-4.98,3.29-10.02,2.57-5.03-.72-8.3-4.83-8.94-5.4-.63-.56-1.14-2-.63-3.13.49-1.12-.57-3.22.63-3.22Z"/>
            <path class="cls-3" d="M109.87,254.12c1.77-.57,6.04,3.22,4.12,5.39-1.92,2.17-7.81.95-7.81.95,0,0,4.97-.39,4.4-2.96-.21-.97-2.22-2.91-.71-3.39Z"/>
            <path class="cls-14" d="M104.2,255.65c.11,0,.23-.06.3-.17,1.52-2.29,3.13-1.03,3.2-.97.17.13.41.1.52-.1.13-.2.09-.48-.08-.61-.02-.01-2.28-1.78-4.24,1.17-.13.19-.09.46.07.6.07.06.15.08.23.08Z"/>
            <path class="cls-14" d="M107.84,256.46c.12,0,.23-.06.31-.17,1.53-2.29,3.13-1.03,3.2-.97.17.13.41.08.53-.11.12-.19.08-.45-.08-.6-.02-.01-2.29-1.78-4.24,1.17-.13.19-.1.46.07.6.07.06.15.09.23.09Z"/>
          </g>
          <g>
            <path class="cls-12" d="M109.64,187.99s-2.76,33.66-4.62,58.02c-5.39,3.06-11.57.39-11.57.39l-4.06-37.54s-3.58,31.25-4.32,37.15c-3.67,1.92-9.75,2.37-11.87-1.16-.85-18.56-3.37-59.01-3.37-59.01l39.81,2.15Z"/>
            <path class="cls-11" d="M72.79,243.9s4.6,2.87,12.86,1.64c-.21,2.11-.29,3.47-.29,3.47,0,0-4.27,2.14-12.56-1.35-.12-2.03,0-3.76,0-3.76Z"/>
            <path class="cls-11" d="M105.6,245.12s-4.62,1.56-12.84.08c.15,2.11.19,3.47.19,3.47,0,0,3.21,2.44,12.42.18.18-2.02.23-3.74.23-3.74Z"/>
            <path class="cls-11" d="M107.75,197.91l-1,13.06s-16.72-10.89-34.28-1.51c-.75-8.79-1-14.32-1-14.32l36.29,2.76Z"/>
          </g>
        </g>
        <g>
          <path class="cls-26" d="M74.65,146.21s4.43-2.32,7.21-3.61c-.17-3-1.26-6.22-1.26-6.22l5.35-1.37s1.15,4.78,1.38,6.73c4.1.42,6.62.99,6.62.99,0,0,7.5,11.57-6.35,13.1-3.65.4-12.71-3.91-12.93-9.62Z"/>
          <path class="cls-1" d="M85.49,136.45l-4.52,1.38s.96,2.23,1.31,4.68c1.13-1.24,3.41-2.27,4.82-.81-.4-2.06-1.61-5.25-1.61-5.25Z"/>
        </g>
        <g>
          <g>
            <path class="cls-20" d="M15.51,79.58c-6.36,10.83-23.96,33.54-10.67,41.56,8.16,4.96,36.49-8.29,49.59-21.71-12.61-20.1-38.92-19.85-38.92-19.85Z"/>
            <path class="cls-2" d="M10.27,89.54c-8.67,13.82,22.53,29.01-5.41,29.46,8.18,4.94,30.18-5.34,43.28-18.76-12.6-20.1-37.86-10.7-37.86-10.7Z"/>
          </g>
          <g>
            <g>
              <g>
                <path class="cls-26" d="M123.3,66.97c6.48,12.69,13.63,52.85-22.01,67.9-35.41,14.97-59.55-7.57-69.08-32.48-11.52-30.02,9.76-53.08,30.97-59.49,33.11-9.98,51.43,7.06,60.11,24.06Z"/>
                <path class="cls-28" d="M108.49,102.89c.62,3.33,5.88,5.08,10.69,3.01,4.82-2.07,6.81-6.55,5.84-10.48-.88-3.59-5.92-5.8-10.26-1.28-4.06,4.2-6.91,5.28-6.27,8.75Z"/>
                <path class="cls-31" d="M120.76,95.32c.09.44.62.69,1.18.56.56-.12.94-.56.83-1-.09-.44-.6-.69-1.18-.56-.56.11-.94.56-.83,1Z"/>
                <path class="cls-31" d="M90.44,96.63c.1.44.7.69,1.37.54.64-.14,1.11-.61,1.01-1.04-.09-.44-.7-.68-1.37-.51-.65.13-1.12.59-1.02,1.01Z"/>
                <path class="cls-28" d="M52.64,113.98c1.14,4.48,6.1,6.74,12.05,5.8,5.72-.92,10.59-6.4,8.69-10.41-1.8-3.81-4.6-1.76-11.66-2.79-6.82-1-10.23,2.89-9.07,7.39Z"/>
                <path class="cls-31" d="M56.16,110.81c.1.41.6.62,1.14.49.52-.14.86-.57.77-.98-.11-.39-.62-.63-1.15-.51-.54.15-.87.59-.76,1Z"/>
                <path class="cls-9" d="M65.04,113.53c.1.41.6.62,1.14.49.52-.14.86-.57.76-.98-.11-.39-.61-.63-1.15-.5-.54.15-.87.59-.76,1Z"/>
                <path class="cls-9" d="M66.45,109.77c.11.41.6.62,1.14.49.52-.14.87-.57.76-.98-.1-.39-.62-.64-1.15-.51-.53.15-.86.59-.76,1Z"/>
                <path class="cls-9" d="M69.79,112.41c.11.41.6.62,1.14.49.52-.14.86-.57.76-.98-.11-.39-.62-.63-1.15-.51-.53.15-.86.59-.76,1Z"/>
                <path class="cls-9" d="M112.82,102.38c.1.41.6.62,1.14.49.52-.14.87-.57.76-.99-.11-.39-.61-.63-1.14-.5-.54.15-.87.59-.76,1Z"/>
                <path class="cls-9" d="M114.24,98.61c.11.41.6.62,1.14.49.52-.14.87-.57.76-.99-.11-.39-.62-.63-1.15-.51-.54.15-.86.59-.76,1Z"/>
                <path class="cls-9" d="M117.58,101.25c.11.41.6.62,1.14.49.52-.14.87-.57.77-.98-.11-.39-.61-.63-1.15-.51-.53.15-.86.59-.76,1Z"/>
                <path class="cls-6" d="M106.64,67.72c-5.45-1.18-6.19,4.81-2.64,4.58,3.81-.24,7.08.95,7.54.57.98-.89-1.84-4.5-4.9-5.15Z"/>
                <path class="cls-6" d="M58.14,79.69c4.29-3.59,7.69,1.38,4.45,2.83-3.48,1.57-5.83,4.15-6.43,3.99-1.27-.31-.42-4.82,1.98-6.83Z"/>
              </g>
              <g>
                <path class="cls-19" d="M102.79,104.38s4.42,19.69-9.38,23.24c-13.79,3.54-14.32-16.4-14.32-16.4,0,0,10.8,1.36,23.7-6.84Z"/>
                <path class="cls-30" d="M90.2,109.96c.22,4.96-.51,12.13-5.71,15.89-5.12-4.55-5.39-14.63-5.39-14.63,0,0,4.89.58,11.11-1.26Z"/>
                <path class="cls-27" d="M101.06,121.89c-1.25,2.82-4.18,4.94-7.91,5.9-6.82,1.73-10.43-2.47-12.01-6.92.41-.95,2.54-2.18,4.89-1.31,2-4.11,11.04-2.04,15.03,2.33Z"/>
                <path class="cls-17" d="M83.51,120.22c1.02-.55,2.4-.4,3.01-.1.37-.85,1.05-1.83,3.13-2.09,5.19-.67,12.04,4.22,5.62,7.37-6.48,3.21-15.56-3.2-11.76-5.19Z"/>
                <path class="cls-29" d="M94.26,119.68c-1.2-1.03-4-1.51-4.69-.72-.84.94,1.64,2.1,3.23,2.17,1.6.08,2.23-.8,1.47-1.44Z"/>
                <path class="cls-14" d="M98.84,106.59c.74,2.03.58,3.68-2.09,5.04-2.48,1.28-6.19,2.4-8.8,2.65-3.16.33-4.83-.89-4.89-3.08,5.33-.6,9.56-1.57,15.78-4.62Z"/>
              </g>
              <path class="cls-25" d="M92.5,101.8c-.11.02-.23-.03-.27-.13-.08-.12-.04-.28.08-.37,2.17-1.28,1.99-3.12,1.79-3.86-.35-1.41-1.51-2.5-2.69-2.56-1.26-.04-2.32,1.04-3.02,3.05-.03.13-.19.21-.33.15-.13-.05-.21-.19-.15-.33,1.03-3.03,2.65-3.43,3.51-3.37,1.4.04,2.77,1.32,3.18,2.94.44,1.74-.33,3.41-2.03,4.45-.04,0-.06,0-.09.02Z"/>
              <g>
                <path class="cls-1" d="M99.21,83.62c-.69,4.82,2.44,9.26,6.97,9.91,4.53.64,8.77-2.74,9.44-7.58.68-4.82-2.44-9.25-6.96-9.91-4.55-.63-8.78,2.74-9.44,7.58Z"/>
                <path class="cls-1" d="M103.62,91.32c-2.6.86-2.94,2.21-.78,3.03,2.16.79,6.05.76,8.63-.09,2.6-.85,2.96-2.21.78-3.03-2.17-.82-6.02-.77-8.64.08Z"/>
                <path class="cls-14" d="M100.11,83.62c-.67,4.76,2.41,9.14,6.9,9.8,4.48.65,8.65-2.7,9.32-7.47.68-4.78-2.42-9.16-6.9-9.81-4.47-.64-8.66,2.71-9.32,7.49Z"/>
                <path class="cls-18" d="M101.17,84.27c.14-.94.45-1.82.87-2.6-.16.47-.29.95-.36,1.48-.6,4.17,2.12,8.03,6.07,8.6,2.34.34,4.57-.6,6.14-2.25-1.49,2.24-4.06,3.58-6.79,3.19-3.85-.56-6.5-4.32-5.93-8.43Z"/>
                <path class="cls-16" d="M102.63,86.9c.63,2.53,3.07,4.11,5.44,3.5,2.39-.58,3.81-3.1,3.19-5.64-.63-2.53-3.07-4.11-5.46-3.52-2.38.6-3.81,3.13-3.17,5.66Z"/>
                <path class="cls-5" d="M104.44,86.65c.38,1.51,1.83,2.45,3.27,2.1,1.41-.36,2.26-1.87,1.89-3.38-.38-1.52-1.85-2.47-3.26-2.11-1.43.34-2.29,1.87-1.91,3.38Z"/>
                <path class="cls-14" d="M106.98,84.3c.14.64.76,1.05,1.36.89.6-.14.97-.78.82-1.42-.17-.64-.77-1.05-1.38-.92-.61.18-.97.81-.8,1.45Z"/>
                <path class="cls-14" d="M104.87,88.36c.1.39.49.64.84.54.37-.09.59-.48.49-.87-.11-.39-.47-.65-.84-.54-.36.09-.57.48-.49.86Z"/>
              </g>
              <g>
                <path class="cls-1" d="M57.86,94.45c-.68,4.83,2.45,9.26,6.98,9.92,4.53.66,8.76-2.74,9.44-7.56.69-4.83-2.45-9.26-6.97-9.92-4.55-.63-8.77,2.74-9.44,7.56Z"/>
                <path class="cls-1" d="M62.27,102.15c-2.59.86-2.94,2.21-.78,3.02,2.18.8,6.05.77,8.64-.08,2.61-.86,2.96-2.21.78-3.02-2.17-.82-6.03-.77-8.65.08Z"/>
                <path class="cls-14" d="M58.76,94.46c-.66,4.76,2.42,9.14,6.9,9.78,4.49.67,8.67-2.69,9.33-7.46.68-4.78-2.42-9.16-6.89-9.8-4.49-.64-8.66,2.7-9.34,7.49Z"/>
                <path class="cls-18" d="M59.82,95.08c.14-.92.45-1.79.88-2.58-.17.47-.28.95-.36,1.48-.61,4.18,2.12,8.04,6.06,8.62,2.34.33,4.57-.61,6.15-2.26-1.5,2.24-4.07,3.59-6.79,3.19-3.85-.56-6.5-4.32-5.94-8.44Z"/>
                <path class="cls-16" d="M61.28,97.74c.63,2.52,3.06,4.11,5.44,3.51,2.4-.6,3.81-3.12,3.18-5.66-.63-2.54-3.06-4.11-5.44-3.51-2.38.58-3.81,3.12-3.18,5.66Z"/>
                <path class="cls-5" d="M63.09,97.48c.37,1.53,1.83,2.45,3.27,2.12,1.41-.36,2.26-1.88,1.89-3.4-.38-1.52-1.83-2.46-3.25-2.11-1.43.35-2.29,1.87-1.91,3.39Z"/>
                <path class="cls-14" d="M65.63,95.14c.15.64.76,1.03,1.36.88.6-.14.97-.79.81-1.42-.17-.65-.77-1.04-1.38-.91-.59.16-.96.81-.79,1.45Z"/>
                <path class="cls-14" d="M63.54,99.19c.09.4.48.63.83.55.37-.11.6-.49.5-.88-.1-.39-.46-.64-.85-.54-.35.09-.57.47-.48.86Z"/>
              </g>
            </g>
            <g>
              <path class="cls-8" d="M37.49,119.36c3.23,2.39,7.41-4.52,2.42-6.95,7.47-2.16,6.09-12.12.5-14.06,4.54-1.61,3.32-6.63-1.44-6.94,6.86-3.48,11.8-12.55,5.99-17.68,6.71,4.16,9.22-2.62,8.27-7.03,3.98,4.71,24.43-5.65,21.6-13.29,5.74,10.55,12.16,3.11,13.56-1.36.26,9.45,14.7,6.47,16.69,1.51,1.84,8.39,7.95,7.45,9.22,3.66,1.6,6.28,5.5,5.97,6.27,5.23,3.19,5.55,5.15,13.4,6.92,18.73,5.22.68,9.78-9.98,5.1-14.59,3.21-7.14-2.63-11.8-4.38-13.97,4.17-2.98-.36-14.73-5.72-14.1,5.42-9.73-2.48-20.97-15.73-17.08,2.03-6.91-11.93-15.47-13.05-6.71-9.76-13.95-26.92-6.48-28.35,1.44-6.29-13.47-11.91-2.92-10.27.12-7.83-13.95-21.59.58-13.22,6.08-11.32-3.22-23.91,10.12-24.3,19.64-8.45-8.07-13.06,3.89-1.91,5.61-16.65,4.3-9.4,21.71-.57,22.19-10.27,7.44-3.02,23.14.38,24.09-2.43,3.08-.82,6.4,3.78,5.45-5.65,5.42.08,13.55,4.14,13.51.31,10.13,10.2,6.68,10.2,6.68,0,0,.41-2.74,3.92-.15Z"/>
              <path class="cls-6" d="M130.54,61.19c-2.86-.61-5.84-7.6-3.53-13.55-1.83,5.47-12.22,1.48-14.85-10.59-2.86,7.16-18.1,12.28-18.45-1.3-2.01,6.42-14.34,17.69-22.57,2.57,4.05,10.98-18.65,18.29-24.37,11.53,1.34,6.34-7.91,17.38-17.55,11.38,10.43,14.85.48,28.6-4.05,28.83,6.81.44,9.41,6.76,2.9,9.08,5.35,1.84-4.1,11.95-7.58,2.46,2.05,7.09,3.11,10.13,5.7,8.97.36,8.58,5.61,8.24,5.61,8.24,0,0,2-1.87,5.43.38.08-1.56-.59-3.16-2.61-4.13,8.48-2.45,6.92-13.76.58-15.94,5.15-1.82,5.01-7.88-.37-8.23,8.73-7.19,9.27-15.54,4.04-20.79,7.6,4.74,11.94-1.87,10.87-6.88,4.5,5.35,27.69-6.42,24.49-15.07,6.5,11.94,13.78,3.52,15.38-1.55.27,10.72,16.66,7.34,18.91,1.7,2.08,9.53,9.01,8.49,10.47,4.17,1.81,7.11,4.03,8.41,4.91,7.57-.18,3.29,2.46,8.24,5.19,18.05,2.13.13,4.32-7.69.66-7.9,1.41-1.36,1.43-3.6.8-8.99Z"/>
              <path class="cls-6" d="M34.71,40.19c-4.71-7.2.37-17.06,11.32-9.5-11.81-2.06-11.32,9.5-11.32,9.5Z"/>
              <path class="cls-6" d="M109.5,26.57c2.59-10.9,11.74-8.13,10.24,5.13-3.73-11.46-10.24-5.13-10.24-5.13Z"/>
              <path class="cls-6" d="M18.36,70.65c-14.52-.3-10.23-13.28,1.22-8.81-11.14,4.45-1.22,8.81-1.22,8.81Z"/>
              <path class="cls-6" d="M82.51,21.13c-1.05-14.55,12.22-11.43,8.84.44-5.43-10.75-8.84-.44-8.84-.44Z"/>
            </g>
            <g>
              <path class="cls-26" d="M41.3,107.59s-4.04-5.12-10.26-2.46c-6.55,2.83-3.84,12.73,2.77,16.32,6.63,3.58,13.95.46,13.4-5.14l-5.92-8.72Z"/>
              <path class="cls-1" d="M31.34,108.27c3.47-3.15,11.54,3.11,8.7,10.51-1.15-7.07-4.42-7.86-5.62-3.44-1.08-1.89-.81-3.65,1.7-4.86-1.67-2.35-4.78-2.2-4.78-2.2Z"/>
            </g>
          </g>
          <g>
            <path class="cls-7" d="M44.21,4.35C5.05,19.38-7.01,64.81,11.49,90.28,28.47,52.48,105.59,14.33,129.91,48.75c-1.15-35.82-48.15-58.79-85.7-44.39ZM103.47,29.62c-8.27-1.08-22.93,1.67-34.66,5.58-4.51-.15-9.5-7.75-4.46-10.34,12.67-6.46,29.64-6.48,32.4-5.53,2.76.95,10.98,6.28,6.72,10.28Z"/>
            <path class="cls-20" d="M27.24,52.93C9.28,62.6,16.5,17.51,55.66,2.51c.4-.17.81-.3,1.22-.44-3.28.7-6.54,1.63-9.72,2.84C8,19.93-3.03,60.62,12.41,85.61c7.16-15.95,24.86-31.1,44.68-40.93,1.57-1.94-12.57-1.06-29.85,8.25Z"/>
            <path class="cls-7" d="M106.69,26.13c-6.25-1.06-28.28-.23-44.12,8.76-2.82,1.36-1.38,10.8,6.03,9.37,8.49-2.52,20.43-9.93,45.18-6.94l-7.09-11.19Z"/>
            <path class="cls-20" d="M67.25,44.65c-3.25.05-5.16-2.13-5.9-4.39-.8-2.45-.32-4.92,1.11-5.58,15.76-8.96,37.76-9.9,44.26-8.8.14.03.22.15.21.29-.02.14-.15.23-.28.2-6.46-1.1-28.28-.17-43.96,8.73-1.17.57-1.56,2.85-.87,5,.38,1.15,1.97,4.82,6.73,3.91,1.58-.47,3.28-1.12,5.25-1.85,8.4-3.18,19.9-7.53,40.01-5.13.14.02.23.15.22.28-.02.14-.13.23-.27.22-19.99-2.4-31.43,1.93-39.78,5.08-1.96.75-3.67,1.4-5.31,1.88-.49.08-.95.14-1.41.14Z"/>
            <path class="cls-22" d="M57.47,3.03c-7.09.95-7.97,6.17,4.18,5.21,15.25-1.18,32.11-3.54,52,11.86C104.19,11.98,90.22-1.34,57.47,3.03Z"/>
          </g>
        </g>
        <g>
          <path class="cls-1" d="M119.74,150.43c1.43,2.14,8.59,9.75,26.55-9.2,1.05,1.21,3.25,3.25,3.25,3.25,0,0-19.53,25.04-33.93,9.4.95-2.06,4.13-3.44,4.13-3.44Z"/>
          <g>
            <path class="cls-24" d="M79.11,143.73s-20.7,7.36-18.9,29.38c3.78.87,10.46-2.24,10.46-2.24,0,0-.44,14.66-5.42,28,5.47,8.97,40.08,6.22,48.5.37-2.4-5.63-7.25-34.58-7.46-41.58,5.55.93,11.88.75,11.88.75,0,0,1.36-6.77,1.97-10.41-6.05-1.53-21.38-4.38-28.35-5.75-3.66,3.82-9.84,4.09-12.68,1.47Z"/>
            <g>
              <path class="cls-33" d="M61.18,162.11s-.03.09-.04.14c.01-.05.03-.1.04-.14Z"/>
              <path class="cls-33" d="M114.86,155.67c-1.94,1.07-6.62,1.22-8.86-.32.05,1.75.36,4.59.82,7.97-.29-2.41-.48-4.38-.52-5.64,5.55.93,11.88.75,11.88.75,0,0,1.36-6.77,1.97-10.41-.86-.22-1.93-.46-3.12-.71,2.12,3.96-.33,7.36-2.16,8.37Z"/>
              <path class="cls-33" d="M62.05,159.53c.1-.26.21-.52.32-.78-.11.26-.22.51-.32.78Z"/>
              <path class="cls-33" d="M60.44,165.52s0,0,0,0c0,0,0,0,0,0Z"/>
              <path class="cls-33" d="M60.22,167.37c.01-.14.03-.27.05-.41-.01.14-.03.27-.05.41Z"/>
              <path class="cls-33" d="M61.58,160.83c.05-.15.1-.29.15-.43-.05.14-.1.28-.15.43Z"/>
              <path class="cls-21" d="M110.79,191.95c-4.37,11.68-30.26,12.67-35.72,3.72-5.15-7.76-4.06-31.64-4.06-31.64,0,0-3.95,6.7-10.89,5.14.01-.44.04-.87.07-1.3-.12,1.65-.13,3.39.02,5.24,3.78.87,10.46-2.24,10.46-2.24,0,0,1.68,13.26-3.3,26.6,10.67,9.75,36.62,5.87,45.03.02-.46-1.08-1.02-3.04-1.61-5.54Z"/>
            </g>
          </g>
          <g>
            <path class="cls-10" d="M76.5,210.72l1.76.99c-.4.61-1.25,2.01-1.44,3.17-.14.83-2.17,2.74-3.77,4.04.29-2.04.86-4.77,1.5-5.32.89-.77,1.65-2.23,1.96-2.88Z"/>
            <path class="cls-13" d="M77.58,206.64h1.07c.17,0,.31.14.31.31v5.9c0,.17-.14.31-.31.31h-1.07c-.17,0-.31-.14-.31-.31v-5.9c0-.17.14-.31.31-.31Z" transform="translate(-143.11 175) rotate(-60.62)"/>
            <path class="cls-13" d="M82.58,208.76c.15.08.2.27.12.42l-.52.93c-.08.15-.27.2-.42.12l-.33-.19-5.14-2.89-.33-.19c-.15-.08-.2-.27-.12-.42l.52-.93c.04-.07.11-.12.19-.15.08-.02.16-.01.23.03l5.81,3.27Z"/>
            <path class="cls-13" d="M84,206.88c.07.04.12.11.14.18.02.08.01.16-.03.23l-.52.93c-.04.07-.11.12-.19.15s-.16.01-.23-.03l-6.36-3.57c-.15-.08-.2-.27-.12-.42l.52-.93c.06-.1.16-.16.27-.16.05,0,.1.01.15.04l6.36,3.57Z"/>
            <rect class="cls-13" x="85.49" y="186.96" width="1.07" height="17.75" transform="translate(-126.84 174.95) rotate(-60.68)"/>
            <path class="cls-10" d="M92.55,183.42l.53-.94v-.02c.09.04.18.09.26.13l.2.11c.08.05.16.09.24.14l-.54.96c-.08-.05-.17-.1-.26-.15l-.17-.1c-.09-.05-.17-.09-.26-.14Z"/>
            <path class="cls-15" d="M92.92,184.38l-5.96,10.6-.69-.39,5.95-10.58v-.02c.1.05.19.09.27.14l.17.1c.09.05.17.1.26.15Z"/>
            <path class="cls-15" d="M95.56,186.61c2.89,3.39,3.37,8.28,1.18,12.16l-1.47,2.61c-2.13,3.79-6.95,5.14-10.74,3.01l-5.04-2.84c-1.84-1.03-3.16-2.72-3.73-4.75-.57-2.03-.31-4.16.72-5.99l1.47-2.61c1.91-3.39,5.51-5.45,9.32-5.45.56,0,1.12.04,1.68.13,0,0,.01,0,.02,0,.99.16,1.95.46,2.86.89l-5.95,10.58-7.29-4.1c-.08-.04-.17-.05-.25-.03-.08.02-.16.08-.2.16l-.85,1.51c-.09.16-.03.36.13.45l16.05,9.02c.05.03.11.04.16.04.03,0,.06,0,.09-.01.08-.02.16-.08.2-.15l.85-1.51c.09-.16.03-.36-.13-.45l-7.29-4.1,5.95-10.58c.84.55,1.6,1.21,2.25,1.98,0,0,0,.01.02.02Z"/>
            <path class="cls-10" d="M96.91,185.47c3.36,3.95,3.92,9.63,1.37,14.15l-1.7,3.02c-1.2,2.14-3.17,3.68-5.53,4.34-2.36.66-4.84.36-6.98-.84l-5.84-3.29c-2.14-1.2-3.68-3.17-4.34-5.53s-.36-4.84.84-6.98l1.7-3.02c2.22-3.95,6.41-6.34,10.85-6.34.65,0,1.3.05,1.96.16,0,0,.02,0,.02,0,1.2.19,2.35.57,3.45,1.1l-.54.96c-.97-.47-2-.79-3.06-.96,0,0-.02,0-.02,0-4.68-.76-9.39,1.5-11.71,5.64l-1.47,2.61c-1.12,1.99-1.4,4.3-.78,6.5.62,2.2,2.05,4.03,4.04,5.15l5.04,2.83c1.32.74,2.76,1.1,4.18,1.1,2.99,0,5.9-1.57,7.47-4.36l1.47-2.61c2.32-4.13,1.81-9.33-1.27-12.94l-.02-.02c-.7-.82-1.51-1.52-2.42-2.11v-.02s.54-.94.54-.94c1.03.66,1.94,1.45,2.73,2.38l.02.02Z"/>
            <path class="cls-10" d="M98.55,180.53l-1.53,4.08-.02-.02s-.06-.06-.08-.09c-.1-.1-.19-.2-.29-.3-.04-.04-.09-.09-.14-.13-.08-.08-.17-.16-.26-.24-.05-.05-.1-.09-.16-.14-.08-.07-.17-.15-.25-.22-.06-.05-.11-.09-.17-.14-.08-.07-.17-.14-.26-.2-.06-.04-.11-.09-.17-.13-.09-.07-.18-.13-.27-.2-.06-.04-.11-.08-.17-.12-.1-.07-.2-.13-.3-.2l2.1-3.74c.64.45,1.3,1.03,1.97,1.76Z"/>
            <path class="cls-10" d="M96.22,178.52l-2.11,3.75c-.08-.05-.16-.1-.25-.14l-.2-.11c-.08-.05-.17-.09-.25-.13l2.12-3.77c.22.12.45.25.68.4Z"/>
            <path class="cls-10" d="M90.45,180.73c-.13-.03-.25-.06-.38-.09-.05,0-.09-.02-.14-.03,0,0-.01,0-.02,0l2.71-3.45c.36.03,1.31.17,2.53.76l-2.12,3.77c-.11-.06-.22-.11-.33-.16-.06-.03-.13-.06-.19-.09-.1-.04-.21-.09-.31-.13-.07-.03-.14-.06-.21-.08-.1-.04-.2-.08-.3-.11-.07-.03-.14-.05-.21-.08-.1-.04-.2-.07-.31-.1-.07-.02-.14-.04-.21-.07-.11-.03-.22-.06-.32-.09-.07-.02-.13-.04-.2-.05Z"/>
            <path class="cls-10" d="M96.68,175.17l-1.21,2.15c-1-.49-1.84-.69-2.38-.78l1.65-2.1c.34.09,1.08.33,1.94.72Z"/>
            <path class="cls-10" d="M97.78,175.74l-1.23,2.19c-.23-.15-.46-.28-.68-.4l1.22-2.17c.23.11.46.24.7.38Z"/>
            <path class="cls-10" d="M99.78,177.27l-.96,2.57c-.64-.68-1.28-1.22-1.9-1.65l1.24-2.21c.57.36,1.13.79,1.62,1.29Z"/>
            <path class="cls-10" d="M101.91,171.56l-1.88,5.02c-.49-.46-1.02-.86-1.55-1.19l2.46-4.37.97.55Z"/>
            <path class="cls-10" d="M100.56,170.8l-2.45,4.36c-.23-.14-.47-.26-.7-.38l2.46-4.37.69.39Z"/>
            <path class="cls-10" d="M99.48,170.2l-2.47,4.39c-.75-.35-1.4-.57-1.83-.7l3.33-4.23.97.55Z"/>
            <path class="cls-13" d="M101.97,165.78l-2.16,3.84-1.21-.68s0,0,0,0l-.11-.06c-.34-.19-.45-.61-.27-.95l1.48-2.62c.19-.34.61-.45.95-.27l1.34.75Z"/>
            <rect class="cls-13" x="99.42" y="167.71" width="4.4" height=".79" transform="translate(-94.72 174.28) rotate(-60.65)"/>
            <path class="cls-13" d="M104.76,167.35c.34.19.45.62.26.95l-1.48,2.63c-.19.33-.61.45-.95.26l-.11-.06s0,0,0,0l-1.22-.68,2.16-3.84,1.34.75Z"/>
            <path class="cls-10" d="M117.83,137.56l-15.54,27.64-1.01-.57c-.17-.69.39-3.49,7.51-14.79,3.68-5.84,7.53-11.44,8.37-12.67l.67.38Z"/>
            <rect class="cls-10" x="94.94" y="151.4" width="31.71" height=".79" transform="translate(-75.82 173.96) rotate(-60.65)"/>
            <path class="cls-10" d="M119.3,138.39l.67.38c-.6,1.35-3.39,7.56-6.47,13.73-5.96,11.95-8.06,13.88-8.74,14.1l-1.01-.57,15.54-27.64Z"/>
            <path class="cls-13" d="M121.48,137.11c.21.12.28.38.17.59l-.32.58c-.12.21-.38.28-.59.16l-1.11-.63.74-1.32.93.53s.03.01.05.02l.13.08Z"/>
            <rect class="cls-13" x="118.5" y="136.34" width="1.52" height=".79" transform="translate(-58.39 173.63) rotate(-60.64)"/>
            <path class="cls-13" d="M118.9,135.66l-.74,1.32-1.12-.63c-.21-.12-.28-.38-.17-.59l.32-.57c.12-.21.38-.28.59-.17l.15.09s.02.02.03.02l.93.53Z"/>
            <polygon class="cls-10" points="122.72 128.87 119.23 135.08 118.59 134.72 121.03 130.37 121.03 130.37 121.72 129.15 122.08 128.51 122.72 128.87"/>
            <rect class="cls-10" x="118.15" y="131.99" width="7.12" height=".79" transform="translate(-53.35 173.54) rotate(-60.64)"/>
            <rect class="cls-10" x="119.2" y="132.61" width="7.12" height=".74" transform="translate(-53.31 174.84) rotate(-60.66)"/>
            <path class="cls-13" d="M129.47,138.02c.09.31.05.64-.11.92-.32.58-1.06.79-1.64.46-.4-.22-.63-.64-.61-1.1,0-.12-.06-.24-.17-.3l-4.42-2.49.36-.65,4.42,2.48c.11.06.24.06.34-.01.38-.25.86-.27,1.26-.05.28.16.48.42.57.73Z"/>
            <path class="cls-13" d="M120.98,129.11l-.36.65-4.42-2.48c-.05-.03-.11-.04-.16-.04-.06,0-.13.02-.18.06-.38.25-.86.27-1.26.05-.28-.16-.48-.42-.57-.73-.09-.31-.05-.64.11-.92.33-.58,1.06-.79,1.64-.46.4.22.63.64.61,1.1,0,.12.06.24.17.3l4.42,2.49Z"/>
            <rect class="cls-13" x="130.3" y="115.28" width=".68" height="2.46" transform="translate(-34.91 173.39) rotate(-60.69)"/>
            <path class="cls-10" d="M133.22,111.91c.66.39.99.9.58,1.99-.5,1.33-1.52,1.98-1.89,2.18l-1.57-.88c-.02-.42,0-1.63.88-2.75.72-.92,1.32-.89,2-.54Z"/>
            <path class="cls-10" d="M130.79,117.74c-.79,2.27-1.44,4.36-1.91,5.89-.17.54-.31,1.01-.43,1.4-.77,2.43-2.63,4.05-3.19,4.5l-2.95-1.66c.09-.71.52-3.14,2.19-5.06.27-.31.6-.68.97-1.1,1.06-1.2,2.51-2.84,4.04-4.69l1.29.72Z"/>
            <path class="cls-23" d="M114.09,152.79c3.05-6.11,5.82-12.26,6.46-13.71.13.05.26.08.4.08.38,0,.76-.2.96-.56l.32-.58c.28-.49.13-1.1-.32-1.42l.29-.51,4.25,2.39c.05.62.4,1.18.95,1.49.29.16.6.24.91.24.65,0,1.29-.34,1.63-.95.25-.43.3-.94.17-1.42s-.45-.88-.88-1.12c-.55-.31-1.21-.32-1.77-.04l-4.25-2.39,2.32-4.13c.4-.3,2.63-2.07,3.54-4.92.13-.39.27-.86.44-1.41.46-1.5,1.1-3.55,1.87-5.77.06.02.12.03.17.03.22,0,.43-.11.54-.32l.38-.67c.11-.19.1-.41,0-.59.55-.34,1.45-1.08,1.94-2.38.45-1.2.23-2.06-.72-2.7-.02-.02-.04-.04-.07-.05-.03-.02-.06-.03-.09-.05-.03-.02-.06-.04-.09-.05-.02-.02-.05-.02-.08-.03-1.03-.47-1.89-.22-2.68.79-.86,1.1-1.02,2.26-1.03,2.9-.2.01-.39.12-.5.31l-.38.67c-.14.26-.08.57.12.76-1.49,1.81-2.91,3.42-3.96,4.6-.38.42-.71.8-.98,1.11-1.96,2.26-2.32,5.08-2.37,5.58l-.32.57-4.25-2.39c-.04-.62-.4-1.18-.95-1.49-.9-.51-2.04-.19-2.54.71-.25.43-.31.94-.17,1.42s.45.88.89,1.12c.55.31,1.21.32,1.76.04l4.25,2.39-2.29,4.07c-.51-.21-1.1-.02-1.38.47l-.32.57c-.27.48-.13,1.08.29,1.4-.9,1.3-4.72,6.86-8.36,12.65-6.44,10.24-7.57,13.58-7.64,14.82-.57-.13-1.19.12-1.49.66l-1.47,2.63c-.33.58-.18,1.3.32,1.71l-8.78,11.17c-5.34-.79-10.67,1.82-13.32,6.53l-1.7,3.02c-1.29,2.29-1.61,4.95-.9,7.49.6,2.15,1.89,3.99,3.66,5.29-.1.08-.19.17-.25.29l-.52.93c-.17.3-.16.64-.01.92-.14.09-.25.2-.34.35l-.52.93c-.18.31-.15.68.02.97-.12.08-.23.19-.31.33l-.52.93c-.26.47-.09,1.06.37,1.32l1.11.62c-.28.59-1.01,2.01-1.81,2.71-1.16,1-1.76,5.98-1.82,6.55,0,0,0,.01,0,.02v.04s0,.02,0,.03c0,.01,0,.02,0,.04,0,0,0,.02.01.03,0,.01,0,.02.01.03,0,.01.01.02.02.03,0,0,0,.01.01.02h0s.03.04.05.05c0,0,.01,0,.02.01.01,0,.03.02.04.02,0,0,.02,0,.03.01.01,0,.02.01.04.01.01,0,.02,0,.03,0,0,0,.01,0,.02,0,.01,0,.02,0,.04,0h0s.07,0,.11-.02c.01,0,.02-.02.04-.02.02,0,.04-.02.05-.03.45-.35,4.4-3.45,4.65-4.96.17-1.05,1.01-2.41,1.37-2.95l1.11.62c.15.08.31.12.47.12.34,0,.67-.18.85-.49l.52-.93c.08-.14.11-.28.12-.43.34,0,.66-.18.84-.49l.52-.93c.08-.15.12-.31.12-.47.07,0,.13-.01.2-.03.25-.07.46-.23.58-.46l.52-.93c.06-.12.1-.24.12-.37,1.2.5,2.47.75,3.75.75.89,0,1.79-.12,2.67-.37,2.53-.71,4.64-2.36,5.93-4.66l1.7-3.02c2.65-4.71,2.11-10.63-1.34-14.78l4.98-13.31c.14.05.29.08.44.08.48,0,.94-.25,1.19-.69l1.48-2.63c.3-.54.2-1.19-.21-1.62,1.02-.7,3.29-3.4,8.69-14.22ZM121.65,137.69l-.32.58c-.12.21-.38.28-.59.16l-1.11-.63.74-1.32.93.53s.03.01.05.02l.13.08c.21.12.28.38.17.59ZM86.27,194.59l5.95-10.58v-.02c.1.05.19.09.27.14l.17.1c.09.05.17.1.26.15l-5.96,10.6-.69-.39ZM94.02,199.71l-.52.93-15.47-8.7.52-.93,15.47,8.7ZM85.88,194.38l-7.29-4.1c-.08-.04-.17-.05-.25-.03-.08.02-.16.08-.2.16l-.85,1.51c-.09.16-.03.36.13.45l16.05,9.02c.05.03.11.04.16.04.03,0,.06,0,.09-.01.08-.02.16-.08.2-.15l.85-1.51c.09-.16.03-.36-.13-.45l-7.29-4.1,5.95-10.58c.84.55,1.6,1.21,2.25,1.98,0,0,0,.01.02.02,2.89,3.39,3.37,8.28,1.18,12.16l-1.47,2.61c-2.13,3.79-6.95,5.14-10.74,3.01l-5.04-2.84c-1.84-1.03-3.16-2.72-3.73-4.75-.57-2.03-.31-4.16.72-5.99l1.47-2.61c1.91-3.39,5.51-5.45,9.32-5.45.56,0,1.12.04,1.68.13,0,0,.01,0,.02,0,.99.16,1.95.46,2.86.89l-5.95,10.58ZM92.99,183.65l-.17-.1c-.09-.05-.17-.09-.26-.14l.53-.94v-.02c.09.04.18.09.26.13l.2.11c.08.05.16.09.24.14l-.54.96c-.08-.05-.17-.1-.26-.15ZM93.67,182.01c-.08-.05-.17-.09-.25-.13l2.12-3.77c.22.12.45.25.68.4l-2.11,3.75c-.08-.05-.16-.1-.25-.14l-.2-.11ZM95.86,177.53l1.22-2.17c.23.11.46.24.7.38l-1.23,2.19c-.23-.15-.46-.28-.68-.4ZM97.41,174.78l2.46-4.37.69.39-2.45,4.36c-.23-.14-.47-.26-.7-.38ZM100.19,169.83l2.16-3.84.69.39-2.16,3.84-.69-.39ZM102.68,165.42l15.54-27.64.69.39-15.54,27.64-.69-.39ZM118.54,137.2l.74-1.32.69.39-.74,1.32-.69-.39ZM119.62,135.29l3.49-6.2.69.39-3.49,6.2-.69-.39ZM127.3,137.35c.11.06.24.06.34-.01.38-.25.86-.27,1.26-.05.28.16.48.42.57.73.09.31.05.64-.11.92-.32.58-1.06.79-1.64.46-.4-.22-.63-.64-.61-1.1,0-.12-.06-.24-.17-.3l-4.42-2.49.36-.65,4.42,2.48ZM121.34,136.26l-.65-.36,3.49-6.2.64.36-3.49,6.21ZM131.23,112.44c.72-.92,1.32-.89,2-.54.66.39.99.9.58,1.99-.5,1.33-1.52,1.98-1.89,2.18l-1.57-.88c-.02-.42,0-1.63.88-2.75ZM129.73,115.61l2.14,1.2-.33.59-2.14-1.21.33-.59ZM124.49,122.81c.27-.31.6-.68.97-1.1,1.06-1.2,2.51-2.84,4.04-4.69l1.29.72c-.79,2.27-1.44,4.36-1.91,5.89-.17.54-.31,1.01-.43,1.4-.77,2.43-2.63,4.05-3.19,4.5l-2.95-1.66c.09-.71.52-3.14,2.19-5.06ZM116.2,127.27c-.05-.03-.11-.04-.16-.04-.06,0-.13.02-.18.06-.38.25-.86.27-1.26.05-.28-.16-.48-.42-.57-.73-.09-.31-.05-.64.11-.92.33-.58,1.06-.79,1.64-.46.4.22.63.64.61,1.1,0,.12.06.24.17.3l4.42,2.49-.36.65-4.42-2.48ZM121.03,130.37h0l.69-1.23.36-.64.64.36-3.49,6.21-.64-.36,2.44-4.34ZM116.88,135.77l.32-.57c.12-.21.38-.28.59-.17l.15.09s.02.02.03.02l.93.53-.74,1.32-1.12-.63c-.21-.12-.28-.38-.17-.59ZM108.79,149.85c3.68-5.84,7.53-11.44,8.37-12.67l.67.38-15.54,27.64-1.01-.57c-.17-.69.39-3.49,7.51-14.79ZM98.2,167.92l1.48-2.62c.19-.34.61-.45.95-.27l1.34.75-2.16,3.84-1.21-.68s0,0,0,0l-.11-.06c-.34-.19-.45-.61-.27-.95ZM98.51,169.65l.97.55-2.47,4.39c-.75-.35-1.4-.57-1.83-.7l3.33-4.23ZM94.74,174.45c.34.09,1.08.33,1.94.72l-1.21,2.15c-1-.49-1.84-.69-2.38-.78l1.65-2.1ZM92.62,177.15c.36.03,1.31.17,2.53.76l-2.12,3.77c-.11-.06-.22-.11-.33-.16-.06-.03-.13-.06-.19-.09-.1-.04-.21-.09-.31-.13-.07-.03-.14-.06-.21-.08-.1-.04-.2-.08-.3-.11-.07-.03-.14-.05-.21-.08-.1-.04-.2-.07-.31-.1-.07-.02-.14-.04-.21-.07-.11-.03-.22-.06-.32-.09-.07-.02-.13-.04-.2-.05-.13-.03-.25-.06-.38-.09-.05,0-.09-.02-.14-.03,0,0-.01,0-.02,0l2.71-3.45ZM76.81,214.87c-.14.83-2.17,2.74-3.77,4.04.29-2.04.86-4.77,1.5-5.32.89-.77,1.65-2.23,1.96-2.88l1.76.99c-.4.61-1.25,2.01-1.44,3.17ZM81.21,211.03l-.52.93c-.08.15-.27.2-.42.12l-5.14-2.89c-.15-.08-.2-.27-.12-.42l.52-.93c.08-.15.27-.2.42-.12l5.14,2.89c.15.08.2.27.12.42ZM82.69,209.18l-.52.93c-.08.15-.27.2-.42.12l-.33-.19-5.14-2.89-.33-.19c-.15-.08-.2-.27-.12-.42l.52-.93c.04-.07.11-.12.19-.15.08-.02.16-.01.23.03l5.81,3.27c.15.08.2.27.12.42ZM84.12,207.29l-.52.93c-.04.07-.11.12-.19.15s-.16.01-.23-.03l-6.36-3.57c-.15-.08-.2-.27-.12-.42l.52-.93c.06-.1.16-.16.27-.16.05,0,.1.01.15.04l6.36,3.57c.07.04.12.11.14.18.02.08.01.16-.03.23ZM98.28,199.63l-1.7,3.02c-1.2,2.14-3.17,3.68-5.53,4.34-2.36.66-4.84.36-6.98-.84l-5.84-3.29c-2.14-1.2-3.68-3.17-4.34-5.53-.66-2.36-.36-4.84.84-6.98l1.7-3.02c2.22-3.95,6.41-6.34,10.85-6.34.65,0,1.3.05,1.96.16,0,0,.02,0,.02,0,1.2.19,2.35.57,3.45,1.1l-.54.96c-.97-.47-2-.79-3.06-.96,0,0-.02,0-.02,0-4.68-.76-9.39,1.5-11.71,5.64l-1.47,2.61c-1.12,1.99-1.4,4.3-.78,6.5.62,2.2,2.05,4.03,4.04,5.15l5.04,2.83c1.32.74,2.76,1.1,4.18,1.1,2.99,0,5.9-1.57,7.47-4.36l1.47-2.61c2.32-4.13,1.81-9.33-1.27-12.94l-.02-.02c-.7-.82-1.51-1.52-2.42-2.11v-.02s.54-.94.54-.94c1.03.66,1.94,1.45,2.73,2.38,0,0,.01.01.02.02,3.36,3.95,3.92,9.63,1.37,14.15ZM97.03,184.61s-.01-.01-.02-.02c-.03-.03-.06-.06-.08-.09-.1-.1-.19-.2-.29-.3-.04-.04-.09-.09-.14-.13-.08-.08-.17-.16-.26-.24-.05-.05-.1-.09-.16-.14-.08-.07-.17-.15-.25-.22-.06-.05-.11-.09-.17-.14-.08-.07-.17-.14-.26-.2-.06-.04-.11-.09-.17-.13-.09-.07-.18-.13-.27-.2-.06-.04-.11-.08-.17-.12-.1-.07-.2-.13-.3-.2l2.1-3.74c.64.45,1.3,1.03,1.97,1.76l-1.53,4.08ZM98.81,179.83c-.64-.68-1.28-1.22-1.9-1.65l1.24-2.21c.57.36,1.13.79,1.62,1.29l-.96,2.57ZM100.03,176.59c-.49-.46-1.02-.86-1.55-1.19l2.46-4.37.97.55-1.88,5.02ZM105.03,168.3l-1.48,2.63c-.19.33-.61.45-.95.26l-.11-.06s0,0,0,0l-1.22-.68,2.16-3.84,1.34.75c.34.19.45.62.26.95ZM104.76,166.59l-1.01-.57,15.54-27.64.67.38c-.6,1.35-3.39,7.56-6.47,13.73-5.96,11.95-8.06,13.88-8.74,14.1Z"/>
          </g>
          <path class="cls-26" d="M61.69,171.86c-2.57.9-4.05,5.9,2.3,5.59,9.08-.43,26.41-7.14,30.33-7.8,3.12.3,5.13-1.2,5.76-2.37.64-1.16,2.83-.75,3.76.42.69.87,1.77-.46,1.19-1.52-.71-1.28-2.23-1.84-4.49-1.52.44-.99,2.16-1.69,3.79-1.22,1.93.56,1.99-1.21.62-2.02-1.47-.87-4.24-.45-6.03.08.21-.99,1.65-1.63,3.12-1.8,1.84.08,1.22-1.68-.28-1.86-2.21-.28-3.9.6-5.23,2.08-1.27-.52-2.78.83-3.34,1.72-.55.88-1.22,2.41-1.86,3.86-5.99,3.41-22.28,3.78-29.65,6.35Z"/>
        </g>
        <g>
          <path class="cls-13" d="M147.73,153.39c1.81,1.16,4.19,1.32,5.8,1.24-1.96-.52-4.93-1.71-6.56-4.24-.78-1.23-1.91-2.37-3.33-3.4-1.74-1.26-3.82-2.06-6.01-2.32l-.08.61c2.57.3,4.93,1.65,6.46,3.76.23.32.46.65.69.97.94,1.34,1.82,2.61,3.03,3.38Z"/>
          <path class="cls-13" d="M98.72,145.73l37.61-.51c.41,0,.81.02,1.21.06l.08-.61c-.59-.07-1.18-.1-1.78-.09l-37.93.51c-4.43.06-6.84,3.88-8.28,6.15-.49.77-.87,1.38-1.23,1.69-.19.17-.38.3-.56.41-.01,0-.03.02-.04.02-.48.27-.92.34-1.33.2-.93-.33-1.19-1.66-1.2-1.72-.03-.18.09-.35.27-.39.18-.03.35.09.39.27.05.28.29,1.05.76,1.22.2.07.43.02.66-.09.09-1.1-.31-1.95-1.08-2.29-.81-.36-1.82-.06-2.52.74-.74.85-.37,2.08.16,2.87.63.93,1.81,1.77,2.89,1.39,1.36-.47,2.02-1.59,2.95-3.14.79-1.33,1.77-2.98,3.52-4.75.75-.76,1.8-1.29,3.3-1.68.1-.03.22-.05.35-.08.58-.12,1.18-.19,1.78-.2Z"/>
          <path class="cls-23" d="M87.04,156.19c.88-.3,1.5-.83,2.05-1.51h.34s1.3-.02,1.3-.02c.03.09.07.18.14.25.11.1.24.16.39.16l4.97-.07c.15,0,.28-.06.39-.17.03-.04.06-.08.09-.12s.04-.09.05-.13l42.82-.58c.02.09.07.18.14.25.11.1.24.16.39.16l4.97-.07c.21,0,.38-.12.48-.29.02-.04.04-.08.05-.13l1.69-.02s.05.04.08.05c3.2,2.05,8.01,1.24,8.3,1.03.04-.03.08-.07.11-.12.04-.07.05-.15.04-.23-.03-.13-.15-.24-.28-.27,0,0-.02,0-.03,0-.06,0-5.65-.68-7.99-4.33-.83-1.3-2.01-2.5-3.5-3.58-2.32-1.67-5.22-2.58-8.18-2.54l-37.93.51c-4.79.06-7.32,4.07-8.83,6.46-.42.66-.78,1.22-1.05,1.49-.05-1.14-.58-2.02-1.49-2.43-1.07-.47-2.39-.11-3.28.91-.81.93-.76,2.37.11,3.68.77,1.14,2.24,2.14,3.66,1.65ZM89.42,154.23c.31-.44.6-.94.92-1.47.77-1.3,1.73-2.91,3.43-4.62.67-.67,1.62-1.15,2.99-1.5.09-.02.21-.05.33-.08.54-.11,1.09-.18,1.65-.18l37.61-.51c2.82-.04,5.48,1.29,7.13,3.55.23.32.46.64.68.96.8,1.15,1.57,2.24,2.55,3.07l-1.11.02h0c-.03-.09-.07-.18-.14-.25-.11-.1-.24-.16-.39-.16l-4.97.07c-.25,0-.46.18-.52.42l-42.82.58c-.07-.23-.28-.41-.54-.4l-4.97.07c-.25,0-.46.18-.52.42l-1.3.02ZM83.93,154.18c-.54-.79-.9-2.02-.16-2.87.7-.8,1.71-1.1,2.52-.74.77.34,1.17,1.19,1.08,2.29-.22.11-.45.16-.66.09-.47-.17-.71-.93-.76-1.22-.03-.18-.2-.3-.39-.27-.18.03-.3.2-.27.39,0,.06.26,1.39,1.2,1.72.4.14.85.07,1.33-.2.01,0,.03-.01.04-.02.18-.11.37-.24.56-.41.36-.31.74-.92,1.23-1.69,1.44-2.28,3.85-6.09,8.28-6.15l37.93-.51c.59,0,1.19.02,1.78.09,2.18.26,4.27,1.06,6.01,2.32,1.42,1.03,2.55,2.18,3.33,3.4,1.63,2.54,4.6,3.72,6.56,4.24-1.62.07-3.99-.09-5.8-1.24-1.21-.77-2.09-2.04-3.03-3.38-.22-.32-.45-.65-.69-.97-1.54-2.11-3.89-3.46-6.46-3.76-.4-.05-.81-.07-1.21-.06l-37.61.51c-.6,0-1.2.07-1.78.2-.13.03-.26.06-.35.08-1.5.38-2.55.91-3.3,1.68-1.75,1.77-2.73,3.42-3.52,4.75-.92,1.55-1.59,2.67-2.95,3.14-1.09.38-2.26-.46-2.89-1.39Z"/>
        </g>
      </g>
      <g>
        <path class="cls-1" d="M150.33,144.89s4.4-1.82,3.05-3.89c-1.35-2.07-3.67,1.85-3.67,1.85l.62,2.04Z"/>
        <g>
          <path class="cls-26" d="M150.92,143.05c.09-2.18-1.94-4.56-3.64-4.1-.81.22-1.28,1.22-.82,2.15-2.38-1.89-3.96.35-3.28,1.91-1.58-.94-2.71,1.02-2.3,2.05.57,1.42,1.6,2.66,3.53,2.83,2.09.2,6.36-1.55,6.5-4.84Z"/>
          <path class="cls-25" d="M148.77,144.67c-.06-.02-.11-.06-.14-.11,0,0-.38-.76-2.34-3.33-.07-.09-.05-.23.04-.31.09-.07.23-.05.3.04,2,2.63,2.37,3.37,2.39,3.41.05.11,0,.24-.1.29-.05.03-.11.03-.16.01Z"/>
          <path class="cls-25" d="M146.26,146.81s-.05-.02-.08-.04c-.08-.07-2.09-1.74-3.19-3.65-.06-.11-.03-.24.08-.3.11-.06.24-.03.3.08,1.06,1.85,3.06,3.52,3.08,3.53.09.08.11.22.03.31-.06.07-.15.09-.23.07Z"/>
        </g>
      </g>
    </g>
  </g>
</svg>