<?xml version="1.0" encoding="UTF-8"?>
<svg id="Layer_2" data-name="Layer 2" xmlns="http://www.w3.org/2000/svg" viewBox="0 0 203.12 306.39">
  <defs>
    <style>
      .cls-1 {
        fill: #eaad85;
      }

      .cls-2 {
        fill: #231f20;
      }

      .cls-3 {
        fill: #bde5f2;
      }

      .cls-4 {
        fill: #e37b5d;
      }

      .cls-5 {
        fill: #ef619f;
      }

      .cls-6 {
        fill: #f186b6;
      }

      .cls-7 {
        fill: #f179a8;
      }

      .cls-8 {
        fill: #00aec6;
      }

      .cls-9 {
        fill: #e2a268;
      }

      .cls-10 {
        fill: #5f2d2a;
      }

      .cls-11 {
        fill: #fff;
      }

      .cls-12 {
        fill: #824025;
      }

      .cls-13 {
        fill: #86b4e0;
      }

      .cls-14 {
        fill: #f48f87;
      }

      .cls-15 {
        fill: #7f4035;
      }

      .cls-16 {
        fill: #d9dbdc;
      }

      .cls-17 {
        fill: #4d1f1c;
      }

      .cls-18 {
        fill: #f8c4d2;
      }

      .cls-19 {
        fill: #562512;
      }

      .cls-20 {
        fill: #ce7754;
      }

      .cls-21 {
        fill: #ffc132;
      }

      .cls-22 {
        fill: #d5956a;
      }

      .cls-23 {
        fill: #fbc6a4;
      }

      .cls-24 {
        fill: #ec756c;
      }

      .cls-25 {
        fill: #f8af9a;
      }

      .cls-26 {
        fill: #f7b0ad;
      }

      .cls-27 {
        fill: #321514;
      }

      .cls-28 {
        fill: #fcd8c1;
      }

      .cls-29 {
        fill: #d8d9da;
      }
    </style>
  </defs>
  <g id="Layer_1-2" data-name="Layer 1">
    <g>
      <g>
        <g>
          <path class="cls-23" d="M123.78,165.35s9.55,4.52,16.12,4.9c6.21.37,35.3-2,36.37-34.89,2.06-1.52,6.71-6.87,4.9-7.99-.95-.57-4.01,2.52-4.01,2.52,0,0,4.41-4.97,1.61-6.35-1.28-.62-3.72,5.07-3.72,5.07,0,0,2.46-7.95-.11-8.22-2.6-.29-3.17,7.48-3.17,7.48l-2.63,4.55s1.1-6.07-1.11-5.57c-4.38.97.82,10.7.82,10.7,0,0-4.24,23.6-28.17,23.69-9.9.04-18.97-4.94-19.18-5.01,1.78,3.84,2.28,9.11,2.28,9.11Z"/>
          <path class="cls-1" d="M123.78,165.35s1.19.56,3.02,1.31c-1.42-2.96-1.02-6.82,1.87-6-2.6-1.01-4.8-2.01-6.61-3.07,1.33,3.62,1.72,7.76,1.72,7.76Z"/>
        </g>
        <path class="cls-5" d="M39.95,110.46s-18.9,16.89-9.64,33.83c9.26,16.93-1.68,30.74-1.68,30.74,0,0,28.52-17.44,18.37-37.12-10.14-19.68-7.06-27.44-7.06-27.44Z"/>
        <path class="cls-5" d="M53.39,194.6s-11.69-19.81-3.63-34.94c8.05-15.13,1.66-30.56,1.66-30.56,0,0,18.38,21.96,9.45,39.65-8.93,17.68-7.48,25.85-7.48,25.85Z"/>
        <g>
          <path class="cls-15" d="M62.87,24.13c-6.49-4.93-33.04-1.16-39.17,10.24-6.06,11.27-3.16,4.65-11.61,16.6-8.04,11.38,2.99,39.17,15.16,51.89,7.51,7.85,4.84,27.03-.28,36.67-5.12,9.66,7.3,14.05,17.56,16.48,10.27,2.44,16.72,15.52,14.13,31.9-1.65,10.46-3.2,11.04,6.12,11.31,5.66.16,12.05,7.27,14.03,11.92,1.98,4.65,20.1-33.22,21.67-44,1.57-10.77,9.04-7.14,15.73-5.37,6.68,1.77.48-12.03,7.87-20.63,15.51-18.03-1.86-35.28,7.27-42.14,11.15-8.38,14.42-26.92,14.14-38.11-.61-24.5-30.99-51.12-61.04-48.43-11.81,1.06-17.63,5.57-21.56,11.67Z"/>
          <path class="cls-10" d="M107.15,134.57s3.19,13.13,1.62,26.01c-14.11-11.54-10.44,21.29-23.17,34.46-2.93-27.55-33.42-50.06-46.39-63.95-11.12-11.91-5.86-19.5-.55-23.31,5.32-3.81,68.48,26.79,68.48,26.79Z"/>
        </g>
        <g>
          <path class="cls-29" d="M106.37,295.03c.46.52.53,2.86.07,3.62-1.99,3.03-6.64,7.36-12.29,7.71-4.12.26-8.25-1.47-9.08-3.64-.25-.64-.61-2.33.38-3.54,5.89-3.37,20.93-4.15,20.93-4.15Z"/>
          <g>
            <path class="cls-23" d="M107.63,237.39s-1.67,52.13-1.9,58.79c-2.82,3.98-6.77-.81-6.77-.81,0,0,.97-53.22,1.53-57.98,3.21-.42,7.13,0,7.13,0Z"/>
            <path class="cls-1" d="M100.44,250.82l-.22,6.51s.78-4.02,3.14-3.88c2.34.14,3.19,4.18,3.19,4.18l.1-7.15-6.2.35Z"/>
          </g>
          <path class="cls-5" d="M105.83,289.32s-2.21,3.64-3.51,2.94c.91-1.38.06-4.56-1.93-4.91-1.99-.34-2.24,2.38-2.24,2.38,0,0-2.61-.48-6.46.99-6.48,2.47-6.86,6.82-6.25,8.46,1,1.55,5.35,3.54,10.77,2.77,5.41-.77,8.92-5.2,9.62-5.8.68-.6,1.22-2.15.68-3.37-.53-1.21.61-3.46-.68-3.46Z"/>
          <path class="cls-6" d="M90.04,293.94c-1.91-.61-4.99,2.38-2.93,4.72,2.06,2.33,8.4,1.03,8.4,1.03,0,0-6.04.05-5.43-2.71.23-1.05,1.58-2.51-.05-3.03Z"/>
          <path class="cls-11" d="M99.02,293.26c-.12,0-.24-.06-.32-.19-1.64-2.46-3.37-1.11-3.44-1.05-.18.14-.44.1-.56-.11-.14-.21-.09-.51.09-.65.02-.01,2.46-1.91,4.56,1.25.14.21.1.49-.08.65-.07.06-.16.09-.25.09Z"/>
          <path class="cls-11" d="M95.1,294.14c-.13,0-.25-.07-.33-.18-1.65-2.46-3.37-1.11-3.44-1.04-.18.14-.44.08-.57-.12-.13-.21-.09-.48.09-.64.03-.01,2.46-1.91,4.56,1.25.14.2.1.49-.07.64-.07.06-.16.09-.24.09Z"/>
        </g>
        <g>
          <path class="cls-29" d="M115.29,295.03c-.46.52-.53,2.86-.07,3.62,1.99,3.03,6.64,7.36,12.29,7.71,4.12.26,8.25-1.47,9.08-3.64.25-.64.61-2.33-.38-3.54-5.89-3.37-20.93-4.15-20.93-4.15Z"/>
          <g>
            <path class="cls-23" d="M114.02,237.39s1.67,52.13,1.9,58.79c2.82,3.98,6.77-.81,6.77-.81,0,0-.97-53.22-1.53-57.98-3.21-.42-7.13,0-7.13,0Z"/>
            <path class="cls-1" d="M121.21,249.52l.22,6.51s-.78-4.02-3.14-3.88c-2.34.14-3.19,4.18-3.19,4.18l-.1-7.15,6.2.35Z"/>
          </g>
          <path class="cls-5" d="M115.82,289.32s2.21,3.64,3.51,2.94c-.92-1.38-.06-4.56,1.93-4.91,1.99-.34,2.24,2.38,2.24,2.38,0,0,2.61-.48,6.46.99,6.47,2.47,6.86,6.82,6.25,8.46-1,1.55-5.35,3.54-10.77,2.77-5.41-.77-8.92-5.2-9.62-5.8-.68-.6-1.22-2.15-.68-3.37.53-1.21-.61-3.46.68-3.46Z"/>
          <path class="cls-6" d="M131.62,293.94c1.91-.61,4.99,2.38,2.93,4.72-2.06,2.33-8.4,1.03-8.4,1.03,0,0,6.04.05,5.43-2.71-.23-1.05-1.58-2.51.05-3.03Z"/>
          <path class="cls-11" d="M122.63,293.26c.12,0,.24-.06.32-.19,1.64-2.46,3.37-1.11,3.44-1.05.18.14.44.1.56-.11.14-.21.09-.51-.09-.65-.02-.01-2.45-1.91-4.56,1.25-.14.21-.1.49.08.65.07.06.16.09.25.09Z"/>
          <path class="cls-11" d="M126.56,294.14c.13,0,.25-.07.33-.18,1.65-2.46,3.37-1.11,3.44-1.04.18.14.44.08.56-.12.13-.21.09-.48-.09-.64-.03-.01-2.46-1.91-4.56,1.25-.14.2-.1.49.07.64.07.06.16.09.24.09Z"/>
        </g>
        <g>
          <path class="cls-23" d="M87.88,164.03s5.38-3.56,8.8-5.58c-.61-3.84-2.43-7.84-2.43-7.84l6.69-2.46s2.11,6,2.66,8.48c5.33,0,13.32.14,13.32.14,0,0,6.47,14.18-11.14,17.96-4.64.99-16.85-3.36-17.89-10.69Z"/>
          <path class="cls-1" d="M100.11,148.45l-5.62,2.38s1.53,2.74,2.29,5.84c.61-1.83,4.58-3.48,6.1-1.68-.78-2.6-2.76-6.54-2.76-6.54Z"/>
        </g>
        <path class="cls-8" d="M84.16,166.95c3.6,10.46,9.76,20.37,3.07,24.82-.4,2.27-.04,10.21-.71,12.73-1.77,10.48-6.38,27.73-16.06,42.94,35.17,9.86,75.73,1.26,83.44-5.43-3.08-10.03-9.64-32.09-17.44-43.23-.87-6.85-1.72-12.18-3.78-16.63-6,.51-5.81-12.77-8.39-23.06-1.84-.17-7.13-1.63-7.13-1.63,0,0,9.21,25.86-5.58,28.29-15.68,2.57-22.38-21.68-22.38-21.68l-5.05,2.89Z"/>
        <path class="cls-8" d="M91.53,161.82c-2.97,1.24-8.49,3.71-15.59,11.2,2.39,3.59,4.14,5.82,4.64,10.85,2.37-1.08,3.3-3.19,4.73-3.91,1.77,14.99,1.94,23.44,1.25,30.99,10.29,6.86,40.29,9.26,50.59-1.03,0-10.97-5.83-33.61-8.96-40.64-.16-.34,1.54,5.36,3.97,4.33,2.27-2.76,3.65-7.51,3.25-8.48-6.71-9.47-19.33-8.59-22.11-8.54,7.89,16.12-14.58,20.67-21.78,5.23Z"/>
        <path class="cls-3" d="M85.76,202.72c4.04.9,37.59-.75,50.62-7.04,1.2,2.1.75,4.04.75,4.04,0,0-23.96,7.94-52.27,6.29-.3-2.69.9-3.29.9-3.29Z"/>
        <path class="cls-11" d="M93.04,160.82c3.15,7.08,5.87,10.15,13.85,8.04,6.81-1.8,5.69-10.02,5.09-12.42,1.35-.22,2.83.08,2.83.08,0,0,3.48,13.05-7.01,15.6-11.22,2.73-15.53-3.99-17.63-9.69.6-.6,2.87-1.62,2.87-1.62Z"/>
        <g>
          <g>
            <g>
              <path class="cls-23" d="M149.57,65.05c7.55,16.7,15.33,72.15-32.72,85.79-44.63,12.66-76.36-13.46-87.08-46.02-12.93-39.29,16.02-67.57,43.78-74.45,43.36-10.74,65.92,12.31,76.02,34.67Z"/>
              <g>
                <path class="cls-25" d="M129.76,106.18c.79,4.27,7.54,6.51,13.7,3.86,6.17-2.65,8.73-8.39,7.48-13.43-1.12-4.6-7.58-7.43-13.14-1.64-5.2,5.38-8.86,6.77-8.04,11.21Z"/>
                <path class="cls-28" d="M145.49,96.48c.11.57.8.89,1.51.71.72-.15,1.21-.72,1.06-1.28-.11-.56-.77-.89-1.51-.71-.72.14-1.2.72-1.06,1.28Z"/>
                <path class="cls-28" d="M106.64,98.17c.13.57.9.88,1.76.7.82-.18,1.43-.78,1.3-1.33-.12-.57-.9-.87-1.75-.66-.84.17-1.43.76-1.31,1.29Z"/>
                <path class="cls-25" d="M58.2,120.4c1.47,5.75,7.82,8.64,15.44,7.44,7.33-1.18,13.57-8.2,11.14-13.33-2.3-4.88-5.89-2.26-14.95-3.57-8.74-1.28-13.11,3.71-11.63,9.47Z"/>
                <path class="cls-28" d="M62.7,116.34c.13.52.76.8,1.46.63.66-.18,1.11-.73.98-1.26-.14-.5-.79-.81-1.47-.65-.69.19-1.11.76-.97,1.28Z"/>
                <path class="cls-4" d="M74.08,119.82c.13.52.77.8,1.46.63.66-.18,1.11-.74.98-1.26-.14-.5-.79-.81-1.47-.65-.69.19-1.11.76-.97,1.28Z"/>
                <path class="cls-4" d="M75.9,115c.14.52.77.79,1.46.63.67-.18,1.11-.74.98-1.26-.13-.51-.79-.81-1.47-.65-.68.19-1.11.76-.97,1.28Z"/>
                <path class="cls-4" d="M80.18,118.38c.14.52.77.79,1.47.63.66-.18,1.11-.73.98-1.26-.14-.5-.79-.81-1.47-.65-.68.19-1.11.76-.97,1.28Z"/>
                <path class="cls-4" d="M135.32,105.53c.13.52.77.8,1.46.63.67-.18,1.11-.73.98-1.26-.14-.5-.79-.81-1.47-.65-.69.19-1.11.75-.97,1.28Z"/>
                <path class="cls-4" d="M137.13,100.71c.14.52.77.8,1.47.63.67-.18,1.11-.74.98-1.26-.14-.5-.79-.81-1.47-.65-.68.19-1.11.76-.98,1.28Z"/>
                <path class="cls-4" d="M141.41,104.09c.14.52.77.8,1.46.63.67-.18,1.11-.73.98-1.26-.14-.5-.79-.81-1.47-.65-.68.19-1.11.76-.97,1.28Z"/>
                <path class="cls-10" d="M127.39,61.12c-6.99-1.51-7.93,6.17-3.38,5.87,4.89-.31,9.07,1.22,9.66.73,1.26-1.13-2.35-5.77-6.28-6.6Z"/>
                <path class="cls-10" d="M65.24,76.46c5.49-4.59,9.86,1.77,5.71,3.63-4.46,2.01-7.47,5.32-8.25,5.12-1.62-.39-.53-6.17,2.54-8.75Z"/>
                <g>
                  <path class="cls-17" d="M122.46,108.09s5.66,25.23-12.02,29.77c-17.67,4.54-18.35-21.01-18.35-21.01,0,0,13.84,1.74,30.37-8.77Z"/>
                  <path class="cls-27" d="M106.32,115.25c.28,6.36-.65,15.55-7.32,20.36-6.56-5.83-6.91-18.75-6.91-18.75,0,0,6.27.74,14.23-1.61Z"/>
                  <path class="cls-24" d="M120.24,130.53c-1.61,3.62-5.35,6.32-10.14,7.56-8.74,2.22-13.37-3.17-15.39-8.87.53-1.22,3.26-2.79,6.27-1.68,2.56-5.27,14.15-2.62,19.26,2.98Z"/>
                  <path class="cls-14" d="M97.75,128.4c1.31-.7,3.07-.51,3.86-.13.48-1.09,1.35-2.35,4.01-2.68,6.65-.86,15.43,5.41,7.2,9.45-8.31,4.12-19.93-4.1-15.07-6.65Z"/>
                  <path class="cls-26" d="M111.53,127.7c-1.53-1.33-5.12-1.93-6.01-.93-1.07,1.2,2.1,2.68,4.14,2.78,2.06.1,2.86-1.03,1.88-1.85Z"/>
                  <path class="cls-11" d="M117.4,110.93c.95,2.6.74,4.71-2.67,6.46-3.18,1.64-7.94,3.08-11.28,3.4-4.05.42-6.19-1.14-6.26-3.94,6.83-.77,12.25-2.02,20.22-5.92Z"/>
                </g>
                <path class="cls-20" d="M109.27,104.8c-.14.03-.29-.04-.34-.16-.1-.15-.05-.35.11-.47,2.78-1.64,2.55-4,2.3-4.94-.45-1.81-1.93-3.21-3.45-3.28-1.61-.06-2.97,1.34-3.87,3.91-.05.16-.25.26-.43.19-.16-.06-.27-.24-.19-.42,1.33-3.89,3.4-4.39,4.5-4.32,1.8.05,3.54,1.69,4.08,3.77.56,2.23-.42,4.37-2.6,5.7-.05,0-.08,0-.11.03Z"/>
                <g>
                  <path class="cls-1" d="M117.87,81.5c-.88,6.18,3.13,11.86,8.93,12.7,5.81.82,11.23-3.51,12.09-9.71.88-6.18-3.13-11.85-8.92-12.7-5.83-.81-11.24,3.52-12.1,9.71Z"/>
                  <path class="cls-1" d="M123.53,91.36c-3.33,1.1-3.77,2.83-1,3.89,2.77,1.02,7.75.98,11.06-.11,3.33-1.1,3.79-2.84,1-3.88-2.78-1.05-7.72-.99-11.07.1Z"/>
                  <path class="cls-11" d="M119.03,81.5c-.86,6.1,3.09,11.71,8.84,12.55,5.74.84,11.09-3.46,11.94-9.58.87-6.12-3.1-11.74-8.84-12.57-5.73-.81-11.1,3.48-11.94,9.59Z"/>
                  <path class="cls-16" d="M120.38,82.32c.17-1.21.57-2.33,1.12-3.33-.21.6-.37,1.21-.46,1.9-.77,5.35,2.72,10.3,7.78,11.03,3,.44,5.85-.76,7.87-2.88-1.91,2.87-5.21,4.59-8.7,4.09-4.93-.71-8.33-5.53-7.6-10.8Z"/>
                  <path class="cls-13" d="M122.25,85.7c.81,3.24,3.93,5.27,6.97,4.49,3.07-.74,4.89-3.98,4.09-7.23-.8-3.24-3.93-5.26-7-4.51-3.04.77-4.88,4.01-4.06,7.25Z"/>
                  <path class="cls-2" d="M124.57,85.38c.48,1.93,2.34,3.13,4.19,2.69,1.8-.46,2.89-2.39,2.42-4.33-.49-1.95-2.37-3.16-4.17-2.7-1.84.44-2.93,2.39-2.44,4.34Z"/>
                  <path class="cls-11" d="M127.83,82.36c.18.82.97,1.35,1.75,1.14.77-.18,1.24-1,1.04-1.82-.21-.83-.99-1.35-1.77-1.18-.78.23-1.24,1.03-1.02,1.85Z"/>
                  <path class="cls-11" d="M125.13,87.57c.13.5.62.81,1.08.7.48-.11.75-.62.63-1.11-.14-.51-.6-.83-1.08-.7-.46.12-.73.61-.63,1.11Z"/>
                </g>
                <g>
                  <path class="cls-1" d="M64.88,95.37c-.88,6.19,3.15,11.87,8.94,12.71,5.8.84,11.23-3.51,12.1-9.69.88-6.19-3.14-11.87-8.94-12.71-5.83-.81-11.24,3.51-12.1,9.69Z"/>
                  <path class="cls-1" d="M70.53,105.25c-3.32,1.1-3.76,2.83-1,3.87,2.8,1.03,7.75.99,11.08-.1,3.35-1.1,3.8-2.83,1-3.87-2.79-1.05-7.73-.99-11.08.1Z"/>
                  <path class="cls-11" d="M66.04,95.38c-.85,6.1,3.1,11.71,8.84,12.54,5.75.86,11.11-3.45,11.96-9.57.87-6.13-3.1-11.73-8.83-12.56-5.75-.81-11.1,3.46-11.97,9.59Z"/>
                  <path class="cls-16" d="M67.39,96.18c.17-1.18.57-2.3,1.12-3.3-.22.6-.36,1.21-.46,1.89-.78,5.36,2.71,10.3,7.77,11.04,3,.43,5.86-.78,7.88-2.9-1.93,2.87-5.21,4.59-8.7,4.09-4.94-.71-8.33-5.54-7.61-10.82Z"/>
                  <path class="cls-13" d="M69.27,99.59c.81,3.23,3.93,5.27,6.97,4.5,3.08-.77,4.88-3.99,4.08-7.25-.8-3.26-3.92-5.26-6.98-4.5-3.05.74-4.88,4-4.07,7.25Z"/>
                  <path class="cls-2" d="M71.59,99.25c.47,1.96,2.34,3.13,4.19,2.72,1.8-.47,2.89-2.41,2.42-4.35-.48-1.95-2.35-3.15-4.16-2.7-1.83.45-2.93,2.4-2.44,4.34Z"/>
                  <path class="cls-11" d="M74.84,96.26c.19.82.98,1.32,1.74,1.12.76-.19,1.24-1.01,1.04-1.81-.22-.84-.98-1.33-1.77-1.16-.76.21-1.23,1.04-1.02,1.85Z"/>
                  <path class="cls-11" d="M72.16,101.45c.12.51.61.8,1.06.71.47-.15.77-.63.64-1.13-.13-.5-.59-.81-1.09-.69-.45.12-.73.6-.61,1.11Z"/>
                </g>
              </g>
            </g>
            <g>
              <path class="cls-15" d="M94.27,29.44s7.03,16.11,8.06,31.77c-5.28,2.25-10.09,2.9-10.09,2.9l-10.91-25.67s7.14,19.66,6.45,26.26c-8.39,3.9-33.93,7.29-43.16,8.82,1.97,10.89,1.42,26.46-2.52,44.03-3.49,1.4-12.79,3.56-12.79,3.56,0,0-31.11-29.34-27.11-67.52C4.81,28.55,43.55,14.17,43.55,14.17l4.39-2.44,4.63-.61S78.26.89,106.97,4.2c26.08,3.02,45.59,11.88,44.42,66.27-4.7-6.51-10.47-20-10.47-20,0,0-16.88,6-28.81,8.21-6.02-19.04-17.84-29.24-17.84-29.24Z"/>
              <path class="cls-10" d="M5.8,59.78c.81,21.89,3.72,28.01,25.21,61.1,5.69.8,12.2-15.88,8.54-46.06-7.34,28.86-22.03,23.38-33.76-15.03Z"/>
              <path class="cls-7" d="M45.32,63.07c-23.72,20.86-21.8,42.67-21.48,53.55C15.4,106.81-2.75,81.84.35,51.47,2.98,25.66,42.32,10.89,42.32,10.89l9.15-3.13S77.55-2.76,106.72.7c23.54,2.79,41.82,10.34,44.82,51.31-18.55-18.62-68.01-22.54-106.23,11.07Z"/>
              <g>
                <path class="cls-18" d="M100.18,8.28c0,1.31,1.7,2.38,3.79,2.38,2.09,0,3.78-1.06,3.78-2.37,0-1.31-1.7-2.38-3.79-2.38-2.09,0-3.78,1.06-3.78,2.37Z"/>
                <path class="cls-18" d="M60.08,12.9c0,1.31,1.7,2.38,3.78,2.38,2.09,0,3.78-1.06,3.78-2.37,0-1.31-1.7-2.38-3.79-2.38-2.09,0-3.78,1.06-3.78,2.37Z"/>
                <path class="cls-18" d="M85.59,23.52c.13,1.31,1.92,2.2,4,1.99,2.08-.21,3.66-1.43,3.53-2.74-.13-1.31-1.92-2.2-4-2-2.08.21-3.66,1.43-3.53,2.74Z"/>
                <path class="cls-18" d="M77.73,4.02c.13,1.31,1.92,2.2,4,1.99,2.08-.2,3.66-1.43,3.53-2.74-.13-1.31-1.92-2.2-4-1.99-2.08.2-3.66,1.43-3.53,2.74Z"/>
                <path class="cls-18" d="M128.25,19.03c0,1.31,1.7,2.38,3.79,2.38,2.09,0,3.78-1.06,3.78-2.37,0-1.31-1.7-2.38-3.78-2.38-2.09,0-3.78,1.06-3.78,2.37Z"/>
                <path class="cls-18" d="M138.56,37.58c0,1.31,1.7,2.38,3.79,2.38,2.09,0,3.78-1.06,3.78-2.37,0-1.31-1.7-2.38-3.79-2.38-2.09,0-3.78,1.06-3.78,2.37Z"/>
                <path class="cls-18" d="M111.89,30.38c0,1.31,1.7,2.38,3.79,2.38,2.09,0,3.78-1.06,3.78-2.37,0-1.31-1.7-2.38-3.79-2.38-2.09,0-3.78,1.06-3.78,2.37Z"/>
                <path class="cls-18" d="M62.32,38.4c0,1.31,1.7,2.38,3.79,2.38,2.09,0,3.78-1.06,3.78-2.37,0-1.31-1.7-2.38-3.79-2.38-2.09,0-3.78,1.06-3.78,2.37Z"/>
                <path class="cls-18" d="M40.81,34.21c.54,1.19,2.52,1.45,4.42.57,1.9-.88,3-2.56,2.46-3.76-.54-1.19-2.51-1.45-4.41-.57-1.9.88-3,2.56-2.46,3.75Z"/>
                <path class="cls-18" d="M15.45,31.72c.68,1.12,2.67,1.14,4.45.04,1.78-1.1,2.68-2.91,2-4.03-.67-1.12-2.67-1.14-4.45-.03-1.78,1.1-2.68,2.91-2.01,4.03Z"/>
                <path class="cls-18" d="M19.93,53.6c.89.96,2.84.55,4.36-.9,1.52-1.45,2.03-3.4,1.14-4.36-.89-.96-2.84-.55-4.36.9-1.52,1.45-2.03,3.4-1.14,4.36Z"/>
                <path class="cls-18" d="M3.62,52.92c1.01.82,2.89.15,4.19-1.5,1.31-1.65,1.55-3.66.54-4.48-1.01-.82-2.89-.15-4.19,1.5-1.31,1.65-1.55,3.66-.54,4.48Z"/>
                <path class="cls-18" d="M8.78,78.08c1.26.32,2.68-1.09,3.18-3.15.5-2.06-.11-3.98-1.37-4.3-1.26-.32-2.68,1.09-3.18,3.15-.5,2.06.11,3.98,1.37,4.3Z"/>
                <path class="cls-18" d="M19.07,105.16c1.28-.19,2.07-2.04,1.77-4.14-.3-2.1-1.59-3.65-2.87-3.46-1.28.19-2.07,2.04-1.77,4.14.3,2.1,1.59,3.65,2.86,3.46Z"/>
                <path class="cls-18" d="M24.97,81.8c1.14.62,2.86-.4,3.84-2.28.97-1.87.84-3.89-.3-4.5-1.14-.62-2.86.4-3.84,2.27-.98,1.87-.84,3.89.3,4.51Z"/>
                <path class="cls-18" d="M35.46,17.64c.61,1.16,2.6,1.3,4.44.31,1.84-.99,2.85-2.74,2.24-3.9-.61-1.16-2.6-1.3-4.44-.31-1.84.99-2.85,2.74-2.24,3.89Z"/>
                <path class="cls-18" d="M40.17,57.19c.71,1.1,2.7,1.05,4.45-.11,1.75-1.16,2.59-2.99,1.88-4.09-.71-1.1-2.7-1.05-4.45.11-1.75,1.16-2.59,2.99-1.88,4.09Z"/>
              </g>
            </g>
            <g>
              <path class="cls-23" d="M41.17,112.03s-4.88-6.84-13.08-3.79c-8.62,3.2-5.77,16.08,2.55,21.11,8.31,5.02,17.97,1.48,17.62-5.75l-7.09-11.57Z"/>
              <path class="cls-22" d="M28.28,112.28c4.68-3.82,14.67,4.73,10.54,14.05-1.04-9.18-5.2-10.36-7.03-4.76-1.29-2.5-.8-4.75,2.5-6.12-2.01-3.16-6.01-3.17-6.01-3.17Z"/>
            </g>
          </g>
          <g>
            <path class="cls-11" d="M37.42,94.76c2.22-10.7,15.11-3.4,9.33,4.26,12.38-2.27,8.64,14.66-2.06,9.49,3.86,13.44-10.4,9.17-10.48,2.87-13.21,2.03-12.66-11.1-3.7-11.7-10.17-6.46,3.05-14.41,6.91-4.92Z"/>
            <path class="cls-21" d="M43.95,105.71c-1.89,2.82-5.71,3.59-8.54,1.69-2.82-1.89-3.59-5.71-1.7-8.54,1.89-2.82,5.71-3.58,8.54-1.7,2.82,1.89,3.58,5.71,1.7,8.55Z"/>
          </g>
        </g>
      </g>
      <g>
        <path class="cls-9" d="M181.19,99.5l2.74,2.14c-.59.29-1.18.6-1.76.92h-.01s-2.13-1.56-2.13-1.56c.52-.38.93-.9,1.17-1.51Z"/>
        <path class="cls-12" d="M179.62,96.91c.36.42.53.97.49,1.52-.1,1.15-1.11,2-2.25,1.91-1.15-.1-2.01-1.11-1.91-2.26.09-1.09,1.01-1.92,2.08-1.92.06,0,.11,0,.18,0,.56.04,1.06.31,1.42.73Z"/>
        <path class="cls-9" d="M173.15,105.28l2.28,1.79c-.63.48-1.2.94-1.7,1.35l-1.91-1.41c.1-.07.19-.14.28-.21.49-.41.84-.93,1.05-1.51Z"/>
        <path class="cls-12" d="M171.52,102.53c.4.47.59,1.07.54,1.68-.05.61-.34,1.17-.81,1.57-.23.2-.5.35-.78.44-.05,0-.1.01-.14.03-.25.06-.5.09-.76.07-.62-.05-1.17-.34-1.58-.81-.4-.47-.59-1.07-.54-1.68.1-1.21,1.11-2.12,2.3-2.12.06,0,.13,0,.19,0,.61.05,1.17.34,1.57.81Z"/>
        <path class="cls-12" d="M187.44,116.63l-2.91,2.67-1.52-1.17c.85-.53,2.04-1.29,3.43-2.18l.99.68Z"/>
        <path class="cls-12" d="M197.31,118.05c1.29,0,2.35,1.05,2.35,2.34s-1.05,2.35-2.35,2.35-2.34-1.05-2.34-2.35c0-.98.6-1.82,1.46-2.17,0,0,.01,0,.02,0,.27-.11.56-.17.86-.17Z"/>
        <path class="cls-9" d="M189.53,114.04l5.48,3.52c-.58.47-1.01,1.12-1.22,1.86l-6.15-4.23c.59-.38,1.2-.78,1.83-1.19.02.01.03.03.05.04Z"/>
        <path class="cls-12" d="M196.81,103.68l-14.94,10.18-4.77-3.27c13.04-9,18.27-7.67,19.72-6.91Z"/>
        <path class="cls-9" d="M201.5,101.54c.38.66.41,1.41.1,2.07l-2.04,1.87c-3.45,2.63-10.78,7.48-17.68,11.8l-9.05-6.4c2-1.74,8.54-7.21,14.39-9.21,4.69-1.6,9.76-1.53,12.37-1.34.79.06,1.5.5,1.9,1.2ZM198.01,103.74c.01-.13-.03-.25-.11-.35-.19-.21-4.86-5.03-21.83,6.84-.12.08-.19.22-.19.36s.07.28.19.36l5.54,3.79c.07.05.16.08.25.08s.17-.03.25-.08l15.71-10.7c.11-.07.18-.18.19-.31Z"/>
        <path class="cls-12" d="M183.67,120.3l-41.34,59.88c-.88-1.36-1.57-2.3-1.96-2.8l41.62-58.38,1.67,1.29Z"/>
        <polygon class="cls-9" points="180.95 118.23 121.26 201.95 116.49 198.69 178.8 116.71 180.95 118.23"/>
        <polygon class="cls-9" points="173.71 113.11 107.83 192.75 103.72 189.95 171.9 111.83 173.71 113.11"/>
        <polygon class="cls-9" points="175.89 114.65 111.56 195.31 108.55 193.25 174.42 113.62 175.89 114.65"/>
        <polygon class="cls-9" points="178.09 116.21 115.77 198.19 112.28 195.81 176.61 115.16 178.09 116.21"/>
        <path class="cls-9" d="M114.97,199.24l-2.87,3.77c-1.01-1-2.23-1.84-3.61-2.46l2.97-3.72,3.51,2.4Z"/>
        <path class="cls-9" d="M110.74,196.34l-2.92,3.67-.16.2c-1.3-.48-2.71-.76-4.19-.81l4.24-5.12,3.03,2.07Z"/>
        <path class="cls-12" d="M148.46,196.75c3.25,10.77,5.16,27.74-4.2,47.38-9.14,19.18-23.25,27.13-33.47,30.43-14.17,4.56-29.07,2.84-36.46-1.23-13.5-7.43-20.18-18.36-23.47-26.85,3.46,5.61,8.62,10.42,15.27,14.17,14.26,8.05,27.36,10.49,38.94,7.24,11.56-3.24,21.52-12.21,29.59-26.65,10.65-19.05,11.58-35.45,10.48-45.86-.53-5-1.54-9.1-2.53-12.14,1.87,3.24,4.12,7.85,5.83,13.52Z"/>
        <path class="cls-9" d="M143.85,195.51c1.08,10.22.17,26.33-10.32,45.08-7.9,14.13-17.59,22.88-28.8,26.03-11.23,3.15-24,.76-37.94-7.12-9.96-5.62-16.44-13.64-18.75-23.18-.06-.24-.12-.48-.17-.73-.55-3.18-.71-5.68-.75-7.03-.03-9.02,3.33-18.88,9.95-28.95,9.46-14.39,26.56-22,39.24-25.85,10.81-3.28,20.34-4.46,24-4.82l-18.05,20.69c-.13.14-.18.33-.16.51.02.19.13.35.28.46l4.62,3.16-4.19,5.07-.46.56c-6.45.28-11.6,4.98-11.6,10.71,0,.97.15,1.9.42,2.8l-15.79,19.09-7.77-5.12c-.3-.2-.7-.12-.91.18l-3.81,5.65c-.2.3-.12.7.18.91l26.42,17.94c.11.07.24.11.37.11.2,0,.39-.09.52-.25l4.42-5.78c.11-.14.15-.33.13-.51-.03-.18-.14-.34-.29-.44l-8.73-5.76,14.02-18.44c.98.22,2,.34,3.05.34,6.74,0,12.22-4.81,12.22-10.72,0-2.42-.92-4.66-2.46-6.45l2.95-3.89.03-.04,5.35,3.66c.11.07.24.11.37.11.21,0,.41-.1.53-.28l17.51-24.55c1.03,2.21,3.48,8.18,4.39,16.83ZM120.04,239.02c3.84-5.18,3.58-11.9-.57-14.99-4.16-3.08-10.67-1.37-14.51,3.81-1.84,2.49-2.81,5.4-2.72,8.21.09,2.86,1.26,5.27,3.3,6.78,1.4,1.04,3.07,1.54,4.81,1.54,3.43,0,7.15-1.91,9.69-5.35ZM84.28,213.2c3.15-5.45,2.28-11.86-1.93-14.29-4.21-2.43-10.21.02-13.35,5.47-3.15,5.45-2.28,11.86,1.94,14.29,1.11.64,2.33.94,3.6.94,3.56,0,7.43-2.39,9.75-6.41Z"/>
        <path class="cls-12" d="M118.68,225.09c3.58,2.65,3.71,8.55.3,13.15-3.41,4.6-9.09,6.19-12.67,3.54-1.71-1.26-2.69-3.31-2.77-5.76-.08-2.51.8-5.13,2.46-7.39,2.29-3.09,5.61-4.82,8.62-4.82,1.47,0,2.88.41,4.05,1.28Z"/>
        <path class="cls-12" d="M111.9,204.72c1.24,1.53,1.97,3.38,1.97,5.38,0,5.19-4.89,9.41-10.91,9.41-.74,0-1.46-.07-2.16-.18l11.1-14.61Z"/>
        <path class="cls-12" d="M111.3,204.06l-11.45,15.07c-1.67-.43-3.17-1.19-4.4-2.21l12.21-15.31c1.41.59,2.66,1.42,3.65,2.45Z"/>
        <path class="cls-12" d="M106.79,201.3l-12,15.04c-1.06-1.04-1.86-2.28-2.32-3.65l9.91-11.98c.19,0,.38-.01.57-.01,1.35,0,2.64.21,3.83.6Z"/>
        <path class="cls-12" d="M101.15,200.83l-8.95,10.82c-.1-.5-.15-1.02-.15-1.54,0-4.66,3.95-8.53,9.1-9.28Z"/>
        <path class="cls-9" d="M99,220.25l-13.83,18.21-4.52-2.98,13.98-17.53c1.24,1.02,2.73,1.81,4.37,2.3Z"/>
        <path class="cls-9" d="M93.97,217.37l-14.06,17.62-3.81-2.51,15.41-18.62c.56,1.31,1.4,2.5,2.46,3.51Z"/>
        <polygon class="cls-12" points="93.32 245.4 89.7 250.12 64.34 232.9 67.42 228.33 93.32 245.4"/>
        <g>
          <path class="cls-19" d="M202.64,100.88c-.61-1.08-1.72-1.77-2.94-1.86-3.3-.24-8.22-.18-12.89,1.41-.51.18-1.02.38-1.53.59l-3.86-3.03c-.05-.71-.32-1.39-.79-1.94-.59-.69-1.41-1.12-2.32-1.19-1.87-.16-3.51,1.24-3.67,3.11-.15,1.87,1.24,3.52,3.11,3.68.1,0,.19,0,.28,0,.2,0,.4-.02.59-.05l2.31,1.68c-1.58.95-3.08,1.98-4.41,2.96l-3.16-2.47c-.06-.88-.44-1.68-1.03-2.28-.59-.6-1.38-1-2.28-1.08-1.99-.16-3.74,1.32-3.91,3.31-.08.96.22,1.9.85,2.64s1.5,1.19,2.46,1.27c.1,0,.2.01.3.01.22,0,.44-.02.65-.06l2.29,1.69c-.78.67-1.27,1.11-1.35,1.19,0,0-.01.02-.02.03-.01,0-.02.01-.03.02l-49.75,57.01c-1.84.14-12.84,1.11-25.6,4.98-12.9,3.91-30.3,11.66-39.98,26.39-6.43,9.79-9.86,19.42-10.15,28.32-.02.06-.03.12-.03.18,0,.07-.01.56.01,1.39.02,2.32.26,4.59.72,6.8.46,2.7,1.21,5.93,2.41,9.41,3.08,8.92,9.88,21.28,24.77,29.48,4.47,2.46,11.57,4.1,19.6,4.1,5.7,0,11.86-.83,17.9-2.77,10.47-3.37,24.91-11.51,34.25-31.11,9.55-20.04,7.58-37.37,4.25-48.38-1.98-6.53-4.6-11.6-6.62-14.91l41.97-60.8,3.34-3.07s.08-.1.11-.15l5.18,3.56s0,0,.01,0c.27,1.75,1.78,3.11,3.61,3.11,2.02,0,3.66-1.64,3.66-3.66s-1.64-3.65-3.66-3.65c-.33,0-.64.05-.95.13l-5.69-3.65s.07-.05.11-.07c.05.11.14.21.25.28l.69.41s.02,0,.03.01c.04.02.07.04.11.05.02,0,.03.01.05.01.05.01.1.02.15.02h0c.07,0,.14-.01.21-.04.02,0,.04-.02.05-.02.06-.03.12-.06.17-.11,0,0,0,0,.01,0h0s8.08-7.44,8.08-7.44c1.13-.89,1.91-1.6,2.12-2l.04-.07c.53-1.06.48-2.32-.11-3.35ZM177.85,100.34c-1.15-.1-2.01-1.11-1.91-2.26.09-1.09,1.01-1.92,2.08-1.92.06,0,.11,0,.18,0,.56.04,1.06.31,1.42.73.36.42.53.97.49,1.52-.1,1.15-1.11,2-2.25,1.91ZM180.02,101.01c.52-.38.93-.9,1.17-1.51l2.74,2.14c-.59.29-1.18.6-1.76.92h-.01s-2.13-1.56-2.13-1.56ZM170.46,106.23s-.1.01-.14.03c-.25.06-.5.09-.76.07-.62-.05-1.17-.34-1.58-.81-.4-.47-.59-1.07-.54-1.68.1-1.21,1.11-2.12,2.3-2.12.06,0,.13,0,.19,0,.61.05,1.17.34,1.57.81s.59,1.07.54,1.68c-.05.61-.34,1.17-.81,1.57-.23.2-.5.35-.78.44ZM171.82,107c.1-.07.19-.14.28-.21.49-.41.84-.93,1.05-1.51l2.28,1.79c-.63.48-1.2.94-1.7,1.35l-1.91-1.41ZM171.9,111.83l1.81,1.28-65.88,79.65-4.11-2.81,68.17-78.12ZM115.77,198.19l-3.48-2.39,64.32-80.65,1.48,1.05-62.32,81.98ZM178.8,116.71l2.14,1.52-59.69,83.71-4.77-3.26,62.31-81.97ZM106.79,201.3l-12,15.04c-1.06-1.04-1.86-2.28-2.32-3.65l9.91-11.98c.19,0,.38-.01.57-.01,1.35,0,2.64.21,3.83.6ZM103.47,199.39l4.24-5.12,3.03,2.07-2.92,3.67-.16.2c-1.3-.48-2.71-.76-4.19-.81ZM92.2,211.65c-.1-.5-.15-1.02-.15-1.54,0-4.66,3.95-8.53,9.1-9.28l-8.95,10.82ZM93.97,217.37l-14.06,17.62-3.81-2.51,15.41-18.62c.56,1.31,1.4,2.5,2.46,3.51ZM93.32,245.4l-3.62,4.72-25.36-17.22,3.08-4.57,25.9,17.07ZM80.65,235.48l13.98-17.53c1.24,1.02,2.73,1.81,4.37,2.3l-13.83,18.21-4.52-2.98ZM95.45,216.92l12.21-15.31c1.41.59,2.66,1.42,3.65,2.45l-11.45,15.07c-1.67-.43-3.17-1.19-4.4-2.21ZM111.9,204.72c1.24,1.53,1.97,3.38,1.97,5.38,0,5.19-4.89,9.41-10.91,9.41-.74,0-1.46-.07-2.16-.18l11.1-14.61ZM108.5,200.55l2.97-3.72,3.51,2.4-2.87,3.77c-1.01-1-2.23-1.84-3.61-2.46ZM111.56,195.31l-3.01-2.06,65.87-79.64,1.47,1.04-64.33,80.66ZM48.04,236.32c-.06-.24-.12-.48-.17-.73-.55-3.18-.71-5.68-.75-7.03-.03-9.02,3.33-18.88,9.95-28.95,9.46-14.39,26.56-22,39.24-25.85,10.81-3.28,20.34-4.46,24-4.82l-18.05,20.69c-.13.14-.18.33-.16.51.02.19.13.35.28.46l4.62,3.16-4.19,5.07-.46.56c-6.45.28-11.6,4.98-11.6,10.71,0,.97.15,1.9.42,2.8l-15.79,19.09-7.77-5.12c-.3-.2-.7-.12-.91.18l-3.81,5.65c-.2.3-.12.7.18.91l26.42,17.94c.11.07.24.11.37.11.2,0,.39-.09.52-.25l4.42-5.78c.11-.14.15-.33.13-.51-.03-.18-.14-.34-.29-.44l-8.73-5.76,14.02-18.44c.98.22,2,.34,3.05.34,6.74,0,12.22-4.81,12.22-10.72,0-2.42-.92-4.66-2.46-6.45l2.95-3.89.03-.04,5.35,3.66c.11.07.24.11.37.11.21,0,.41-.1.53-.28l17.51-24.55c1.03,2.21,3.48,8.18,4.39,16.83,1.08,10.22.17,26.33-10.32,45.08-7.9,14.13-17.59,22.88-28.8,26.03-11.23,3.15-24,.76-37.94-7.12-9.96-5.62-16.44-13.64-18.75-23.18ZM148.46,196.75c3.25,10.77,5.16,27.74-4.2,47.38-9.14,19.18-23.25,27.13-33.47,30.43-14.17,4.56-29.07,2.84-36.46-1.23-13.5-7.43-20.18-18.36-23.47-26.85,3.46,5.61,8.62,10.42,15.27,14.17,14.26,8.05,27.36,10.49,38.94,7.24,11.56-3.24,21.52-12.21,29.59-26.65,10.65-19.05,11.58-35.45,10.48-45.86-.53-5-1.54-9.1-2.53-12.14,1.87,3.24,4.12,7.85,5.83,13.52ZM142.33,180.19c-.88-1.36-1.57-2.3-1.96-2.8l41.62-58.38,1.67,1.29-41.34,59.88ZM184.53,119.3l-1.52-1.17c.85-.53,2.04-1.29,3.43-2.18l.99.68-2.91,2.67ZM196.43,118.22s.01,0,.02,0c.27-.11.56-.17.86-.17,1.29,0,2.35,1.05,2.35,2.34s-1.05,2.35-2.35,2.35-2.34-1.05-2.34-2.35c0-.98.6-1.82,1.46-2.17ZM195.01,117.55c-.58.47-1.01,1.12-1.22,1.86l-6.15-4.23c.59-.38,1.2-.78,1.83-1.19.02.01.03.03.05.04l5.48,3.52ZM191.98,112.46l-.08-.05c.16-.1.32-.21.47-.31l-.39.36ZM201.6,103.61l-2.04,1.87c-3.45,2.63-10.78,7.48-17.68,11.8l-9.05-6.4c2-1.74,8.54-7.21,14.39-9.21,4.69-1.6,9.76-1.53,12.37-1.34.79.06,1.5.5,1.9,1.2.38.66.41,1.41.1,2.07Z"/>
          <path class="cls-19" d="M176.07,110.24c-.12.08-.19.22-.19.36s.07.28.19.36l5.54,3.79c.07.05.16.08.25.08s.17-.03.25-.08l15.71-10.7c.11-.07.18-.18.19-.31s-.03-.25-.11-.35c-.19-.21-4.86-5.03-21.83,6.84ZM181.87,113.86l-4.77-3.27c13.04-9,18.27-7.67,19.72-6.91l-14.94,10.18Z"/>
          <path class="cls-19" d="M105.53,242.83c1.4,1.04,3.07,1.54,4.81,1.54,3.43,0,7.15-1.91,9.69-5.35,3.84-5.18,3.58-11.9-.57-14.99-4.16-3.08-10.67-1.37-14.51,3.81-1.84,2.49-2.81,5.4-2.72,8.21.09,2.86,1.26,5.27,3.3,6.78ZM106.01,228.62c2.29-3.09,5.61-4.82,8.62-4.82,1.47,0,2.88.41,4.05,1.28,3.58,2.65,3.71,8.55.3,13.15-3.41,4.6-9.09,6.19-12.67,3.54-1.71-1.26-2.69-3.31-2.77-5.76-.08-2.51.8-5.13,2.46-7.39Z"/>
          <path class="cls-19" d="M70.94,218.67c1.11.64,2.33.94,3.6.94,3.56,0,7.43-2.39,9.75-6.41,3.15-5.45,2.28-11.86-1.93-14.29-4.21-2.43-10.21.02-13.35,5.47-3.15,5.45-2.28,11.86,1.94,14.29ZM70.13,205.03c2.08-3.6,5.5-5.76,8.59-5.76,1.05,0,2.06.25,2.97.77,3.58,2.07,4.24,7.68,1.46,12.5-2.79,4.82-7.97,7.06-11.56,4.99-3.59-2.07-4.24-7.68-1.46-12.5Z"/>
        </g>
        <path class="cls-12" d="M81.69,200.04c3.58,2.07,4.24,7.68,1.46,12.5-2.79,4.82-7.97,7.06-11.56,4.99-3.59-2.07-4.24-7.68-1.46-12.5,2.08-3.6,5.5-5.76,8.59-5.76,1.05,0,2.06.25,2.97.77Z"/>
      </g>
      <g>
        <path class="cls-23" d="M76.34,173.32s-4.7,7.85-5.82,17.26c-.79,6.61-.2,19.53,28.03,10.93,1.64.96,5.38,2.6,5.59,1.05.12-.79-2.77-2.11-2.77-2.11,0,0,5.52,1.13,5.35-1.16-.13-1.67-4.96-1.66-4.96-1.66,0,0,5.9-1.09,5.33-2.91-.55-1.84-7.69,0-7.69,0,0,0,6.34-2.81,5.1-4.21-1.24-1.42-7.85,2.1-7.85,2.1,0,0-.73-1.7-3.08-.97-2.1,1.13-.32,4.05-.32,4.05,0,0-16.43,5.7-16.32-2.75.1-7.5,3.27-11.47,3.26-11.64-.69-3.55-3.85-7.99-3.85-7.99Z"/>
        <path class="cls-11" d="M76.75,171.92s5.29,7.03,6.31,11c-.92,1.02-2.65,2.04-2.65,2.04,0,0-3.56-6.82-5.8-10.9.92-1.43,2.14-2.14,2.14-2.14Z"/>
      </g>
      <path class="cls-23" d="M179.05,121.04c-1.98-2.1-6.38-3.34-6.57-1.16-.15,1.76,4.76,5.74,4.76,5.74,0,0-8.14-2.33-8.36.48-.21,2.75,8.29,3.8,8.29,3.8,0,0-8.38-.16-7.84,2.2.66,2.86,8.76,2.35,8.76,2.35,0,0-5.51,2.17-3.03,3.69,1.94,1.2,6.13,1.67,7.32-1.91,1.19-3.56.86-10.75-3.33-15.2Z"/>
    </g>
  </g>
</svg>