<?xml version="1.0" encoding="UTF-8"?>
<svg id="Layer_2" data-name="Layer 2" xmlns="http://www.w3.org/2000/svg" viewBox="0 0 246.36 292.09">
  <defs>
    <style>
      .cls-1 {
        fill: #eaad85;
      }

      .cls-2 {
        fill: #553f8c;
      }

      .cls-3 {
        fill: #6aacd3;
      }

      .cls-4 {
        fill: #faf8eb;
      }

      .cls-5 {
        fill: #705aa5;
      }

      .cls-6 {
        fill: #f8dab0;
      }

      .cls-7 {
        fill: #fbd3c4;
      }

      .cls-8 {
        fill: #f37842;
      }

      .cls-9 {
        fill: #29577a;
      }

      .cls-10 {
        fill: #e2a268;
      }

      .cls-11 {
        fill: #fff;
      }

      .cls-12 {
        fill: #824025;
      }

      .cls-13 {
        fill: #f05a28;
      }

      .cls-14 {
        fill: #f48f87;
      }

      .cls-15 {
        fill: #4d1f1c;
      }

      .cls-16 {
        fill: #562512;
      }

      .cls-17 {
        fill: #6b4432;
      }

      .cls-18 {
        fill: #ce7754;
      }

      .cls-19 {
        fill: #f2eaf3;
      }

      .cls-20 {
        fill: #d5956a;
      }

      .cls-21 {
        fill: #fbc6a4;
      }

      .cls-22 {
        fill: #9ccde9;
      }

      .cls-23 {
        fill: #f8af9a;
      }

      .cls-24 {
        fill: #c84227;
      }

      .cls-25 {
        fill: #3a719f;
      }

      .cls-26 {
        fill: #f7b0ad;
      }

      .cls-27 {
        fill: #fcd8c1;
      }
    </style>
  </defs>
  <g id="Layer_1-2" data-name="Layer 1">
    <g>
      <g>
        <g>
          <path class="cls-21" d="M116.96,162.45s21.75-7.96,43.9-6.46c11.1-4.34,14.99-1.48,13.14-.8,3.28-.19,4.33,2.58.6,2.25,4.21.3,4.19,3.38.41,3.23,2.25.53,3.26,3.35-2.14,3.02-3.33-.2-6.27-.22-6.27-.22,0,0,3.88,3.55,1.85,4.52-2.02.97-6.53-3.67-7.91-5.11-6.17-.27-25.37-.11-40.92,8.37-2.11-3.09-2.65-8.79-2.65-8.79Z"/>
          <path class="cls-18" d="M168.81,160.66c-.11-.03-.18-.12-.19-.23,0-.14.12-.25.25-.26.03,0,3.64-.11,6.87.36.13.02.23.14.21.28-.02.13-.14.23-.28.2-3.19-.45-6.75-.35-6.77-.35-.04.02-.06,0-.08,0Z"/>
          <path class="cls-18" d="M168.35,157.82c-.1-.03-.17-.1-.18-.22-.01-.13.09-.25.23-.27,2.19-.22,5.65-.25,6.98-.06.14.02.23.15.21.28-.02.14-.15.23-.28.21-1.29-.18-4.69-.15-6.85.07-.04.01-.07,0-.1,0Z"/>
          <path class="cls-18" d="M167.88,155.82c-.08-.02-.14-.09-.16-.17-.04-.13.05-.26.18-.3,2.18-.56,6.24-.42,6.4-.4.14,0,.25.12.25.25,0,.14-.12.24-.27.24-.04,0-4.15-.13-6.26.39-.04,0-.09.02-.13,0Z"/>
        </g>
        <path class="cls-1" d="M137.14,164.32c-3.65,1.1-8.66,2.28-8.66,2.28,0,0-5.71-3.11-.59-7.09,2.8-1,5.7-1.1,7.53-1.53-2.77,1.91-3.79,4.87,1.71,6.34Z"/>
      </g>
      <path class="cls-2" d="M134.57,171.55c-6.42,2.57-19.49-4.98-20.01-12.21-.44-5.9,18.87-4.84,18.87-4.84-.65,4.62-1.03,9.47,1.14,17.05Z"/>
      <path class="cls-19" d="M131.3,154.3c-.54,4.44-.71,11.29.91,18.05.85-.11,1.67-.3,2.4-.6-2.23-7.76-1.83-12.74-1.17-17.47,0,0-.84-.03-2.14.02Z"/>
      <path class="cls-25" d="M110.78,282.34s-2.11,4.71-.31,7.28c1.8,2.57,13.82,3.59,17.4.85,5.03-3.84-1.68-8.12-6.84-7.5-8.5,1.02-10.25-.63-10.25-.63Z"/>
      <path class="cls-4" d="M119.92,285.5c.39-1.66,2.01-3.2,3.48-3.08,1.05-.01,1.86,1.08,1.51,1.33-1.36.69-2.38,1.48-3.35,3.09-.79.76-1.83-.55-1.64-1.35Z"/>
      <path class="cls-4" d="M116.02,284.79c.39-1.65,2-3.21,3.47-3.08,1.05-.01,1.86,1.08,1.5,1.35-1.35.68-2.38,1.48-3.34,3.08-.79.76-1.82-.55-1.63-1.35Z"/>
      <g>
        <path class="cls-25" d="M65.93,236.55c-2.81-.16-8.65,3.28-9.9,9.84-1.24,6.56,1.08,12.02,6.74,11.99,5.64-.04,3.9-10.62,5.98-14.65,2.09-4.02.35-7.01-2.83-7.18Z"/>
        <path class="cls-9" d="M66.09,236.84s-5.78,1.79-7.63,5.72c5.32-3.23,8.91-1.21,9.18,3.77.59-5.59,1.86-4.22,1.5-5.97-.23-1.14-3.05-3.52-3.05-3.52Z"/>
        <path class="cls-4" d="M60.93,243.7c1.87-.84,5.05.08,5.75,2.12.16.91-.02,2.22-.77,1.83-1.74-1.06-2.42-1.57-5.4-1.72-1.34-.3-.58-1.79.42-2.23Z"/>
        <path class="cls-4" d="M60.2,247.67c2.11-.47,4.84.38,5.63,1.97.66,1.08-.06,2.47-.58,2.25-1.61-1.04-3.14-1.68-5.54-1.83-1.35-.41-.54-2.17.49-2.39Z"/>
      </g>
      <path class="cls-22" d="M88.84,209.06s-4.6,17.72-12.08,28.26c-3.7.14-6.99-.1-9.21-.65-3.74,4.5-3.25,8.7-2.1,11.26,3.3,1.92,12.8,9.59,22.93,4.4,10.13-5.18,15.39-9.06,17.54-13.3,3.09,10.55,2.1,32.64,3.94,44.69,3.3.88,9.24-.69,9.24-.69,0,0,14.48-40.59,11.82-61.16-13.48-11.22-42.08-12.82-42.08-12.82Z"/>
      <path class="cls-3" d="M84.56,226.78l5.02-12.65,39.17,6.2s1.3,8.35.49,16.14c-4.9-9.22-26.69-16.79-44.68-9.69Z"/>
      <path class="cls-5" d="M108.7,157.36c-12.05,4.36-16.75,19.35-23.52,55.15,7.76,11.81,35.91,12.87,47.71,9.91,3.38-19.38,3.19-50.62-8.44-64.01-6.8-6.87-15.75-1.05-15.75-1.05Z"/>
      <path class="cls-1" d="M114.32,155.08c-1.15-.14-3.2.92-4.47,1.33-1.86-3.62-3.23-7.68-3.23-7.68l-5.29,3.09s3.06,5.13,3.98,6.89c-.85.69-1.25,1.51-2.01,2.08,6.87,4.54,14.44-3.24,11.02-5.71Z"/>
      <path class="cls-11" d="M85.41,210.16c-.1.55-.21,1.11-.29,1.68,7.81,12.37,35.97,13.6,47.77,10.57.1-.67.21-1.36.3-2.06-11.86,2.76-39.26,1.14-47.78-10.19Z"/>
      <path class="cls-2" d="M96.33,175.92s-15.12,44.58,36.24,41.88c-19.5,3.59-37.28-.98-43.75-9.08,3.57-21.78,7.51-32.81,7.51-32.81Z"/>
      <g>
        <path class="cls-19" d="M104.06,159.81c1.06.88,3.86,3.62,7.62,1.37,2.4,3.32-2.09,6.59-6.66,5.56-4.08-.93-4.83-3.81-4.83-3.81,0,0,1.73-2.5,3.86-3.13Z"/>
        <path class="cls-19" d="M110.98,155.9c1.12.37,3.88,2.29.7,5.29,2.75,1.74,7.15.87,7.83-1.41.81-2.73-2.12-5.5-4.95-5.21-2.05.04-3.58,1.33-3.58,1.33Z"/>
      </g>
      <g>
        <path class="cls-12" d="M228.58,209.44c.07.17.16.33.25.5.03-.26.08-.52.14-.8-.13.1-.26.21-.39.31Z"/>
        <path class="cls-10" d="M230.7,211.52c1.04-.07,3.2-1.5,5.3-4.49.3-.43.57-.85.81-1.25,1.69-2.83,1.97-5.04,1.44-5.59-.03-.03-.07-.06-.11-.09-.27-.15-.78-.07-1.38.22-.11.18-.22.35-.33.53-.1.15-.2.31-.29.46-.14.21-.28.41-.42.62-.1.14-.19.27-.29.41-.16.22-.32.44-.48.65-.08.11-.17.23-.25.34-.2.26-.41.52-.61.77-.05.06-.11.13-.16.2-.26.32-.53.62-.8.93-.08.09-.17.18-.26.28-.19.21-.38.41-.57.62-.12.12-.24.24-.36.36-.17.17-.33.33-.5.5-.13.13-.27.25-.41.38-.15.14-.29.27-.44.41-.84,2.01-.8,3.29-.39,3.64.05.03.09.06.12.08.1.05.23.06.37.05Z"/>
        <path class="cls-12" d="M208.6,218.47c.74.11,1.45.31,2.11.6,3.07-.95,5.91-2.24,8.52-3.85-3.34,1.59-6.9,2.67-10.63,3.25Z"/>
        <path class="cls-10" d="M199.87,225.84s-.03.07-.04.1c0,.03,0,.06,0,.09s0,.06,0,.09c.01.05.02.1.03.14.2.55,1.51,1.11,3.6,1.21,1.01.05,2.2-.01,3.53-.23.26-.04.51-.09.75-.14,3.65-.72,5.69-2.19,5.73-3.01,0-.05,0-.09-.01-.14,0-.03-.02-.06-.04-.09-.01-.03-.02-.05-.03-.08-.02-.03-.04-.06-.07-.09-.02-.03-.04-.05-.06-.08-.03-.03-.06-.05-.1-.08-.03-.03-.06-.05-.09-.08-.04-.03-.08-.05-.12-.08-.04-.02-.08-.05-.12-.07-.04-.03-.09-.05-.14-.07s-.1-.05-.15-.07c-.05-.02-.11-.04-.16-.06-.06-.02-.12-.05-.18-.06-.06-.02-.12-.04-.18-.05-.07-.02-.14-.04-.21-.06-.06-.02-.14-.03-.2-.05-.08-.02-.16-.03-.24-.05-.07-.01-.15-.02-.23-.03-.09-.02-.17-.03-.27-.04-.08-.01-.17-.02-.25-.03-.09,0-.18-.02-.28-.03-.09,0-.18-.01-.27-.02-.1,0-.2-.02-.31-.02-.09,0-.19,0-.29,0-.11,0-.22,0-.33,0s-.22,0-.33,0-.21,0-.32,0c-.12,0-.25.02-.37.02-.11,0-.21.01-.32.02-.15.02-.3.03-.45.05-.09,0-.18.02-.27.03-.25.03-.5.06-.76.11s-.51.09-.76.14c-.1.02-.2.05-.3.06-.14.03-.28.06-.41.09-.11.03-.21.06-.32.08-.12.03-.24.06-.35.09-.11.03-.21.06-.32.1-.1.03-.21.06-.3.09-.11.03-.21.07-.31.11-.09.03-.19.06-.27.09-.1.04-.2.08-.29.12-.08.03-.17.06-.24.1-.09.04-.18.08-.27.12-.07.03-.15.07-.22.1-.08.04-.16.08-.24.12-.07.03-.14.07-.21.11-.07.04-.14.08-.21.12-.06.04-.13.07-.18.11-.06.04-.12.08-.18.12-.06.04-.11.08-.17.11s-.1.08-.14.11c-.05.04-.11.08-.15.12-.04.03-.08.07-.11.11-.04.04-.09.08-.12.12-.03.03-.06.07-.09.1-.03.04-.07.08-.09.11-.02.03-.04.07-.06.1-.02.04-.05.08-.07.11-.02.03-.02.06-.04.09Z"/>
        <path class="cls-12" d="M201.23,221.85c-.66.69-1.11,1.45-1.34,2.24,0,0,.01,0,.02-.01.17-.13.34-.25.53-.37.02-.02.05-.03.07-.05.07-.05.15-.09.22-.13.03-.02.06-.03.08-.05.08-.05.17-.09.26-.14.02,0,.04-.02.06-.03.11-.05.22-.11.33-.16,0,0,.02-.01.03-.02.1-.05.21-.09.31-.14.03-.02.06-.03.09-.04.09-.04.18-.08.27-.11.03-.01.06-.02.09-.04l.33-.12s.03,0,.04-.02c.13-.05.26-.09.39-.14.02,0,.04-.01.06-.02.11-.03.22-.07.33-.11.03-.01.07-.02.1-.03.1-.03.2-.06.31-.09.03,0,.06-.02.1-.03.13-.04.26-.07.39-.11,0,0,0,0,.02,0,.14-.03.28-.07.42-.1.03,0,.06-.01.09-.02.11-.02.21-.05.32-.07l.12-.02s.03,0,.05,0c.09-.02.17-.04.26-.05.04,0,.08-.02.12-.02h.06c.12-.03.24-.05.36-.07.24-.04.47-.07.71-.1h0s.03,0,.04,0c.02,0,.03,0,.05,0,.21-.02.41-.05.62-.06h.01s.05,0,.08,0c.03,0,.06,0,.08,0,.18-.02.36-.03.54-.04h.02s.08,0,.11,0c.03,0,.07,0,.1,0h.47s.01-.01.02-.01h.15s.04,0,.06,0c.02,0,.05,0,.07,0,.13,0,.26,0,.39,0h.02s.06,0,.09,0c.12,0,.24.01.35.02.05,0,.1,0,.15,0,.02,0,.04,0,.06,0,0,0,.01,0,.02,0,.08,0,.16.01.24.02.03,0,.07,0,.1,0l.28.03s.01,0,.02,0c.03,0,.05,0,.08,0,.05,0,.09.02.14.02.09.01.19.03.28.05.03,0,.07.01.1.02,0,0,0,0,0,0,.12.02.24.05.35.07.04,0,.08.02.11.03.03,0,.06.02.08.02,0,0,.02,0,.02,0,.06.02.11.03.16.04.03.01.07.02.1.03.09.02.17.05.25.08,0,0,.01,0,.02,0,.02,0,.03.01.05.02,0,0,.02,0,.02,0-.52-.77-1.3-1.42-2.29-1.87-1.37-.64-3.03-.85-4.68-.59-.67.11-1.32.29-1.92.53-1.01.41-1.9,1-2.61,1.73Z"/>
        <path class="cls-10" d="M155.47,203.82c-.25.01-.45.07-.56.18-.02.02-.04.05-.06.07-.01.01-.02.03-.03.04-.46.74.56,3.38,3.6,6.24,3.04,2.83,5.73,3.68,6.45,3.19.04-.03.08-.07.12-.1.24-.3.17-.97-.18-1.81-.57-1.37-1.81-3.01-3.39-4.49-1.98-1.86-4.19-3.15-5.63-3.31h-.02c-.1-.01-.2-.01-.29-.01-.01,0-.02,0-.03,0Z"/>
        <path class="cls-12" d="M157.12,202.99l.09.03c.19.07.38.15.58.23.03.02.07.03.11.05.2.09.4.19.61.3.03.02.06.03.09.05.21.12.43.24.65.38,0,0,.01,0,.02,0,.22.14.44.29.67.44.03.02.06.04.09.06.21.15.43.31.65.47.04.03.08.06.12.09.21.17.43.34.65.52l.09.08c.23.2.45.39.67.6,1.63,1.53,2.93,3.24,3.58,4.71.13.09.26.18.39.27.48-2.13-.46-4.75-2.45-6.61-1.56-1.45-3.47-2.23-5.22-2.23-.69,0-1.35.12-1.95.37,0,0,0,0,0,0,.18.05.37.11.57.17Z"/>
        <path class="cls-10" d="M137.87,157.48c-.86.18-2.08,2.72-2.08,6.89s1.24,6.74,2.07,6.9c.05,0,.11,0,.16.01.44-.04.94-.69,1.33-1.71.52-1.33.82-3.23.82-5.2,0-2.36-.42-4.56-1.13-5.87-.04-.08-.08-.15-.12-.22-.02-.03-.04-.06-.06-.09-.03-.04-.05-.08-.07-.11-.02-.03-.05-.06-.07-.09s-.04-.06-.06-.09-.05-.05-.07-.08c-.02-.02-.05-.05-.06-.07l-.07-.06s-.05-.04-.06-.06c-.02-.02-.05-.03-.06-.05-.02-.02-.05-.03-.07-.04-.02-.02-.04-.02-.06-.03-.02-.01-.04-.02-.06-.03-.02,0-.04,0-.06-.01-.02,0-.04-.01-.06-.01-.05,0-.1,0-.15,0Z"/>
        <path class="cls-12" d="M140.14,157.94c0,.06-.02.12-.02.19.74,1.48,1.18,3.79,1.18,6.24,0,2.07-.3,4-.85,5.47.03.23.07.47.11.72,1.8-1.15,2.97-3.53,2.97-6.19,0-2.88-1.36-5.41-3.39-6.43Z"/>
        <path class="cls-12" d="M151.89,134.48c1.72-2.81,3.76-5.45,6.1-7.92-2.1,1.72-4.03,3.52-5.76,5.39.01.32,0,.64-.03.97-.05.52-.15,1.04-.3,1.56Z"/>
        <path class="cls-12" d="M142.89,139.71c-.09.05-.18.09-.27.13-.04.02-.08.04-.12.05-.03.02-.06.03-.09.04.82.2,1.73.19,2.68-.06,1.46-.37,2.85-1.27,3.95-2.52.07-.08.14-.17.21-.26,1.04-1.29,1.68-2.8,1.83-4.28.03-.35.04-.71.02-1.05-.05-.7-.21-1.36-.49-1.93,0,.01,0,.02,0,.03,0,0,0,.02,0,.03,0,.02-.01.04-.02.06-.03.13-.06.27-.09.4,0,.02-.01.05-.02.07,0,0,0,.02-.01.03-.04.15-.09.31-.15.47,0,.02-.01.03-.02.05,0,.02-.02.05-.03.07-.05.15-.11.3-.18.46,0,.02-.01.03-.02.05h0s0,.01,0,.01c-.07.17-.15.34-.23.51-.01.02-.02.05-.03.07-.01.02-.02.04-.03.06-.08.17-.17.34-.26.51,0,0,0,.02-.01.02,0,.02-.02.03-.03.05-.09.16-.18.32-.27.48-.02.03-.03.05-.04.08,0,.02-.02.03-.03.05-.11.17-.21.34-.32.51-.01.02-.02.03-.03.04l-.05.07c-.1.15-.21.31-.31.46-.02.02-.03.05-.05.06,0,0-.01.02-.02.02-.12.17-.24.34-.37.51-.02.02-.03.04-.04.05-.02.02-.03.04-.05.06-.13.17-.26.34-.4.51-.11.14-.23.28-.35.41-.01.02-.02.03-.04.04l-.05.06-.02.02c-.09.1-.17.2-.26.3-.02.02-.04.05-.06.07l-.05.05c-.1.11-.2.22-.3.32-.02.02-.05.05-.07.07-.13.13-.25.26-.38.38-.03.03-.06.05-.08.08-.1.1-.2.19-.3.29-.04.04-.08.07-.12.11-.1.09-.19.17-.29.26-.03.03-.07.06-.11.09-.13.11-.26.21-.39.32-.02.01-.03.02-.04.03-.11.09-.23.18-.35.26-.04.03-.08.06-.12.09-.09.06-.18.13-.28.19-.04.03-.08.06-.12.08-.11.07-.21.14-.32.2-.02.02-.04.03-.06.04-.12.08-.25.14-.37.21-.04.02-.07.04-.11.05Z"/>
        <path class="cls-10" d="M140.34,138.03s0,.07,0,.11c0,.06,0,.12,0,.18,0,.04.01.07.02.11,0,.05,0,.09.02.13,0,.04.02.07.03.11.01.03.02.06.03.09.02.03.03.05.05.08.02.02.03.05.04.06.03.04.09.09.09.09.11.08.26.12.44.12,1.07,0,3.34-1.33,5.59-4.12.17-.2.32-.41.47-.6.06-.08.11-.15.17-.23.09-.12.18-.24.26-.36.06-.09.11-.17.17-.26.08-.11.15-.21.22-.32.05-.09.1-.17.15-.26.06-.1.13-.2.18-.3.05-.08.09-.17.14-.25.05-.09.11-.19.16-.29.05-.08.08-.16.12-.24.05-.09.09-.19.14-.28.03-.08.06-.15.1-.22.04-.09.08-.18.12-.27.03-.07.05-.14.08-.21.03-.09.07-.17.1-.26.02-.07.04-.13.06-.19.03-.08.06-.17.08-.24.02-.06.03-.12.05-.18.02-.08.04-.15.06-.23.01-.06.02-.11.03-.16.02-.07.03-.14.04-.2,0-.05,0-.1.01-.15,0-.06.02-.12.02-.18,0-.05,0-.09,0-.13,0-.05,0-.11,0-.15,0-.04-.02-.08-.02-.12,0-.04-.02-.09-.02-.12-.01-.03-.02-.06-.04-.09-.01-.03-.02-.07-.04-.1-.02-.03-.03-.05-.05-.07s-.03-.05-.05-.07c-.04-.03-.08-.06-.11-.08-.77-.41-3.34.79-5.97,4.03-.82,1.02-1.45,1.98-1.91,2.85l-.02.05c-.17.33-.32.65-.45.95-.01.02-.02.04-.03.06-.05.14-.11.27-.15.39-.01.03-.02.06-.03.09-.04.11-.08.23-.11.33-.02.04-.02.08-.03.12-.02.09-.05.19-.07.27,0,.04-.01.08-.02.11-.02.08-.04.17-.05.25,0,.03,0,.06,0,.1-.01.08-.02.15-.02.22Z"/>
        <path class="cls-10" d="M175.22,115.16c-.65-.53-2.55-.58-4.89.06-.54.15-1.1.33-1.68.56-.21.08-.41.17-.61.25-.12.05-.23.11-.35.16-.08.04-.15.07-.23.11-.13.06-.25.12-.38.19-.06.03-.12.06-.17.09-.13.07-.25.14-.37.2-.05.03-.1.05-.14.08-.12.06-.23.14-.34.2-.05.03-.1.06-.14.09-.1.06-.2.13-.29.19-.05.03-.11.07-.15.1-.08.06-.16.11-.24.17-.05.04-.11.08-.17.12-.07.05-.14.11-.2.16-.05.05-.11.09-.16.13-.06.05-.12.1-.17.15-.05.05-.11.09-.15.14s-.09.09-.14.14c-.05.05-.1.1-.15.15-.04.04-.07.08-.11.12-.04.05-.09.1-.13.15-.03.04-.06.08-.09.12-.04.05-.08.1-.11.15-.03.04-.04.07-.06.11-.03.05-.06.1-.08.14-.02.03-.03.07-.04.1-.02.04-.04.09-.06.13,0,.03-.01.06-.02.09,0,.04-.02.08-.03.12,0,.03,0,.06,0,.08,0,.04,0,.08,0,.11.01.05.03.09.05.14.11.21.39.39.82.5.9-.57,1.84-1.15,2.8-1.7.33-.21.65-.41.98-.61.1-.06.2-.12.3-.18.24-.14.47-.27.71-.41l.38-.2c.22-.12.44-.23.66-.34.14-.07.28-.14.42-.2.21-.11.42-.21.64-.3.15-.07.3-.13.45-.2.21-.09.42-.18.63-.27.15-.06.31-.13.47-.19.21-.08.41-.17.62-.24.16-.06.33-.12.49-.18.21-.07.41-.14.62-.21.17-.06.33-.11.5-.17.1-.03.2-.06.29-.09Z"/>
        <path class="cls-10" d="M196.69,114.49c-.63,0-1.16.07-1.56.2.08.02.15.04.23.06.17.04.34.08.51.12.3.08.61.15.91.23.18.05.35.09.53.14.31.09.62.18.93.27.16.05.32.09.48.15.37.12.75.24,1.12.36l.28.09c.47.16.93.33,1.39.5.13.05.26.1.39.15.33.13.66.26,1,.39.18.07.35.15.53.22.29.12.58.25.87.38.18.08.37.17.56.25.11.05.21.09.32.15-.56-.95-2.29-2.19-4.67-2.99-1.43-.48-2.76-.69-3.82-.69Z"/>
        <path class="cls-10" d="M231.55,140.24c.62-.71-.12-3.23-2.16-5.71-.12-.15-.24-.29-.36-.42-.04-.05-.08-.09-.12-.13-.08-.09-.17-.18-.25-.27-.04-.05-.09-.09-.13-.14-.08-.08-.16-.16-.24-.24-.05-.04-.09-.09-.14-.13-.08-.08-.16-.15-.24-.23-.04-.03-.08-.07-.12-.11-.09-.08-.18-.16-.27-.23-.03-.02-.06-.05-.09-.07-.25-.2-.49-.38-.73-.54,0,0,0,0-.01,0-.11-.08-.23-.15-.34-.21-.01,0-.03-.01-.04-.02-.11-.06-.21-.12-.31-.17,0,0-.02-.01-.03-.02-.55-.28-1.03-.42-1.39-.41-.02,0-.03,0-.04,0-.06,0-.11.01-.17.02-.03,0-.05.02-.07.03-.03.02-.07.03-.1.04-.04.02-.08.05-.12.09-.1.09-.17.23-.21.42.15.15.29.32.44.47.13.14.26.27.39.41.02.02.04.05.06.07.17.19.34.38.51.57l.38.43s.03.03.05.05c.18.21.36.42.55.63.12.14.24.27.35.41,0,0,.02.02.02.03.24.29.47.57.71.86.06.08.12.15.18.22,0,0,0,0,0,.01.08.1.15.2.23.29.22.27.44.54.65.82,0,.02.02.03.03.04.11.14.21.27.31.41.18.23.36.46.53.69.02.02.03.04.04.06.11.15.22.3.33.44.16.22.32.44.48.66l.06.08c.11.15.21.3.32.45.12.18.26.36.38.54.2,0,.41-.02.56-.12.04-.03.08-.06.1-.09Z"/>
        <path class="cls-10" d="M242.88,168.05c-.22.03-.45.2-.67.5.04.23.06.46.1.69.03.2.06.4.08.59.04.28.07.56.1.83.02.19.05.38.06.56.03.3.06.6.08.9.02.17.03.33.05.5.03.46.07.92.09,1.37,0,.16.01.32.02.48.02.3.03.6.04.89,0,.21,0,.41.01.62,0,.25.01.5.02.75,0,.21,0,.42,0,.63,0,.24,0,.49,0,.74,0,.2-.01.39-.02.59,0,.22,0,.44-.02.65.16.14.35.26.54.27.06,0,.11,0,.15-.02.92-.2,1.85-2.65,1.72-5.86-.14-3.21-1.27-5.59-2.18-5.71-.02,0-.05,0-.07,0h-.04s-.04,0-.06,0Z"/>
        <path class="cls-12" d="M144.66,164.37c0,3.22-1.55,6.12-3.89,7.38.82,5.3,2.78,10.55,5.05,15.19,3.55,7.23,7.84,12.98,9.7,15.13,2.59-1.44,6.27-.73,8.97,1.79,2.44,2.28,3.47,5.47,2.67,8.08,10.93,6.99,22.48,10.1,33.42,8.99.79-.78,1.77-1.41,2.86-1.85.13-.05.26-.1.4-.15-.09,0-.18,0-.26,0-.46.02-.92.03-1.39.03-6.49,0-13.26-1.48-19.7-4.32,0,0,0,0-.02,0,0,0-.02,0-.02,0,0,0,0,0,0,0-7.87-3.48-15.2-8.95-21.19-15.82,0,0,0-.01-.02-.02-2.09-2.39-4.03-4.98-5.78-7.69-3.3-5.12-5.86-10.45-7.59-15.86,0,0,0,0,0-.01,0-.02-.02-.04-.02-.06-1.26-3.93-2.08-7.9-2.45-11.83l-.79.07c.03.32.05.64.05.96Z"/>
        <path class="cls-12" d="M142.5,147.59c-1.07,2.96-1.82,6.03-2.22,9.18,2.35.99,4.03,3.58,4.33,6.64l.79-.07c-.49-5.21-.19-10.33.91-15.2,0-.05.02-.09.03-.14.79-3.45,1.98-6.77,3.55-9.92-1.19,1.36-2.69,2.35-4.28,2.81-1.23,2.16-2.27,4.4-3.11,6.69Z"/>
        <path class="cls-6" d="M147.6,147.63h3.26c.02-.17.03-.34.06-.51.71-6.39,2.63-12.25,5.6-17.19-1.34,1.64-2.57,3.35-3.66,5.12-2.4,3.91-4.17,8.13-5.26,12.57Z"/>
        <path class="cls-6" d="M147.33,148.76c-1.75,8.05-1.26,16.83,1.4,25.47l5.09-2.22c-2.59-7.76-3.64-15.77-3.07-23.24h-3.42Z"/>
        <path class="cls-6" d="M204.92,216.2l-.23,1.55c4-.24,7.81-1.05,11.4-2.42-2.7.64-5.52.97-8.41.97-.91,0-1.83-.04-2.75-.11Z"/>
        <path class="cls-6" d="M185.39,210.32l-1.88,3.53c6.57,2.81,13.47,4.17,20.03,3.96l.25-1.69c-1.22-.12-2.44-.29-3.67-.53-4.93-.91-9.94-2.7-14.73-5.27Z"/>
        <path class="cls-6" d="M166.79,195l-4.29,3.49c5.7,6.42,12.58,11.56,19.98,14.9l1.92-3.62c-6.54-3.68-12.51-8.7-17.61-14.77Z"/>
        <path class="cls-6" d="M154.2,173.07l-5.11,2.24c1.7,5.17,4.16,10.27,7.33,15.17,1.62,2.52,3.42,4.92,5.35,7.16l4.31-3.51c-1.65-2.02-3.2-4.15-4.65-6.39-3.01-4.65-5.43-9.59-7.23-14.67Z"/>
        <path class="cls-6" d="M194.73,115.76c-.2-.05-.4-.09-.6-.13-.04.03-.08.05-.13.07h-.03s-.1.03-.15.03c0,0,0,0-.01,0-.03,0-.06,0-.08,0-.06-.01-.12-.03-.17-.06-.01,0-.02,0-.03-.02-.05-.03-.09-.06-.13-.11,0,0-.01-.02-.02-.02-.02-.02-.03-.04-.05-.06-4.29-.81-8.46-.95-12.42-.41-1.59.22-3.14.54-4.66.97l-.07.02c-3.03.86-5.89,2.16-8.5,3.85-.69.46-1.35.93-1.98,1.39l-.09.07c-.07.05-.14.1-.24.18-.05.04-.11.08-.16.12l-.1.09h0c-.14.11-.27.22-.41.33-.14.11-.27.23-.41.35h0s0,0,0,0c-6.78,5.79-11.1,14.57-12.24,24.82-.03.33-.07.66-.1,1-.68,7.63.39,15.88,3.12,23.84h0s0,.03.01.04c1.78,5.2,4.25,10.25,7.32,15,6.05,9.37,14.02,16.95,23.06,21.93,4.83,2.66,9.91,4.5,14.89,5.43,1.4.26,2.78.45,4.16.56,7.84.65,15.21-1.09,21.32-5.03.64-.41,1.22-.82,1.76-1.23.74-.55,1.48-1.15,2.19-1.79,2.07-1.84,3.9-3.98,5.48-6.37.23-.34.44-.69.66-1.04.2-.33.4-.66.59-1.01.84-1.49,1.59-3.06,2.24-4.71,1.65-4.21,2.65-8.89,2.93-13.79.02-.17.03-.35.03-.54.17-3.61-.04-7.33-.62-11.07-.03-.23-.07-.47-.11-.71-.09-.54-.19-1.07-.29-1.61-1.58-8.05-4.87-16.1-9.56-23.37-.23-.35-.45-.7-.69-1.05l-.29-.44c-2.19-3.2-4.62-6.2-7.23-8.93-.1-.11-.2-.21-.31-.32-5.02-5.17-10.62-9.31-16.66-12.3h-.01s-.07,0-.11-.01c0,0-.01,0-.02,0-.05,0-.09-.02-.13-.04-.06-.03-.11-.06-.15-.11,0,0-.02-.02-.03-.03,0,0-.02-.02-.03-.03-.25-.12-.5-.24-.75-.35-.2-.09-.39-.18-.59-.27-.3-.14-.6-.26-.91-.39-.18-.08-.36-.16-.54-.23-.43-.18-.87-.35-1.3-.51-.14-.05-.27-.1-.4-.15-.39-.15-.79-.29-1.19-.43-.19-.07-.38-.12-.56-.18-.3-.1-.59-.2-.89-.29-.21-.06-.42-.12-.63-.18-.27-.08-.55-.17-.83-.24-.22-.06-.44-.12-.65-.17-.27-.07-.53-.14-.8-.2-.23-.06-.45-.11-.67-.15Z"/>
        <path class="cls-16" d="M134.66,164.37c0,3.63,1,7.49,2.92,7.98.01,0,.03.01.05.01.01,0,.02,0,.03,0,0,0,.01,0,.02,0,0,0,.01,0,.02,0,.09.02.18.03.29.03.02,0,.04,0,.06,0h.01c.05,0,.1,0,.15,0,.51,0,1-.08,1.49-.22.85,5.32,2.83,10.58,5.11,15.23,3.55,7.26,7.85,13.04,9.79,15.3-.13.12-.26.24-.38.37-.03.03-.07.07-.1.11,0,0,0,0,0,0-.03.03-.06.06-.09.09l-.04.05s0,0,0,0c-.04.05-.07.09-.11.14-.19.3-.28.66-.28,1.06,0,1.84,1.86,4.53,4.06,6.6,2.14,1.99,4.83,3.63,6.67,3.63.44,0,.84-.1,1.16-.31,0,0,0,0,0,0,.01,0,.01-.01.02-.02.02,0,.03-.01.05-.03.01,0,.02-.01.03-.03h0c.08-.07.16-.14.2-.18,0-.01.02-.02.02-.03,0,0,.02-.02.02-.02.02-.02.04-.04.06-.06l.03-.03c.32-.34.57-.71.79-1.1,9.62,6.12,19.7,9.29,29.47,9.29,1.13,0,2.26-.05,3.38-.13-.8,1.23-1.12,2.6-.91,3.97,0,0,0,0,0,.01v.03s.02.06.02.09v.03s0,.06.01.1c.02.06.04.15.07.24,0,0,0,0,0,.01,0,0,0,0,0,.01,0,.01,0,.03.01.04.45,1.22,2.33,1.81,4.61,1.91.23.02.47.02.72.02.5,0,1.01-.02,1.52-.06.06,0,.11-.02.17-.02.2-.02.39-.04.59-.06.26-.03.51-.06.76-.11.23-.04.45-.08.68-.12s.45-.09.67-.14h0c.22-.05.44-.11.66-.17,0,0,0,0,.01,0,.21-.06.43-.12.64-.18,0,0,.01,0,.02,0,.21-.06.41-.13.62-.2,0,0,.01,0,.02,0,.2-.07.4-.15.59-.22,0,0,.01,0,.02,0,.19-.08.38-.16.56-.24,0,0,.02,0,.02,0,.18-.08.35-.17.52-.26,0,0,.01,0,.02,0,.17-.09.33-.18.48-.27,0,0,.01,0,.02-.02.15-.09.3-.18.44-.28,0,0,.01-.01.02-.02.14-.09.26-.2.38-.3,0,0,.01-.01.02-.02.12-.1.23-.2.32-.31,0,0,.02-.01.02-.02.1-.11.19-.21.27-.32,0,0,.01-.01.02-.02.08-.11.14-.22.2-.33,0,0,0-.02.01-.03.06-.11.1-.22.13-.33,0,0,0-.02,0-.03.03-.11.05-.23.05-.34,0,0,0-.02,0-.02,0,0,0-.01,0-.02t0,0h0c0-.1,0-.2-.01-.27,0-.03-.01-.06-.02-.09,0-.03,0-.06-.01-.09v-.05c-.25-1.53-1.13-2.86-2.49-3.81,5.56-1.89,10.4-4.88,14.4-8.88.42-.27.81-.54,1.19-.81.41.85,1,1.56,1.75,2.09.03.03.08.06.12.09.02.01.03.02.04.03.01,0,.03.02.03.03.06.04.14.09.25.13h0s.03.02.04.02c.09.04.18.06.27.08.02,0,.04.01.06.02.13.03.26.04.39.04,1.62,0,3.82-1.79,5.58-4,.25-.32.5-.64.73-.97.13-.19.26-.38.39-.57.03-.05.06-.11.1-.15.09-.14.18-.29.27-.43.04-.07.08-.14.12-.21.08-.13.15-.26.23-.39.05-.08.08-.15.12-.23.06-.12.14-.25.2-.37.04-.09.08-.18.12-.26.06-.11.11-.23.17-.34.04-.09.08-.18.12-.27.05-.11.1-.22.14-.33.04-.09.07-.18.11-.27.04-.11.08-.21.12-.32.03-.09.06-.18.09-.27.03-.1.07-.2.1-.3.03-.09.05-.18.07-.26.03-.1.06-.2.08-.29.02-.09.03-.17.05-.26.02-.09.04-.19.05-.28.01-.08.02-.16.03-.24.01-.09.02-.18.03-.26,0-.08,0-.15,0-.23,0-.08,0-.17,0-.24,0-.08-.02-.14-.02-.21,0-.08-.02-.15-.03-.23-.01-.07-.03-.13-.05-.2-.02-.07-.03-.14-.06-.2-.02-.06-.05-.11-.08-.17-.03-.06-.05-.12-.09-.18-.03-.05-.07-.1-.11-.15-.03-.05-.06-.1-.11-.14,0,0-.01-.01-.02-.02h0s0,0,0,0c-.07-.08-.15-.15-.22-.2-.02-.01-.05-.03-.08-.05-.04-.03-.08-.06-.12-.09-.27-.19-.56-.35-.87-.48.74-1.37,1.41-2.8,1.99-4.29,1.63-4.14,2.64-8.73,2.97-13.52.09,0,.18.01.27.01.08,0,.16,0,.24,0h.08s.04,0,.06,0h.06s.03,0,.04,0c.07,0,.15-.02.24-.03h0s.03,0,.05-.01c1.52-.34,2.36-2.65,2.55-5.2,0,0,0,0,0-.01.01-.16.02-.31.03-.47,0-.04,0-.09,0-.13,0-.13,0-.25,0-.38,0-.08,0-.15,0-.22,0-.2,0-.4-.01-.6-.14-3.17-1.27-6.53-3.17-6.78,0,0-.03,0-.04,0-.09,0-.18-.01-.28,0h-.17c-.26.01-.5.04-.74.08-.06-.35-.13-.71-.2-1.06-1.6-8.19-4.94-16.37-9.71-23.76-.12-.19-.25-.38-.38-.57.13-.09.25-.18.38-.28l.04-.04s.05-.05.08-.07c.02-.01.03-.02.05-.04.05-.04.1-.09.14-.14.02-.02.03-.03.05-.05,0,0,0,0,0-.01,0,0,.02-.01.02-.02.07-.08.12-.17.18-.26,0,0,0,0,0-.01.71-1.24.02-3.4-1.25-5.39-.01-.02-.02-.03-.03-.05-.09-.14-.17-.27-.26-.39l-.07-.1c-.08-.11-.16-.22-.24-.33-.04-.05-.08-.11-.11-.15-.12-.16-.24-.32-.37-.47-.13-.15-.26-.3-.39-.45-.02-.02-.03-.03-.04-.05-.12-.14-.24-.27-.36-.39-.02-.02-.04-.04-.06-.06-.12-.12-.24-.24-.36-.36-.01-.01-.02-.02-.03-.03-.14-.13-.27-.26-.41-.38,0,0,0,0,0,0-.88-.77-1.8-1.39-2.67-1.74h0c-.14-.06-.28-.11-.42-.14-.01,0-.02,0-.03,0-.13-.04-.26-.07-.38-.09-.03,0-.05,0-.07-.01-.11-.02-.22-.03-.32-.03-.03,0-.07,0-.1,0-.09,0-.18,0-.27.01-.05,0-.09.02-.13.03-.08.02-.15.03-.23.05-.05.02-.1.04-.15.06-.05.03-.11.04-.16.07-.01,0-.02,0-.03.01t0,0c-.09.05-.17.1-.23.15-.02.01-.04.03-.06.05-.02.02-.05.03-.07.05,0,0-.04.03-.05.03-.1.08-.19.17-.28.25-4.97-5.04-10.51-9.1-16.46-12.06v-.02s0-.07,0-.1c0-.11-.02-.22-.05-.33,0,0,0-.02,0-.03-.2-.83-.92-1.65-1.92-2.38-.02,0-.03-.02-.04-.03-.11-.08-.23-.16-.36-.24-.03-.02-.06-.05-.1-.07-.1-.07-.21-.13-.32-.2-.06-.03-.11-.07-.17-.1-.09-.05-.18-.1-.26-.15-.08-.04-.16-.09-.24-.13-.07-.03-.14-.07-.2-.1-.11-.05-.21-.11-.32-.16-.05-.02-.1-.04-.15-.06-.13-.06-.26-.12-.4-.18-.05-.02-.09-.03-.13-.05-.14-.06-.28-.12-.42-.17-.18-.07-.37-.14-.56-.2-2.84-.95-6.12-1.12-7.27.27-4.43-.85-8.73-.99-12.85-.42-1.48.2-2.93.49-4.36.88-.02-.04-.04-.07-.07-.11-.93-1.43-3.91-1.31-6.79-.43-.02,0-.04.01-.06.02-.18.06-.36.12-.54.18-.02.01-.05.02-.08.03-.2.08-.41.15-.61.23-.41.16-.81.33-1.2.52-.16.08-.32.15-.48.24-.03.02-.07.03-.11.05-.15.08-.3.16-.44.24-.04.02-.09.05-.13.07-.13.08-.26.15-.38.23-.05.03-.11.06-.16.09-.12.08-.23.15-.35.23-.05.04-.11.07-.16.11-.11.08-.21.15-.32.23-.06.04-.11.08-.17.12-.09.08-.18.15-.27.23-.06.05-.12.09-.17.14-.08.07-.16.15-.24.22-.05.05-.11.1-.16.15-.07.07-.13.14-.2.21-.05.05-.11.11-.15.17-.06.07-.11.14-.17.2-.05.06-.1.12-.14.17-.05.07-.09.14-.13.2-.04.06-.08.12-.12.18-.04.06-.06.13-.09.2-.03.06-.06.12-.09.18-.03.06-.04.13-.06.19-.02.06-.05.12-.06.18-.01.06-.02.12-.03.19,0,.06-.02.12-.02.18,0,.06,0,.12.01.19,0,.06,0,.12.01.18h0s0,0,0,.01v.02s.01.04.02.05c.02.08.03.15.06.23,0,.01.01.03.02.05v.02s.04.09.06.14c.11.29.26.57.42.83-4.11,2.74-7.74,5.74-10.83,8.96-.3-1.22-.94-2.27-1.86-3.02-.03-.02-.07-.06-.12-.09-.03-.03-.06-.05-.08-.07-.05-.04-.13-.09-.23-.14h0s-.02-.02-.03-.02c-.08-.04-.16-.06-.24-.09-.03-.01-.06-.03-.09-.03-1.22-.34-2.95.55-4.62,1.96,0,.01-.02.02-.03.03-.14.12-.28.25-.42.38-.03.03-.05.05-.08.07-.11.11-.23.22-.34.33-.05.05-.1.1-.15.15-.1.1-.2.2-.29.3-.06.06-.13.13-.19.19-.09.1-.19.21-.28.31-.06.07-.13.14-.19.21-.15.18-.3.35-.44.53-.15.18-.29.36-.43.55-.05.06-.09.12-.14.18-.09.12-.18.25-.27.38-.05.08-.1.15-.15.23-.08.12-.16.23-.23.35-.06.09-.11.17-.16.26-.07.11-.14.21-.2.32l-.16.27c-.06.11-.12.21-.17.31-.05.09-.1.18-.14.27-.05.1-.11.2-.16.3-.05.09-.09.18-.13.28-.05.1-.09.2-.14.29-.04.09-.07.18-.11.27-.04.1-.08.19-.12.29-.03.09-.06.18-.09.27-.03.09-.06.19-.09.28-.03.09-.05.17-.07.26-.02.09-.05.18-.07.27-.02.09-.03.17-.05.25-.01.08-.03.17-.04.25-.01.08-.02.15-.02.23,0,.08-.02.16-.02.24,0,.08,0,.15,0,.22,0,.07,0,.15.01.22,0,.07.02.14.04.2.01.07.02.14.04.2.02.06.05.12.07.18.02.06.04.12.07.18.03.06.07.11.1.16.03.05.06.1.09.14,0,0,.01.01.02.02,0,0,0,0,0,0,0,0,0,0,0,0,0,0,0,0,0,0,.07.09.15.16.21.21,0,0,.02.02.03.03.02,0,.03.02.05.03.02.02.04.04.06.06,0,0,.04.03.05.04.98.79,2.22,1.21,3.56,1.21.18,0,.36,0,.55-.02-1.06,1.95-1.97,3.97-2.72,6.03-1.09,2.98-1.84,6.07-2.27,9.23-.33-.06-.65-.1-.98-.1-.05,0-.09,0-.14,0-.16-.02-.32,0-.45.04-.02,0-.05.02-.07.03-1.9.54-2.89,4.36-2.89,7.96ZM242.2,168.54c.22-.29.45-.47.67-.5.02,0,.04,0,.06,0h.04s.05,0,.07,0c.91.12,2.04,2.49,2.18,5.71.13,3.21-.8,5.67-1.72,5.86-.04,0-.09.01-.15.02-.2,0-.39-.13-.54-.27.01-.21.02-.43.02-.65,0-.2.02-.39.02-.59,0-.25,0-.5,0-.74,0-.21,0-.42,0-.63,0-.25-.01-.5-.02-.75,0-.21,0-.42-.01-.62-.01-.3-.03-.6-.04-.89,0-.16-.01-.32-.02-.48-.03-.46-.06-.92-.09-1.37-.02-.17-.03-.33-.05-.5-.03-.3-.05-.6-.08-.9-.02-.19-.05-.38-.06-.56-.03-.28-.06-.56-.1-.83-.03-.2-.06-.39-.08-.59-.03-.23-.06-.46-.1-.69ZM149.55,129.12c0,.06,0,.12-.02.18,0,.05,0,.1-.01.15-.01.06-.02.13-.04.2,0,.05-.02.11-.03.16-.02.07-.04.15-.06.23-.02.06-.03.11-.05.18-.02.08-.05.16-.08.24-.02.06-.04.12-.06.19-.03.08-.07.17-.1.26-.03.07-.05.14-.08.21-.03.09-.08.18-.12.27-.03.07-.06.15-.1.22-.05.09-.09.18-.14.28-.04.08-.08.16-.12.24-.05.09-.11.19-.16.29-.05.09-.09.17-.14.25-.06.1-.12.2-.18.3-.05.09-.1.17-.15.26-.07.11-.14.22-.22.32-.06.09-.11.17-.17.26-.08.12-.17.24-.26.36-.06.08-.11.15-.17.23-.15.2-.3.4-.47.6-2.25,2.78-4.52,4.12-5.59,4.12-.18,0-.33-.04-.44-.12,0,0-.06-.05-.09-.09-.01-.02-.03-.05-.04-.06-.02-.03-.03-.05-.05-.08-.01-.03-.02-.06-.03-.09-.01-.03-.02-.06-.03-.11-.01-.04-.02-.09-.02-.13,0-.04-.01-.07-.02-.11,0-.05,0-.12,0-.18,0-.03,0-.07,0-.11,0-.07.01-.14.02-.22,0-.04,0-.07,0-.1.01-.08.03-.17.05-.25,0-.04.01-.08.02-.11.02-.09.05-.18.07-.27.01-.04.02-.08.03-.12.03-.11.07-.22.11-.33,0-.03.02-.06.03-.09.05-.13.1-.26.15-.39.01-.02.02-.04.03-.06.12-.3.27-.62.45-.95,0-.02.02-.03.02-.05.46-.87,1.09-1.84,1.91-2.85,2.63-3.25,5.2-4.44,5.97-4.03.03.02.07.05.11.08.02.02.03.05.05.07.02.02.04.05.05.07.01.03.03.06.04.1.02.03.03.06.04.09,0,.04.01.08.02.12,0,.04.01.08.02.12,0,.05,0,.1,0,.15,0,.05,0,.09,0,.13ZM151.08,132.82c-.15,1.48-.79,2.99-1.83,4.28-.07.09-.14.17-.21.26-1.09,1.25-2.49,2.15-3.95,2.52-.95.24-1.86.26-2.68.06.03-.01.06-.03.09-.04.04-.01.08-.03.12-.05.09-.04.18-.08.27-.13.04-.02.07-.03.11-.05.12-.06.25-.13.37-.21.02-.01.04-.02.06-.04.11-.06.21-.13.32-.2.04-.03.08-.06.12-.08.09-.06.18-.13.28-.19.04-.03.08-.06.12-.09.12-.09.23-.17.35-.26.02-.01.03-.02.04-.03.13-.11.26-.21.39-.32.04-.03.07-.06.11-.09.1-.08.19-.17.29-.26.04-.04.08-.07.12-.11.1-.09.2-.19.3-.29.03-.03.06-.05.08-.08.13-.12.25-.25.38-.38.02-.02.05-.05.07-.07.1-.11.2-.21.3-.32.02-.02.03-.03.05-.05.02-.02.04-.05.06-.07.09-.1.18-.2.26-.3l.02-.02s.03-.04.05-.06c.02-.01.03-.03.04-.04.12-.14.23-.27.35-.41.14-.17.27-.34.4-.51.01-.02.03-.04.05-.06.02-.02.03-.03.04-.05.12-.17.25-.34.37-.51,0,0,.01-.02.02-.02.01-.02.03-.04.05-.06.11-.15.21-.31.31-.46.01-.02.03-.05.05-.07,0-.02.02-.03.03-.04.11-.17.21-.34.32-.51,0-.01.02-.03.03-.05.02-.03.03-.05.04-.08.09-.16.18-.32.27-.48,0-.02.02-.03.03-.05,0,0,0-.01.01-.02.09-.17.18-.35.26-.51.01-.02.02-.04.03-.06.01-.02.02-.05.03-.07.08-.17.16-.34.23-.51,0,0,0,0,0,0h0s.02-.04.02-.05c.06-.15.12-.31.18-.46.01-.02.02-.05.03-.07,0-.02.01-.03.02-.05.05-.16.11-.32.15-.47,0-.01,0-.02.01-.03,0-.03.01-.05.02-.07.04-.14.07-.27.09-.4,0-.02.01-.04.02-.06,0-.01,0-.02,0-.03,0-.01,0-.02,0-.03.28.57.45,1.23.49,1.93.02.35.02.7-.02,1.05ZM182.48,213.39c-7.39-3.34-14.28-8.48-19.98-14.9l4.29-3.49c5.1,6.07,11.07,11.09,17.61,14.77l-1.92,3.62ZM185.39,210.32c4.79,2.57,9.8,4.36,14.73,5.27,1.23.23,2.46.41,3.67.53l-.25,1.69c-6.56.21-13.46-1.15-20.03-3.96l1.88-3.53ZM161.76,197.64c-1.92-2.24-3.72-4.64-5.35-7.16-3.17-4.9-5.62-10.01-7.33-15.17l5.11-2.24c1.8,5.09,4.22,10.02,7.23,14.67,1.44,2.24,3,4.37,4.65,6.39l-4.31,3.51ZM148.74,174.23c-2.66-8.64-3.15-17.42-1.4-25.47h3.42c-.57,7.47.48,15.48,3.07,23.24l-5.09,2.22ZM147.6,147.63c1.09-4.45,2.85-8.67,5.26-12.57,1.09-1.77,2.31-3.49,3.66-5.12-2.97,4.94-4.89,10.8-5.6,17.19-.02.17-.04.34-.06.51h-3.26ZM157.99,126.56c-2.34,2.46-4.38,5.11-6.1,7.92.15-.51.26-1.04.3-1.56.03-.32.05-.65.03-.97,1.74-1.87,3.67-3.67,5.76-5.39ZM175.22,115.16c-.1.03-.2.06-.29.09-.17.05-.33.11-.5.17-.21.07-.41.14-.62.21-.16.06-.33.12-.49.18-.21.08-.41.16-.62.24-.16.06-.32.12-.47.19-.21.09-.42.18-.63.27-.15.07-.3.13-.45.2-.21.1-.42.2-.64.3-.14.07-.28.13-.42.2-.22.11-.44.23-.66.34-.13.07-.26.14-.38.2-.24.13-.48.27-.71.41-.1.06-.2.12-.3.18-.33.2-.66.4-.98.61-.96.56-1.9,1.13-2.8,1.7-.43-.11-.71-.28-.82-.5-.01-.05-.03-.09-.05-.14,0-.03,0-.07,0-.11,0-.03,0-.05,0-.08,0-.04.02-.08.03-.12,0-.03.01-.06.02-.09.02-.04.04-.09.06-.13.01-.03.02-.07.04-.1.02-.05.06-.09.08-.14.02-.03.04-.07.06-.11.03-.05.07-.1.11-.15.03-.04.05-.08.09-.12.04-.05.09-.1.13-.15.04-.04.07-.08.11-.12.05-.05.1-.1.15-.15.05-.05.09-.09.14-.14.05-.05.1-.09.15-.14.06-.05.11-.1.17-.15.05-.05.11-.09.16-.13.07-.05.13-.11.2-.16.05-.04.11-.08.17-.12.08-.06.16-.12.24-.17.05-.03.11-.07.15-.1.09-.06.19-.13.29-.19.05-.03.1-.06.14-.09.11-.07.22-.14.34-.2.05-.03.1-.05.14-.08.12-.07.24-.14.37-.2.05-.03.11-.06.17-.09.12-.06.25-.12.38-.19.08-.03.15-.07.23-.11.12-.05.23-.11.35-.16.2-.09.4-.17.61-.25.57-.23,1.13-.41,1.68-.56,2.34-.64,4.24-.59,4.89-.06ZM205.19,118.16c-.11-.05-.21-.1-.32-.15-.18-.09-.37-.17-.56-.25-.29-.13-.58-.25-.87-.38-.17-.08-.35-.15-.53-.22-.33-.14-.66-.27-1-.39-.13-.05-.26-.11-.39-.15-.47-.17-.93-.34-1.39-.5l-.28-.09c-.37-.13-.75-.25-1.12-.36-.16-.05-.32-.1-.48-.15-.31-.09-.62-.18-.93-.27-.18-.05-.35-.09-.53-.14-.3-.08-.6-.16-.91-.23-.17-.04-.34-.08-.51-.12-.08-.02-.15-.04-.23-.06.4-.13.93-.2,1.56-.2,1.06,0,2.4.21,3.82.69,2.39.8,4.11,2.04,4.67,2.99ZM231.55,140.24s-.06.06-.1.09c-.15.11-.36.13-.56.12-.12-.18-.26-.36-.38-.54-.11-.15-.21-.3-.32-.45-.02-.03-.04-.05-.06-.08-.16-.22-.32-.44-.48-.66-.11-.15-.21-.3-.33-.44-.01-.02-.03-.04-.04-.06-.17-.23-.35-.47-.53-.69-.11-.14-.21-.28-.31-.41,0-.01-.02-.02-.03-.04-.21-.27-.43-.54-.65-.82-.08-.09-.15-.19-.23-.29,0,0,0,0,0-.01-.06-.08-.12-.15-.18-.22-.24-.29-.47-.57-.71-.86,0-.01-.02-.02-.02-.03-.12-.14-.24-.27-.35-.41-.18-.21-.36-.42-.55-.63-.02-.02-.03-.03-.05-.05-.13-.14-.26-.29-.38-.43-.17-.19-.34-.38-.51-.57-.02-.02-.05-.05-.06-.07-.13-.14-.26-.27-.39-.41-.15-.15-.29-.32-.44-.47.04-.19.11-.33.21-.42.04-.03.08-.06.12-.09.03-.02.07-.03.1-.04.02,0,.05-.02.07-.03.05-.01.11-.02.17-.02.02,0,.03,0,.04,0,.36-.02.84.13,1.39.41,0,0,.02,0,.03.01.1.05.2.11.31.17.01,0,.03.01.04.02.11.07.23.14.34.21,0,0,0,0,.01,0,.24.16.48.34.73.54.03.02.06.05.09.07.09.08.18.15.27.23.04.04.08.08.12.11.08.08.17.15.24.23.05.04.09.09.14.13.08.08.16.16.24.24.05.05.09.09.13.14.09.09.17.18.25.27.04.04.08.08.12.13.12.14.24.28.36.42,2.04,2.48,2.77,5,2.16,5.71ZM230.6,207.75c.15-.13.29-.27.44-.41.14-.13.27-.25.41-.38.17-.17.33-.33.5-.5.12-.12.24-.24.36-.36.2-.2.38-.41.57-.62.08-.09.17-.18.26-.28.27-.3.54-.61.8-.93.05-.06.11-.13.16-.2.21-.25.41-.51.61-.77.09-.11.17-.23.25-.34.17-.22.33-.43.48-.65.1-.14.19-.27.29-.41.14-.21.28-.41.42-.62.1-.15.2-.3.29-.46.11-.17.23-.35.33-.53.6-.29,1.11-.38,1.38-.22.04.03.08.06.11.09.53.55.25,2.76-1.44,5.59-.24.41-.51.82-.81,1.25-2.1,2.99-4.26,4.42-5.3,4.49-.15.01-.27,0-.37-.05-.04-.02-.08-.05-.12-.08-.41-.35-.45-1.62.39-3.64ZM228.58,209.44c.13-.1.26-.21.39-.31-.06.28-.11.55-.14.8-.09-.16-.18-.32-.25-.5ZM225.8,210.02c-6.11,3.94-13.48,5.68-21.32,5.03-1.37-.11-2.76-.3-4.16-.56-4.98-.93-10.06-2.77-14.89-5.43-9.03-4.97-17.01-12.55-23.06-21.93-3.07-4.75-5.53-9.8-7.32-15,0-.01,0-.02-.01-.03h0c-2.72-7.98-3.8-16.22-3.12-23.85.03-.33.06-.66.1-1,1.14-10.24,5.46-19.03,12.24-24.82h0s0,0,0,0c.14-.12.27-.24.41-.35.14-.11.27-.22.41-.33h0s0,0,0,0l.1-.09c.05-.04.11-.09.16-.12.1-.08.17-.13.24-.18l.09-.07c.63-.46,1.29-.93,1.98-1.39,2.61-1.69,5.47-2.98,8.5-3.85l.07-.02c1.52-.43,3.07-.76,4.66-.97,3.97-.54,8.13-.4,12.42.41.01.02.03.04.05.06,0,0,.01.02.02.02.04.05.08.08.13.11.01,0,.02.01.03.02.05.03.11.05.17.06.03,0,.06,0,.08,0,0,0,0,0,.01,0,.05,0,.1-.01.15-.02h.03s.09-.05.13-.08c.2.05.4.09.6.13.23.05.45.1.67.15.27.06.53.13.8.2.22.05.44.11.65.17.28.08.56.16.83.24.21.06.42.12.63.18.3.09.59.19.89.29.19.06.38.12.56.18.39.14.79.28,1.19.43.14.05.27.1.4.15.43.17.87.33,1.3.51.18.08.36.15.54.23.3.13.6.26.91.39.2.09.39.18.59.27.25.12.5.23.75.35,0,.01.02.02.03.03,0,.01.02.02.03.03.05.05.09.08.15.11.04.02.09.03.13.04,0,0,.01,0,.02,0,.04,0,.07.01.11.01h.01c6.04,2.99,11.65,7.13,16.66,12.3.11.11.21.21.31.32,2.61,2.73,5.05,5.73,7.23,8.93l.29.44c.23.35.46.69.69,1.05,4.7,7.27,7.98,15.32,9.56,23.37.11.54.2,1.07.29,1.61.04.24.08.47.11.71.58,3.74.79,7.46.62,11.07,0,.19-.02.36-.03.54-.28,4.9-1.28,9.58-2.93,13.79-.65,1.65-1.4,3.22-2.24,4.71-.19.35-.38.68-.59,1.01-.21.35-.43.69-.66,1.04-1.57,2.39-3.41,4.52-5.48,6.37-.71.64-1.45,1.24-2.19,1.79-.54.41-1.12.82-1.76,1.23ZM204.92,216.2c.92.06,1.84.11,2.75.11,2.9,0,5.71-.33,8.41-.97-3.59,1.37-7.4,2.18-11.4,2.42l.23-1.55ZM210.71,219.06c-.66-.29-1.37-.48-2.11-.6,3.73-.57,7.28-1.66,10.63-3.25-2.61,1.6-5.45,2.89-8.52,3.85ZM212.74,222.05s-.02,0-.02,0c-.02,0-.03-.01-.05-.01,0,0-.02,0-.02,0-.08-.03-.17-.06-.25-.08-.03-.01-.06-.02-.1-.03-.05-.02-.1-.03-.16-.04,0,0-.01,0-.02,0-.03,0-.06-.02-.08-.02-.04,0-.08-.02-.11-.03-.11-.03-.23-.05-.35-.07,0,0,0,0,0,0-.03,0-.07-.01-.1-.02-.09-.02-.19-.03-.28-.05-.05,0-.09-.02-.14-.02-.03,0-.05,0-.08,0,0,0-.01,0-.02,0l-.28-.03s-.07,0-.1,0c-.08,0-.16-.02-.24-.02,0,0-.02,0-.02,0-.02,0-.04,0-.06,0-.05,0-.1,0-.15,0-.12,0-.24-.01-.35-.02-.03,0-.06,0-.09,0h-.02c-.13,0-.26,0-.39,0-.02,0-.05,0-.07,0-.02,0-.04,0-.06,0h-.17c-.16,0-.32,0-.47.01-.03,0-.07,0-.1,0-.04,0-.07,0-.11,0h-.02c-.18,0-.36.02-.54.04-.03,0-.06,0-.08,0-.03,0-.05,0-.08,0h-.01c-.21.02-.41.04-.62.06-.02,0-.03,0-.05,0-.01,0-.03,0-.04,0h0c-.24.03-.48.06-.71.1-.12.02-.24.04-.36.06h-.06s-.08.03-.12.03c-.09.02-.17.03-.26.05-.02,0-.03,0-.05,0-.04,0-.08.02-.12.02-.11.02-.22.05-.32.07-.03,0-.06.02-.09.02-.14.03-.28.07-.42.1,0,0-.01,0-.02,0-.13.03-.26.07-.39.11-.04,0-.07.02-.1.03-.11.03-.21.06-.31.09-.03.01-.07.02-.1.03-.11.03-.23.07-.33.11-.02,0-.04.01-.06.02-.13.05-.26.09-.39.14-.01,0-.02.01-.04.02-.11.04-.22.08-.33.12-.03.02-.06.03-.09.04-.09.04-.18.08-.27.11-.03.01-.06.03-.09.04-.11.05-.21.09-.31.14,0,0-.02,0-.03.02-.12.05-.23.11-.33.16-.02.01-.04.02-.06.03-.09.05-.17.09-.26.14-.03.02-.06.03-.08.05-.08.04-.15.09-.22.13-.02.02-.05.03-.07.05-.19.12-.36.24-.53.37,0,0-.01,0-.02.01.23-.79.68-1.56,1.34-2.24.7-.74,1.6-1.33,2.61-1.73.6-.24,1.25-.42,1.92-.53,1.65-.26,3.32-.05,4.68.59.98.45,1.77,1.1,2.29,1.87ZM199.81,226.12s0-.06,0-.09,0-.06,0-.09c.01-.03.03-.07.04-.1.02-.03.02-.06.04-.09.02-.03.05-.07.07-.11.02-.03.04-.06.06-.1.03-.03.06-.08.09-.11.03-.03.06-.07.09-.1.04-.04.08-.08.12-.12.04-.03.07-.07.11-.11.05-.04.1-.08.15-.12.05-.04.09-.08.14-.11.05-.04.11-.08.17-.11.06-.04.11-.08.18-.12.06-.04.12-.07.18-.11.07-.04.14-.08.21-.12.07-.04.14-.07.21-.11.08-.04.15-.08.24-.12.07-.03.15-.07.22-.1.09-.04.18-.08.27-.12.08-.03.17-.06.24-.1.1-.04.19-.08.29-.12.09-.03.18-.06.27-.09.1-.03.2-.07.31-.11.1-.03.2-.06.3-.09.11-.03.21-.06.32-.1.11-.03.23-.06.35-.09.11-.03.21-.06.32-.08.14-.03.27-.06.41-.09.1-.02.2-.05.3-.06.24-.05.5-.09.76-.14.26-.04.51-.08.76-.11.09-.01.18-.02.27-.03.15-.02.3-.03.45-.05.11,0,.21-.01.32-.02.12,0,.25-.02.37-.02.11,0,.21,0,.32,0s.22,0,.33,0,.22,0,.33,0c.09,0,.19,0,.29,0,.11,0,.21.01.31.02.09,0,.18,0,.27.02.1.01.19.02.28.03.09.01.17.02.25.03.09.01.18.03.27.04.08.01.15.02.23.03.08.02.16.04.24.05.07.01.14.03.2.05.08.02.14.04.21.06.06.02.13.03.18.05.06.02.12.04.18.06.05.02.11.04.16.06.06.02.11.05.15.07s.1.04.14.07c.05.02.08.05.12.07.04.03.08.05.12.08.03.02.06.05.09.08.03.03.07.05.1.08.02.03.04.05.06.08.03.03.05.06.07.09.02.02.02.05.03.08.02.03.03.06.04.09,0,.05.01.1.01.14-.04.82-2.08,2.3-5.73,3.01-.24.05-.49.09-.75.14-1.34.21-2.53.27-3.53.23-2.1-.1-3.4-.66-3.6-1.21-.01-.03-.02-.08-.03-.14ZM162.19,206.31c-.22-.21-.45-.4-.67-.6-.03-.03-.06-.05-.09-.08-.21-.18-.43-.36-.65-.52-.04-.03-.08-.06-.12-.09-.21-.17-.43-.32-.65-.47-.03-.02-.06-.04-.09-.06-.23-.15-.45-.3-.67-.44,0,0,0,0-.02,0-.22-.14-.44-.26-.65-.38-.03-.01-.06-.03-.09-.05-.21-.11-.41-.21-.61-.3-.04-.02-.08-.03-.11-.05-.2-.09-.39-.17-.58-.23-.03-.01-.06-.02-.09-.03-.2-.07-.39-.13-.57-.17,0,0,0,0,0,0,.6-.24,1.27-.37,1.95-.37,1.75,0,3.66.78,5.22,2.23,1.99,1.86,2.93,4.48,2.45,6.61-.13-.09-.26-.18-.39-.27-.66-1.48-1.95-3.19-3.58-4.71ZM154.82,204.1s.02-.03.03-.04c.02-.02.04-.05.06-.07.11-.11.31-.17.56-.18,0,0,.02,0,.03,0,.09,0,.18,0,.29.01h.02c1.44.16,3.64,1.45,5.63,3.31,1.58,1.48,2.82,3.11,3.39,4.49.35.84.42,1.51.18,1.81-.04.03-.08.07-.12.1-.72.49-3.42-.36-6.45-3.19-3.05-2.86-4.06-5.51-3.6-6.24ZM140.76,171.75c2.34-1.25,3.89-4.15,3.89-7.38,0-.32-.01-.65-.05-.96-.3-3.06-1.98-5.65-4.33-6.64.41-3.15,1.15-6.22,2.22-9.18.84-2.3,1.87-4.53,3.11-6.69,1.6-.46,3.1-1.45,4.28-2.81-1.56,3.15-2.76,6.47-3.55,9.92-.02.05-.03.09-.03.14-1.1,4.86-1.4,9.99-.91,15.2.37,3.93,1.18,7.9,2.45,11.83,0,.02.01.04.02.06,0,0,0,0,0,.01,1.74,5.4,4.29,10.74,7.59,15.86,1.75,2.71,3.69,5.3,5.78,7.69,0,0,.01.01.02.02,5.99,6.87,13.31,12.34,21.19,15.82,0,0,0,0,0,0,0,0,.02,0,.02,0,0,0,.01,0,.02,0,6.44,2.84,13.21,4.32,19.7,4.32.47,0,.92-.01,1.39-.03.09,0,.18,0,.26,0-.14.05-.27.1-.4.15-1.09.44-2.07,1.07-2.86,1.85-10.94,1.12-22.49-1.99-33.42-8.99.8-2.61-.24-5.8-2.67-8.08-2.7-2.52-6.38-3.23-8.97-1.79-1.86-2.15-6.16-7.9-9.7-15.13-2.27-4.64-4.23-9.89-5.05-15.19ZM140.45,169.84c.54-1.47.85-3.4.85-5.47,0-2.45-.44-4.76-1.18-6.24,0-.06.01-.12.02-.19,2.02,1.02,3.39,3.55,3.39,6.43,0,2.65-1.17,5.03-2.97,6.19-.04-.25-.08-.49-.11-.72ZM135.78,164.37c0-4.17,1.23-6.71,2.08-6.89.05,0,.1,0,.15,0,.02,0,.04,0,.06.01.02,0,.04,0,.06.01.02,0,.05.02.06.03.02,0,.04.01.06.03.02.01.05.03.07.04.02.02.04.03.06.05.02.02.04.04.06.06.02.02.05.04.07.06.02.02.04.05.06.07.02.03.05.05.07.08.02.03.04.06.06.09.02.03.05.06.07.09.02.03.05.07.07.11.02.03.04.06.06.09.04.07.08.14.12.22.71,1.31,1.13,3.51,1.13,5.87,0,1.97-.3,3.87-.82,5.2-.39,1.02-.9,1.66-1.33,1.71-.06,0-.11,0-.16-.01-.84-.16-2.07-2.71-2.07-6.9Z"/>
      </g>
      <g>
        <g>
          <path class="cls-21" d="M114.77,181.07s23.65,9.51,44,5.69c11.18,4.14,15.01,1.21,13.15.55,3.29.13,4.29-2.64.56-2.25,4.2-.37,4.12-3.46.35-3.24,2.24-.56,3.2-3.4-2.2-2.98-3.31.26-6.25.33-6.25.33,0,0,3.81-3.62,1.75-4.56-2.02-.93-6.45,3.79-7.82,5.26-6.15.37-25.36.56-41.05-7.64-2.05,3.13-2.49,8.84-2.49,8.84Z"/>
          <path class="cls-18" d="M166.63,181.93c-.1.04-.17.12-.17.23,0,.14.11.25.25.26.03,0,3.64.04,6.86-.48.12-.02.23-.15.2-.29-.02-.14-.15-.23-.28-.2-3.18.52-6.75.46-6.77.47-.03,0-.06,0-.09.01Z"/>
          <path class="cls-18" d="M166.24,184.78c-.1.03-.17.1-.19.21,0,.14.1.27.23.27,2.2.18,5.66.15,6.98-.06.13-.03.23-.15.2-.29-.02-.13-.15-.22-.29-.21-1.29.21-4.68.24-6.85.06-.03,0-.06,0-.09.01Z"/>
          <path class="cls-18" d="M165.79,186.79c-.08.02-.14.09-.16.18-.03.13.05.26.18.3,2.19.51,6.24.3,6.41.3.14,0,.24-.12.24-.27-.01-.14-.12-.25-.26-.23-.04,0-4.15.21-6.27-.29-.04-.02-.09,0-.13,0Z"/>
        </g>
        <path class="cls-1" d="M122.43,175.15c-4.8-2.21-7.93-3.1-7.93-3.1,0,0-6.81,3.94-1.6,7.82,2.81.95,5.41,1.22,7.91,2.37-2.81-1.86-4.42-7.91,1.62-7.09Z"/>
      </g>
      <g>
        <path class="cls-2" d="M115.15,188.2c-7.63.06-18.48-9.79-15-16.99,3.97-8.19,20.67-.98,20.67-.98-2.52,4.47-4.87,9.31-5.67,17.97Z"/>
        <path class="cls-19" d="M118.67,169.4c-2.28,4.24-5.14,11.05-6.17,18.46.91.23,1.8.35,2.65.34.8-8.66,3.14-13.51,5.67-17.97,0,0-.82-.36-2.15-.83Z"/>
      </g>
      <g>
        <path class="cls-2" d="M49.62,33.66s15.65-8,7.91-28.2c5.91-4.85,16.04,11.68,20.78-5.46,5.17,10.73-9.58,38.94-24.46,42.1-9.85-2.42-4.23-8.44-4.23-8.44Z"/>
        <path class="cls-13" d="M46.74,43.88c-6.06,5.28-18.66,15.95-29.84,8.15-5.88,3.52-22.3-3.9-11.91-14.71-13.38-13.85,3.48-28.28,11.7-18.27,1.85-11.98,21.4-13.76,18.13,5.58,7.7-16.49,23.16-1.95,16.37,9.74-6.35,10.93-4.45,9.5-4.45,9.5Z"/>
        <g>
          <path class="cls-21" d="M136.99,70.57c9.25,13.17,23.5,56.92-14.17,79.34-37.47,22.3-68.05.89-82.62-25.42-17.58-31.76,2.74-60.89,25.57-71.36,35.62-16.37,58.85-.18,71.23,17.45Z"/>
          <g>
            <path class="cls-23" d="M130.43,107.81c1.09,3.3,6.7,4.33,11.32,1.55,4.6-2.78,5.99-7.62,4.46-11.46-1.4-3.52-6.83-5.04-10.62.15-3.54,4.84-6.29,6.35-5.15,9.76Z"/>
            <path class="cls-7" d="M141.86,98.41c.16.43.73.6,1.28.4.56-.2.88-.71.71-1.14-.16-.42-.73-.6-1.28-.4-.54.2-.87.72-.71,1.14Z"/>
          </g>
          <path class="cls-27" d="M108.14,107.56c.18.48.89.65,1.62.38.72-.26,1.16-.86.99-1.33-.19-.47-.9-.64-1.62-.36-.72.25-1.16.86-.99,1.32Z"/>
          <g>
            <path class="cls-23" d="M68.02,133.04c1.98,4.84,7.9,6.56,14.43,4.59,6.29-1.91,10.9-8.8,8.15-12.98-2.61-3.98-5.44-1.24-13.52-1.29-7.82-.05-11.04,4.85-9.06,9.69Z"/>
            <path class="cls-7" d="M71.47,128.94c.18.44.79.61,1.36.37.57-.23.89-.78.71-1.23-.18-.44-.79-.6-1.37-.37-.56.24-.87.78-.71,1.23Z"/>
          </g>
          <path class="cls-24" d="M121.84,72.67c-6.3-.46-6.19,6.34-2.24,5.55,4.23-.86,8.09-.04,8.54-.56.98-1.14-2.77-4.72-6.31-4.99Z"/>
          <path class="cls-24" d="M69.62,97.77c4.26-4.65,8.85.34,5.44,2.49-3.67,2.29-5.91,5.53-6.59,5.46-1.5-.15-1.25-5.33,1.15-7.95Z"/>
          <path class="cls-18" d="M111.14,113.01c.07,0,.15-.01.2-.05,1.77-1.43,2.36-3.39,1.59-5.29-.71-1.75-2.44-2.95-4.01-2.81-.99.1-2.75.78-3.44,4.34-.04.16.07.31.23.34.18.04.32-.06.35-.23.46-2.37,1.49-3.74,2.91-3.87,1.34-.15,2.8.92,3.43,2.43.32.79.82,2.82-1.42,4.6-.12.11-.14.29-.04.42.05.06.12.1.21.11Z"/>
          <path class="cls-17" d="M74.09,110.11c.03-.05.07-.1.12-.14.26-.21.66-.18.88.09,3.55,4.32,9.01,4.74,11.89,2.43,2.24-1.8,2.17-4.67-.19-7.69-.21-.27-.16-.67.11-.88.27-.21.67-.16.88.11,3.34,4.27,2.18,7.67-.02,9.44-3.34,2.68-9.63,2.27-13.64-2.61-.18-.22-.19-.53-.04-.75Z"/>
          <path class="cls-17" d="M113.27,89.55c.03-.05.07-.1.12-.14.26-.22.66-.18.88.09,3.36,4.08,8.53,4.49,11.25,2.31,2.12-1.7,2.05-4.41-.18-7.26-.21-.28-.17-.67.11-.88.28-.21.67-.17.88.11,3.19,4.07,2.08,7.32-.02,9-3.19,2.56-9.17,2.17-13-2.49-.18-.22-.19-.52-.03-.74Z"/>
          <g>
            <path class="cls-15" d="M120.43,113.53c3.61-4.56,9.81-.42,8.57,8.28-1.24,8.7-6.06,14.68-16.62,17.36-10.88,2.76-18.72-4.82-19-10.92-.29-6.11,8.34-3.97,14.85-5.7,3.87-1.03,7.54-3.11,12.21-9.02Z"/>
            <path class="cls-11" d="M102.78,123.34c1.82-.14,3.71-.33,5.44-.79,3.87-1.03,7.54-3.11,12.21-9.02.02-.02.03-.04.05-.06,1.84,1.68.81,6.77-4.38,10.18-5.93,3.89-12.83,3.55-13.33-.32Z"/>
            <path class="cls-14" d="M124.25,132.68c-2.68,2.95-6.55,5.14-11.87,6.49-5.14,1.3-9.6.3-12.91-1.77,3.61-7.18,21.92-8.66,24.78-4.72Z"/>
            <path class="cls-26" d="M112.3,131.85c2.02-.27,4.26,1.47,1.17,2.48-4.31,1.41-7.29-1.66-1.17-2.48Z"/>
          </g>
        </g>
        <g>
          <path class="cls-13" d="M83.47,48.92s8.7,12.74,12.15,26.08c-4.19,2.81-8.22,4.15-8.22,4.15l-13.62-20.36s9.39,15.79,9.86,21.6c-6.59,4.73-28.05,11.83-35.76,14.67,3.49,9.08,5.56,22.59,5.03,38.38-2.78,1.77-10.45,5.16-10.45,5.16,0,0-31.64-20.21-34.44-53.78-1.84-22.03,29.21-40.76,29.21-40.76,0,0-12.8,3.39-12.15-1.94.64-5.32,15.54-.89,15.54-.89,0,0-5.91-6.27-2.18-9.49,5.35-4.62,6.08,8.21,6.08,8.21,0,0,20.47-13.03,45.77-14.87,22.98-1.67,41.26,2.77,49.16,49.87-5.12-4.84-12.31-15.53-12.31-15.53,0,0-11.58,7.19-21.51,11.04-8.31-15.42-22.17-21.54-22.17-21.54Z"/>
          <path class="cls-24" d="M12.16,89.57c4.29,18.74,7.79,23.55,31.75,48.56,5.04-.25,7.92-15.69-.18-41.12-1.6,26.09-15.17,23.76-31.56-7.44Z"/>
          <path class="cls-8" d="M92.93,24.93c-14.43,15.65-51.64,27.07-68.02,28.48-8.44,7.56-17.92,18.96-16.88,31.42.28,3.33.85,6.5,1.63,9.56,44.04-46.58,96.95-53.38,117.47-53.82-8.71-13.53-20.46-16.26-34.19-15.64Z"/>
        </g>
        <g>
          <path class="cls-21" d="M51.2,128.83s-5.33-5.1-11.89-1.12c-6.91,4.17-2.35,14.81,5.64,17.79,8,2.96,15.74-1.66,14.26-7.83l-8.01-8.83Z"/>
          <path class="cls-20" d="M40.12,131.16c3.42-4.06,13.44,1.68,11.39,10.39-2.4-7.75-6.17-8.08-6.84-2.97-1.52-1.94-1.47-3.96,1.15-5.69-2.24-2.39-5.71-1.74-5.71-1.74Z"/>
        </g>
        <path class="cls-5" d="M52.32,25.12c-9.71-.28-29.1.45-30.13,11.94-1.03,11.48-5.29,14.97-5.29,14.97l5.1,4.33s6.84-9.25,17.68-14.19c10.84-4.93,16.76-7.71,16.76-7.71,0,0,.68-5.62-4.12-9.35Z"/>
      </g>
    </g>
  </g>
</svg>