<?xml version="1.0" encoding="UTF-8"?>
<svg id="Layer_2" data-name="Layer 2" xmlns="http://www.w3.org/2000/svg" viewBox="0 0 161.43 293.08">
  <defs>
    <style>
      .cls-1 {
        fill: #eaad85;
      }

      .cls-2 {
        fill: #e37b5d;
      }

      .cls-3 {
        fill: #f8dab0;
      }

      .cls-4 {
        fill: #a66465;
      }

      .cls-5 {
        fill: #ef619f;
      }

      .cls-6 {
        fill: #f179a8;
      }

      .cls-7 {
        fill: #f5aac3;
      }

      .cls-8 {
        fill: #e2a268;
      }

      .cls-9 {
        fill: #5f2d2a;
      }

      .cls-10 {
        fill: #fff;
      }

      .cls-11 {
        fill: #824025;
      }

      .cls-12 {
        fill: #5467af;
      }

      .cls-13 {
        fill: #f48f87;
      }

      .cls-14 {
        fill: #7f4035;
      }

      .cls-15 {
        fill: #4d1f1c;
      }

      .cls-16 {
        fill: #f8c4d2;
      }

      .cls-17 {
        fill: #34478d;
      }

      .cls-18 {
        fill: #562512;
      }

      .cls-19 {
        fill: #6b4432;
      }

      .cls-20 {
        fill: #ce7754;
      }

      .cls-21 {
        fill: #ffc132;
      }

      .cls-22 {
        fill: #d5956a;
      }

      .cls-23 {
        fill: #fbc6a4;
      }

      .cls-24 {
        fill: #ec756c;
      }

      .cls-25 {
        fill: #f8af9a;
      }

      .cls-26 {
        fill: #f7b0ad;
      }

      .cls-27 {
        fill: #321514;
      }

      .cls-28 {
        fill: #8f494a;
      }

      .cls-29 {
        fill: #fcd8c1;
      }

      .cls-30 {
        fill: #d8d9da;
      }
    </style>
  </defs>
  <g id="Layer_1-2" data-name="Layer 1">
    <g>
      <g>
        <path class="cls-5" d="M27.36,109.28s-18.04,16.13-9.2,32.29c8.84,16.17-1.6,29.34-1.6,29.34,0,0,27.23-16.65,17.54-35.43-9.68-18.79-6.74-26.2-6.74-26.2Z"/>
        <path class="cls-5" d="M48.15,185.4s-14.85-16.18-10.33-31.9c4.51-15.72-4.52-28.87-4.52-28.87,0,0,21.53,16.86,16.7,35.14-4.83,18.29-1.85,25.62-1.85,25.62Z"/>
        <g>
          <path class="cls-14" d="M60.01,23.04c-6.19-4.71-31.54-1.11-37.4,9.78-5.79,10.76-3.02,4.44-11.08,15.85-7.67,10.86,2.86,37.4,14.47,49.53,7.17,7.49,4.62,25.8-.26,35.01-4.89,9.22,6.96,13.41,16.76,15.74,9.8,2.33,15.96,14.82,13.49,30.45-1.58,9.98-3.06,10.54,5.84,10.8,5.41.15,11.5,6.94,13.39,11.38,1.89,4.44,19.19-31.71,20.68-42.01,1.5-10.28,8.63-6.82,15.02-5.13,6.38,1.69.46-11.48,7.51-19.69,14.8-17.22-1.78-33.68,6.94-40.23,10.65-7.99,13.77-25.7,13.5-36.38-.58-23.38-29.58-48.8-58.27-46.24-11.27,1.01-16.83,5.31-20.58,11.14Z"/>
          <path class="cls-9" d="M102.29,128.47s3.05,12.54,1.55,24.83c-13.47-11.01-9.96,20.32-22.12,32.9-2.79-26.3-31.91-47.79-44.28-61.05-10.62-11.37-5.6-18.62-.52-22.25,5.07-3.64,65.38,25.57,65.38,25.57Z"/>
        </g>
        <g>
          <g>
            <path class="cls-30" d="M120.6,281.33c-.47.53-.55,2.95-.08,3.74,2.05,3.13,6.87,7.61,12.71,7.97,4.26.27,8.53-1.52,9.39-3.76.26-.66.64-2.41-.39-3.66-6.09-3.48-21.64-4.3-21.64-4.3Z"/>
            <path class="cls-23" d="M119.39,228.25s1.51,48.2,1.72,54.35c2.55,3.68,6.12-.74,6.12-.74,0,0-.88-49.21-1.38-53.61-2.9-.39-6.45,0-6.45,0Z"/>
            <path class="cls-1" d="M126.5,269.97l.2,3.16s-.71-1.95-2.84-1.89c-2.12.07-2.88,2.03-2.88,2.03l-.09-3.48,5.61.17Z"/>
            <path class="cls-28" d="M121.15,275.43s2.29,3.76,3.63,3.04c-.95-1.42-.71-4.56,1.35-4.92,2.05-.36,2.05,3.22,2.05,3.22,0,0,2.69-2.23,7.82-.8,5.13,1.42,6.87,7.96,6.24,9.66-1.04,1.6-5.53,3.66-11.14,2.86-5.6-.8-9.23-5.37-9.94-6-.7-.62-1.27-2.23-.7-3.48.54-1.25-.63-3.58.7-3.58Z"/>
            <path class="cls-4" d="M134.93,276.95c1.97-.63,6.71,3.58,4.58,5.99-2.13,2.41-8.69,1.06-8.69,1.06,0,0,5.53-.43,4.89-3.29-.23-1.08-2.47-3.23-.79-3.77Z"/>
            <path class="cls-10" d="M128.62,278.65c.13,0,.25-.06.33-.19,1.69-2.54,3.49-1.15,3.56-1.08.19.15.45.11.58-.11.14-.22.1-.53-.09-.68-.02-.02-2.54-1.98-4.72,1.3-.15.22-.1.51.08.67.08.06.16.09.26.09Z"/>
            <path class="cls-10" d="M132.68,279.56c.13,0,.26-.07.34-.19,1.7-2.55,3.48-1.15,3.56-1.08.19.14.45.09.58-.13.13-.21.09-.5-.09-.66-.03-.01-2.55-1.98-4.72,1.3-.15.21-.11.51.08.67.08.06.16.09.25.09Z"/>
          </g>
          <g>
            <path class="cls-30" d="M103.82,281.33c.47.53.55,2.95.08,3.74-2.05,3.13-6.87,7.61-12.71,7.97-4.26.27-8.53-1.52-9.39-3.76-.26-.66-.64-2.41.39-3.66,6.09-3.48,21.64-4.3,21.64-4.3Z"/>
            <path class="cls-23" d="M105.04,228.25s-1.55,48.2-1.75,54.35c-2.61,3.68-6.26-.74-6.26-.74,0,0,.89-49.21,1.41-53.61,2.97-.39,6.6,0,6.6,0Z"/>
            <path class="cls-1" d="M97.7,270.17l-.21,3.16s.72-1.95,2.9-1.89c2.16.07,2.95,2.03,2.95,2.03l.09-3.48-5.73.17Z"/>
            <path class="cls-28" d="M103.27,275.43s-2.29,3.76-3.63,3.04c.95-1.42.71-4.56-1.35-4.92-2.05-.36-2.05,3.22-2.05,3.22,0,0-2.69-2.23-7.82-.8-5.13,1.42-6.87,7.96-6.24,9.66,1.04,1.6,5.53,3.66,11.14,2.86,5.6-.8,9.23-5.37,9.95-6,.7-.62,1.27-2.23.7-3.48-.54-1.25.63-3.58-.7-3.58Z"/>
            <path class="cls-4" d="M89.49,276.95c-1.97-.63-6.71,3.58-4.58,5.99,2.13,2.41,8.69,1.06,8.69,1.06,0,0-5.53-.43-4.9-3.29.23-1.08,2.47-3.23.79-3.77Z"/>
            <path class="cls-10" d="M95.8,278.65c-.13,0-.25-.06-.33-.19-1.69-2.54-3.48-1.15-3.56-1.08-.19.15-.45.11-.58-.11-.14-.22-.1-.53.09-.68.02-.02,2.54-1.98,4.72,1.3.15.22.1.51-.08.67-.08.06-.16.09-.26.09Z"/>
            <path class="cls-10" d="M91.74,279.56c-.13,0-.26-.07-.34-.19-1.7-2.55-3.48-1.15-3.56-1.08-.19.14-.45.09-.58-.13-.13-.21-.09-.5.09-.66.03-.01,2.54-1.98,4.72,1.3.15.21.11.51-.08.67-.07.06-.16.09-.25.09Z"/>
          </g>
          <g>
            <path class="cls-12" d="M89.75,203.42s3.07,37.42,5.14,64.51c6,3.4,12.87.43,12.87.43l4.52-41.74s3.99,34.75,4.8,41.3c4.09,2.14,10.84,2.63,13.2-1.28.95-20.64,3.74-65.61,3.74-65.61l-44.26,2.39Z"/>
            <path class="cls-17" d="M130.71,265.58s-5.12,3.19-14.29,1.83c.23,2.34.32,3.85.32,3.85,0,0,4.74,2.38,13.97-1.5.13-2.25,0-4.18,0-4.18Z"/>
            <path class="cls-17" d="M94.23,266.95s5.14,1.74,14.27.09c-.16,2.35-.21,3.86-.21,3.86,0,0-3.57,2.71-13.81.2-.2-2.25-.25-4.15-.25-4.15Z"/>
            <path class="cls-17" d="M91.84,212.26l1.12,14.52s18.59-12.11,38.12-1.68c.84-9.77,1.12-15.92,1.12-15.92l-40.35,3.07Z"/>
          </g>
        </g>
        <g>
          <path class="cls-23" d="M89,155.29s4.98-3.3,8.13-5.16c-.57-3.55-2.25-7.24-2.25-7.24l6.19-2.27s1.95,5.54,2.45,7.83c4.92,0,11.41-.42,11.41-.42,0,0,6.88,13.64-9.39,17.13-4.29.92-15.57-3.11-16.53-9.87Z"/>
          <path class="cls-1" d="M100.71,142.39l-5.2,2.19s1.41,2.53,2.12,5.4c1.19-1.61,3.78-3.1,5.63-1.55-.72-2.39-2.55-6.04-2.55-6.04Z"/>
        </g>
        <g>
          <path class="cls-16" d="M93.79,152.25c-3.12,1.53-9.9,4.92-16.88,14.59,2.2,3.32,5.11,5.32,7.05,6.15.76-.55,1.52-1.52,2.67-2.99,1.63,13.85.35,35.65-4.92,46.04,10.97,10.62,52.42,3.07,61.34-5.04-2.69-4.56-11.66-34.08-16.81-50.87-.11-.34,2.61,2.09,4.18,2.66,1.95-3.74,3.19-5.18,4.68-7.85-6.06-4.13-17.95-7.66-26.86-6.77,3.89,8.63-10.9,11.33-14.45,4.08Z"/>
          <path class="cls-10" d="M107.31,148.45c1.05,2.68,1.69,5.78-3.12,7.52,3.3,3.91,9.62,2.5,11.55-1.43,1.72-3.49-1.17-8.71-8.43-6.1Z"/>
          <path class="cls-10" d="M95,151.38c.88,3.67,4,5.83,9.24,4.55.06,5.43-5.95,7.4-10.23,5.59-3.81-1.61-7.74-6.56,1-10.14Z"/>
        </g>
        <path class="cls-7" d="M89.38,182.08c-.48,5.71-2.86,28.2-4.76,33.18,9.27,4.04,31.6,7.6,56.07-5.23-5.94-16.15-10.81-29.48-10.81-29.48,0,0,7.6,27.34-17.12,31.38-24.71,4.04-23.39-29.86-23.39-29.86Z"/>
        <g>
          <g>
            <g>
              <path class="cls-23" d="M142.78,62.1c7.21,15.94,14.63,68.88-31.24,81.9-42.6,12.09-72.9-12.85-83.13-43.93-12.34-37.51,15.29-64.51,41.8-71.07,41.39-10.25,62.93,11.75,72.57,33.1Z"/>
              <path class="cls-29" d="M104.31,91.88c.09.54.82.87,1.64.72.83-.13,1.42-.68,1.33-1.22-.1-.54-.83-.86-1.65-.72-.82.13-1.42.68-1.32,1.21Z"/>
              <path class="cls-9" d="M126.17,63.96c-6.64-1.76-7.91,5.52-3.52,5.47,4.7-.06,8.66,1.6,9.24,1.13,1.28-1.01-1.99-5.61-5.72-6.6Z"/>
              <path class="cls-9" d="M65.45,78.6c5.5-4.11,9.39,2.16,5.31,3.76-4.38,1.7-7.43,4.71-8.15,4.5-1.57-.46-.25-5.95,2.84-8.26Z"/>
              <path class="cls-20" d="M106.39,98.3c.08.02.17.02.23-.02,2.17-1.16,3.21-3.14,2.78-5.32-.41-2.02-2.01-3.65-3.72-3.81-1.07-.09-3.1.29-4.56,3.94-.07.17,0,.35.18.41.18.08.35,0,.41-.17.97-2.43,2.35-3.68,3.89-3.54,1.47.13,2.82,1.56,3.17,3.3.18.91.31,3.18-2.45,4.63-.15.09-.21.28-.13.43.04.08.12.14.2.16Z"/>
              <path class="cls-25" d="M124.86,101.53c-.32,3.86,4.98,7.38,10.91,6.52,5.94-.85,9.48-5.2,9.59-9.83.11-4.23-4.8-8.18-10.95-4.48-5.75,3.43-9.22,3.77-9.55,7.79Z"/>
              <path class="cls-29" d="M140.69,96.84c-.04.52.48.95,1.13.97.65.04,1.21-.34,1.21-.86.04-.51-.46-.94-1.14-.97-.65-.05-1.2.34-1.21.86Z"/>
              <path class="cls-25" d="M60.42,113.97c1.12,5.17,6.7,7.96,13.54,7.14,6.58-.81,12.38-6.88,10.38-11.54-1.9-4.43-5.19-2.21-13.22-3.68-7.76-1.43-11.83,2.88-10.69,8.08Z"/>
              <path class="cls-29" d="M64.57,110.48c.1.47.66.74,1.29.61.6-.14,1.01-.62.92-1.09-.11-.45-.68-.75-1.29-.62-.62.15-1.01.64-.91,1.11Z"/>
              <path class="cls-2" d="M74.61,113.97c.1.47.66.74,1.29.61.6-.14,1.01-.62.92-1.09-.11-.45-.68-.75-1.29-.63-.62.15-1.01.64-.91,1.11Z"/>
              <path class="cls-2" d="M76.39,109.72c.1.47.66.74,1.29.61.6-.14,1.01-.62.92-1.09-.1-.46-.68-.75-1.29-.63-.62.15-1.01.64-.91,1.11Z"/>
              <path class="cls-2" d="M80.1,112.89c.11.47.66.73,1.29.61.6-.14,1.01-.62.92-1.09-.11-.45-.68-.75-1.29-.63-.62.15-1.01.64-.91,1.11Z"/>
              <path class="cls-2" d="M129.8,102.27c0,.48.47.86,1.12.88.61,0,1.13-.37,1.14-.86,0-.46-.49-.88-1.12-.9-.64,0-1.13.39-1.14.88Z"/>
              <path class="cls-2" d="M132.49,98.53c0,.48.47.87,1.11.89.62,0,1.13-.37,1.14-.86,0-.47-.49-.89-1.12-.9-.63,0-1.13.39-1.14.87Z"/>
              <path class="cls-2" d="M135.39,102.45c0,.48.48.87,1.12.89.62,0,1.12-.38,1.14-.86,0-.47-.49-.88-1.12-.9-.63,0-1.13.39-1.14.88Z"/>
              <path class="cls-19" d="M70.08,97.06c.06.02.13.02.2.02.37-.03.66-.35.64-.73-.36-6.11,3.71-10.51,7.74-10.8,3.14-.22,5.22,2.14,5.57,6.31.03.37.36.66.74.63.38-.03.66-.37.63-.74-.5-5.91-3.96-7.78-7.04-7.56-4.68.33-9.42,5.34-9.01,12.25.02.31.24.56.53.63Z"/>
              <path class="cls-19" d="M115.62,85.81c.06.02.13.03.2.02.38-.02.67-.34.64-.72-.34-5.78,3.52-9.95,7.31-10.22,2.97-.21,4.93,2.02,5.26,5.96.04.38.36.66.74.63.38-.04.66-.36.63-.74-.47-5.64-3.78-7.42-6.72-7.21-4.46.31-8.98,5.08-8.59,11.67.02.31.24.56.53.63Z"/>
              <g>
                <path class="cls-15" d="M118.72,105.43s4.04,22.31-11.61,25.64c-15.64,3.33-15.3-19.07-15.3-19.07,0,0,12.06,2.03,26.92-6.57Z"/>
                <path class="cls-27" d="M104.33,111.1c.01,5.58-1.14,13.59-7.16,17.56-5.53-5.35-5.37-16.67-5.37-16.67,0,0,5.46.88,12.52-.89Z"/>
                <path class="cls-24" d="M115.95,125c-1.54,3.11-4.92,5.34-9.15,6.25-7.74,1.63-11.59-3.27-13.15-8.33.51-1.05,2.96-2.33,5.55-1.24,2.43-4.52,12.49-1.77,16.76,3.31Z"/>
                <path class="cls-13" d="M96.34,122.31c1.17-.57,2.71-.33,3.38.03.46-.93,1.27-2.01,3.61-2.2,5.86-.51,13.32,5.3,5.96,8.54-7.43,3.3-17.31-4.32-12.95-6.37Z"/>
                <path class="cls-26" d="M108.43,122.2c-1.29-1.22-4.42-1.88-5.23-1.03-.98,1.01,1.74,2.43,3.52,2.58,1.8.17,2.54-.79,1.71-1.55Z"/>
                <path class="cls-10" d="M114.18,107.73c.74,2.31.47,4.16-2.58,5.56-2.85,1.32-7.06,2.4-10,2.57-3.56.22-5.38-1.23-5.34-3.68,6.01-.43,10.81-1.32,17.92-4.44Z"/>
              </g>
            </g>
            <g>
              <path class="cls-14" d="M89.99,28.1s6.71,15.38,7.69,30.33c-5.04,2.15-9.63,2.77-9.63,2.77l-10.42-24.5s6.82,18.77,6.16,25.07c-8.01,3.72-32.39,6.96-41.2,8.42,1.88,10.4,1.36,25.26-2.41,42.03-3.33,1.33-12.21,3.4-12.21,3.4,0,0-29.7-28.01-25.88-64.45C4.59,27.25,41.58,13.53,41.58,13.53l4.19-2.33,4.42-.58S74.71.85,102.11,4.01c24.89,2.88,43.52,11.34,42.41,63.26-4.48-6.21-10-19.1-10-19.1,0,0-16.11,5.73-27.5,7.84-5.75-18.17-17.03-27.91-17.03-27.91Z"/>
              <path class="cls-9" d="M5.54,57.07c.78,20.9,3.55,26.74,24.07,58.33,5.43.76,11.65-15.16,8.15-43.97-7,27.55-21.03,22.32-32.22-14.35Z"/>
              <path class="cls-6" d="M43.26,60.21c-22.64,19.91-20.81,40.73-20.51,51.12C14.7,101.96-2.62,78.12.34,49.13,2.84,24.49,40.4,10.4,40.4,10.4l8.74-2.99S74.03-2.63,101.88.66c22.47,2.67,39.92,9.87,42.79,48.98-17.71-17.78-64.92-21.52-101.41,10.56Z"/>
              <g>
                <path class="cls-16" d="M95.64,7.9c0,1.25,1.62,2.27,3.61,2.28,2,0,3.61-1.01,3.61-2.26,0-1.25-1.62-2.27-3.61-2.28-2,0-3.61,1.01-3.61,2.26Z"/>
                <path class="cls-16" d="M57.35,12.32c0,1.25,1.62,2.27,3.61,2.28,2,0,3.61-1.01,3.61-2.26,0-1.25-1.62-2.27-3.61-2.28-2,0-3.61,1.01-3.61,2.26Z"/>
                <path class="cls-16" d="M81.71,22.45c.12,1.25,1.83,2.1,3.82,1.9,1.99-.2,3.5-1.37,3.37-2.61-.12-1.25-1.83-2.1-3.82-1.9-1.99.2-3.49,1.37-3.37,2.61Z"/>
                <path class="cls-16" d="M74.2,3.84c.12,1.25,1.83,2.1,3.82,1.9,1.99-.19,3.5-1.37,3.37-2.61-.12-1.25-1.83-2.1-3.81-1.9-1.99.19-3.5,1.36-3.37,2.61Z"/>
                <path class="cls-16" d="M122.43,18.16c0,1.25,1.62,2.27,3.61,2.27s3.61-1.01,3.61-2.26c0-1.25-1.62-2.27-3.61-2.27-2,0-3.61,1.01-3.61,2.26Z"/>
                <path class="cls-16" d="M132.28,35.87c0,1.25,1.62,2.27,3.61,2.27,1.99,0,3.61-1.01,3.61-2.26,0-1.25-1.62-2.27-3.61-2.28-2,0-3.61,1.01-3.61,2.26Z"/>
                <path class="cls-16" d="M106.81,29c0,1.25,1.62,2.27,3.61,2.27,2,0,3.61-1.01,3.61-2.26,0-1.25-1.62-2.27-3.61-2.27-1.99,0-3.61,1.01-3.61,2.26Z"/>
                <path class="cls-16" d="M59.49,36.66c0,1.25,1.62,2.27,3.61,2.28,2,0,3.61-1.01,3.61-2.26,0-1.25-1.62-2.27-3.61-2.28-1.99,0-3.61,1.01-3.61,2.26Z"/>
                <path class="cls-16" d="M38.96,32.66c.52,1.14,2.4,1.38,4.21.55,1.81-.84,2.87-2.45,2.35-3.59-.51-1.14-2.4-1.38-4.21-.54-1.81.84-2.87,2.44-2.35,3.58Z"/>
                <path class="cls-16" d="M14.75,30.29c.65,1.07,2.55,1.09,4.25.03,1.7-1.05,2.56-2.77,1.91-3.84-.64-1.07-2.55-1.09-4.25-.03-1.7,1.05-2.56,2.77-1.91,3.84Z"/>
                <path class="cls-16" d="M19.02,51.17c.85.91,2.71.53,4.16-.86,1.45-1.39,1.94-3.25,1.09-4.16-.85-.91-2.71-.53-4.16.86-1.45,1.39-1.94,3.25-1.09,4.16Z"/>
                <path class="cls-16" d="M3.46,50.52c.96.79,2.76.14,4-1.43,1.25-1.58,1.48-3.49.51-4.28-.96-.79-2.76-.15-4,1.43-1.25,1.58-1.48,3.49-.51,4.28Z"/>
                <path class="cls-16" d="M8.38,74.54c1.2.3,2.56-1.04,3.03-3.01.48-1.96-.11-3.8-1.31-4.1-1.2-.3-2.56,1.04-3.04,3.01-.48,1.96.11,3.8,1.31,4.1Z"/>
                <path class="cls-16" d="M18.2,100.39c1.22-.18,1.98-1.95,1.69-3.95-.29-2.01-1.51-3.48-2.74-3.31-1.22.18-1.98,1.95-1.69,3.95.29,2,1.51,3.48,2.73,3.31Z"/>
                <path class="cls-16" d="M23.84,78.09c1.09.59,2.73-.38,3.66-2.17.93-1.79.8-3.71-.29-4.3-1.09-.59-2.73.38-3.66,2.17-.93,1.79-.8,3.71.29,4.3Z"/>
                <path class="cls-16" d="M33.85,16.84c.58,1.11,2.48,1.24,4.24.29,1.76-.95,2.72-2.61,2.14-3.72-.58-1.11-2.48-1.24-4.24-.29-1.76.95-2.72,2.61-2.14,3.72Z"/>
                <path class="cls-16" d="M38.35,54.6c.68,1.05,2.58,1,4.25-.1,1.67-1.1,2.47-2.85,1.79-3.9-.68-1.05-2.58-1-4.25.1-1.67,1.11-2.47,2.85-1.79,3.9Z"/>
              </g>
            </g>
            <g>
              <path class="cls-23" d="M39.3,106.95s-4.66-6.53-12.49-3.62c-8.23,3.06-5.51,15.35,2.43,20.16,7.93,4.79,17.15,1.41,16.82-5.49l-6.77-11.05Z"/>
              <path class="cls-22" d="M27,107.18c4.47-3.65,14.01,4.52,10.06,13.41-1-8.77-4.96-9.89-6.71-4.55-1.23-2.39-.76-4.53,2.39-5.84-1.92-3.02-5.74-3.02-5.74-3.02Z"/>
            </g>
          </g>
          <g>
            <path class="cls-10" d="M35.73,90.47c2.12-10.21,14.43-3.25,8.91,4.07,11.82-2.16,8.24,14-1.97,9.06,3.68,12.83-9.93,8.75-10,2.74-12.61,1.94-12.08-10.59-3.54-11.17-9.71-6.17,2.91-13.76,6.59-4.7Z"/>
            <path class="cls-21" d="M41.95,100.91c-1.8,2.69-5.45,3.42-8.15,1.61-2.7-1.8-3.43-5.45-1.62-8.15,1.8-2.7,5.45-3.42,8.16-1.62,2.69,1.8,3.42,5.45,1.62,8.16Z"/>
          </g>
        </g>
      </g>
      <g>
        <path class="cls-11" d="M64.1,213.77c.26.45.11,1.03-.35,1.3-.45.26-1.03.11-1.3-.35-.26-.45-.11-1.03.35-1.3.45-.26,1.04-.11,1.3.34Z"/>
        <path class="cls-11" d="M56.53,215.08c.23.4.09.91-.3,1.14-.4.23-.91.1-1.14-.3-.23-.4-.09-.91.31-1.14.4-.23.91-.09,1.14.3Z"/>
        <path class="cls-11" d="M61.82,228.65c.23.4.09.91-.3,1.14-.4.23-.91.09-1.14-.3-.23-.4-.09-.91.3-1.14s.91-.09,1.14.3Z"/>
        <path class="cls-11" d="M70.96,239.98c.23.4.09.91-.3,1.14-.4.23-.91.1-1.14-.3-.23-.4-.09-.91.31-1.14.4-.23.91-.09,1.14.3Z"/>
        <path class="cls-11" d="M75.86,234.07c.26.45.11,1.03-.35,1.3-.45.26-1.03.11-1.3-.35-.26-.45-.11-1.03.35-1.3.45-.26,1.04-.11,1.3.34Z"/>
        <path class="cls-11" d="M146.24,216.02c.35.61.14,1.4-.47,1.75-.61.35-1.4.14-1.75-.47-.35-.61-.14-1.4.47-1.75.61-.36,1.4-.15,1.75.46Z"/>
        <path class="cls-11" d="M134.19,200.1c.35.61.14,1.4-.47,1.75-.61.35-1.4.14-1.75-.47s-.14-1.4.47-1.75c.61-.35,1.4-.15,1.75.46Z"/>
        <path class="cls-11" d="M122.44,179.82c.35.61.14,1.4-.47,1.75-.61.35-1.4.14-1.75-.47-.36-.61-.15-1.4.46-1.75.61-.35,1.4-.15,1.75.47Z"/>
        <path class="cls-11" d="M114.62,161.45c.36.61.15,1.4-.47,1.75-.61.35-1.4.14-1.75-.47-.35-.61-.14-1.4.47-1.75.61-.36,1.4-.15,1.75.46Z"/>
        <path class="cls-8" d="M81.58,245.6c-2.75,3.76-3.05,3.7-4.41,3.41l-.17-.04c-2.14-.45-11.67-4.81-19.28-17.95-7.61-13.14-6.66-23.58-5.99-25.65l.05-.17c.42-1.33.52-1.61,5.18-2.13.13,1.86.76,8.45,3.5,16.13,1.03,2.88,2.43,6.12,4.34,9.42,3.56,6.15,8.88,12.48,16.77,16.98ZM71.15,241.97c.87-.5,1.17-1.62.66-2.48-.5-.87-1.62-1.16-2.48-.66-.87.5-1.17,1.62-.66,2.49.5.87,1.62,1.16,2.49.66ZM62.01,230.64c.87-.5,1.17-1.62.66-2.48-.5-.87-1.62-1.17-2.48-.66-.87.5-1.17,1.62-.66,2.48.5.87,1.62,1.16,2.48.66ZM56.72,217.07c.87-.5,1.16-1.62.66-2.48-.5-.87-1.62-1.16-2.48-.66-.87.5-1.17,1.62-.66,2.49.5.87,1.62,1.16,2.49.66Z"/>
        <path class="cls-11" d="M83.24,243.31c-.39.54-.74,1.04-1.07,1.49-11.9-6.76-17.86-17.79-20.76-25.9-2.74-7.65-3.34-14.2-3.46-15.94.54-.06,1.14-.12,1.8-.18,1.36-.13,2.74-.32,4.11-.61.17,1.04.63,3.55,1.65,6.92.37,1.23.81,2.58,1.34,4.01,0,.08.02.16.06.23,0,0,0,0,0,.01.01.02.03.04.05.07.49,1.3,1.04,2.66,1.67,4.07.9,2.02,1.96,4.13,3.2,6.28,3.23,5.58,7.72,11.4,13.89,16.39-.9,1.01-1.71,2.08-2.48,3.16ZM76.01,236.22c.92-.53,1.24-1.72.71-2.64-.53-.92-1.72-1.24-2.64-.7-.92.53-1.24,1.72-.7,2.64.53.92,1.72,1.24,2.64.7ZM64.24,215.92c.92-.53,1.24-1.72.71-2.64-.53-.92-1.72-1.24-2.64-.7-.92.53-1.24,1.72-.7,2.64.53.92,1.72,1.24,2.64.7Z"/>
        <path class="cls-8" d="M96.31,234.09c-4.4.7-7.48,2.79-9.92,5.34-2.85-2.3-5.33-4.78-7.49-7.33,3.72.13,11.32,1.13,17.41,1.99Z"/>
        <path class="cls-8" d="M67.44,211.87c-.38-1.08-.71-2.11-1-3.06-1.02-3.41-1.47-5.91-1.63-6.86,3.37-.86,6.66-2.5,9.42-5.91,0,0,0,0,0,0-2.22,5.57-5.06,12.46-6.8,15.85Z"/>
        <path class="cls-8" d="M86.32,214.45c-2.58,4.55-7.31,14.09-8.45,16.4-3.71-4.63-6.4-9.42-8.34-13.77-.53-1.19-1-2.34-1.43-3.45,2.81.17,12.49.75,17.73.81.17,0,.33,0,.49,0Z"/>
        <path class="cls-11" d="M82.04,205.07c.96,2.6,2.21,5.44,3.83,8.39-5.2-.06-14.92-.64-17.72-.81,2.45-4.61,7.16-16.56,9.27-21.98.31-.7.6-1.45.88-2.24.12,1.51.36,3.58.82,6.04,0,.01-.01.03-.02.04-.06.17-.03.36.1.5,0,0,.02.02.03.03.52,2.63,1.28,5.67,2.42,8.93.13.36.26.72.4,1.09Z"/>
        <path class="cls-11" d="M99.92,230.6c1.55,1.29,3.21,2.55,4.99,3.76-.83-.15-1.63-.27-2.4-.36-5.74-.87-18.46-2.72-23.67-2.89,1.24-2.52,5.57-11.21,8.1-15.76,3.01,5.04,7.12,10.3,12.74,15.05.05.09.14.16.24.2Z"/>
        <path class="cls-3" d="M143.88,181.09c12.9,22.27,18.74,39.62,15.9,41.26-2.83,1.64-14.99-12.05-27.89-34.32-12.9-22.27-18.74-39.62-15.91-41.26,2.84-1.64,14.99,12.05,27.89,34.32Z"/>
        <path class="cls-3" d="M159.84,223.39c-.03,2.73-.7,4.54-1.95,5.27-.31.18-.65.29-1.02.35-.05,0-.1,0-.15.02-1.63.18-3.8-.72-6.35-2.54-7.17-5.11-17.25-17.4-26.21-32.64-.19-.33-.39-.66-.58-.99-11.3-19.51-17.63-38.41-15.6-45.26.17-.58.4-1.07.7-1.48.04-.04.07-.07.09-.12.06-.07.12-.14.18-.21.19-.2.4-.37.63-.5,1.27-.73,3.13-.42,5.54.92-3.5,3.61,5.4,24.16,15.92,42.32,10.52,18.15,23.93,36.1,28.79,34.86ZM146.27,218.62c1.08-.63,1.45-2.01.83-3.1s-2.02-1.45-3.1-.82c-1.08.63-1.45,2.01-.82,3.09.63,1.08,2.02,1.45,3.09.82ZM134.22,202.7c1.08-.63,1.45-2.02.83-3.1-.63-1.08-2.02-1.45-3.1-.82-1.08.63-1.45,2.01-.82,3.09.63,1.08,2.02,1.45,3.09.82ZM122.47,182.42c1.08-.63,1.45-2.02.83-3.1-.63-1.08-2.02-1.45-3.1-.83-1.08.63-1.45,2.02-.82,3.1.63,1.08,2.02,1.45,3.09.82ZM114.64,164.05c1.08-.63,1.45-2.02.83-3.1-.63-1.08-2.02-1.45-3.1-.82-1.08.63-1.45,2.02-.82,3.09.63,1.08,2.02,1.45,3.1.83Z"/>
        <path class="cls-8" d="M140.2,220.5c-4.99,6.2-19.41,16.12-21.03,17.22-2.51-.19-4.93-.64-7.16-1.43-1.53-.53-2.97-.97-4.33-1.32-2.15-1.33-4.14-2.74-5.98-4.2.8.02,1.68-.02,2.64-.11,10.78-1.01,30.5-8.31,36.09-10.45-.07.1-.15.19-.23.29Z"/>
        <path class="cls-8" d="M154.94,229.83c-5.11,2.22-20.73,8.45-34.16,7.98,3.85-2.66,15.65-11.04,20.2-16.71.3-.38.57-.74.81-1.1,2.88,3.1,5.59,5.56,8.02,7.27,1.9,1.33,3.62,2.2,5.13,2.56Z"/>
        <path class="cls-8" d="M140.86,218.99c-4.07,1.57-25.53,9.66-36.63,10.7-1.15.11-2.18.14-3.08.08,1.83-1.87,7.12-7.2,14.09-13.65,4.18-3.87,8.98-8.14,13.99-12.31,3.95,5.9,7.91,11.05,11.62,15.18Z"/>
        <path class="cls-8" d="M114.58,215.4c-7.53,6.96-13.09,12.61-14.49,14.05-5.57-4.77-9.62-10.02-12.56-15.05,2.59-.37,6.29-1.17,10.44-2.19,10.54-2.56,23.95-6.44,29.24-8-4.52,3.81-8.83,7.66-12.63,11.18Z"/>
        <path class="cls-8" d="M128.57,202.79c-3.33.99-18.94,5.58-30.82,8.47-3.64.88-6.93,1.61-9.41,2.02,2.38-2.92,6.28-7.07,10.47-11.35,7.75-7.91,16.51-16.31,18.64-18.34,1.6,3.18,3.37,6.45,5.29,9.76.19.33.39.66.58.99,1.73,2.95,3.49,5.78,5.25,8.45Z"/>
        <path class="cls-8" d="M86.96,213.42c-1.71-3.06-3.01-6.01-4.01-8.68-.13-.35-.26-.7-.37-1.05-1.1-3.15-1.85-6.1-2.36-8.66,2.05-.53,9.65-2.53,19.32-5.57,4.94-1.55,10.43-3.37,15.98-5.4-3.29,3.15-10.73,10.34-17.43,17.19-4.58,4.68-8.82,9.21-11.13,12.17Z"/>
        <path class="cls-8" d="M116.89,182.51c-6.12,2.28-12.2,4.31-17.64,6.02-9.06,2.84-16.31,4.78-18.85,5.44.33-.67.76-1.4,1.28-2.16,6.13-9.07,24.38-24.12,27.82-26.92,1.73,5.28,4.23,11.27,7.39,17.63Z"/>
        <path class="cls-8" d="M79.84,192.93c-.67-4.08-.7-6.8-.71-7.2.05-.17.09-.34.14-.52.32-1.21.61-2.51.87-3.91.43-2.33,1.24-4.65,2.32-6.93,1.76-.86,17.53-8.44,25.4-9.68.12-.02.25-.04.37-.05-4.72,3.86-21.36,17.75-27.34,26.59-.4.59-.75,1.15-1.05,1.7Z"/>
        <path class="cls-8" d="M109.08,163.57c-.42.03-.87.08-1.35.16-7.19,1.13-20.33,7.2-24.55,9.22,6.27-11.89,19.44-22.34,23.91-25.67-1,3.38-.25,9.12,1.98,16.29Z"/>
        <g>
          <path class="cls-18" d="M147.09,215.53c-.63-1.08-2.02-1.45-3.1-.82-1.08.63-1.45,2.01-.82,3.09.63,1.08,2.02,1.45,3.09.82,1.08-.63,1.45-2.01.83-3.1ZM144.02,217.31c-.35-.61-.14-1.4.47-1.75.61-.36,1.4-.15,1.75.46.35.61.14,1.4-.47,1.75-.61.35-1.4.14-1.75-.47Z"/>
          <path class="cls-18" d="M68.66,241.31c.5.87,1.62,1.16,2.49.66.87-.5,1.17-1.62.66-2.48-.5-.87-1.62-1.16-2.48-.66-.87.5-1.17,1.62-.66,2.49ZM70.96,239.98c.23.4.09.91-.3,1.14-.4.23-.91.1-1.14-.3-.23-.4-.09-.91.31-1.14.4-.23.91-.09,1.14.3Z"/>
          <path class="cls-18" d="M73.37,235.52c.53.92,1.72,1.24,2.64.7.92-.53,1.24-1.72.71-2.64-.53-.92-1.72-1.24-2.64-.7-.92.53-1.24,1.72-.7,2.64ZM75.86,234.07c.26.45.11,1.03-.35,1.3-.45.26-1.03.11-1.3-.35-.26-.45-.11-1.03.35-1.3.45-.26,1.04-.11,1.3.34Z"/>
          <path class="cls-18" d="M135.05,199.61c-.63-1.08-2.02-1.45-3.1-.82-1.08.63-1.45,2.01-.82,3.09.63,1.08,2.02,1.45,3.09.82,1.08-.63,1.45-2.02.83-3.1ZM131.98,201.39c-.35-.61-.14-1.4.47-1.75s1.4-.15,1.75.46c.35.61.14,1.4-.47,1.75s-1.4.14-1.75-.47Z"/>
          <path class="cls-18" d="M62.67,228.15c-.5-.87-1.62-1.17-2.48-.66-.87.5-1.17,1.62-.66,2.48.5.87,1.62,1.16,2.48.66.87-.5,1.17-1.62.66-2.48ZM60.38,229.48c-.23-.4-.09-.91.3-1.14.4-.23.91-.09,1.14.3.23.4.09.91-.3,1.14-.4.23-.91.09-1.14-.3Z"/>
          <path class="cls-18" d="M64.95,213.27c-.53-.92-1.72-1.24-2.64-.7-.92.53-1.24,1.72-.7,2.64.53.92,1.72,1.24,2.64.7.92-.53,1.24-1.72.71-2.64ZM62.45,214.72c-.26-.45-.11-1.03.35-1.3.45-.26,1.04-.11,1.3.34.26.45.11,1.03-.35,1.3-.45.26-1.03.11-1.3-.35Z"/>
          <path class="cls-18" d="M123.29,179.32c-.63-1.08-2.02-1.45-3.1-.83-1.08.63-1.45,2.02-.82,3.1.63,1.08,2.02,1.45,3.09.82,1.08-.63,1.45-2.02.83-3.1ZM120.22,181.1c-.36-.61-.15-1.4.46-1.75.61-.35,1.4-.15,1.75.47.35.61.14,1.4-.47,1.75-.61.35-1.4.14-1.75-.47Z"/>
          <path class="cls-18" d="M57.38,214.59c-.5-.87-1.62-1.16-2.48-.66-.87.5-1.17,1.62-.66,2.49.5.87,1.62,1.16,2.49.66.87-.5,1.16-1.62.66-2.48ZM55.08,215.92c-.23-.4-.09-.91.31-1.14.4-.23.91-.09,1.14.3.23.4.09.91-.3,1.14-.4.23-.91.1-1.14-.3Z"/>
          <path class="cls-18" d="M115.47,160.95c-.63-1.08-2.02-1.45-3.1-.82-1.08.63-1.45,2.02-.82,3.09.63,1.08,2.02,1.45,3.1.83,1.08-.63,1.45-2.02.83-3.1ZM112.4,162.73c-.35-.61-.14-1.4.47-1.75.61-.36,1.4-.15,1.75.46.36.61.15,1.4-.47,1.75-.61.35-1.4.14-1.75-.47Z"/>
          <path class="cls-18" d="M160.82,222.77s0-.02,0-.04c3.05-4.08-5.73-24.27-16.08-42.13-10.58-18.26-24.08-36.3-28.88-34.83,0-.17-.1-.32-.25-.41-2.74-1.53-4.93-1.84-6.52-.92-.31.18-.58.4-.83.67-.08.09-.16.18-.24.28-1.5,1.03-25.55,17.91-28.85,35.74-.26,1.38-.54,2.67-.86,3.87-.05.17-.09.34-.14.51,0,.02-.02.05-.02.08-.19.7-.4,1.36-.6,2,0,.01-.02.02-.02.04-.02.05-.47,1.24-1.2,3.09-.85,1.88-1.8,3.43-2.83,4.71-2.69,3.34-5.91,4.87-9.3,5.66-.03,0-.07.01-.1.02-1.47.33-2.97.54-4.46.69-7.61.77-8.11.94-8.8,3.1l-.05.17c-.7,2.16-1.72,13,6.07,26.45,7.79,13.45,17.7,17.95,19.93,18.42l.17.04c2.22.48,2.62.13,7.07-6.09,3.68-5.15,8.15-9.9,17.91-8.97,1.97.3,3.23.49,3.28.5.01,0,.03,0,.04,0,.65.13,1.33.29,2.02.47.03.01.07.02.1.03,1.34.35,2.77.78,4.28,1.31,17.11,6,43.71-6.48,45.35-7.26.49-.07.94-.22,1.35-.46,1.69-.98,2.51-3.25,2.44-6.74ZM143.88,181.09c12.9,22.27,18.74,39.62,15.9,41.26-2.83,1.64-14.99-12.05-27.89-34.32-12.9-22.27-18.74-39.62-15.91-41.26,2.84-1.64,14.99,12.05,27.89,34.32ZM107.1,147.27c-1,3.38-.25,9.12,1.98,16.29-.42.03-.87.08-1.35.16-7.19,1.13-20.33,7.2-24.55,9.22,6.27-11.89,19.44-22.34,23.91-25.67ZM79.13,185.73c.05-.17.09-.34.14-.52.32-1.21.61-2.51.87-3.91.43-2.33,1.24-4.65,2.32-6.93,1.76-.86,17.53-8.44,25.4-9.68.12-.02.25-.04.37-.05-4.72,3.86-21.36,17.75-27.34,26.59-.4.59-.75,1.15-1.05,1.7-.67-4.08-.7-6.8-.71-7.2ZM114.58,215.4c-7.53,6.96-13.09,12.61-14.49,14.05-5.57-4.77-9.62-10.02-12.56-15.05,2.59-.37,6.29-1.17,10.44-2.19,10.54-2.56,23.95-6.44,29.24-8-4.52,3.81-8.83,7.66-12.63,11.18ZM129.24,203.81c3.95,5.9,7.91,11.05,11.62,15.18-4.07,1.57-25.53,9.66-36.63,10.7-1.15.11-2.18.14-3.08.08,1.83-1.87,7.12-7.2,14.09-13.65,4.18-3.87,8.98-8.14,13.99-12.31ZM97.74,211.27c-3.64.88-6.93,1.61-9.41,2.02,2.38-2.92,6.28-7.07,10.47-11.35,7.75-7.91,16.51-16.31,18.64-18.34,1.6,3.18,3.37,6.45,5.29,9.76.19.33.39.66.58.99,1.73,2.95,3.49,5.78,5.25,8.45-3.33.99-18.94,5.58-30.82,8.47ZM77.87,230.85c-3.71-4.63-6.4-9.42-8.34-13.77-.53-1.19-1-2.34-1.43-3.45,2.81.17,12.49.75,17.73.81.17,0,.33,0,.49,0-2.58,4.55-7.31,14.09-8.45,16.4ZM98.1,201.25c-4.58,4.68-8.82,9.21-11.13,12.17-1.71-3.06-3.01-6.01-4.01-8.68-.13-.35-.26-.7-.37-1.05-1.1-3.15-1.85-6.1-2.36-8.66,2.05-.53,9.65-2.53,19.32-5.57,4.94-1.55,10.43-3.37,15.98-5.4-3.29,3.15-10.73,10.34-17.43,17.19ZM99.25,188.52c-9.06,2.84-16.31,4.78-18.85,5.44.33-.67.76-1.4,1.28-2.16,6.13-9.07,24.38-24.12,27.82-26.92,1.73,5.28,4.23,11.27,7.39,17.63-6.12,2.28-12.2,4.31-17.64,6.02ZM77.41,190.68c.31-.7.6-1.45.88-2.24.12,1.51.36,3.58.82,6.04,0,.01-.01.03-.02.04-.06.17-.03.36.1.5,0,0,.02.02.03.03.52,2.63,1.28,5.67,2.42,8.93.13.36.26.72.4,1.09.96,2.6,2.21,5.44,3.83,8.39-5.2-.06-14.92-.64-17.72-.81,2.45-4.61,7.16-16.56,9.27-21.98ZM74.24,196.03s0,0,0,0c-2.22,5.57-5.06,12.46-6.8,15.85-.38-1.08-.71-2.11-1-3.06-1.02-3.41-1.47-5.91-1.63-6.86,3.37-.86,6.66-2.5,9.42-5.91ZM81.58,245.6c-2.75,3.76-3.05,3.7-4.41,3.41l-.17-.04c-2.14-.45-11.67-4.81-19.28-17.95-7.61-13.14-6.66-23.58-5.99-25.65l.05-.17c.42-1.33.52-1.61,5.18-2.13.13,1.86.76,8.45,3.5,16.13,1.03,2.88,2.43,6.12,4.34,9.42,3.56,6.15,8.88,12.48,16.77,16.98ZM85.72,240.15c-.9,1.01-1.71,2.08-2.48,3.16-.39.54-.74,1.04-1.07,1.49-11.9-6.76-17.86-17.79-20.76-25.9-2.74-7.65-3.34-14.2-3.46-15.94.54-.06,1.14-.12,1.8-.18,1.36-.13,2.74-.32,4.11-.61.17,1.04.63,3.55,1.65,6.92.37,1.23.81,2.58,1.34,4.01,0,.08.02.16.06.23,0,0,0,0,0,.01.01.02.03.04.05.07.49,1.3,1.04,2.66,1.67,4.07.9,2.02,1.96,4.13,3.2,6.28,3.23,5.58,7.72,11.4,13.89,16.39ZM86.38,239.42c-2.85-2.3-5.33-4.78-7.49-7.33,3.72.13,11.32,1.13,17.41,1.99-4.4.7-7.48,2.79-9.92,5.34ZM102.51,234c-5.74-.87-18.46-2.72-23.67-2.89,1.24-2.52,5.57-11.21,8.1-15.76,3.01,5.04,7.12,10.3,12.74,15.05.05.09.14.16.24.2,1.55,1.29,3.21,2.55,4.99,3.76-.83-.15-1.63-.27-2.4-.36ZM112.01,236.29c-1.53-.53-2.97-.97-4.33-1.32-2.15-1.33-4.14-2.74-5.98-4.2.8.02,1.68-.02,2.64-.11,10.78-1.01,30.5-8.31,36.09-10.45-.07.1-.15.19-.23.29-4.99,6.2-19.41,16.12-21.03,17.22-2.51-.19-4.93-.64-7.16-1.43ZM120.78,237.81c3.85-2.66,15.65-11.04,20.2-16.71.3-.38.57-.74.81-1.1,2.88,3.1,5.59,5.56,8.02,7.27,1.9,1.33,3.62,2.2,5.13,2.56-5.11,2.22-20.73,8.45-34.16,7.98ZM156.87,229.01c-.05,0-.1,0-.15.02-1.63.18-3.8-.72-6.35-2.54-7.17-5.11-17.25-17.4-26.21-32.64-.19-.33-.39-.66-.58-.99-11.3-19.51-17.63-38.41-15.6-45.26.17-.58.4-1.07.7-1.48.04-.04.07-.07.09-.12.06-.07.12-.14.18-.21.19-.2.4-.37.63-.5,1.27-.73,3.13-.42,5.54.92-3.5,3.61,5.4,24.16,15.92,42.32,10.52,18.15,23.93,36.1,28.79,34.86-.03,2.73-.7,4.54-1.95,5.27-.31.18-.65.29-1.02.35Z"/>
        </g>
      </g>
      <g>
        <path class="cls-23" d="M130.56,162.19s13.01,6.77,14.63,19.91c-4.12,1.06-5.57,2.77-4.11,3.43,1.46.66,5.15-.69,5.15-.69,0,0,.92,7.38,2.92,7.46,2.39.09,1.08-5.77,1.08-5.77,0,0,1.4,6.24,3.92,5.84,2.52-.4-1.25-6.02-1.25-6.02,0,0,4.92,5.58,6.79,4.79,2-.85-3.74-5.59-3.74-5.59,0,0,3.33,2.17,4.66.98,1.19-1.07-5.72-4.43-8.38-5.49-5.21-15.98-13.45-21.07-18.29-24.07-2.07,2.83-3.37,5.22-3.37,5.22Z"/>
        <path class="cls-23" d="M83.38,172.6s-10.53,7.89-5.8,20.43c4.12,1.06,5.76,3.24,4.3,3.9-1.46.66-5.03-1.28-5.03-1.28,0,0,.16,8.04-2.23,7.91-2.39-.13-1.55-6.02-1.55-6.02,0,0-1.88,6.23-4.4,5.83-2.52-.4,1.28-6.51,1.28-6.51,0,0-4.84,6.02-6.48,5.01-1.73-1.07,3.58-5.98,3.58-5.98,0,0-4.66,3.2-5.66,1.72-1.02-1.5,6.18-4.84,8.83-5.9-1.33-11.99,1.88-16.76,7.54-23.66,2.58,2.92,5.62,4.56,5.62,4.56Z"/>
      </g>
    </g>
  </g>
</svg>