<?xml version="1.0" encoding="UTF-8"?>
<svg id="Layer_2" data-name="Layer 2" xmlns="http://www.w3.org/2000/svg" viewBox="0 0 171.45 312.04">
  <defs>
    <style>
      .cls-1 {
        fill: #eaad85;
      }

      .cls-2 {
        fill: #784e4f;
      }

      .cls-3 {
        fill: #d07e64;
      }

      .cls-4 {
        fill: #eb9d85;
      }

      .cls-5 {
        fill: #231f20;
      }

      .cls-6 {
        fill: #6e3e3e;
      }

      .cls-7 {
        fill: #fbd3c4;
      }

      .cls-8 {
        fill: #cb3b70;
      }

      .cls-9 {
        fill: #dfe0e1;
      }

      .cls-10 {
        fill: #7ca9c0;
      }

      .cls-11 {
        fill: #e2a268;
      }

      .cls-12 {
        fill: #fff;
      }

      .cls-13 {
        fill: #824025;
      }

      .cls-14 {
        fill: #4f2929;
      }

      .cls-15 {
        fill: #d9dbdc;
      }

      .cls-16 {
        fill: #562512;
      }

      .cls-17 {
        fill: #ce7754;
      }

      .cls-18 {
        fill: #00b7d4;
      }

      .cls-19 {
        fill: #d5956a;
      }

      .cls-20 {
        fill: #fbc6a4;
      }

      .cls-21 {
        fill: #f8af9a;
      }

      .cls-22 {
        fill: #ef5b88;
      }

      .cls-23 {
        fill: #fcd8c1;
      }

      .cls-24 {
        fill: #ab255c;
      }

      .cls-25 {
        fill: #f9bdab;
      }
    </style>
  </defs>
  <g id="Layer_1-2" data-name="Layer 1">
    <g>
      <path class="cls-20" d="M100.12,152.11s.2.51.22,3.69c1.2.48,14.08,2.58,14.71,2.85-.36,2.08,1.02,20.89-15.34,21.68-20.21.97-18.75-18.88-19.97-20.7,1.13-.39,13.83-3.52,14.54-3.82.04-2.58.02-1.06.11-3.73,2.99.24,5.73.04,5.73.04Z"/>
      <path class="cls-1" d="M94.27,155.8c.04-2.58.02-1.06.11-3.73,2.99.24,5.73.04,5.73.04,0,0,.19.5.22,3.52-.88.18-1.82.29-2.83.34-1.29.06-2.48.04-3.6-.06.18-.05.31-.09.37-.12Z"/>
      <path class="cls-20" d="M102.46,246.3c-.36,19.79,2.78,50.37,1.53,57.99,3.67.88,17.12,6.54,18.45,1.48,1.1-4.2-12.33-5.2-12.46-9.02-.35-10.54-.99-31.06-.51-50.59-2.79-.44-7.01.14-7.01.14Z"/>
      <g>
        <path class="cls-9" d="M104.29,302.82c-.54.53-.84,2.16-.3,2.97.92.91,5.7,3.67,11.86,5.71,2.78.92,6.4.84,9.03-1.74.52-.5,1.03-2.12-.14-3.37-1.84,1.84-5.9,1.8-10.49,1.26-6.12-.71-9.96-4.83-9.97-4.83Z"/>
        <path class="cls-22" d="M104.3,298.58s2.51,3.54,9.91,5.95c.22-1.15,1.73-2.91,3.32-3.06,3.33.27,8.25,3.82,7.53,5.51-1.16,1.61-4.49,4.16-10.54,2.12-7-2.36-9.63-4.75-10.43-5.37-.8-.63-1.3-5.15.21-5.15Z"/>
      </g>
      <path class="cls-20" d="M98.85,246.3c.36,19.79-2.78,50.37-1.53,57.99-3.67.88-17.12,6.54-18.45,1.48-1.1-4.2,12.33-5.2,12.46-9.02.35-10.54.99-31.06.51-50.59,2.79-.44,7.01.14,7.01.14Z"/>
      <g>
        <path class="cls-9" d="M97.01,302.82c.54.53.84,2.16.3,2.97-.92.91-5.7,3.67-11.86,5.71-2.78.92-6.4.84-9.03-1.74-.52-.5-1.03-2.12.14-3.37,1.84,1.84,5.9,1.8,10.49,1.26,6.12-.71,9.96-4.83,9.96-4.83Z"/>
        <path class="cls-22" d="M97.01,298.58s-2.51,3.54-9.91,5.95c-.22-1.15-1.73-2.91-3.32-3.06-3.33.27-8.25,3.82-7.53,5.51,1.16,1.61,4.49,4.16,10.54,2.12,7-2.36,9.63-4.75,10.43-5.37.8-.63,1.3-5.15-.21-5.15Z"/>
      </g>
      <g>
        <path class="cls-8" d="M119.06,203.97c17.07,4.41,25.02,40.82,27.53,48.4,0,0,.21,2.31-7.6,1.41.21,2.31-.96,4.82-5.38,4.28-1.77-.22-6.7-2.08-10.34-1.71.73,4.05-7.61,4.45-11.36,3.95-5.01-.67-7.92-3.52-10.29-3.52-5.56-.01-8.09,3.24-13.89,3.43-6.2.2-8.13-.9-9.09-3.22-4.34-.87-16.58.7-17.87-2.01,1.93-3.11-5.14-2.31-5.57-4.32,0,0,10.2-39.78,23.53-46.69,0,0,40.29-.86,40.31,0Z"/>
        <path class="cls-22" d="M118.95,205.29c13.4,1.13,24.59,40.2,27.1,47.78,0,0-.64,1.1-3.53.8-.59-.06-13.16-32.23-20.76-39.46,8.24,12.25,17.56,41.56,16.69,41.46-.43,1.91-1.6,2.11-4.84,2.17-.88-.11-2.56-.63-4.47-1.07-.95-.22-10.48-28.61-15.19-38.55,4.71,12.95,8.82,40.37,7.92,40.46-1.6,1.5-6.21,1.91-9.95,1.41-3.49-.47-5.96-1.99-7.94-2.88-.3-.13-2.91-38.99-3.19-39.09-.52-.18-.29,38.16-.75,38.25-5.35,1.1-6.53,3.15-12.3,3.62-3.75.3-6.2-.1-7.92-1.71.43-3.01,3-26.5,5.78-37.15-4.07,10.34-11.65,35.34-12.41,35.33-5.19-.01-10.17.11-11.34-1,.73-1.17,4.49-22.59,13.8-37.35-12.3,12.05-16.88,34.04-17.53,33.87-1.37-.35-2.73-.7-2.91-1.54,0,0,14.17-43.62,23.68-45.29,0,0,23.56,6.41,40.05-.08Z"/>
        <path class="cls-24" d="M138.88,253.81l.23-.06c-.06-.22-6.34-21.91-17.45-39.69l-.21.12c11.1,17.75,17.36,39.41,17.43,39.63Z"/>
        <path class="cls-24" d="M60.9,255.01c.06-.24,6.62-24.22,14.86-36.61l-.21-.12c-8.26,12.42-14.82,36.44-14.88,36.68l.23.05Z"/>
        <path class="cls-24" d="M78.77,257.01c.03-.24,3.47-23.92,6.95-35.63l-.23-.06c-3.49,11.71-6.92,35.42-6.96,35.66l.24.03Z"/>
        <path class="cls-24" d="M123.17,256.36l.24-.03c-.03-.22-3.4-21.95-9.33-37.93l-.23.07c5.92,15.97,9.29,37.67,9.32,37.89Z"/>
        <path class="cls-24" d="M102.28,256.89h.24c0-.2-.33-20.63-1.39-33.04l-.24.02c1.06,12.4,1.39,32.82,1.39,33.02Z"/>
      </g>
      <path class="cls-22" d="M82.07,158.82s-.57,19.38,17.5,18.5c8.28-.4,13.99-5.17,13.2-19.32,0,0,3.82.66,6.82,1.21,0,0,2.3,36.69-.53,44.77-8.91,3.42-32.15,3.83-40.31,0-2.42-3.18-2.9-42.99-3.33-43.31,1.88-.64,6.65-1.84,6.65-1.84Z"/>
      <path class="cls-8" d="M118.73,185.65s0,9.99-.83,16.99c-6.66,3.33-32.32,3.33-38.48.17-.83-11.66-1.5-22.16-1.5-22.16,0,0,2.5,20.66,20.82,21.66,18.32,1,19.99-16.66,19.99-16.66Z"/>
      <path class="cls-1" d="M119.7,159.78s23.75,33.72,18.96,37.52c-3.46,2.74-18.36-21.47-18.36-21.47l-.6-16.05Z"/>
      <path class="cls-1" d="M75.49,161.39s-16.06,34.38-10.19,35.19c4.36.6,6.22-3.23,6.22-3.23l4.78-14.87-.81-17.08Z"/>
      <g>
        <path class="cls-6" d="M41.21,132.33c-.41.64-.23,11.69,8.63,13.21-5.37,2.38-6.29,10.89-.19,13.45-7.05.21-6.73,5.8-4.81,10.03-6.74-2.97-12.07,4.17-8.15,9.44-4.91,5.49-11.87,10.21-22.62,8.21,2.46,4.13,11.04,4.82,11.04,4.82,0,0-1.5,3.88-9.55,5.07,11.78,3.77,18.68-.73,23.94-15.39,5.27,3.85,11.55-5.06,8.75-10.78,7.88.51,9.21-7.65,6-10.72,9.3-3.13,6.01-14.72.54-14.86,7.14-5.43,7.24-15.65.98-18.5-9.51-.94-14.55,6.04-14.55,6.04Z"/>
        <path class="cls-18" d="M36.09,177.26s-4.84,1.71-3.43,4.98c1.78,4.64,5.59,4.31,5.59,4.31,0,0,3.6-.27,3.83-4.74-2.59-.65-5.99-4.55-5.99-4.55Z"/>
      </g>
      <g>
        <path class="cls-6" d="M144.42,119.61c.41.64.2,11.69-8.66,13.19,5.36,2.39,6.26,10.91.16,13.44,7.05.23,6.72,5.82,4.79,10.05,6.74-2.96,12.06,4.2,8.13,9.46,4.9,5.5,11.85,10.23,22.6,8.26-2.47,4.13-11.05,4.79-11.05,4.79,0,0,1.49,3.88,9.54,5.09-11.79,3.75-18.69-.77-23.9-15.45-5.28,3.83-11.54-5.08-8.73-10.79-7.88.49-9.19-7.67-5.97-10.74-9.3-3.15-5.98-14.74-.51-14.86-7.13-5.45-7.2-15.67-.93-18.5,9.51-.92,14.53,6.07,14.53,6.07Z"/>
        <path class="cls-18" d="M149.44,164.55s4.84,1.72,3.42,4.99c-1.79,4.63-5.6,4.29-5.6,4.29,0,0-3.59-.28-3.82-4.75,2.6-.64,6-4.53,6-4.53Z"/>
      </g>
      <g>
        <g>
          <path class="cls-20" d="M148.76,59.9c8.51,16.36,18.08,68.22-28.12,87.98-45.95,19.66-77.45-9.29-90.02-41.4-15.17-38.74,12.34-68.76,39.86-77.2,42.94-13.18,66.89,8.71,78.28,30.63Z"/>
          <path class="cls-21" d="M132.89,103.43c.82,4.31,7.67,6.54,13.92,3.83,6.23-2.72,8.8-8.54,7.51-13.62-1.17-4.64-7.73-7.44-13.34-1.58-5.24,5.48-8.93,6.9-8.08,11.37Z"/>
          <path class="cls-7" d="M148.78,93.54c.12.56.82.88,1.54.72.72-.17,1.21-.75,1.08-1.31-.13-.55-.82-.87-1.54-.71-.73.16-1.21.75-1.09,1.31Z"/>
          <path class="cls-23" d="M110.39,97.55c.13.56.92.86,1.78.66.86-.19,1.44-.8,1.32-1.35-.13-.56-.92-.85-1.78-.66-.85.19-1.45.8-1.32,1.36Z"/>
          <path class="cls-21" d="M61.23,121.85c1.52,5.8,7.99,8.66,15.7,7.4,7.44-1.22,13.72-8.35,11.24-13.52-2.37-4.91-6-2.23-15.17-3.51-8.88-1.24-13.29,3.83-11.76,9.63Z"/>
          <path class="cls-7" d="M65.78,117.71c.14.53.81.81,1.49.63.68-.18,1.13-.75.99-1.28-.14-.52-.81-.81-1.49-.63-.68.18-1.12.76-.99,1.29Z"/>
          <path class="cls-14" d="M131.22,59.99c-7.08-1.48-7.99,6.27-3.39,5.96,4.95-.34,9.21,1.18,9.79.65,1.29-1.14-2.42-5.78-6.41-6.61Z"/>
          <path class="cls-14" d="M66.71,78.79c5.54-4.65,10.01,1.73,5.81,3.64-4.52,2.05-7.56,5.39-8.32,5.21-1.68-.4-.61-6.24,2.51-8.86Z"/>
          <path class="cls-17" d="M112.95,104.18c.09.02.17.01.24-.03,2.22-1.34,3.2-3.49,2.61-5.76-.54-2.1-2.32-3.72-4.14-3.79-1.14-.04-3.24.48-4.56,4.41-.06.18.04.37.21.43.2.07.37-.03.43-.21.88-2.61,2.26-4.01,3.89-3.95,1.55.05,3.05,1.47,3.52,3.29.25.94.51,3.32-2.3,5.01-.16.11-.21.3-.11.46.05.09.12.13.21.15Z"/>
          <g>
            <path class="cls-1" d="M87.57,86.44c5.25,3.77,6.62,10.84,3.06,15.81-3.56,4.96-10.7,5.92-15.96,2.16-5.25-3.78-6.63-10.86-3.06-15.82,3.56-4.96,10.7-5.92,15.96-2.15Z"/>
            <path class="cls-1" d="M76.96,103.23c-3.39,1.41-3.72,3.23-.73,4.1,2.99.85,8.17.4,11.55-1,3.39-1.42,3.71-3.25.73-4.11-2.99-.86-8.16-.4-11.55,1.01Z"/>
            <path class="cls-12" d="M87.83,85.99c5.12,3.68,6.46,10.57,2.99,15.41-3.46,4.84-10.43,5.77-15.55,2.09-5.12-3.67-6.45-10.57-2.99-15.4,3.47-4.83,10.44-5.77,15.55-2.09Z"/>
            <path class="cls-15" d="M71.95,93.4c.15,2.96,1.65,5.89,4.33,7.82,4.54,3.26,10.71,2.43,13.78-1.85.86-1.2,1.38-2.55,1.59-3.94.11,2.04-.43,4.08-1.68,5.83-3.07,4.28-9.24,5.11-13.78,1.85-3.26-2.35-4.78-6.16-4.24-9.71Z"/>
            <path class="cls-10" d="M85.88,92.84c1.07,3.24-.53,6.69-3.6,7.7-3.06,1.02-6.41-.78-7.48-4.03-1.08-3.24.53-6.69,3.59-7.71,3.07-1.01,6.41.79,7.49,4.03Z"/>
            <path class="cls-5" d="M83.76,93.45c.66,2.01-.33,4.14-2.23,4.78-1.89.63-3.96-.5-4.63-2.5-.66-2.01.33-4.14,2.22-4.77,1.89-.63,3.96.49,4.64,2.49Z"/>
            <path class="cls-12" d="M83.24,91.32c.27.83-.14,1.7-.92,1.95-.78.25-1.63-.2-1.9-1.03-.27-.82.13-1.7.91-1.95.78-.26,1.63.2,1.91,1.03Z"/>
            <path class="cls-12" d="M80.04,97.7c.17.5-.08,1.03-.55,1.18-.47.16-.98-.13-1.15-.62-.17-.49.09-1.02.55-1.18.47-.16.98.11,1.15.61Z"/>
          </g>
          <g>
            <path class="cls-1" d="M120.1,79.94c-.38,6.11,3.98,11.37,9.75,11.74,5.77.37,10.77-4.3,11.15-10.41.39-6.12-3.97-11.37-9.75-11.75-5.77-.36-10.76,4.3-11.16,10.42Z"/>
            <path class="cls-1" d="M126.41,89.16c-3.19,1.33-3.5,3.05-.69,3.86,2.82.8,7.69.38,10.88-.95,3.2-1.33,3.51-3.06.69-3.86-2.82-.8-7.68-.38-10.88.95Z"/>
            <path class="cls-12" d="M121.24,79.84c-.38,6.05,3.93,11.24,9.64,11.61,5.71.36,10.65-4.24,11.03-10.29.39-6.06-3.92-11.24-9.63-11.61-5.7-.36-10.64,4.25-11.03,10.3Z"/>
            <path class="cls-15" d="M122.64,80.56c.08-1.19.38-2.32.83-3.35-.15.6-.25,1.24-.3,1.88-.33,5.32,3.46,9.88,8.48,10.21,2.98.19,5.7-1.19,7.51-3.44-1.66,2.97-4.77,4.91-8.23,4.69-4.91-.32-8.62-4.78-8.3-9.99Z"/>
            <path class="cls-10" d="M124.13,81.91c1.03,3.11,4.25,4.84,7.19,3.87,2.95-.98,4.49-4.29,3.46-7.4-1.04-3.12-4.26-4.85-7.2-3.88-2.94.97-4.48,4.29-3.45,7.41Z"/>
            <path class="cls-5" d="M126.44,81.16c.62,1.86,2.54,2.9,4.31,2.32,1.75-.59,2.68-2.57,2.07-4.43-.62-1.86-2.55-2.9-4.32-2.32-1.75.58-2.68,2.56-2.06,4.43Z"/>
            <path class="cls-12" d="M129.41,77.97c.26.8,1.07,1.23,1.82.98.74-.25,1.14-1.08.87-1.87-.26-.79-1.07-1.23-1.82-.99-.74.25-1.14,1.09-.87,1.87Z"/>
            <path class="cls-12" d="M127.17,83.27c.16.48.65.74,1.1.59.45-.15.69-.66.53-1.13-.15-.47-.65-.74-1.1-.59-.45.15-.7.66-.53,1.14Z"/>
          </g>
          <g>
            <path class="cls-4" d="M121.66,117.42c-3.85,5.46-18.17,8.5-25.42,2.5,8.86,16.83,26.14,8.42,25.42-2.5Z"/>
            <path class="cls-25" d="M103.99,123.91c-1.31-.3-2.11-.13-1.57.36.54.5,2.46,1.12,3.72.67,1.25-.45-.63-.67-2.15-1.03Z"/>
            <path class="cls-3" d="M96.33,120.05c6.54,9.91,22.57,7.26,25.34-2.62,0,.01,0,.02,0,.03-1.4,9.3-16.66,15.32-25.34,2.6Z"/>
          </g>
        </g>
        <g>
          <path class="cls-6" d="M91.23,27.18s7.95,15.79,9.86,31.47c-5.18,2.56-9.97,3.46-9.97,3.46l-12.38-25.18s8.27,19.35,7.93,26.02c-8.21,4.38-33.68,9.21-42.86,11.25,2.59,10.84,2.89,26.5-.1,44.37-3.42,1.59-12.65,4.27-12.65,4.27,0,0-32.88-27.74-30.97-66.31C1.33,31.24,39.44,14.66,39.44,14.66c0,0-15.05,1.91-13.52-4.05,1.53-5.95,17.79,1.35,17.79,1.35,0,0-5.77-8.03-1.04-11.13,6.77-4.44,5.66,10.25,5.66,10.25,0,0,25.24-11.7,54.26-9.96,26.36,1.58,46.44,9.41,48.29,64.1-5.08-6.27-11.63-19.51-11.63-19.51,0,0-16.63,6.97-28.49,9.84-7.1-18.78-19.54-28.38-19.54-28.38Z"/>
          <path class="cls-14" d="M4.05,62.56c2.02,21.95,5.29,27.93,28.71,59.98,5.76.49,11.38-16.62,6.03-46.74-5.77,29.4-20.83,24.7-34.74-13.24Z"/>
          <path class="cls-2" d="M105.61,1.36c-18.76,15.6-62.78,22.92-81.6,22.04C13.28,30.71.79,42.24.08,56.54c-.19,3.81-.02,7.52.4,11.1C57.56,21.4,118.7,21.69,142.08,24.31,134.24,7.61,121.3,2.73,105.61,1.36Z"/>
        </g>
        <g>
          <path class="cls-20" d="M42.47,113.09s-5.28-6.6-13.34-3.08c-8.49,3.69-4.91,16.47,3.72,21.06,8.62,4.58,18.13.49,17.39-6.75l-7.76-11.23Z"/>
          <path class="cls-19" d="M29.53,114.05c4.49-4.09,15.01,3.95,11.37,13.53-1.57-9.16-5.8-10.12-7.33-4.39-1.43-2.45-1.07-4.73,2.18-6.29-2.19-3.06-6.22-2.85-6.22-2.85Z"/>
        </g>
        <path class="cls-18" d="M133.44,31.2c1.69-6.78-.24-16.43-2.05-17.09-2.2.19-6.56,10.29-4.26,17.77,1.63,5.31,5.35,3.17,6.3-.68ZM130.2,31.08c-2.79-.33-.47-12.19.57-12.35.68-.1,1.25,4.31,1.2,6.67-.05,3.15-.51,5.83-1.76,5.67Z"/>
        <path class="cls-18" d="M33.41,55.34c-5.39-5.76-15.83-9.59-17.61-8.16-1.22,2.33,5.64,12.79,14.22,14.94,6.11,1.53,6.44-3.5,3.38-6.78ZM31.24,58.54c-2.12,2.62-11.93-6.84-11.41-7.97.34-.74,4.89,1.32,7.12,2.79,2.96,1.93,5.23,4,4.29,5.18Z"/>
      </g>
      <g>
        <path class="cls-13" d="M103.82,170.11c.76.02,1.35.65,1.33,1.41-.02.76-.65,1.35-1.41,1.33-.76-.02-1.35-.66-1.33-1.41.01-.37.16-.69.4-.93.26-.26.62-.41,1.01-.4Z"/>
        <path class="cls-11" d="M104.99,130.26c.38.01.73.17,1,.45.26.28.4.64.39,1.02,0,.01,0,.03,0,.04l1.11,12.48c-.08-.08-.17-.15-.26-.21-.4-.28-.88-.45-1.4-.46l-2.43-.07c-.64-.02-1.24.2-1.7.58l1.83-12.4s0-.03,0-.04c.01-.43.22-.81.52-1.07.26-.21.59-.33.95-.32Z"/>
        <path class="cls-13" d="M106.84,144.58c.39.27.68.68.79,1.17v.13s-.58-.02-.58-.02c-.02-.01-.03-.02-.05-.04l-.08-.06s-.07-.05-.1-.07c-.03-.02-.06-.04-.09-.05l-.11-.06s-.06-.03-.09-.05c-.04-.02-.08-.04-.11-.05-.03-.01-.06-.03-.09-.04-.04-.02-.08-.03-.12-.04-.03,0-.06-.02-.09-.03-.04-.01-.09-.02-.13-.03-.03,0-.06-.01-.09-.02-.05,0-.1-.02-.15-.03-.03,0-.05,0-.07-.01-.08,0-.15-.02-.23-.02l-1.83-.05c-.08,0-.15,0-.23,0-.02,0-.05,0-.07,0-.05,0-.1,0-.15.02-.03,0-.06.01-.09.02-.05,0-.09.02-.13.03-.03,0-.06.02-.09.03-.04.01-.08.02-.13.04l-.09.03s-.08.03-.12.05c-.03.01-.06.03-.09.04-.04.02-.08.04-.12.06-.03.02-.05.03-.08.05-.04.02-.08.05-.11.07-.03.02-.05.04-.08.05-.02.01-.03.02-.05.03l-.53-.02.02-.13c.24-.85,1.02-1.42,1.9-1.4l2.43.07c.38.01.73.13,1.03.33Z"/>
        <path class="cls-11" d="M106.69,146.44c.4.37.62.87.63,1.42l.15,14.07c-.4-.42-.94-.69-1.53-.7l-3.73-.11c-.56-.02-1.08.19-1.49.55l.83-13.02v-.03s.06-.91.06-.91c.03-.54.29-1.03.71-1.38.36-.3.82-.46,1.29-.44l1.83.05c.06,0,.12,0,.18.01.35.04.68.18.95.39.02.02.05.03.07.05.02.02.04.04.07.06Z"/>
        <path class="cls-13" d="M101.18,164.11s-.07.04-.1.06c-.04.02-.08.05-.12.07l-.09.07s-.07.05-.11.08c-.03.02-.06.05-.09.08-.01,0-.02.02-.03.03-.03.02-.05.04-.07.06-.01,0-.02.02-.03.02l-.03.03.03-1.16c0-.15.03-.28.07-.41v-.02s0,0,.01-.01c.21-.67.85-1.12,1.56-1.1l3.74.11c.72.02,1.33.52,1.5,1.23.03.13.05.26.05.41l-.03,1.16-.04-.04s-.06-.07-.1-.1c-.03-.03-.05-.05-.08-.08-.03-.03-.07-.06-.11-.09-.03-.02-.06-.05-.09-.07-.04-.03-.08-.05-.12-.08-.03-.02-.06-.04-.1-.06-.04-.03-.08-.05-.13-.07-.03-.02-.06-.04-.1-.05-.04-.02-.09-.04-.14-.06-.03-.01-.07-.03-.1-.04-.05-.02-.1-.03-.15-.05-.03-.01-.07-.02-.1-.03-.06-.01-.12-.02-.17-.03-.03,0-.06-.01-.09-.02-.09-.01-.18-.02-.27-.02l-3.14-.09c-.09,0-.18,0-.27,0-.03,0-.06,0-.09,0-.06,0-.11.01-.17.02-.04,0-.07.02-.1.02-.05.01-.1.02-.15.03-.04.01-.07.03-.11.04-.05.01-.09.03-.13.05-.03.01-.07.03-.1.05-.04.02-.08.04-.12.06Z"/>
        <path class="cls-11" d="M104.71,228.45c.39.37.7.84.89,1.34.04.1.11.16.2.19.02.12.03.24.02.37l-.18,6.2c-.03.94-.82,1.69-1.76,1.66l-4.03-.12c-.46-.01-.88-.2-1.2-.53-.31-.33-.48-.77-.47-1.23l.18-6.2c0-.12.02-.24.05-.36.09-.03.17-.09.21-.18.21-.5.55-.94.96-1.29.65-.54,1.48-.83,2.32-.8l.53.02c.84.02,1.65.35,2.27.93Z"/>
        <path class="cls-13" d="M104.85,226.44c.36.45.6.98.7,1.54,0,.05.01.11.02.16-.13-.14-.28-.26-.43-.38-.73-.56-1.69-.88-2.68-.91l-.53-.02c-.99-.03-1.96.24-2.73.75-.16.11-.31.23-.45.36.32-1.66,1.79-2.86,3.5-2.81.92.03,1.78.41,2.42,1.08.06.07.13.14.19.22Z"/>
        <path class="cls-13" d="M102.44,218.38c.76.02,1.35.65,1.33,1.41-.02.76-.66,1.35-1.41,1.33-.37-.01-.71-.16-.96-.43-.25-.27-.38-.62-.37-.98,0-.35.15-.68.4-.93l.03-.03c.27-.25.62-.38.98-.37Z"/>
        <path class="cls-11" d="M99.23,225.69s-.06.07-.09.1c-.05.05-.1.11-.15.16-.04.04-.07.09-.1.13-.04.05-.08.1-.12.16,0,0,0,0,0,.01l.24-8.42c0-.23.04-.47.09-.7.38-1.59,1.84-2.71,3.47-2.66.93.03,1.78.41,2.42,1.08.47.49.78,1.1.89,1.77.04.24.06.47.05.71h0s-.24,8.42-.24,8.42c-.01-.02-.03-.04-.04-.06-.05-.08-.1-.15-.16-.23-.03-.03-.05-.06-.07-.1-.08-.1-.16-.21-.26-.3-.76-.8-1.78-1.26-2.88-1.29-.14,0-.28,0-.41,0-.04,0-.09.01-.13.02-.09,0-.18.02-.27.04-.05,0-.1.02-.15.03-.08.02-.16.04-.24.06-.05.01-.1.03-.16.05-.07.02-.15.05-.22.08-.05.02-.1.04-.15.06-.07.03-.14.06-.21.1-.05.02-.09.05-.14.07-.07.04-.14.08-.21.13-.04.03-.08.05-.13.08-.08.05-.15.11-.22.17-.03.02-.06.04-.09.07-.1.08-.2.17-.29.26h0ZM104.43,219.81c.03-1.12-.86-2.06-1.98-2.09-.54-.02-1.06.18-1.46.55-.39.38-.62.88-.64,1.42-.02.54.18,1.06.55,1.45.37.4.88.62,1.42.64.58.02,1.11-.21,1.5-.6.36-.36.58-.84.6-1.38Z"/>
        <path class="cls-13" d="M102.74,207.65c.37,0,.71.16.96.43s.38.62.37.98c0,.37-.16.71-.43.96s-.61.38-.98.37c-.37-.01-.71-.16-.96-.43-.25-.27-.38-.62-.37-.98,0-.35.15-.68.4-.93l.03-.03c.27-.25.61-.39.98-.37Z"/>
        <path class="cls-13" d="M103.04,197.47c.76.02,1.35.66,1.33,1.41-.02.76-.66,1.35-1.41,1.33-.37,0-.71-.16-.96-.43s-.38-.62-.37-.98c0-.35.15-.68.4-.93l.03-.03c.27-.25.62-.38.98-.37Z"/>
        <path class="cls-13" d="M103.33,187.3c.37,0,.71.16.96.43.25.27.38.62.37.98,0,.37-.16.71-.43.96-.27.25-.61.38-.98.37-.37-.01-.71-.16-.96-.43-.25-.27-.38-.62-.37-.98.01-.35.15-.68.4-.93,0,0,.02-.02.03-.03.26-.25.61-.38.98-.37Z"/>
        <path class="cls-13" d="M103.59,178.09c.76.02,1.35.66,1.33,1.41-.02.76-.65,1.36-1.41,1.33-.76-.02-1.35-.65-1.33-1.41.01-.36.16-.69.4-.93.26-.26.62-.41,1.01-.4Z"/>
        <path class="cls-11" d="M107.38,166.53l-1.41,49.27s-.02-.03-.03-.04c-.06-.09-.12-.18-.18-.27-.02-.03-.04-.05-.06-.08-.08-.1-.16-.2-.25-.29-.75-.8-1.78-1.26-2.88-1.29-.13,0-.27,0-.4,0-.04,0-.09,0-.13.01-.09,0-.18.02-.27.03-.05,0-.1.02-.15.03-.08.02-.16.04-.24.06-.05.01-.1.03-.14.04-.08.03-.16.05-.24.08-.04.02-.09.03-.13.05-.1.04-.2.09-.3.14-.02.01-.04.02-.06.03-.11.06-.21.12-.31.19-.04.03-.08.06-.12.08-.06.05-.13.09-.19.14-.04.03-.09.07-.13.11-.05.05-.11.1-.16.15-.02.02-.05.04-.07.06-.02.02-.04.04-.06.06-.04.04-.07.08-.11.12-.04.05-.09.1-.13.15-.03.04-.06.08-.09.12-.03.04-.06.07-.08.11l1.41-49.27c.02-.54.25-1.01.62-1.35.35-.32.81-.5,1.32-.49l3.14.09c.72.02,1.33.44,1.63,1.04,0,.01,0,.02.01.03.02.05.04.09.06.14.02.04.03.08.04.11,0,.02.01.04.02.06.05.18.07.37.07.56ZM105.22,170.04c-.35-.35-.84-.58-1.38-.6-1.12-.03-2.06.86-2.09,1.98-.03,1.12.85,2.06,1.98,2.1.58.02,1.12-.22,1.5-.6.35-.35.58-.84.6-1.38.02-.58-.21-1.12-.6-1.5ZM104.99,178.02c-.35-.35-.84-.58-1.38-.6-1.12-.03-2.06.86-2.1,1.98-.03,1.12.86,2.06,1.98,2.09.58.02,1.12-.21,1.5-.6.36-.36.58-.84.6-1.38.02-.58-.21-1.11-.6-1.5ZM104.77,187.27c-.37-.39-.88-.62-1.42-.64-.54-.02-1.06.18-1.46.56-.39.37-.62.88-.64,1.42-.01.54.18,1.06.56,1.46s.88.62,1.42.64c.54.02,1.06-.18,1.46-.55l.04-.04c.37-.37.58-.86.59-1.38.02-.54-.18-1.06-.55-1.46ZM105.03,198.9c.03-1.12-.85-2.06-1.98-2.1-.55-.02-1.06.18-1.46.55-.4.38-.62.88-.64,1.42-.02.54.18,1.06.55,1.46.37.39.88.62,1.42.64.58.02,1.11-.21,1.5-.6.35-.35.58-.84.6-1.38ZM104.19,207.62c-.37-.4-.88-.62-1.42-.64-.54-.02-1.06.18-1.46.55-.39.37-.62.88-.64,1.42-.01.54.18,1.06.56,1.46.37.4.88.62,1.42.64.55.02,1.06-.18,1.46-.55l.04-.04c.37-.37.58-.86.6-1.38.02-.55-.18-1.06-.55-1.46Z"/>
        <g>
          <path class="cls-16" d="M105.01,129.6c-.53-.02-1.02.17-1.39.48-.45.37-.73.91-.76,1.53l-2.04,13.85c-.04.17-.07.35-.08.52h0s0,0,0,0c0,.01,0,.02,0,.04v.03s.14,2.55.14,2.55l-.91,14.29c-.05.17-.08.35-.09.54l-.08,2.87h0s-1.45,50.74-1.45,50.74c0,.06.02.12.05.16-.04.21-.06.41-.07.6l-.29,10.19s0,.07.02.11c-.01.12-.03.25-.03.37v.45c-.2.38-.3.78-.31,1.19l-.18,6.2c-.02.63.21,1.24.65,1.7.44.46,1.03.73,1.66.74l4.03.12c.68.02,1.3-.25,1.75-.7.41-.41.68-.98.7-1.61l.18-6.2c.01-.41-.07-.82-.23-1.21v-.45c.01-.12.01-.25,0-.37,0-.03.02-.06.02-.1l.29-10.19c0-.2,0-.4-.03-.61.03-.05.05-.1.05-.16l1.45-50.74.08-2.88c0-.13,0-.25-.02-.37.02-.05.04-.1.04-.15l-.15-14.35.34-2.52s0,0,0,0h0s0-.02,0-.03,0-.02,0-.04c0,0,0,0,0,0,0-.18-.01-.36-.05-.54l-1.24-13.93c.01-.55-.19-1.08-.57-1.48-.39-.41-.91-.64-1.46-.66ZM105.6,229.79c.04.1.11.16.2.19.02.12.03.24.02.37l-.18,6.2c-.03.94-.82,1.69-1.76,1.66l-4.03-.12c-.46-.01-.88-.2-1.2-.53-.31-.33-.48-.77-.47-1.23l.18-6.2c0-.12.02-.24.05-.36.09-.03.17-.09.21-.18.21-.5.55-.94.96-1.29.65-.54,1.48-.83,2.32-.8l.53.02c.84.02,1.65.35,2.27.93.39.37.7.84.89,1.34ZM104.85,226.44c.36.45.6.98.7,1.54,0,.05.01.11.02.16-.13-.14-.28-.26-.43-.38-.73-.56-1.69-.88-2.68-.91l-.53-.02c-.99-.03-1.96.24-2.73.75-.16.11-.31.23-.45.36.32-1.66,1.79-2.86,3.5-2.81.92.03,1.78.41,2.42,1.08.06.07.13.14.19.22ZM105.86,217.33c.04.24.06.47.05.71h0s-.24,8.42-.24,8.42c-.01-.02-.03-.04-.04-.06-.05-.08-.1-.15-.16-.23-.03-.03-.05-.06-.07-.1-.08-.1-.16-.21-.26-.3-.76-.8-1.78-1.26-2.88-1.29-.14,0-.28,0-.41,0-.04,0-.09.01-.13.02-.09,0-.18.02-.27.04-.05,0-.1.02-.15.03-.08.02-.16.04-.24.06-.05.01-.1.03-.16.05-.07.02-.15.05-.22.08-.05.02-.1.04-.15.06-.07.03-.14.06-.21.1-.05.02-.09.05-.14.07-.07.04-.14.08-.21.13-.04.03-.08.05-.13.08-.08.05-.15.11-.22.17-.03.02-.06.04-.09.07-.1.08-.2.17-.29.26h0s-.06.07-.09.11c-.05.05-.1.11-.15.16-.04.04-.07.09-.1.13-.04.05-.08.1-.12.16,0,0,0,0,0,.01l.24-8.42c0-.23.04-.47.09-.7.38-1.59,1.84-2.71,3.47-2.66.93.03,1.78.41,2.42,1.08.47.49.78,1.1.89,1.77ZM107.18,165.62s0,.02.01.03c.02.05.04.09.06.14.02.04.03.08.04.11,0,.02.01.04.02.06.05.18.07.37.07.56l-1.41,49.27s-.02-.03-.03-.04c-.06-.09-.12-.18-.18-.27-.02-.03-.04-.05-.06-.08-.08-.1-.16-.2-.25-.29-.75-.8-1.78-1.26-2.88-1.29-.13,0-.27,0-.4,0-.04,0-.09,0-.13.01-.09,0-.18.02-.27.03-.05,0-.1.02-.15.03-.08.02-.16.04-.24.06-.05.01-.1.03-.14.04-.08.03-.16.05-.24.08-.04.02-.09.03-.13.05-.1.04-.2.09-.3.14-.02.01-.04.02-.06.03-.11.06-.21.12-.31.19-.04.03-.08.06-.12.08-.06.05-.13.09-.19.14-.04.03-.09.07-.13.11-.05.05-.11.1-.16.15-.02.02-.05.04-.07.06-.02.02-.04.04-.06.06-.04.04-.07.08-.11.12-.04.05-.09.1-.13.15-.03.04-.06.08-.09.12-.03.04-.06.07-.08.11l1.41-49.27c.02-.54.25-1.01.62-1.35.35-.32.81-.5,1.32-.49l3.14.09c.72.02,1.33.44,1.63,1.04ZM107.42,163.24c.03.13.05.26.05.41l-.03,1.16-.04-.04s-.06-.07-.1-.1c-.03-.03-.05-.05-.08-.08-.03-.03-.07-.06-.11-.09-.03-.02-.06-.05-.09-.07-.04-.03-.08-.05-.12-.08-.03-.02-.06-.04-.1-.06-.04-.03-.08-.05-.13-.07-.03-.02-.06-.04-.1-.05-.04-.02-.09-.04-.14-.06-.03-.01-.07-.03-.1-.04-.05-.02-.1-.03-.15-.05-.03-.01-.07-.02-.1-.03-.06-.01-.12-.02-.17-.03-.03,0-.06-.01-.09-.02-.09-.01-.18-.02-.27-.02l-3.14-.09c-.09,0-.18,0-.27,0-.03,0-.06,0-.09,0-.06,0-.11.01-.17.02-.04,0-.07.02-.1.02-.05.01-.1.02-.15.03-.04.01-.07.03-.11.04-.05.01-.09.03-.13.05-.03.01-.07.03-.1.05-.04.02-.08.04-.12.06-.03.02-.07.04-.1.06-.04.02-.08.05-.12.07l-.09.07s-.07.05-.11.08c-.03.02-.06.05-.09.08-.01,0-.02.02-.03.03-.03.02-.05.04-.07.06-.01,0-.02.02-.03.02l-.03.03.03-1.16c0-.15.03-.28.07-.41v-.02s0,0,.01-.01c.21-.67.85-1.12,1.56-1.1l3.74.11c.72.02,1.33.52,1.5,1.23ZM107.32,147.86l.15,14.07c-.4-.42-.94-.69-1.53-.7l-3.73-.11c-.56-.02-1.08.19-1.49.55l.83-13.02v-.03s.06-.91.06-.91c.03-.54.29-1.03.71-1.38.36-.3.82-.46,1.29-.44l1.83.05c.06,0,.12,0,.18.01.35.04.68.18.95.39.02.02.05.03.07.05.02.02.04.04.07.06.4.37.62.87.63,1.42ZM107.63,145.75v.13s-.58-.02-.58-.02c-.02-.01-.03-.02-.05-.04l-.08-.06s-.07-.05-.1-.07c-.03-.02-.06-.04-.09-.05l-.11-.06s-.06-.03-.09-.05c-.04-.02-.08-.04-.11-.05-.03-.01-.06-.03-.09-.04-.04-.02-.08-.03-.12-.04-.03,0-.06-.02-.09-.03-.04-.01-.09-.02-.13-.03-.03,0-.06-.01-.09-.02-.05,0-.1-.02-.15-.03-.03,0-.05,0-.07-.01-.08,0-.15-.02-.23-.02l-1.83-.05c-.08,0-.15,0-.23,0-.02,0-.05,0-.07,0-.05,0-.1,0-.15.02-.03,0-.06.01-.09.02-.05,0-.09.02-.13.03-.03,0-.06.02-.09.03-.04.01-.08.02-.13.04l-.09.03s-.08.03-.12.05c-.03.01-.06.03-.09.04-.04.02-.08.04-.12.06-.03.02-.05.03-.08.05-.04.02-.08.05-.11.07-.03.02-.05.04-.08.05-.02.01-.03.02-.05.03l-.53-.02.02-.13c.24-.85,1.02-1.42,1.9-1.4l2.43.07c.38.01.73.13,1.03.33.39.27.68.68.79,1.17ZM106.38,131.74s0,.03,0,.04l1.11,12.48c-.08-.08-.17-.15-.26-.21-.4-.28-.88-.45-1.4-.46l-2.43-.07c-.64-.02-1.24.2-1.7.58l1.83-12.4s0-.03,0-.04c.01-.43.22-.81.52-1.07.26-.21.59-.33.95-.32.38.01.73.17,1,.45.26.28.4.64.39,1.02Z"/>
          <path class="cls-16" d="M101.74,171.42c-.03,1.12.85,2.06,1.98,2.1.58.02,1.12-.22,1.5-.6.35-.35.58-.84.6-1.38.02-.58-.21-1.12-.6-1.5-.35-.35-.84-.58-1.38-.6-1.12-.03-2.06.86-2.09,1.98ZM105.15,171.52c-.02.76-.65,1.35-1.41,1.33-.76-.02-1.35-.66-1.33-1.41.01-.37.16-.69.4-.93.26-.26.62-.41,1.01-.4.76.02,1.35.65,1.33,1.41Z"/>
          <path class="cls-16" d="M101.51,179.4c-.03,1.12.86,2.06,1.98,2.09.58.02,1.12-.21,1.5-.6.36-.36.58-.84.6-1.38.02-.58-.21-1.11-.6-1.5-.35-.35-.84-.58-1.38-.6-1.12-.03-2.06.86-2.1,1.98ZM104.92,179.5c-.02.76-.65,1.36-1.41,1.33-.76-.02-1.35-.65-1.33-1.41.01-.36.16-.69.4-.93.26-.26.62-.41,1.01-.4.76.02,1.35.66,1.33,1.41Z"/>
          <path class="cls-16" d="M101.89,187.19c-.39.37-.62.88-.64,1.42-.01.54.18,1.06.56,1.46s.88.62,1.42.64c.54.02,1.06-.18,1.46-.55l.04-.04c.37-.37.58-.86.59-1.38.02-.54-.18-1.06-.55-1.46-.37-.39-.88-.62-1.42-.64-.54-.02-1.06.18-1.46.56ZM104.66,188.71c0,.37-.16.71-.43.96-.27.25-.61.38-.98.37-.37-.01-.71-.16-.96-.43-.25-.27-.38-.62-.37-.98.01-.35.15-.68.4-.93,0,0,.02-.02.03-.03.26-.25.61-.38.98-.37s.71.16.96.43c.25.27.38.62.37.98Z"/>
          <path class="cls-16" d="M101.6,197.36c-.4.38-.62.88-.64,1.42-.02.54.18,1.06.55,1.46.37.39.88.62,1.42.64.58.02,1.11-.21,1.5-.6.35-.35.58-.84.6-1.38.03-1.12-.85-2.06-1.98-2.1-.55-.02-1.06.18-1.46.55ZM104.37,198.88c-.02.76-.66,1.35-1.41,1.33-.37,0-.71-.16-.96-.43s-.38-.62-.37-.98c0-.35.15-.68.4-.93l.03-.03c.27-.25.62-.38.98-.37.76.02,1.35.66,1.33,1.41Z"/>
          <path class="cls-16" d="M101.31,207.54c-.39.37-.62.88-.64,1.42-.01.54.18,1.06.56,1.46.37.4.88.62,1.42.64.55.02,1.06-.18,1.46-.55l.04-.04c.37-.37.58-.86.6-1.38.02-.55-.18-1.06-.55-1.46-.37-.4-.88-.62-1.42-.64-.54-.02-1.06.18-1.46.55ZM104.07,209.06c0,.37-.16.71-.43.96-.27.25-.61.38-.98.37-.37-.01-.71-.16-.96-.43-.25-.27-.38-.62-.37-.98,0-.35.15-.68.4-.93l.03-.03c.27-.25.61-.39.98-.37.37,0,.71.16.96.43.25.27.38.62.37.98Z"/>
          <path class="cls-16" d="M101,218.27c-.39.38-.62.88-.64,1.42-.02.54.18,1.06.55,1.45.37.4.88.62,1.42.64.58.02,1.11-.21,1.5-.6.36-.36.58-.84.6-1.38.03-1.12-.86-2.06-1.98-2.09-.54-.02-1.06.18-1.46.55ZM103.77,219.79c-.02.76-.65,1.35-1.41,1.33-.37-.01-.71-.16-.96-.43-.25-.27-.38-.62-.37-.98,0-.35.15-.68.4-.93l.03-.03c.27-.25.62-.38.98-.37.76.02,1.35.65,1.33,1.41Z"/>
        </g>
      </g>
      <path class="cls-20" d="M117.67,179.26s-2.12-2.78-6.43-4.87c-4.78-2.32-7.85-2.09-9.99-1.69-2.7.5-4.38,1.85-3.53,2.57.82.69,6.03-1.09,7.44-.01-2.5.29-7.98,1.43-7.31,3.01.36.86,2.5.02,4.35-.22,1.85-.24,3.33.39,3.33.39,0,0-7.37,1.05-6.62,3.03.31.83,2.44.06,3.78-.06,2.32-.2,3.63.09,3.63.09,0,0-5.81,1.14-5.04,2.86.43.97,3.93-1.01,5.85-1.04.99-.01,5.02-.23,9.8,1.75,0,0,5.67,6.27,16.05,12.1,6.82,3.83,9.24-3.37,2.2-8.58-6.9-5.1-17.5-9.33-17.5-9.33Z"/>
      <path class="cls-20" d="M87.91,196.57c2.87.96,6.85.38,7.85.39,1.92.02,5.42,2,5.85,1.03.77-1.72-5.04-2.86-5.04-2.86,0,0,1.31-.29,3.63-.09,1.34.12,3.46.88,3.78.06.76-1.98-6.62-3.03-6.62-3.03,0,0,1.48-.63,3.33-.39,1.85.25,3.98,1.08,4.34.22.67-1.58-4.81-2.72-7.31-3.01,1.4-1.07,6.61.7,7.44,0,.86-.71-.83-2.07-3.53-2.56-2.14-.4-5.21-.63-9.99,1.69-4.31,2.09-5.42,3.17-7.44,3.16-4.42-.04-12.09-2.15-17-.36-4.91,1.8-4.57,6.1.72,7.66,3.23.96,11.77-.23,19.99-1.92Z"/>
    </g>
  </g>
</svg>